<svg width="386" height="256" viewBox="0 0 386 256" fill="none" xmlns="http://www.w3.org/2000/svg">
<rect width="385.048" height="255.086" rx="9.44763" fill="#CDCDCD"/>
<path d="M79 56.5334C79 54.925 80.3039 53.6211 81.9124 53.6211H297.733C302.704 53.6211 306.733 57.6505 306.733 62.6211V194.721C306.733 198.587 303.599 201.721 299.733 201.721H88C83.0294 201.721 79 197.691 79 192.721V56.5334Z" fill="black" stroke="black" stroke-linecap="round"/>
<path d="M79 55.9124C79 54.3039 80.3039 53 81.9124 53H298.767C300.375 53 301.679 54.3039 301.679 55.9124V188.624C301.679 192.49 298.545 195.624 294.679 195.624H86C82.134 195.624 79 192.49 79 188.624V55.9124Z" fill="#D9D9D9" stroke="black" stroke-linecap="round"/>
<rect x="130.768" y="132.457" width="119.145" height="26.7835" rx="3.5" fill="white" stroke="black"/>
<path d="M162.972 89.3838H208.447C209.554 89.384 210.451 90.2818 210.451 91.3887V106.486C210.451 107.247 209.834 107.865 209.073 107.865H164.225C163.118 107.865 162.22 106.967 162.22 105.86V90.1357C162.22 89.7205 162.556 89.3839 162.972 89.3838Z" fill="black" stroke="black"/>
<rect x="162.22" y="89.3838" width="46.3014" height="16.5932" rx="0.752199" fill="white" stroke="black"/>
<path d="M168.12 97.1611C168.12 96.6166 168.562 96.1752 169.106 96.1752H201.635C202.18 96.1752 202.621 96.6166 202.621 97.1611V98.2011C202.621 98.7456 202.18 99.187 201.635 99.187H169.106C168.561 99.187 168.12 98.7456 168.12 98.2011V97.1611Z" fill="#D9D9D9"/>
<path d="M206.573 114.8L204.033 102.097C203.876 101.315 204.653 100.674 205.391 100.974L216.819 105.63C217.487 105.902 217.656 106.77 217.14 107.273L214.618 109.73C214.236 110.102 214.213 110.709 214.566 111.108L219.416 116.602C219.775 117.008 219.745 117.626 219.348 117.996L218.095 119.164C217.671 119.559 217.001 119.512 216.636 119.062L212.077 113.436C211.725 113.001 211.084 112.94 210.656 113.3L208.198 115.369C207.616 115.858 206.723 115.545 206.573 114.8Z" fill="white" stroke="black" stroke-linecap="round" stroke-linejoin="round"/>
<circle cx="101.037" cy="73.2341" r="8.77409" fill="white" stroke="black"/>
<path fill-rule="evenodd" clip-rule="evenodd" d="M98.8238 72.3508C98.8238 71.9434 99.154 71.6131 99.5615 71.6131H101.037C101.444 71.6131 101.775 71.9434 101.775 72.3508V77.1458H103.065C103.473 77.1458 103.803 77.4761 103.803 77.8835C103.803 78.2909 103.473 78.6212 103.065 78.6212H99.0082C98.6008 78.6212 98.2705 78.2909 98.2705 77.8835C98.2705 77.4761 98.6008 77.1458 99.0082 77.1458H100.299V73.0885H99.5615C99.154 73.0885 98.8238 72.7583 98.8238 72.3508Z" stroke="black"/>
<path d="M100.852 67.8467C100.615 67.8467 100.384 67.917 100.186 68.0487C99.9893 68.1804 99.8357 68.3676 99.7449 68.5867C99.6542 68.8057 99.6305 69.0468 99.6767 69.2793C99.723 69.5118 99.8371 69.7254 100.005 69.8931C100.172 70.0607 100.386 70.1749 100.619 70.2211C100.851 70.2674 101.092 70.2436 101.311 70.1529C101.53 70.0622 101.717 69.9085 101.849 69.7114C101.981 69.5143 102.051 69.2825 102.051 69.0454C102.051 68.7275 101.925 68.4226 101.7 68.1978C101.475 67.973 101.17 67.8467 100.852 67.8467Z" stroke="black"/>
<rect x="152.652" y="141.161" width="70.7705" height="3.06503" rx="1.53251" fill="#DCDCDC"/>
<rect x="152.652" y="147.472" width="75.376" height="3.06503" rx="1.53251" fill="#DCDCDC"/>
<path d="M255.115 130.581L265.936 124.474M255.115 144.832H265.936" stroke="black" stroke-linecap="round" stroke-linejoin="round"/>
<path d="M125.065 130.581L114.244 124.474M125.065 144.832H114.244" stroke="black" stroke-linecap="round" stroke-linejoin="round"/>
<path d="M255.115 161.883L265.936 167.99" stroke="black" stroke-linecap="round" stroke-linejoin="round"/>
<path d="M125.065 161.883L114.244 167.99" stroke="black" stroke-linecap="round" stroke-linejoin="round"/>
</svg>
