<svg width="1020" height="300" viewBox="0 0 1020 300" fill="none" xmlns="http://www.w3.org/2000/svg">
<path d="M0 13.1625C0 5.89304 5.89306 0 13.1625 0H1006.44C1013.71 0 1019.6 5.89306 1019.6 13.1625V266.968C1019.6 274.238 1013.71 280.131 1006.44 280.131H13.1625C5.89309 280.131 0 274.238 0 266.968V13.1625Z" fill="white"/>
<path d="M646.853 87.3802C647.124 89.5446 645.839 90.5366 645.162 90.7621V94.144L643.471 109.362L648.206 88.0566C647.642 86.9293 646.583 85.2158 646.853 87.3802Z" fill="white"/>
<path d="M641.65 81.4016C640.677 85.021 636.672 86.8838 633.277 85.296L626.412 82.0853C622.233 80.1306 619.927 75.5771 620.825 71.0512L622.247 63.8729C622.998 60.0865 627.066 57.9719 630.596 59.5329L637.869 62.7494C642.392 64.7495 644.782 69.748 643.499 74.5243L641.65 81.4016Z" fill="white" stroke="black"/>
<circle cx="525.106" cy="188.499" r="76.0925" fill="white"/>
<path d="M477.737 140.299L477.737 18.0825C444.061 18.0825 411.765 31.4598 387.952 55.272C365.264 77.9607 352.048 108.352 350.852 140.299L477.737 140.299Z" fill="white"/>
<path d="M477.742 261.589L477.742 139.361C444.066 139.361 411.77 152.738 387.958 176.551C365.267 199.242 352.051 229.637 350.857 261.589L477.742 261.589Z" fill="white"/>
<path d="M413.755 26.9692C412.015 45.8067 463.725 64.3622 497.441 73.859C504.027 75.7143 507.993 82.4868 506.206 89.0925L487.428 158.522C485.738 164.771 479.458 168.644 473.162 167.139C431.096 157.082 403.768 142.603 393.866 130.871C390.886 127.34 390.808 122.48 391.888 117.988L413.755 26.9692Z" fill="white" stroke="black" stroke-linecap="round"/>
<path d="M617.431 262.562L332 262.562" stroke="black" stroke-linecap="round"/>
<path d="M485.054 149.094C459.031 143.178 413.151 130.199 399.87 111.485" stroke="black" stroke-linecap="round"/>
<path d="M632.588 64.2161C636.713 64.4225 640.005 68.366 639.818 73.1379C639.632 77.9074 636.052 81.4992 631.933 81.2932C627.807 81.0867 624.516 77.1424 624.702 72.3704C624.889 67.6011 628.469 64.0102 632.588 64.2161Z" fill="white" stroke="black"/>
<path d="M635.97 73.8298L635.013 76.7722C634.961 76.9314 634.86 77.0449 634.75 77.1023C634.643 77.1583 634.525 77.1626 634.417 77.1189L628.346 74.6628C628.235 74.618 628.128 74.518 628.065 74.3669C628.001 74.215 627.993 74.0367 628.045 73.8767L628.981 71.0017L635.97 73.8298ZM629.938 68.5437C630.045 68.4879 630.162 68.4825 630.27 68.5261L631.522 69.033H631.523C631.605 69.0661 631.687 69.1302 631.749 69.2253L632.096 69.7527L632.097 69.7537C632.173 69.8689 632.275 69.9682 632.396 70.0408L632.524 70.1042L636.15 71.571C636.261 71.6159 636.367 71.7159 636.431 71.8669C636.485 71.9969 636.496 72.1454 636.466 72.2859L629.483 69.4597L629.674 68.8738C629.726 68.7143 629.827 68.6012 629.938 68.5437Z" fill="white" stroke="black"/>
<path d="M580.095 159.948L559.951 214.484C558.767 217.688 555.714 219.815 552.298 219.815H526.146C523.376 219.815 521.412 217.113 522.266 214.479L539.893 160.098C540.984 156.735 544.117 154.456 547.653 154.456H576.269C579.108 154.456 581.079 157.285 580.095 159.948Z" fill="white" stroke="black" stroke-linecap="round"/>
<path d="M392.96 233.209C395.312 163.837 441.616 152.046 464.474 154.822C463.821 154.756 467.511 156.036 487.496 161.681C507.481 167.325 521.62 183.303 526.192 190.586L494.141 262.55H395.466L392.96 233.209Z" fill="white" stroke="black" stroke-linecap="round"/>
<path d="M571.133 274.67C548.55 291.545 520.032 260.32 508.595 242.814L519.453 214.832L549.419 205.361C581.035 250.132 577.069 270.222 571.133 274.67Z" fill="white" stroke="black" stroke-linecap="round"/>
<path d="M538.761 260.664L514.251 205.361" stroke="black" stroke-linecap="round"/>
<path d="M474.885 298.544C451.242 303.125 435.75 272.058 430.667 255.114L465.91 226.637L473.252 246.276C480.595 235.966 496.748 220.254 514.369 197.67C531.133 176.184 534.32 171.247 535.625 173.375L533.558 180.671C533.326 181.491 534.163 182.222 534.955 181.908C546.317 177.412 566.7 174.134 567.723 177.54C569.345 182.942 555.651 184.302 551.974 185.07C551.476 185.175 551.542 185.311 552.043 185.22L574.221 181.175C576.3 180.796 578.286 182.193 578.632 184.277C578.849 185.581 578.369 186.904 577.367 187.765L575.555 189.323H576.243C577.755 189.323 578.981 190.549 578.981 192.061C578.981 194.509 577.357 196.659 575.004 197.329L573.805 197.67L567.723 203.07C557.542 211.319 538.517 214.035 532.97 213.872C516.283 249.737 498.018 277.557 486.349 291.197C483.321 294.738 479.459 297.658 474.885 298.544Z" fill="white" stroke="black" stroke-linecap="round"/>
<path d="M574.147 189.79L573.981 189.319V189.319L574.147 189.79ZM567.902 191.323L567.972 191.818V191.818L567.902 191.323ZM561.56 191.724C561.287 191.763 561.097 192.016 561.136 192.289C561.175 192.563 561.428 192.753 561.702 192.714L561.631 192.219L561.56 191.724ZM576.849 188.837L576.683 188.365L573.981 189.319L574.147 189.79L574.313 190.262L577.016 189.308L576.849 188.837ZM567.902 191.323L567.831 190.828L561.56 191.724L561.631 192.219L561.702 192.714L567.972 191.818L567.902 191.323ZM574.147 189.79L573.981 189.319C571.985 190.023 569.925 190.529 567.831 190.828L567.902 191.323L567.972 191.818C570.132 191.509 572.256 190.988 574.313 190.262L574.147 189.79Z" fill="black"/>
<path d="M575.046 197.241L574.891 197.289C572.862 197.918 570.776 198.347 568.663 198.571L566.597 198.789" stroke="black" stroke-linecap="round"/>
<path d="M406.787 200.333L420.15 251.262C421.142 255.044 425.047 257.274 428.808 256.207M457.191 204.22L466.489 227.541" stroke="black" stroke-linecap="round"/>
<path d="M462.718 158.193L472.346 137.488C478.605 141.596 489.754 150.641 487.27 155.728C484.863 160.658 485.345 162.63 485.826 163.123C490.062 171.01 486.628 174.954 484.863 175.94C474.85 183.039 465.927 167.067 462.718 158.193Z" fill="white" stroke="black" stroke-linecap="round"/>
<path d="M466.156 133.331C463.169 124.768 468.023 120.195 472.224 122.627L473.628 120.526C481.957 108.06 499.99 107.258 509.393 118.935C511.292 121.294 512.159 124.329 511.723 127.325C509.495 142.66 506.519 152.697 498.363 157.657C487.16 164.468 480.159 159.603 475.024 146.953C469.89 134.304 470.229 145.007 466.156 133.331Z" fill="white"/>
<path d="M466.156 133.959C463.169 125.396 468.023 120.823 472.224 123.256L473.628 121.155C481.957 108.689 499.99 107.887 509.393 119.564C511.292 121.922 512.159 124.958 511.723 127.954C509.495 143.289 506.519 153.326 498.363 158.285C489.63 163.595 483.45 161.809 478.717 154.771" stroke="black" stroke-linecap="round"/>
<path d="M493.887 97.7364C474.079 94.0104 469.693 113.417 470.316 122.887C473.679 122.697 476.078 129.328 476.856 132.668C482.089 132.668 487.134 126.148 489.003 122.887C489.159 123.353 491.339 124.937 498.814 127.545C508.158 130.805 512.362 125.682 511.428 128.942C510.68 131.55 511.226 135.322 510.136 138.117C516.521 137.34 525.262 135.455 523.431 119.842C521.461 103.049 507.498 98.2504 504.228 100.579C501.611 102.442 496.379 98.0469 493.887 97.7364Z" fill="white" stroke="black" stroke-linecap="round"/>
<path d="M580.421 88.9661L583.035 77.7979L588.231 56.0438L590.768 44.7717C592.281 38.0466 599.088 33.8666 605.681 35.8796C647.868 48.7613 654.593 63.7639 652.268 70.0995L631.875 158.75C628.612 141.304 594.789 132.892 575.963 127.716C573.809 127.124 572.332 125.16 572.332 122.926" stroke="black" stroke-linecap="round"/>
<path d="M624.544 111.751L626.406 98.266C626.949 94.3348 630.242 91.3646 634.208 91.2291L647.869 90.7622L641.259 119.17L631.008 119.17C627.049 119.17 624.002 115.673 624.544 111.751Z" fill="white"/>
<path d="M640.41 96.0023C642.423 96.0913 644.251 96.8463 645.702 98.0482L642.083 114.184C641.287 114.377 640.453 114.465 639.596 114.427C634.609 114.207 630.747 109.904 630.972 104.816C631.197 99.728 635.423 95.7818 640.41 96.0023Z" fill="white"/>
<path d="M639.113 101.523L638.258 101.534L638.254 101.227C638.225 101.231 638.195 101.233 638.165 101.23L637.858 101.202C637.365 101.156 636.996 101.641 637.177 102.097L640.391 110.2C640.745 111.092 641.901 111.201 642.458 110.54L642.458 111.529C641.415 112.012 640.018 111.626 639.54 110.362L636.454 102.204C636.139 101.371 636.756 100.481 637.656 100.47L638.195 100.463C638.212 100.463 638.228 100.465 638.245 100.467L638.242 100.242L639.097 100.232L639.113 101.523Z" fill="white" stroke="#9BA0EB"/>
<path d="M652.626 68.3435C645.778 85.9801 590.936 79.9944 556.462 73.5607C549.735 72.3053 543.164 76.5979 541.816 83.3069L527.519 154.441C526.314 160.439 529.984 166.363 535.947 167.727C570.756 175.69 598.312 175.778 615.03 171.987C618.767 171.14 621.963 170.098 624.577 168.908C628.795 166.986 631.049 162.668 632.083 158.15L652.626 68.3435Z" stroke="black" stroke-linecap="round"/>
<path d="M652.626 68.3435C645.778 85.9801 590.936 79.9944 556.462 73.5607C549.735 72.3053 543.164 76.5979 541.816 83.3069L527.519 154.441C526.314 160.439 529.984 166.363 535.947 167.727C570.756 175.69 598.312 175.778 615.03 171.987C618.767 171.14 621.963 170.098 624.577 168.908C628.795 166.986 631.049 162.668 632.083 158.15L652.626 68.3435Z" stroke="black" stroke-opacity="0.2" stroke-linecap="round"/>
<path d="M640.758 118.906L630.905 118.906C627.249 118.906 624.435 115.677 624.935 112.056L626.797 98.5706C627.307 94.8804 630.399 92.0925 634.122 91.9651L647.129 91.5198L640.758 118.906Z" fill="white" stroke="black"/>
<mask id="path-30-inside-1_155_9645" fill="white">
<path d="M640.306 96.2386C642.319 96.3276 644.148 97.0826 645.599 98.2845L641.98 114.42C641.184 114.613 640.349 114.701 639.491 114.663C634.504 114.443 630.643 110.14 630.868 105.052C631.093 99.9645 635.319 96.0184 640.306 96.2386Z"/>
</mask>
<path d="M640.306 96.2386C642.319 96.3276 644.148 97.0826 645.599 98.2845L641.98 114.42C641.184 114.613 640.349 114.701 639.491 114.663C634.504 114.443 630.643 110.14 630.868 105.052C631.093 99.9645 635.319 96.0184 640.306 96.2386Z" fill="white"/>
<path d="M640.306 96.2386L640.35 95.2396L640.35 95.2396L640.306 96.2386ZM645.599 98.2845L646.575 98.5034L646.709 97.9053L646.237 97.5144L645.599 98.2845ZM641.98 114.42L642.215 115.392L642.819 115.246L642.955 114.639L641.98 114.42ZM639.491 114.663L639.447 115.662L639.447 115.662L639.491 114.663ZM630.868 105.052L629.869 105.008L629.869 105.008L630.868 105.052ZM640.306 96.2386L640.262 97.2377C642.047 97.3166 643.67 97.9855 644.961 99.0547L645.599 98.2845L646.237 97.5144C644.625 96.1796 642.59 95.3386 640.35 95.2396L640.306 96.2386ZM645.599 98.2845L644.623 98.0657L641.004 114.201L641.98 114.42L642.955 114.639L646.575 98.5034L645.599 98.2845ZM641.98 114.42L641.744 113.448C641.036 113.62 640.296 113.698 639.536 113.664L639.491 114.663L639.447 115.662C640.402 115.705 641.331 115.607 642.215 115.392L641.98 114.42ZM639.491 114.663L639.536 113.664C635.119 113.469 631.666 109.651 631.867 105.096L630.868 105.052L629.869 105.008C629.621 110.629 633.89 115.417 639.447 115.662L639.491 114.663ZM630.868 105.052L631.867 105.096C632.069 100.541 635.845 97.0426 640.262 97.2377L640.306 96.2386L640.35 95.2396C634.792 94.9942 630.118 99.3875 629.869 105.008L630.868 105.052Z" fill="black" mask="url(#path-30-inside-1_155_9645)"/>
<path d="M640.306 96.2386L640.35 95.2396L640.35 95.2396L640.306 96.2386ZM645.599 98.2845L646.575 98.5034L646.709 97.9053L646.237 97.5144L645.599 98.2845ZM641.98 114.42L642.215 115.392L642.819 115.246L642.955 114.639L641.98 114.42ZM639.491 114.663L639.447 115.662L639.447 115.662L639.491 114.663ZM630.868 105.052L629.869 105.008L629.869 105.008L630.868 105.052ZM640.306 96.2386L640.262 97.2377C642.047 97.3166 643.67 97.9855 644.961 99.0547L645.599 98.2845L646.237 97.5144C644.625 96.1796 642.59 95.3386 640.35 95.2396L640.306 96.2386ZM645.599 98.2845L644.623 98.0657L641.004 114.201L641.98 114.42L642.955 114.639L646.575 98.5034L645.599 98.2845ZM641.98 114.42L641.744 113.448C641.036 113.62 640.296 113.698 639.536 113.664L639.491 114.663L639.447 115.662C640.402 115.705 641.331 115.607 642.215 115.392L641.98 114.42ZM639.491 114.663L639.536 113.664C635.119 113.469 631.666 109.651 631.867 105.096L630.868 105.052L629.869 105.008C629.621 110.629 633.89 115.417 639.447 115.662L639.491 114.663ZM630.868 105.052L631.867 105.096C632.069 100.541 635.845 97.0426 640.262 97.2377L640.306 96.2386L640.35 95.2396C634.792 94.9942 630.118 99.3875 629.869 105.008L630.868 105.052Z" fill="black" fill-opacity="0.2" mask="url(#path-30-inside-1_155_9645)"/>
<path d="M640.245 101.403L637.713 101.403C637.219 101.358 636.851 101.842 637.032 102.298L640.245 110.401C640.599 111.293 641.756 111.402 642.312 110.741L642.312 111.73" stroke="black" stroke-linecap="round"/>
<path d="M462.523 103.36L479.822 33.0201C481.468 26.3263 477.241 19.5484 470.443 18.4085C426.94 11.1142 414.228 21.5407 413.482 28.2478L392.125 117C396.935 104.07 427.707 108.584 448.439 112.42C454.811 113.599 460.976 109.653 462.523 103.36Z" fill="white"/>
<path d="M479.822 33.0201L479.336 32.9007V32.9007L479.822 33.0201ZM462.523 103.36L463.009 103.48V103.48L462.523 103.36ZM448.439 112.42L448.53 111.929V111.929L448.439 112.42ZM392.125 117L392.594 117.174L391.639 116.883L392.125 117ZM413.482 28.2478L413.979 28.3031L413.975 28.3343L413.968 28.3648L413.482 28.2478ZM470.443 18.4085L470.36 18.9016V18.9016L470.443 18.4085ZM479.822 33.0201L480.307 33.1395L463.009 103.48L462.523 103.36L462.038 103.241L479.336 32.9007L479.822 33.0201ZM448.439 112.42L448.348 112.912C437.983 110.994 425.147 108.915 414.312 108.923C408.892 108.927 404.01 109.454 400.2 110.763C396.394 112.071 393.724 114.135 392.594 117.174L392.125 117L391.656 116.826C392.931 113.4 395.912 111.179 399.875 109.817C403.836 108.456 408.845 107.927 414.311 107.923C425.248 107.914 438.164 110.01 448.53 111.929L448.439 112.42ZM392.125 117L391.639 116.883L412.996 28.1309L413.482 28.2478L413.968 28.3648L392.611 117.117L392.125 117ZM413.482 28.2478L412.985 28.1925C413.391 24.5444 416.996 20.1551 425.789 17.5975C434.6 15.0347 448.738 14.2621 470.526 17.9153L470.443 18.4085L470.36 18.9016C448.645 15.2605 434.675 16.0541 426.068 18.5577C417.443 21.0666 414.319 25.2441 413.979 28.3031L413.482 28.2478ZM462.523 103.36L463.009 103.48C461.398 110.031 454.978 114.139 448.348 112.912L448.439 112.42L448.53 111.929C454.644 113.06 460.554 109.274 462.038 103.241L462.523 103.36ZM479.822 33.0201L479.336 32.9007C480.917 26.4748 476.857 19.9909 470.36 18.9016L470.443 18.4085L470.526 17.9153C477.625 19.1058 482.019 26.1778 480.307 33.1395L479.822 33.0201Z" fill="black"/>
<path d="M576.047 88.097C581.711 88.7591 585.634 93.9934 584.677 99.6131L582.67 111.409C581.782 116.625 576.987 120.3 571.715 119.804L553.131 118.057C549.686 117.733 547.25 114.59 547.799 111.177L550.423 94.8725C551.283 89.5277 556.238 85.7829 561.619 86.4115L576.047 88.097Z" fill="white" stroke="black"/>
<path d="M566.915 92.4469C572.998 92.7159 577.706 97.8188 577.44 103.835C577.174 109.851 572.034 114.518 565.951 114.249C559.868 113.98 555.16 108.878 555.426 102.862C555.692 96.8455 560.832 92.1779 566.915 92.4469Z" fill="white" stroke="black"/>
<path d="M419.458 41.5564C426.153 39.7821 444.7 36.9789 465.332 39.961" stroke="black" stroke-linecap="round"/>
<path d="M417.043 50.4112C423.738 48.6368 442.286 45.8337 462.918 48.8157" stroke="black" stroke-linecap="round"/>
<path d="M414.629 60.3824C421.323 58.608 439.871 55.8049 460.503 58.7869" stroke="black" stroke-linecap="round"/>
<path d="M406.512 93.8355C413.207 92.0612 431.754 89.258 452.386 92.24" stroke="black" stroke-linecap="round"/>
<path d="M545.607 128.809C552.371 130.374 596.92 137.261 630.122 133.035" stroke="black" stroke-linecap="round"/>
<path d="M542.588 137.261C550.143 138.843 593.071 146.231 630.122 142.09" stroke="black" stroke-linecap="round"/>
<path d="M421.249 32.4851C427.896 30.479 446.368 27.1677 467.085 29.972" stroke="black" stroke-linecap="round"/>
<path d="M480.461 86.4321C415.264 71.3401 366.667 84.6211 393.531 108.467" stroke="black" stroke-linecap="round"/>
<path d="M600.809 90.2488L615.184 91.2106C618.647 91.4423 621.199 94.5432 620.76 97.9857L618.842 112.995C618.353 116.823 615.091 119.689 611.232 119.683L594.447 119.654C590.831 119.648 588.035 116.481 588.477 112.892L590.185 99.0305C590.835 93.7482 595.498 89.8938 600.809 90.2488Z" fill="white" stroke="black"/>
<path d="M605.816 95.7247C611.057 95.9565 615.131 100.482 614.893 105.852C614.656 111.223 610.199 115.372 604.958 115.14C599.717 114.909 595.643 110.383 595.881 105.012C596.118 99.6411 600.576 95.4931 605.816 95.7247Z" fill="white" stroke="black"/>
<path d="M603.981 103.137L604.12 100.002C604.14 99.5515 604.521 99.2027 604.971 99.2226L606.191 99.2766C606.641 99.2965 606.99 99.6775 606.97 100.128L606.832 103.263C606.812 103.714 607.16 104.095 607.611 104.114L609.94 104.217C610.39 104.237 610.739 104.618 610.719 105.068L610.659 106.427C610.639 106.877 610.258 107.226 609.808 107.206L607.478 107.103C607.028 107.083 606.647 107.432 606.627 107.882L606.496 110.856C606.476 111.307 606.095 111.655 605.645 111.635L604.424 111.581C603.974 111.561 603.625 111.18 603.645 110.73L603.777 107.756C603.797 107.306 603.448 106.925 602.998 106.905L600.827 106.809C600.377 106.789 600.028 106.408 600.048 105.958L600.108 104.599C600.128 104.149 600.509 103.8 600.959 103.82L603.13 103.916C603.58 103.936 603.961 103.588 603.981 103.137Z" fill="white" stroke="black"/>
<circle cx="549.117" cy="166.517" r="2.70551" fill="white"/>
<path d="M440.66 65.6412C440.857 66.9652 441.961 68.2767 443.421 69.457C443.287 74.2768 440.936 75.2603 437.647 70.8865C437.087 71.8291 435.787 73.1808 435.062 71.0461C434.155 68.3778 433.752 73.8514 432.476 71.2058C431.905 70.0199 430.047 68.5224 428.617 67.4138C429.75 67.315 429.995 67.0191 428.472 66.3939C425.743 65.2743 426.856 66.0495 428.617 67.4138C430.047 68.5224 431.905 70.0199 432.476 71.2058C433.752 73.8514 434.155 68.3778 435.062 71.0461C435.787 73.1808 437.087 71.8291 437.647 70.8865C440.936 75.2603 443.287 74.2768 443.421 69.457C443.436 68.9491 443.425 68.3987 443.389 67.8075C443.006 61.6049 440.027 61.3997 440.66 65.6412Z" fill="white"/>
<path d="M450.789 73.5767C447.624 72.3454 441.166 69.0344 440.66 65.6412C440.027 61.3997 443.006 61.6049 443.389 67.8075C443.772 74.0101 441.282 75.7211 437.647 70.8865C437.087 71.8291 435.787 73.1808 435.062 71.0461C434.155 68.3778 433.752 73.8514 432.476 71.2058C431.201 68.5602 423.527 64.3645 428.472 66.3939C432.428 68.0175 424.457 67.4202 419.977 66.9186" stroke="black" stroke-linecap="round"/>
<path d="M615.109 69.2038C613.961 72.4038 610.396 74.0221 607.232 72.7792L602.604 70.9617C598.147 69.2109 595.55 64.5538 596.403 59.8421L597.972 51.1715C598.666 47.3321 602.771 45.1547 606.339 46.7324L612.329 49.3806C617.139 51.5071 619.488 56.9872 617.713 61.9374L615.109 69.2038Z" fill="white" stroke="black"/>
<path d="M606.947 52.0325C610.532 52.0325 613.549 55.3775 613.55 59.6487C613.55 63.92 610.533 67.2659 606.947 67.2659C603.362 67.2656 600.345 63.9198 600.345 59.6487C600.346 55.3777 603.362 52.0327 606.947 52.0325Z" fill="white" stroke="black"/>
<rect x="608.791" y="53.7346" width="3.71404" height="10.1958" rx="1.85702" transform="rotate(38.5354 608.791 53.7346)" fill="white" stroke="black"/>
<path d="M610.243 54.8918C611.045 55.5308 611.177 56.6991 610.538 57.5012L608.648 59.8754L605.742 57.5617L607.633 55.1875C608.272 54.3853 609.441 54.2528 610.243 54.8918Z" fill="white" stroke="black"/>
<path d="M565.821 106.355V106.356C565.87 106.532 565.968 106.694 566.109 106.818C566.251 106.942 566.429 107.021 566.621 107.039V107.04C566.647 107.042 566.675 107.044 566.703 107.044C566.882 107.044 567.054 106.989 567.2 106.891C567.345 106.794 567.458 106.658 567.529 106.504L567.951 105.588L567.958 105.602C568.029 105.757 568.141 105.893 568.287 105.99C568.433 106.088 568.605 106.141 568.784 106.141H570.13C569.658 106.752 568.797 107.727 566.875 109.14L566.873 109.142C566.819 109.182 566.759 109.201 566.703 109.201C566.646 109.201 566.587 109.182 566.533 109.142L566.531 109.14C564.524 107.664 563.673 106.667 563.216 106.063C563.009 105.79 562.826 105.515 562.666 105.24H564.209C564.386 105.239 564.557 105.184 564.702 105.087C564.846 104.99 564.958 104.855 565.029 104.701L565.237 104.249L565.821 106.355ZM569.224 99.3787C570.48 99.3789 571.599 100.532 571.613 102.057V102.058C571.621 102.809 571.488 103.551 571.224 104.24H569.361L568.779 102.976L568.718 102.864C568.672 102.792 568.617 102.725 568.552 102.668L568.449 102.589L568.336 102.523C568.257 102.485 568.172 102.459 568.085 102.446L567.953 102.436C567.819 102.436 567.688 102.467 567.57 102.523L567.456 102.589C567.311 102.686 567.198 102.821 567.127 102.975L566.918 103.427L566.335 101.321L566.289 101.192C566.252 101.108 566.205 101.029 566.145 100.959L566.048 100.859L565.935 100.774C565.856 100.724 565.769 100.686 565.677 100.662L565.537 100.636L565.393 100.635C565.251 100.644 565.113 100.688 564.991 100.762C564.829 100.861 564.705 101.006 564.628 101.173L563.628 103.339H561.919C561.831 102.919 561.787 102.49 561.792 102.058V102.057C561.806 100.532 562.926 99.3788 564.181 99.3787C565.191 99.3787 565.892 100.05 566.298 100.609L566.702 101.167L567.107 100.61C567.515 100.05 568.215 99.3787 569.224 99.3787Z" fill="white" stroke="black"/>
</svg>
