<svg width="1648" height="781" viewBox="0 0 1648 781" fill="none" xmlns="http://www.w3.org/2000/svg">
<g clip-path="url(#clip0_1517_286086)">
<rect x="1648" y="845" width="1879" height="945" transform="rotate(-180 1648 845)" fill="#1E2143"/>
<g opacity="0.5" filter="url(#filter0_f_1517_286086)">
<path fill-rule="evenodd" clip-rule="evenodd" d="M1196.45 365.558C1188.21 312.168 1202.23 254.749 1235.75 212.43C1268.61 170.928 1321.94 153.384 1373.56 141.92C1421.12 131.357 1468.32 139.67 1515.89 150.211C1568.93 161.964 1627.14 167.044 1664.64 206.422C1704.39 248.161 1727.18 308.194 1720.99 365.558C1715.05 420.645 1668.92 459.557 1632.8 501.515C1599.99 539.646 1569.64 583.827 1521.3 597.589C1473.73 611.134 1423.59 594.294 1378.51 573.92C1337.36 555.326 1307.98 521.774 1278.24 487.745C1245.2 449.921 1204.12 415.242 1196.45 365.558Z" fill="#072946"/>
</g>
<g opacity="0.7" filter="url(#filter1_f_1517_286086)">
<path fill-rule="evenodd" clip-rule="evenodd" d="M917.914 620.256C913.377 551.745 895.818 473.376 939.582 420.487C983.1 367.894 1063.8 375.681 1130.84 362.933C1188.3 352.007 1247.63 329.19 1301.64 351.642C1354.15 373.466 1370.86 436.662 1409.22 478.646C1454.78 528.501 1543.24 552.817 1547.1 620.256C1550.92 687.047 1475.47 729.013 1426.12 774.148C1386.34 810.521 1338.2 829.568 1290.59 854.823C1230.06 886.926 1177.57 952.88 1109.97 941.85C1041.93 930.752 1000.18 860.881 964.823 801.679C931.996 746.711 922.144 684.148 917.914 620.256Z" fill="#1B3A56"/>
</g>
<g opacity="0.5" filter="url(#filter2_f_1517_286086)">
<path fill-rule="evenodd" clip-rule="evenodd" d="M429.444 471.928C416.094 539.278 412.771 619.522 356.81 659.282C301.162 698.82 225.233 670.412 157.174 665.374C98.8424 661.056 35.6302 667.739 -10.7327 632.073C-55.8007 597.402 -55.5851 532.035 -81.7755 481.552C-112.876 421.605 -192.032 375.222 -178.301 309.083C-164.703 243.579 -80.97 222.569 -21.6132 191.747C26.2215 166.908 77.6573 160.971 130.181 148.899C196.949 133.554 264.721 83.4331 327.17 111.585C390.012 139.913 412.262 218.211 431.089 284.546C448.57 346.137 441.894 409.118 429.444 471.928Z" fill="#16263A"/>
</g>
<g opacity="0.5" filter="url(#filter3_f_1517_286086)">
<path fill-rule="evenodd" clip-rule="evenodd" d="M989.245 128.067C984.708 59.556 967.149 -18.8139 1010.91 -71.7029C1054.43 -124.296 1135.13 -116.509 1202.17 -129.257C1259.63 -140.183 1318.96 -162.999 1372.97 -140.547C1425.48 -118.723 1442.19 -55.5271 1480.55 -13.5434C1526.11 36.3119 1614.57 60.6273 1618.43 128.067C1622.25 194.858 1546.81 236.824 1497.45 281.958C1457.67 318.331 1409.53 337.379 1361.92 362.633C1301.4 394.737 1248.91 460.69 1181.3 449.661C1113.27 438.562 1071.51 368.691 1036.15 309.489C1003.33 254.521 993.475 191.959 989.245 128.067Z" fill="#2C2D5E"/>
</g>
<g filter="url(#filter4_f_1517_286086)">
<path fill-rule="evenodd" clip-rule="evenodd" d="M340.602 443.738C334.744 497.443 306.338 549.276 263.014 581.479C220.526 613.061 164.478 616.205 111.65 613.918C62.9735 611.811 19.5296 591.564 -23.69 569.071C-71.8802 543.99 -126.787 524.019 -152.822 476.276C-180.418 425.67 -186.892 361.784 -166.068 307.977C-146.069 256.305 -91.4348 230.66 -45.6946 199.477C-4.12737 171.139 36.626 136.32 86.875 135.536C136.331 134.765 180.403 164.008 218.676 195.356C253.606 223.966 273.308 263.981 293.22 304.545C315.353 349.634 346.053 393.763 340.602 443.738Z" fill="#1B3A56"/>
</g>
<rect y="-54" width="1648" height="887" fill="white" fill-opacity="0.07"/>
</g>
<defs>
<filter id="filter0_f_1517_286086" x="994.146" y="-62.9692" width="927.855" height="865.44" filterUnits="userSpaceOnUse" color-interpolation-filters="sRGB"><feFlood flood-opacity="0" result="BackgroundImageFix"/><feBlend mode="normal" in="SourceGraphic" in2="BackgroundImageFix" result="shape"/><feGaussianBlur stdDeviation="100" result="effect1_foregroundBlur_1517_286086"/></filter>
<filter id="filter1_f_1517_286086" x="710.602" y="142.11" width="1036.64" height="1000.97" filterUnits="userSpaceOnUse" color-interpolation-filters="sRGB"><feFlood flood-opacity="0" result="BackgroundImageFix"/><feBlend mode="normal" in="SourceGraphic" in2="BackgroundImageFix" result="shape"/><feGaussianBlur stdDeviation="100" result="effect1_foregroundBlur_1517_286086"/></filter>
<filter id="filter2_f_1517_286086" x="-379.886" y="-96.8433" width="1021.59" height="976.802" filterUnits="userSpaceOnUse" color-interpolation-filters="sRGB"><feFlood flood-opacity="0" result="BackgroundImageFix"/><feBlend mode="normal" in="SourceGraphic" in2="BackgroundImageFix" result="shape"/><feGaussianBlur stdDeviation="100" result="effect1_foregroundBlur_1517_286086"/></filter>
<filter id="filter3_f_1517_286086" x="781.933" y="-350.08" width="1036.64" height="1000.97" filterUnits="userSpaceOnUse" color-interpolation-filters="sRGB"><feFlood flood-opacity="0" result="BackgroundImageFix"/><feBlend mode="normal" in="SourceGraphic" in2="BackgroundImageFix" result="shape"/><feGaussianBlur stdDeviation="100" result="effect1_foregroundBlur_1517_286086"/></filter>
<filter id="filter4_f_1517_286086" x="-378.349" y="-64.4788" width="919.588" height="878.983" filterUnits="userSpaceOnUse" color-interpolation-filters="sRGB"><feFlood flood-opacity="0" result="BackgroundImageFix"/><feBlend mode="normal" in="SourceGraphic" in2="BackgroundImageFix" result="shape"/><feGaussianBlur stdDeviation="100" result="effect1_foregroundBlur_1517_286086"/></filter>
<clipPath id="clip0_1517_286086"><rect width="1648" height="781" fill="white"/></clipPath>
</defs>
</svg>
