<svg width="625" height="149" viewBox="0 0 625 149" fill="none" xmlns="http://www.w3.org/2000/svg">
<rect width="625" height="149" fill="#949494"/>
<path d="M367.937 86.5008C370.607 84.9092 372.093 82.4505 371.987 79.8907L372 79.8927C371.82 77.0686 369.252 76.6076 368.894 77.4146C368.858 77.5011 368.93 77.5513 369.048 77.6337C369.323 77.8259 369.849 78.1934 369.849 79.6047C369.849 82.0779 367.885 85.1389 365.027 86.5008H365V74.5005H377V86.5008H367.937Z" fill="white"/>
<path fill-rule="evenodd" clip-rule="evenodd" d="M366.999 87.0008C365.31 87.8014 363.242 88.2851 360.875 88.3049C354.423 88.3049 352.81 84.2708 352.511 81.9658C351.992 82.6493 351.489 83.3792 350.994 84.0982C349.152 86.7748 347.414 89.2994 345.341 88.7089C343.131 88.0749 343.964 83.9258 345.461 80.6407C342.475 84.3288 337.157 90.38 333.334 88.0749C331.243 86.8659 331.063 82.9458 331.601 78.5657C328.557 80.4107 325.511 83.4648 325.211 87.0379C325.194 87.3242 325.219 87.5446 325.238 87.7161C325.289 88.166 325.302 88.2797 324.434 88.3629C321.934 88.5947 322.606 84.7959 323.12 81.8918C323.245 81.1874 323.36 80.5356 323.419 80.0067C321.925 82.5418 317.982 87.7899 313.561 88.1899C310.454 88.4779 309.08 86.9799 308.841 84.9628C308.447 85.0238 308.045 85.0887 307.637 85.1544C306.501 85.3378 305.325 85.5275 304.181 85.6549C303.503 86.3952 302.693 87.0014 301.792 87.4419C300.822 87.9534 299.752 88.2444 298.658 88.2942C297.563 88.344 296.471 88.1513 295.459 87.7299C293.787 86.7499 294.325 85.7669 295.639 85.3669C294.943 82.2873 295.65 76.4757 296.125 72.5648C296.344 70.7671 296.513 69.3709 296.476 68.8264C296.47 68.7122 296.464 68.6045 296.459 68.5032C296.403 67.4805 296.383 67.1129 297.252 67.2704C299.984 67.6311 299.505 69.5626 299.16 70.9557C299.12 71.1187 299.081 71.2746 299.05 71.4195C298.453 74.5886 297.975 77.8166 297.676 81.0437C298.452 78.1627 300.304 74.7046 304.008 75.6266C307.178 76.4326 307.357 81.0437 305.206 84.4438C306.58 84.2678 307.776 84.0988 308.851 83.8678C309.008 81.8537 309.828 79.9487 311.181 78.4507C313.75 75.8576 316.917 75.3386 318.052 77.0676C319.187 78.9117 317.634 81.9088 312.974 83.8678C312.549 84.0562 312.109 84.2104 311.66 84.3288C311.719 86.2289 312.854 87.4389 315.423 86.2289C318.45 84.8179 320.582 81.7634 322.287 79.3201C322.601 78.8698 322.901 78.4403 323.189 78.0457C323.962 76.9506 324.803 76.6626 325.46 76.8356C325.787 76.8973 326.078 77.0796 326.278 77.3464C326.477 77.6133 326.569 77.9452 326.535 78.2767C326.363 79.6175 326.103 80.9457 325.758 82.2528C327.242 79.4286 329.501 77.0887 332.27 75.5096C332.808 72.4535 333.523 69.4584 334.123 67.1534C334.24 66.7419 334.275 66.4153 334.302 66.1679C334.357 65.6529 334.376 65.4805 335.021 65.5973C337.768 65.9601 337.122 67.9108 336.661 69.3055C336.61 69.4603 336.561 69.6083 336.519 69.7464C336.079 71.1158 335.742 72.5311 335.414 73.9091L335.409 73.9285C335.38 74.0525 335.35 74.1762 335.321 74.2996C335.381 74.2996 335.426 74.2851 335.47 74.2705C335.515 74.256 335.56 74.2415 335.62 74.2415C339.862 73.3775 342.55 75.2796 343.028 76.4896C343.388 77.2966 343.267 77.3546 342.49 77.0086C341.261 76.5188 339.947 76.2768 338.625 76.2965C337.302 76.3163 335.996 76.5973 334.783 77.1236C333.943 81.7327 333.827 85.6529 335.141 86.6329C337.677 88.4669 343.249 81.1992 345.414 78.3763C345.697 78.0068 345.922 77.7135 346.074 77.5266C347.627 75.7406 349.479 74.1265 351.033 74.1265C351.428 74.1291 351.817 74.2291 352.165 74.4177C352.513 74.6063 352.809 74.8777 353.028 75.208C353.246 75.5384 353.38 75.9174 353.418 76.3118C353.455 76.7062 353.396 77.1039 353.243 77.4696C353.021 78.0163 352.816 77.8122 352.524 77.5212C352.261 77.2592 351.927 76.9266 351.446 77.0086C349.295 77.3546 347.443 82.4258 346.965 84.6158C346.607 86.3449 347.323 86.5179 348.937 84.5008C349.525 83.7748 350.056 83.0104 350.553 82.2949C351.673 80.6838 352.62 79.3205 353.657 79.2007C355.452 79.0079 355.54 80.1405 355.625 81.2238C355.641 81.4386 355.658 81.6515 355.688 81.8518C355.838 83.3844 356.576 84.7991 357.746 85.7986C358.915 86.7981 360.426 87.3047 361.961 87.2119C363.044 87.2119 364.069 86.953 365 86.5138C365.009 86.5095 365.018 86.5051 365.027 86.5008H367.937C367.639 86.6786 367.326 86.8457 366.999 87.0008ZM298.699 84.9638C300.014 84.9068 301.265 84.7908 302.464 84.6758L302.463 84.6738C304.255 81.8498 305.032 77.5846 303.598 77.1236C301.149 76.3236 299.178 81.3337 298.699 84.9638ZM298.34 87.1519C298.696 87.2095 299.059 87.2095 299.415 87.1519C300.255 86.9865 301.015 86.5393 301.567 85.8839C301.298 85.9088 301.039 85.9336 300.793 85.9573L300.792 85.9574C299.892 86.044 299.155 86.1149 298.639 86.1149V86.5759C298.64 86.689 298.613 86.8005 298.56 86.9008C298.508 87.0011 298.433 87.0873 298.34 87.1519ZM316.858 77.5876C316.682 77.2416 315.905 77.1236 314.352 78.5097H314.349C313.153 79.6669 312.322 81.1497 311.959 82.7748C315.484 81.2187 317.276 78.3947 316.858 77.5876Z" fill="white"/>
<path fill-rule="evenodd" clip-rule="evenodd" d="M295.676 90.2891C295.88 90.2555 296.038 90.2296 296.07 90.324H296.066C296.189 90.44 295.828 90.958 294.991 91.016C294.237 91.0419 293.487 90.8883 292.804 90.5679C292.121 90.2476 291.523 89.7695 291.06 89.173C287.71 84.8508 289.025 74.5376 289.562 71.5375C287.531 75.1666 283.887 78.0477 280.242 80.2377C280.512 82.8462 280.992 85.4286 281.676 87.9599C283.23 88.3649 284.844 89.055 284.245 90.265C283.827 91.187 283.054 91.878 281.556 91.014C280.277 90.2482 276 88.2881 272.864 86.8509C271.754 86.3419 270.786 85.8984 270.146 85.5969C268.771 84.9648 267.815 84.3308 267.815 83.6968C267.815 83.0628 268.712 82.4868 270.146 82.1408C272.607 81.4654 275.006 80.5784 277.315 79.4897C276.817 74.8187 276.737 70.1125 277.076 65.4273C274.203 70.7865 267.091 83.4658 261.001 89.344C258.791 91.475 252.697 93.9551 248.574 89.575C247.679 88.5959 247.917 87.6159 248.694 88.2499C249.591 88.9989 254.253 91.534 259.389 86.6359C268.315 78.0798 274.26 65.8762 276.435 61.4114C276.707 60.854 276.92 60.4172 277.072 60.1232C278.446 57.4741 280.178 56.4951 281.672 57.2441L281.711 57.2634C282.153 57.4853 282.347 57.5823 282.373 57.7128C282.393 57.814 282.313 57.9354 282.17 58.151C281.901 58.5578 281.409 59.2999 280.953 60.8742C279.755 65.0233 279.576 71.8815 280.055 77.9907C284.595 75.3976 289.132 71.5365 290.33 66.1763C290.409 65.7732 290.41 65.4533 290.41 65.21C290.41 64.7231 290.41 64.5436 291.047 64.6203C293.78 65.0331 293.3 66.9708 292.954 68.3645C292.914 68.5273 292.875 68.6828 292.844 68.8274C291.35 76.0316 290.81 80.8707 291.709 85.7709C292.187 88.4799 293.86 90.151 295.115 90.324C295.304 90.3503 295.507 90.317 295.676 90.2891ZM271.618 84.2088C273.826 85.3123 276.1 86.2749 278.429 87.0909C278 85.3257 277.681 83.5356 277.474 81.7308C275.574 82.6753 273.619 83.5028 271.618 84.2088Z" fill="white"/>
</svg>
