<svg width="625" height="149" viewBox="0 0 625 149" fill="none" xmlns="http://www.w3.org/2000/svg">
<rect width="625" height="148.999" fill="#F2F2F2"/>
<path d="M377 74.4995H365V86.4995H377V74.4995Z" fill="#00AAD2"/>
<path d="M302.464 84.6751C301.265 84.7901 300.014 84.9061 298.699 84.9631C299.178 81.3331 301.149 76.3231 303.598 77.1231C305.032 77.5841 304.255 81.8491 302.463 84.6731L302.464 84.6751ZM299.415 87.1511C299.059 87.2087 298.696 87.2087 298.34 87.1511C298.433 87.0865 298.508 87.0003 298.56 86.9C298.613 86.7997 298.64 86.6882 298.639 86.5751V86.1141C299.296 86.1141 300.312 85.9991 301.567 85.8831C301.015 86.5385 300.256 86.9857 299.416 87.1511H299.415ZM314.352 78.5091C315.905 77.1231 316.682 77.2411 316.858 77.5871C317.276 78.3941 315.484 81.2181 311.959 82.7741C312.322 81.149 313.153 79.6662 314.349 78.5091H314.352ZM372 79.8921C371.82 77.0681 369.252 76.6071 368.894 77.4141C368.774 77.7021 369.849 77.5871 369.849 79.6041C369.849 82.8891 366.385 87.2111 361.961 87.2111C360.426 87.3038 358.915 86.7973 357.746 85.7978C356.576 84.7983 355.838 83.3837 355.688 81.8511C355.508 80.6411 355.808 78.9691 353.657 79.2001C352.159 79.3731 350.849 82.1391 348.937 84.5001C347.323 86.5171 346.607 86.3441 346.965 84.6151C347.443 82.4251 349.295 77.3541 351.446 77.0081C352.462 76.8351 352.82 78.5081 353.243 77.4691C353.396 77.1033 353.455 76.7057 353.418 76.3113C353.38 75.9169 353.246 75.5379 353.028 75.2076C352.809 74.8772 352.513 74.6058 352.165 74.4172C351.817 74.2286 351.428 74.1286 351.033 74.1261C349.479 74.1261 347.627 75.7401 346.074 77.5261C344.76 79.1401 338.009 88.7061 335.141 86.6321C333.827 85.6521 333.943 81.7321 334.783 77.1231C335.996 76.5968 337.302 76.3158 338.625 76.296C339.947 76.2763 341.261 76.5183 342.49 77.0081C343.267 77.3541 343.388 77.2961 343.028 76.4891C342.55 75.2791 339.862 73.3771 335.62 74.2411C335.5 74.2411 335.441 74.2991 335.321 74.2991C335.679 72.7991 336.038 71.2451 336.519 69.7461C336.937 68.3631 338.073 66.0001 335.021 65.5971C334.066 65.4241 334.484 65.8851 334.123 67.1531C333.523 69.4581 332.809 72.4531 332.27 75.5091C329.501 77.0881 327.242 79.428 325.758 82.2521C326.103 80.9451 326.363 79.6169 326.535 78.2761C326.569 77.9447 326.477 77.6127 326.278 77.3459C326.078 77.079 325.787 76.8968 325.46 76.8351C324.803 76.6621 323.962 76.9501 323.189 78.0451C321.337 80.5811 319.007 84.5571 315.423 86.2281C312.854 87.4381 311.719 86.2281 311.66 84.3281C312.109 84.2097 312.549 84.0555 312.974 83.8671C317.634 81.9081 319.187 78.9111 318.052 77.0671C316.917 75.3381 313.75 75.8571 311.181 78.4501C309.828 79.9481 309.008 81.853 308.851 83.8671C307.776 84.0981 306.58 84.2671 305.206 84.4431C307.357 81.0431 307.178 76.4321 304.008 75.6261C300.304 74.7041 298.452 78.1621 297.676 81.0431C297.975 77.8161 298.453 74.5881 299.05 71.4191C299.349 70.0361 300.304 67.6731 297.252 67.2701C296.297 67.0971 296.416 67.5581 296.476 68.8261C296.595 70.5551 294.623 80.8711 295.639 85.3661C294.325 85.7661 293.787 86.7491 295.459 87.7291C296.471 88.1505 297.563 88.3432 298.658 88.2934C299.752 88.2436 300.822 87.9526 301.792 87.4411C302.693 87.0005 303.503 86.3944 304.181 85.6541C305.735 85.4811 307.347 85.1931 308.841 84.9621C309.08 86.9791 310.454 88.4771 313.561 88.1891C317.982 87.7891 321.925 82.5411 323.419 80.0061C323.119 82.7151 321.328 88.6501 324.434 88.3621C325.632 88.2471 325.151 88.0741 325.211 87.0371C325.511 83.4641 328.557 80.4101 331.601 78.5651C331.063 82.9451 331.243 86.8651 333.334 88.0741C337.157 90.3791 342.475 84.3281 345.461 80.6401C343.964 83.9251 343.131 88.0741 345.341 88.7081C347.97 89.4571 350.061 85.1931 352.511 81.9651C352.81 84.2701 354.423 88.3041 360.875 88.3041C367.805 88.2461 372.167 84.2121 371.987 79.8901L372 79.8921ZM278.429 87.0901C276.1 86.2741 273.826 85.3115 271.618 84.2081C273.619 83.5021 275.574 82.6746 277.474 81.7301C277.681 83.5348 278 85.325 278.429 87.0901ZM296.07 90.3231C296.01 90.1501 295.532 90.3811 295.115 90.3231C293.86 90.1501 292.187 88.4791 291.709 85.7701C290.81 80.8701 291.35 76.0311 292.844 68.8271C293.144 67.4441 294.099 65.0811 291.047 64.6201C290.091 64.5051 290.569 64.9661 290.33 66.1761C289.132 71.5361 284.595 75.3971 280.055 77.9901C279.576 71.8811 279.755 65.0231 280.953 60.8741C281.972 57.3591 283.166 57.9931 281.672 57.2441C280.178 56.4951 278.446 57.4741 277.072 60.1231C275.698 62.7721 269.43 77.0111 259.389 86.6351C254.253 91.5331 249.591 88.9981 248.694 88.2491C247.917 87.6151 247.679 88.5951 248.574 89.5741C252.697 93.9541 258.791 91.4741 261.001 89.3431C267.091 83.4651 274.203 70.7861 277.076 65.4271C276.737 70.1122 276.817 74.8182 277.315 79.4891C275.006 80.5778 272.607 81.4647 270.146 82.1401C268.712 82.4861 267.815 83.0621 267.815 83.6961C267.815 84.3301 268.771 84.9641 270.146 85.5961C272.595 86.7491 279.824 89.9761 281.556 91.0131C283.054 91.8771 283.827 91.1861 284.245 90.2641C284.844 89.0541 283.23 88.3641 281.676 87.9591C280.992 85.4279 280.512 82.8455 280.242 80.2371C283.887 78.0471 287.531 75.1661 289.562 71.5371C289.025 74.5371 287.71 84.8501 291.06 89.1721C291.523 89.7686 292.121 90.2467 292.804 90.567C293.487 90.8874 294.237 91.0409 294.991 91.0151C295.828 90.9571 296.189 90.4391 296.066 90.3231" fill="#5F6A72"/>
</svg>
