<svg width="130" height="130" viewBox="0 0 130 130" fill="none" xmlns="http://www.w3.org/2000/svg">
<path d="M126.601 0.849609C102.882 42.7669 44.5253 126.601 0.849609 126.601H126.601V0.849609Z" fill="#E0F1FF"/>
<path d="M0.849609 126.601C44.5253 126.601 102.882 42.7669 126.601 0.849609" stroke="#006DCC" stroke-width="2"/>
<path d="M3.39844 122.924C4.9598 122.924 6.22545 124.19 6.22559 125.751C6.22559 127.313 4.95989 128.579 3.39844 128.579C1.8371 128.578 0.571289 127.313 0.571289 125.751C0.571429 124.19 1.83719 122.924 3.39844 122.924Z" fill="#006DCC" stroke="#006DCC" stroke-width="1.14286"/>
<path d="M126.602 0.571289C128.163 0.571289 129.429 1.8371 129.429 3.39844C129.429 4.9599 128.163 6.22559 126.602 6.22559C125.04 6.22545 123.774 4.95981 123.774 3.39844C123.775 1.83718 125.04 0.571426 126.602 0.571289Z" fill="#006DCC" stroke="#006DCC" stroke-width="1.14286"/>
</svg>
