<svg width="386" height="256" viewBox="0 0 386 256" fill="none" xmlns="http://www.w3.org/2000/svg">
<rect width="385.048" height="255.086" rx="9.44763" fill="#CDCDCD"/>
<path d="M93.1494 50.3936H285.434C289.564 50.3936 292.913 53.7423 292.913 57.873V190.213C292.913 192.604 290.974 194.543 288.583 194.543H97.873C93.7425 194.543 90.3938 191.195 90.3936 187.064V53.1494C90.3936 51.6276 91.6276 50.3936 93.1494 50.3936Z" fill="black" stroke="black" stroke-width="0.787302"/>
<rect x="90.3937" y="50.3937" width="198.365" height="139.087" rx="2.75556" fill="#FFFEFE" stroke="black" stroke-width="0.787302"/>
<path d="M93.1494 50.3936H286.003C287.525 50.3936 288.759 51.6276 288.759 53.1494V82.8145H90.3936V53.1494C90.3936 51.6276 91.6276 50.3936 93.1494 50.3936Z" fill="#DCDCDC" stroke="black" stroke-width="0.787302"/>
<path d="M261.457 62.3789L267.014 66.7575L261.457 71.1361" stroke="black" stroke-linecap="round" stroke-linejoin="round"/>
<path d="M115.955 62.3789L110.398 66.7575L115.955 71.1361" stroke="black" stroke-linecap="round" stroke-linejoin="round"/>
<rect x="134.729" y="63.4656" width="104.744" height="6.58448" rx="3.14921" fill="white"/>
<rect x="179.129" y="109.809" width="19.0172" height="13.3063" rx="6.65317" stroke="black"/>
<rect x="134.729" y="113.186" width="10.6346" height="6.58448" rx="3.14921" fill="#DCDCDC"/>
<rect x="110.398" y="113.186" width="10.6346" height="6.58448" rx="3.14921" fill="#DCDCDC"/>
<rect x="134.729" y="131.629" width="10.6346" height="6.58448" rx="3.14921" fill="#DCDCDC"/>
<rect x="110.398" y="131.629" width="10.6346" height="6.58448" rx="3.14921" fill="#DCDCDC"/>
<rect x="134.729" y="150.072" width="10.6346" height="6.58448" rx="3.14921" fill="#DCDCDC"/>
<rect x="110.398" y="150.072" width="10.6346" height="6.58448" rx="3.14921" fill="#DCDCDC"/>
<rect x="134.729" y="168.514" width="10.6346" height="6.58448" rx="3.14921" fill="#DCDCDC"/>
<rect x="110.398" y="168.515" width="10.6346" height="6.58448" rx="3.14921" fill="#DCDCDC"/>
<rect x="159.059" y="94.7439" width="10.6346" height="6.58448" rx="3.14921" fill="#DCDCDC"/>
<rect x="159.059" y="113.186" width="10.6346" height="6.58448" rx="3.14921" fill="#DCDCDC"/>
<rect x="159.059" y="150.072" width="10.6346" height="6.58448" rx="3.14921" fill="#DCDCDC"/>
<rect x="159.059" y="131.629" width="10.6346" height="6.58448" rx="3.14921" fill="#DCDCDC"/>
<rect x="159.059" y="168.514" width="10.6346" height="6.58448" rx="3.14921" fill="#DCDCDC"/>
<rect x="183.389" y="94.7437" width="10.6346" height="6.58448" rx="3.14921" fill="#DCDCDC"/>
<rect x="183.389" y="150.072" width="10.6346" height="6.58448" rx="3.14921" fill="#DCDCDC"/>
<rect x="183.389" y="113.186" width="10.6346" height="6.58448" rx="3.14921" fill="#DCDCDC"/>
<rect x="183.389" y="131.629" width="10.6346" height="6.58448" rx="3.14921" fill="#DCDCDC"/>
<rect x="183.389" y="168.515" width="10.6346" height="6.58448" rx="3.14921" fill="#DCDCDC"/>
<rect x="207.719" y="150.072" width="10.6346" height="6.58448" rx="3.14921" fill="#DCDCDC"/>
<rect x="207.719" y="94.7437" width="10.6346" height="6.58448" rx="3.14921" fill="#DCDCDC"/>
<rect x="207.719" y="113.186" width="10.6346" height="6.58448" rx="3.14921" fill="#DCDCDC"/>
<rect x="207.719" y="131.629" width="10.6346" height="6.58448" rx="3.14921" fill="#DCDCDC"/>
<rect x="232.049" y="150.072" width="10.6346" height="6.58448" rx="3.14921" fill="#DCDCDC"/>
<rect x="207.719" y="168.515" width="10.6346" height="6.58448" rx="3.14921" fill="#DCDCDC"/>
<rect x="232.049" y="94.7437" width="10.6346" height="6.58448" rx="3.14921" fill="#DCDCDC"/>
<rect x="232.049" y="113.186" width="10.6346" height="6.58448" rx="3.14921" fill="#DCDCDC"/>
<rect x="256.379" y="150.072" width="10.6346" height="6.58448" rx="3.14921" fill="#DCDCDC"/>
<rect x="232.049" y="131.629" width="10.6346" height="6.58448" rx="3.14921" fill="#DCDCDC"/>
<rect x="256.379" y="94.7437" width="10.6346" height="6.58448" rx="3.14921" fill="#DCDCDC"/>
<rect x="256.379" y="113.186" width="10.6346" height="6.58448" rx="3.14921" fill="#DCDCDC"/>
<rect x="256.379" y="131.629" width="10.6346" height="6.58448" rx="3.14921" fill="#DCDCDC"/>
</svg>
