<svg width="386" height="256" viewBox="0 0 386 256" fill="none" xmlns="http://www.w3.org/2000/svg">
<rect width="385.048" height="255.086" rx="9.44763" fill="#CDCDCD"/>
<path d="M74 57.0107C74 53.1448 77.134 50.0107 81 50.0107L300.614 50.0108C305.585 50.0108 309.614 54.0402 309.614 59.0108L309.614 197.107C309.614 200.973 306.48 204.107 302.614 204.107L83 204.107C78.0294 204.107 74 200.078 74 195.107L74 57.0107Z" fill="black" stroke="black" stroke-linecap="round"/>
<path d="M304.387 194.648C304.387 196.257 303.083 197.561 301.474 197.561L76.9137 197.561C75.3053 197.561 74.0013 196.257 74.0013 194.648L74.0014 57.0007C74.0014 53.1347 77.1354 50.0007 81.0014 50.0007L297.387 50.0007C301.253 50.0007 304.387 53.1347 304.387 57.0007L304.387 194.648Z" fill="#D9D9D9" stroke="black" stroke-linecap="round"/>
<path d="M81 50C77.134 50 74 53.134 74 57L74 75.9833L304.386 75.9833L304.386 57C304.386 53.1341 301.252 50 297.386 50L81 50Z" fill="white" stroke="black" stroke-linecap="round"/>
<rect x="163.291" y="66.6924" width="32.7253" height="4.7997" rx="2.39985" transform="rotate(-180 163.291 66.6924)" fill="#DCDCDC"/>
<rect x="206.061" y="66.6924" width="32.7253" height="4.7997" rx="2.39985" transform="rotate(-180 206.061 66.6924)" fill="#DCDCDC"/>
<rect x="248.83" y="66.6924" width="32.7253" height="4.7997" rx="2.39985" transform="rotate(-180 248.83 66.6924)" fill="#DCDCDC"/>
<rect x="290.424" y="66.6914" width="32.7253" height="4.7997" rx="2.39985" transform="rotate(-180 290.424 66.6914)" fill="#DCDCDC"/>
<path d="M119.252 69.085L119.252 59.4983M119.252 69.085L87.365 69.085M119.252 69.085L87.365 59.4983M119.252 59.4983L87.365 59.4983M119.252 59.4983L87.365 69.085M87.365 59.4983L87.365 69.085" stroke="black" stroke-linecap="round" stroke-linejoin="round"/>
</svg>
