<svg width="386" height="256" viewBox="0 0 386 256" fill="none" xmlns="http://www.w3.org/2000/svg">
<rect width="385.048" height="255.086" rx="9.44763" fill="#CDCDCD"/>
<path d="M75.0205 57.0093C75.0205 53.1433 78.1545 50.0093 82.0205 50.0093L301.635 50.0093C306.605 50.0093 310.635 54.0387 310.635 59.0093L310.635 197.106C310.635 200.972 307.501 204.106 303.635 204.106L84.0205 204.106C79.0499 204.106 75.0205 200.076 75.0205 195.106L75.0205 57.0093Z" fill="black" stroke="black" stroke-linecap="round"/>
<path d="M305.401 194.648C305.401 196.256 304.097 197.56 302.489 197.56L77.9283 197.56C76.3199 197.56 75.016 196.256 75.016 194.648L75.016 57.0002C75.016 53.1342 78.15 50.0002 82.016 50.0002L298.401 50.0002C302.267 50.0002 305.401 53.1342 305.401 57.0002L305.401 194.648Z" fill="#D9D9D9" stroke="black" stroke-linecap="round"/>
<path d="M82 50.0005C78.134 50.0005 75 53.1345 75 57.0005L75 64.0053L305.386 64.0054L305.386 57.0005C305.386 53.1345 302.252 50.0005 298.386 50.0005L82 50.0005Z" fill="white" stroke="black" stroke-linecap="round"/>
<rect x="285.188" y="59.2847" width="150.47" height="3.67337" rx="1.83668" transform="rotate(-180 285.188 59.2847)" fill="#DCDCDC"/>
<rect x="100.447" y="54.6479" width="29.1824" height="5.60742" rx="2" fill="#D9D9D9"/>
</svg>
