<svg width="386" height="256" viewBox="0 0 386 256" fill="none" xmlns="http://www.w3.org/2000/svg">
<rect width="385.048" height="255.086" rx="9.44763" fill="#CDCDCD"/>
<rect x="67" y="55" width="205.815" height="8.63644" rx="3.14921" fill="white"/>
<rect x="67" y="149.837" width="251.259" height="8.63644" rx="3.14921" fill="white"/>
<rect x="87.8047" y="79.5985" width="185.368" height="7.83119" rx="3.14921" fill="white"/>
<rect x="87.8047" y="174.436" width="216.373" height="7.83119" rx="3.14921" fill="white"/>
<rect x="67" y="79.5985" width="11.4834" height="7.83119" rx="3.14921" fill="black"/>
<rect x="67" y="174.436" width="11.4834" height="7.83119" rx="3.14921" fill="black"/>
<rect x="67" y="95.7217" width="11.4834" height="7.83119" rx="3.14921" fill="black"/>
<rect x="67" y="190.559" width="11.4834" height="7.83119" rx="3.14921" fill="black"/>
<rect x="67" y="111.846" width="11.4834" height="7.83119" rx="3.14921" fill="black"/>
<rect x="87.8047" y="111.846" width="168.133" height="7.83119" rx="3.14921" fill="white"/>
<rect x="87.8047" y="95.7217" width="197.431" height="7.83119" rx="3.14921" fill="white"/>
<rect x="87.8047" y="190.559" width="230.454" height="7.83119" rx="3.14921" fill="white"/>
</svg>
