<svg width="386" height="256" viewBox="0 0 386 256" fill="none" xmlns="http://www.w3.org/2000/svg">
<rect width="385.048" height="255.086" rx="9.44763" fill="#CDCDCD"/>
<path d="M60 146.857C60 143.378 62.8199 140.559 66.2984 140.559H318.812C322.29 140.559 325.11 143.378 325.11 146.857V168.263C325.11 170.872 322.995 172.987 320.386 172.987H65.5111C62.4674 172.987 60 170.52 60 167.476V146.857Z" fill="black"/>
<rect x="60.3937" y="140.952" width="261.02" height="28.0884" rx="2.75556" fill="white" stroke="black" stroke-width="0.787302"/>
<rect x="105.988" y="151.989" width="168.622" height="6.01515" rx="3.00758" fill="#DCDCDC"/>
<path d="M74.5996 160.991L81.1756 154.404L74.5996 149.002" stroke="black" stroke-width="0.787302" stroke-linecap="round" stroke-linejoin="round"/>
<path d="M60 185.73C60 182.252 62.8199 179.432 66.2984 179.432H318.812C322.29 179.432 325.11 182.252 325.11 185.73V207.58C325.11 210.189 322.995 212.304 320.386 212.304H65.5111C62.4674 212.304 60 209.837 60 206.793V185.73Z" fill="black"/>
<rect x="60.3937" y="179.825" width="261.02" height="28.0884" rx="2.75556" fill="white" stroke="black" stroke-width="0.787302"/>
<rect x="105.988" y="190.862" width="168.622" height="6.01515" rx="3.00758" fill="#DCDCDC"/>
<path d="M74.5996 199.863L81.1756 193.276L74.5996 187.875" stroke="black" stroke-width="0.787302" stroke-linecap="round" stroke-linejoin="round"/>
<path d="M60 48.2984C60 44.8199 62.8199 42 66.2984 42H318.812C322.29 42 325.11 44.8199 325.11 48.2984V129.391C325.11 131.999 322.995 134.114 320.386 134.114H66.2984C62.8199 134.114 60 131.294 60 127.816V48.2984Z" fill="black"/>
<rect x="60.3937" y="42.3937" width="261.02" height="87.765" rx="2.75556" fill="white" stroke="black" stroke-width="0.787302"/>
<rect x="105.988" y="55.9158" width="143.347" height="6.01515" rx="3.00758" fill="#DCDCDC"/>
<rect x="105.988" y="89.343" width="166.456" height="5.45431" rx="2.72715" fill="#DCDCDC"/>
<rect x="105.988" y="111.803" width="150.979" height="5.45431" rx="2.72715" fill="#DCDCDC"/>
<rect x="105.988" y="100.573" width="177.288" height="5.45431" rx="2.72715" fill="#DCDCDC"/>
<path d="M71.8926 55.3555L78.4795 61.9315L83.8808 55.3555" stroke="black" stroke-width="0.787302" stroke-linecap="round" stroke-linejoin="round"/>
<path d="M60.541 75.3672L321.418 75.3672" stroke="black" stroke-width="0.787302" stroke-linecap="round"/>
</svg>
