<svg width="386" height="256" viewBox="0 0 386 256" fill="none" xmlns="http://www.w3.org/2000/svg">
<rect width="385.048" height="255.086" rx="9.44763" fill="#CDCDCD"/>
<path d="M142 211.636C142 214.949 144.686 217.636 148 217.636L238.651 217.636C240.861 217.636 242.651 215.845 242.651 213.636V43.4505C242.651 40.1367 239.965 37.4505 236.651 37.4505H144C142.895 37.4505 142 38.3459 142 39.4505V211.636Z" fill="black" stroke="black" stroke-linecap="round"/>
<path d="M142 209.245C142 210.35 142.895 211.245 144 211.245L234.986 211.245C236.091 211.245 236.986 210.35 236.986 209.245V39.4502C236.986 38.3457 236.091 37.4502 234.986 37.4502H144C142.895 37.4502 142 38.3457 142 39.4502V209.245Z" fill="white" stroke="black" stroke-linecap="round"/>
<rect x="151.511" y="51.7453" width="35.5883" height="10.5331" rx="2" fill="#D9D9D9"/>
<path d="M145.777 135.099C145.777 133.443 147.12 132.099 148.777 132.099H230.657C232.313 132.099 233.657 133.443 233.657 135.099V152.195C233.657 153.851 232.313 155.195 230.657 155.195H148.777C147.12 155.195 145.777 153.851 145.777 152.195V135.099Z" fill="#D9D9D9"/>
<rect width="55.15" height="5.19332" rx="2.59666" transform="matrix(-1 0 0 1 206.661 82.6805)" fill="#D9D9D9"/>
<rect width="32.8522" height="5.19332" rx="2.59666" transform="matrix(-1 0 0 1 184.364 168.472)" fill="#DCDCDC"/>
<rect width="43.3453" height="5.19332" rx="2.59666" transform="matrix(-1 0 0 1 194.856 111.278)" fill="#D9D9D9"/>
<rect width="51.4337" height="5.19332" rx="2.59666" transform="matrix(-1 0 0 1 202.947 141.053)" fill="white"/>
<path d="M150.583 99.5163H228.407M150.583 70.9521H228.407M150.583 160.765H228.407M150.583 127.785H228.407" stroke="#D9D9D9" stroke-linecap="round" stroke-linejoin="round"/>
</svg>
