<svg width="386" height="256" viewBox="0 0 386 256" fill="none" xmlns="http://www.w3.org/2000/svg">
<rect width="385.048" height="255.086" rx="9.44763" fill="#CDCDCD"/>
<path d="M193.25 86.5C216.146 86.5 234.669 104.253 234.669 126.105C234.669 147.958 216.146 165.711 193.25 165.711C170.354 165.711 151.831 147.958 151.831 126.105C151.831 104.253 170.354 86.5 193.25 86.5Z" fill="black" stroke="black"/>
<circle cx="188.5" cy="125.711" r="39" fill="white" stroke="black"/>
<path fill-rule="evenodd" clip-rule="evenodd" d="M179.074 121.95C179.074 120.214 180.481 118.808 182.216 118.808H188.5C190.235 118.808 191.642 120.214 191.642 121.95V142.372H197.14C198.876 142.372 200.282 143.779 200.282 145.514C200.282 147.249 198.876 148.656 197.14 148.656H179.86C178.124 148.656 176.718 147.249 176.718 145.514C176.718 143.779 178.124 142.372 179.86 142.372H185.358V125.092H182.216C180.481 125.092 179.074 123.685 179.074 121.95Z" stroke="black"/>
<path d="M187.715 102.766C186.705 102.766 185.718 103.065 184.878 103.626C184.038 104.187 183.384 104.984 182.998 105.917C182.611 106.85 182.51 107.877 182.707 108.867C182.904 109.858 183.39 110.767 184.104 111.482C184.818 112.196 185.728 112.682 186.719 112.879C187.709 113.076 188.736 112.975 189.668 112.588C190.601 112.202 191.399 111.547 191.96 110.708C192.521 109.868 192.82 108.881 192.82 107.871C192.82 106.517 192.282 105.219 191.325 104.261C190.367 103.304 189.069 102.766 187.715 102.766Z" stroke="black"/>
</svg>
