<svg width="386" height="256" viewBox="0 0 386 256" fill="none" xmlns="http://www.w3.org/2000/svg">
<rect width="385.048" height="255.086" rx="9.44763" fill="#CDCDCD"/>
<g transform="translate(58, 40.5)">
<path d="M0.5 6.32471C0.5 3.10781 3.10781 0.5 6.32471 0.5H261.713C265.799 0.5 269.111 3.81234 269.111 7.89831V169.967C269.111 172.38 267.155 174.336 264.743 174.336H7.89831C3.81234 174.336 0.5 171.024 0.5 166.938V6.32471Z" fill="black"/>
<rect x="0.5" y="0.5" width="264.351" height="169.314" rx="2.91235" fill="#DCDCDC" stroke="black" stroke-linecap="round"/>
<path d="M261.939 169.814C263.548 169.814 264.852 168.511 264.852 166.902L264.852 3.41231C264.852 1.80385 263.548 0.499954 261.939 0.499954L160.686 0.49995L160.686 169.814L261.939 169.814Z" fill="white" stroke="black" stroke-linecap="round"/>
<rect x="169.473" y="12.1758" width="54.1002" height="6.07361" rx="2.91235" fill="#DCDCDC"/>
<rect x="169.473" y="40.2891" width="78.1456" height="5.50731" rx="2.75365" fill="#DCDCDC"/>
<rect x="169.473" y="74.3066" width="78.1456" height="5.50731" rx="2.75365" fill="#DCDCDC"/>
<rect x="169.473" y="62.9668" width="70.8797" height="5.50731" rx="2.75365" fill="#DCDCDC"/>
<rect x="169.473" y="85.6445" width="30.518" height="5.50731" rx="2.75365" fill="#DCDCDC"/>
<rect x="169.473" y="51.6289" width="83.231" height="5.50731" rx="2.75365" fill="#DCDCDC"/>
<path d="M169.473 26.8555H254.784" stroke="black" stroke-linecap="round" stroke-linejoin="round"/>
<path d="M169.473 136.213H254.784" stroke="black" stroke-linecap="round" stroke-linejoin="round"/>
<path d="M248.836 12.3789L254.385 18.0476M254.385 12.3789L248.836 18.0476" stroke="black" stroke-linecap="round" stroke-linejoin="round"/>
<rect x="169.473" y="145.418" width="38.7255" height="14.4035" rx="3.69916" fill="#C2C2C2" stroke="black" stroke-linecap="round"/>
<path d="M174.711 152.62C174.711 151.939 175.263 151.387 175.944 151.387H201.724C202.405 151.387 202.957 151.939 202.957 152.62C202.957 153.3 202.405 153.852 201.724 153.852H175.944C175.263 153.852 174.711 153.3 174.711 152.62Z" fill="white"/>
<rect x="17.9111" y="18.25" width="104.347" height="4.72233" rx="2.36117" fill="#C2C2C2"/>
<rect x="17.9111" y="70.1074" width="127.386" height="4.72233" rx="2.36117" fill="#C2C2C2"/>
<rect x="17.9111" y="31.7012" width="93.9801" height="4.28203" rx="2.14101" fill="#C2C2C2"/>
<rect x="17.9111" y="83.5586" width="109.7" height="4.28203" rx="2.14101" fill="#C2C2C2"/>
<rect x="17.9111" y="49.334" width="85.242" height="4.28203" rx="2.14101" fill="#C2C2C2"/>
<rect x="17.9111" y="40.5176" width="100.096" height="4.28203" rx="2.14101" fill="#C2C2C2"/>
<rect x="17.9111" y="92.373" width="116.838" height="4.28203" rx="2.14101" fill="#C2C2C2"/>
<rect x="17.9111" y="118.816" width="116.838" height="4.28203" rx="2.14101" fill="#C2C2C2"/>
<rect x="17.9111" y="110.002" width="113.886" height="4.28203" rx="2.14101" fill="#C2C2C2"/>
<rect x="17.9111" y="101.188" width="116.838" height="4.28203" rx="2.14101" fill="#C2C2C2"/>
<rect x="17.9111" y="136.445" width="127.386" height="4.72233" rx="2.36117" fill="#C2C2C2"/>
<rect x="17.9111" y="145.701" width="109.7" height="4.28203" rx="2.14101" fill="#C2C2C2"/>
<path d="M58.542 80.3145H93.4883C94.5951 80.3147 95.4922 81.2125 95.4922 82.3193V93.251C95.4921 94.012 94.8753 94.6287 94.1143 94.6289H59.7949C58.688 94.6289 57.7902 93.7319 57.79 92.625V81.0664L57.7939 80.9893C57.8327 80.6103 58.1528 80.3146 58.542 80.3145Z" fill="black" stroke="black"/>
<rect x="57.79" y="80.3145" width="36.1849" height="12.8305" rx="0.752199" fill="white" stroke="black"/>
<path d="M62.3218 86.5308C62.3218 85.9863 62.7632 85.5449 63.3076 85.5449H88.4579C89.0024 85.5449 89.4438 85.9863 89.4438 86.5308V86.9267C89.4438 87.4712 89.0024 87.9125 88.4579 87.9125H63.3076C62.7632 87.9125 62.3218 87.4712 62.3218 86.9267V86.5308Z" fill="#D9D9D9"/>
<path d="M92.4798 99.8316L90.6314 90.5897C90.4751 89.8081 91.2512 89.1668 91.9893 89.4675L100.303 92.8544C100.97 93.1263 101.139 93.9938 100.623 94.4967L99.0202 96.0585C98.6382 96.4306 98.6154 97.0369 98.9684 97.4366L102.509 101.447C102.868 101.853 102.837 102.471 102.441 102.84L101.775 103.461C101.351 103.856 100.682 103.809 100.317 103.358L97.0142 99.2831C96.662 98.8484 96.0216 98.7873 95.5935 99.1475L94.1042 100.401C93.5225 100.89 92.6289 100.577 92.4798 99.8316Z" fill="white" stroke="black" stroke-linecap="round" stroke-linejoin="round"/>
<path d="M150.11 54.6954L130.322 43.5273M150.11 80.7541H130.322" stroke="black" stroke-linecap="round" stroke-linejoin="round"/>
<path d="M150.11 111.93L130.322 123.098" stroke="black" stroke-linecap="round" stroke-linejoin="round"/>
</g>
</svg>
