<svg width="386" height="256" viewBox="0 0 386 256" fill="none" xmlns="http://www.w3.org/2000/svg">
<rect width="385.048" height="255.086" rx="9.44763" fill="#CDCDCD"/>
<g transform="translate(58, 40.5)">
<path d="M0.5 6.32471C0.5 3.10781 3.10781 0.5 6.32471 0.5H261.713C265.799 0.5 269.111 3.81234 269.111 7.89831V169.967C269.111 172.38 267.155 174.336 264.743 174.336H7.89831C3.81234 174.336 0.5 171.024 0.5 166.938V6.32471Z" fill="black"/>
<rect x="0.5" y="0.5" width="264.351" height="169.314" rx="2.91235" fill="#DCDCDC" stroke="black" stroke-linecap="round"/>
<rect x="17.9248" y="15.3242" width="229.5" height="139.664" rx="4" fill="white"/>
<rect x="34.7979" y="29.5332" width="25.6054" height="4.43666" rx="2.21833" fill="#C2C2C2"/>
<rect x="34.7979" y="46.584" width="25.6054" height="2.6864" rx="1.3432" fill="#C2C2C2"/>
<rect x="34.7979" y="61.8867" width="25.6054" height="2.6864" rx="1.3432" fill="#C2C2C2"/>
<rect x="34.7979" y="77.1875" width="25.6054" height="2.6864" rx="1.3432" fill="#C2C2C2"/>
<rect x="34.7979" y="92.4902" width="25.6054" height="2.6864" rx="1.3432" fill="#C2C2C2"/>
<rect x="34.7979" y="107.791" width="25.6054" height="2.6864" rx="1.3432" fill="#C2C2C2"/>
<rect x="34.7979" y="123.096" width="25.6054" height="2.6864" rx="1.3432" fill="#C2C2C2"/>
<rect x="79.1924" y="29.5332" width="25.6054" height="4.43666" rx="2.21833" fill="#C2C2C2"/>
<rect x="79.1924" y="61.8867" width="25.6054" height="2.6864" rx="1.3432" fill="#C2C2C2"/>
<rect x="79.1924" y="77.1875" width="25.6054" height="2.6864" rx="1.3432" fill="#C2C2C2"/>
<rect x="79.1924" y="46.584" width="25.6054" height="2.6864" rx="1.3432" fill="#C2C2C2"/>
<rect x="79.1924" y="92.4902" width="25.6054" height="2.6864" rx="1.3432" fill="#C2C2C2"/>
<rect x="79.1924" y="107.791" width="25.6054" height="2.6864" rx="1.3432" fill="#C2C2C2"/>
<rect x="79.1924" y="123.096" width="25.6054" height="2.6864" rx="1.3432" fill="#C2C2C2"/>
<rect x="123.588" y="61.8867" width="25.6054" height="2.6864" rx="1.3432" fill="#C2C2C2"/>
<rect x="123.588" y="29.5332" width="25.6054" height="4.43666" rx="2.21833" fill="#C2C2C2"/>
<rect x="123.588" y="77.1875" width="25.6054" height="2.6864" rx="1.3432" fill="#C2C2C2"/>
<rect x="123.588" y="46.584" width="25.6054" height="2.6864" rx="1.3432" fill="#C2C2C2"/>
<rect x="164.891" y="61.8867" width="25.6054" height="2.6864" rx="1.3432" fill="#C2C2C2"/>
<rect x="123.588" y="92.4902" width="25.6054" height="2.6864" rx="1.3432" fill="#C2C2C2"/>
<rect x="123.588" y="107.791" width="25.6054" height="2.6864" rx="1.3432" fill="#C2C2C2"/>
<rect x="123.588" y="123.096" width="25.6054" height="2.6864" rx="1.3432" fill="#C2C2C2"/>
<rect x="164.891" y="77.1875" width="25.6054" height="2.6864" rx="1.3432" fill="#C2C2C2"/>
<rect x="164.891" y="29.5332" width="25.6054" height="4.43666" rx="2.21833" fill="#C2C2C2"/>
<rect x="206.192" y="61.8867" width="25.6054" height="2.6864" rx="1.3432" fill="#C2C2C2"/>
<rect x="206.192" y="77.1875" width="25.6054" height="2.6864" rx="1.3432" fill="#C2C2C2"/>
<rect x="164.891" y="46.584" width="25.6054" height="2.6864" rx="1.3432" fill="#C2C2C2"/>
<rect x="164.891" y="92.4902" width="25.6054" height="2.6864" rx="1.3432" fill="#C2C2C2"/>
<rect x="164.891" y="107.791" width="25.6054" height="2.6864" rx="1.3432" fill="#C2C2C2"/>
<rect x="164.891" y="123.096" width="25.6054" height="2.6864" rx="1.3432" fill="#C2C2C2"/>
<rect x="206.192" y="29.5332" width="25.6054" height="4.43666" rx="2.21833" fill="#C2C2C2"/>
<rect x="206.192" y="46.584" width="25.6054" height="2.6864" rx="1.3432" fill="#C2C2C2"/>
<rect x="206.192" y="92.4902" width="25.6054" height="2.6864" rx="1.3432" fill="#C2C2C2"/>
<rect x="206.192" y="107.791" width="25.6054" height="2.6864" rx="1.3432" fill="#C2C2C2"/>
<rect x="206.192" y="123.096" width="25.6054" height="2.6864" rx="1.3432" fill="#C2C2C2"/>
<rect x="36.2637" y="138.66" width="192.824" height="5.11695" rx="2.55848" fill="#D9D9D9" stroke="black"/>
<path d="M231.798 138.16L235.111 141.252L231.798 144.277L231.798 138.16Z" fill="#D9D9D9" stroke="black" stroke-linejoin="round"/>
<path d="M33.5539 138.16L30.0557 141.252L33.5539 144.277L33.5539 138.16Z" fill="#D9D9D9" stroke="black" stroke-linejoin="round"/>
</g>
</svg>
