<svg width="386" height="256" viewBox="0 0 386 256" fill="none" xmlns="http://www.w3.org/2000/svg">
<rect width="385.048" height="255.086" rx="9.44763" fill="#CDCDCD"/>
<rect x="58.811" y="118.002" width="267.753" height="19.8354" fill="white"/>
<path d="M184.828 110.478L191.186 116.835M191.186 116.835L197.543 110.478M191.186 116.835V97" stroke="black" stroke-linecap="round" stroke-linejoin="round"/>
<path d="M334.088 121.571L327.731 127.929M327.731 127.929L334.088 134.286M327.731 127.929L347.566 127.929" stroke="black" stroke-linecap="round" stroke-linejoin="round"/>
<path d="M51.4779 121.571L57.8354 127.929M57.8354 127.929L51.4779 134.286M57.8354 127.929L38 127.929" stroke="black" stroke-linecap="round" stroke-linejoin="round"/>
<path d="M197.542 145.362L191.184 139.004M191.184 139.004L184.827 145.362M191.184 139.004V158.84" stroke="black" stroke-linecap="round" stroke-linejoin="round"/>
<path d="M47.917 118.278H335.531" stroke="black" stroke-linecap="round" stroke-linejoin="round"/>
<path d="M47.917 137.838H335.531" stroke="black" stroke-linecap="round" stroke-linejoin="round"/>
<path d="M326.564 108.084L326.564 152.438" stroke="black" stroke-linecap="round" stroke-linejoin="round"/>
<path d="M58.5356 108.084L58.5356 152.438" stroke="black" stroke-linecap="round" stroke-linejoin="round"/>
<path d="M169.008 137.838H213.362" stroke="black" stroke-linecap="round" stroke-linejoin="round"/>
</svg>
