<svg width="386" height="256" viewBox="0 0 386 256" fill="none" xmlns="http://www.w3.org/2000/svg">
<rect width="385.048" height="255.086" rx="9.44763" fill="#CDCDCD"/>
<path d="M86 121.279H294.77C297.807 121.279 300.27 123.742 300.27 126.779V149.242C300.27 150.623 299.15 151.742 297.77 151.742H90C86.9624 151.742 84.5 149.28 84.5 146.242V122.779C84.5 121.951 85.1716 121.279 86 121.279Z" fill="black" stroke="black"/>
<rect x="84.5" y="121.279" width="210.776" height="24.9649" rx="1.5" fill="white" stroke="black"/>
<path d="M84 105.532C84 104.134 85.1337 103 86.5322 103H176.841C178.239 103 179.373 104.134 179.373 105.532C179.373 106.931 178.239 108.064 176.841 108.064H86.5322C85.1337 108.064 84 106.931 84 105.532Z" fill="white"/>
<path d="M95.3135 127.137V140.387" stroke="black" stroke-linecap="round" stroke-linejoin="round"/>
</svg>
