<svg width="386" height="256" viewBox="0 0 386 256" fill="none" xmlns="http://www.w3.org/2000/svg">
<rect width="385.048" height="255.086" rx="9.44763" fill="#CDCDCD"/>
<g transform="translate(57.5, 39)">
<path d="M0.501953 7.50976C0.501953 3.64376 3.63596 0.509766 7.50195 0.509766L260.775 0.509788C265.746 0.509789 269.775 4.53923 269.775 9.50979L269.775 169.62C269.775 173.486 266.641 176.619 262.775 176.619L9.50194 176.619C4.53137 176.619 0.501938 172.59 0.501939 167.619L0.501953 7.50976Z" fill="black" stroke="black" stroke-linecap="round"/>
<path d="M263.797 166.226C263.797 167.835 262.493 169.139 260.885 169.139L3.41214 169.139C1.80368 169.139 0.499787 167.835 0.499787 166.226L0.499815 7.49911C0.499815 3.63312 3.63382 0.499115 7.49982 0.499116L256.797 0.49916C260.663 0.49916 263.797 3.63316 263.797 7.49916L263.797 166.226Z" fill="white" stroke="black" stroke-linecap="round"/>
<path d="M0.500977 164.699C0.500977 166.908 2.29184 168.699 4.50098 168.699L92.6626 168.699L91.3869 16.2814C91.3636 13.5037 93.609 11.2395 96.3868 11.2395L262.647 11.2414V11.0117C262.647 5.48888 258.17 1.01172 252.647 1.01172H92.6626H7.50098C3.63499 1.01172 0.500977 4.14572 0.500977 8.01172V164.699Z" fill="#F4F4F4"/>
<rect x="9.72852" y="14.3809" width="34.5301" height="10.2198" rx="2" fill="#D9D9D9"/>
<path d="M1.94824 33.0391H91.6624V60.7862H1.94824V33.0391Z" fill="#F4F4F4"/>
<path d="M1.94824 60.7871H91.6624V88.5343H1.94824V60.7871Z" fill="#F4F4F4"/>
<path d="M1.94824 88.5332H91.6624V116.28H1.94824V88.5332Z" fill="#F4F4F4"/>
<path d="M1.94824 116.279H91.6624V144.026H1.94824V116.279Z" fill="#F4F4F4"/>
<rect width="53.5101" height="5.03889" rx="2.51945" transform="matrix(-1 0 0 1 63.2383 44.3926)" fill="#D9D9D9"/>
<rect width="31.8753" height="5.03889" rx="2.51945" transform="matrix(-1 0 0 1 41.6045 133.08)" fill="#D9D9D9"/>
<rect width="42.0564" height="5.03889" rx="2.51945" transform="matrix(-1 0 0 1 51.7852 72.1426)" fill="#D9D9D9"/>
<rect width="49.9043" height="5.03889" rx="2.51945" transform="matrix(-1 0 0 1 59.6357 101.029)" fill="#D9D9D9"/>
<path d="M8.83008 60.7285H84.3397M8.83008 33.0137H84.3397M8.83008 120.156H84.3397M8.83008 88.1564H84.3397" stroke="#D9D9D9" stroke-linecap="round" stroke-linejoin="round"/>
<circle cx="76.0283" cy="135.843" r="6.86035" fill="#D9D9D9"/>
<rect x="101.647" y="87.3203" width="153.5" height="14.588" rx="1.5" stroke="#DCDCDC"/>
<rect x="101.647" y="67.6582" width="153.5" height="14.588" rx="1.5" stroke="#DCDCDC"/>
<rect x="101.647" y="36.2617" width="121.5" height="10.1505" rx="1.5" stroke="#DCDCDC"/>
<rect x="101.647" y="106.986" width="153.5" height="14.588" rx="1.5" stroke="#DCDCDC"/>
<rect x="101.647" y="126.648" width="153.5" height="14.588" rx="1.5" stroke="#DCDCDC"/>
<rect x="101.647" y="146.312" width="153.5" height="14.588" rx="1.5" stroke="#DCDCDC"/>
<rect x="231.05" y="35.7617" width="24.5977" height="11.1504" rx="3.69916" fill="#C2C2C2" stroke="black" stroke-linecap="round"/>
<path d="M234.377 41.3372C234.377 40.8101 234.804 40.3828 235.331 40.3828H251.364C251.891 40.3828 252.318 40.8101 252.318 41.3372C252.318 41.8643 251.891 42.2916 251.364 42.2916H235.331C234.804 42.2916 234.377 41.8643 234.377 41.3372Z" fill="white"/>
<rect x="101.147" y="21.5645" width="34" height="5.59375" rx="2.79688" fill="#DCDCDC"/>
<rect x="101.147" y="57.4902" width="88" height="3.29688" rx="1.64844" fill="#DCDCDC"/>
</g>
</svg>
