<svg width="386" height="256" viewBox="0 0 386 256" fill="none" xmlns="http://www.w3.org/2000/svg">
<rect width="385.048" height="255.086" rx="9.44763" fill="#CDCDCD"/>
<path d="M123.314 39.5H177.737C180.775 39.5001 183.237 41.9625 183.237 45V59.624H117.814V45C117.814 41.9624 120.277 39.5 123.314 39.5Z" fill="#D9D9D9" stroke="black"/>
<path d="M191.582 39.5H246.005C249.042 39.5001 251.505 41.9625 251.505 45V59.624H186.082V45C186.082 41.9624 188.544 39.5 191.582 39.5Z" fill="#D9D9D9" stroke="black"/>
<path d="M260.772 39.5H318.885C321.922 39.5 324.385 41.9624 324.385 45V59.624H255.272V45C255.272 41.9624 257.735 39.5 260.772 39.5Z" fill="#D9D9D9" stroke="black"/>
<path d="M60 39.5H108.604C111.01 39.5 112.989 41.3915 113.1 43.7939L113.772 58.4277L113.794 58.9072L114.273 58.9053L322.611 57.9824C327.896 57.959 332.185 62.2531 332.153 67.5381L331.342 204.327C331.317 208.452 327.967 211.783 323.842 211.783H62C56.7534 211.783 52.5002 207.53 52.5 202.283V47C52.5 42.8579 55.8579 39.5 60 39.5Z" fill="black" stroke="black"/>
<path d="M60 39.5H110.46C112.866 39.5002 114.847 41.3938 114.955 43.7979L115.606 58.3096L115.628 58.79L116.108 58.7871L320.869 57.8867C322.808 57.8782 324.385 59.4477 324.385 61.3867V196.321C324.385 200.463 321.027 203.821 316.885 203.821H60C55.8579 203.821 52.5 200.463 52.5 196.321V47C52.5 42.8579 55.8579 39.5 60 39.5Z" fill="white" stroke="black"/>
<rect x="64.7109" y="47.9443" width="39.6406" height="2.84243" rx="1.42122" fill="#D9D9D9"/>
<rect x="131.477" y="47.9443" width="39.6406" height="2.84243" rx="1.42122" fill="white"/>
<rect x="199.435" y="47.9443" width="39.6406" height="2.84243" rx="1.42122" fill="white"/>
<rect x="270.009" y="47.9443" width="39.6406" height="2.84243" rx="1.42122" fill="white"/>
<rect x="64.7109" y="74.8097" width="194.787" height="7.35118" rx="3.14921" fill="#D9D9D9"/>
<rect x="64.7109" y="97.5818" width="226.188" height="6.66576" rx="3.14921" fill="#D9D9D9"/>
<rect x="64.7109" y="139.596" width="226.188" height="6.66576" rx="3.14921" fill="#D9D9D9"/>
<rect x="64.7109" y="125.03" width="205.157" height="6.66576" rx="3.14921" fill="#D9D9D9"/>
<rect x="64.7109" y="168.266" width="205.157" height="6.66576" rx="3.14921" fill="#D9D9D9"/>
<rect x="64.7109" y="111.305" width="240.908" height="6.66576" rx="3.14921" fill="#D9D9D9"/>
<rect x="64.7109" y="154.541" width="240.908" height="6.66576" rx="3.14921" fill="#D9D9D9"/>
</svg>
