<svg width="32" height="32" viewBox="0 0 32 32" fill="none" xmlns="http://www.w3.org/2000/svg">
<rect x="0.0283203" width="31.6954" height="31.6876" rx="4" fill="#00B6ED"/>
<g clip-path="url(#clip0_58757_180753)">
<mask id="mask0_58757_180753" style="mask-type:alpha" maskUnits="userSpaceOnUse" x="-11" y="-2" width="47" height="39">
<path d="M22.0161 31.1012C19.5453 30.1967 17.1338 29.1398 14.7958 27.9366C16.9183 27.1628 18.9879 26.253 20.9915 25.2128C21.1959 27.1973 21.5377 29.1655 22.0146 31.1034M35.284 6.71107C34.2501 6.58133 34.7873 7.05871 34.4992 8.41129C33.2537 14.2431 28.4493 18.4463 23.6262 21.2662C23.1208 14.5879 23.3273 7.1734 24.5937 2.62967C25.6623 -1.20586 26.9331 -0.501973 25.3569 -1.30764C23.6962 -2.1556 21.9164 -1.03527 20.4746 1.82185C19.0327 4.67898 12.3929 20.1889 1.77913 30.6619C-3.64978 36.0227 -8.56028 33.2616 -9.54368 32.4373C-10.3437 31.7664 -10.639 32.8022 -9.64621 33.863C-5.25557 38.563 1.15891 35.8665 3.49467 33.5491C9.94958 27.1439 17.4543 13.3557 20.4904 7.50527C20.1369 12.6008 20.2183 17.7168 20.7338 22.7987C18.2885 23.9899 15.7382 24.9556 13.1149 25.6838C11.6102 26.0751 10.6796 26.6837 10.6521 27.3754C10.6225 28.133 11.6326 28.7724 13.0933 29.4605C15.6926 30.6862 23.3085 34.258 25.1851 35.3382C26.7916 36.2636 27.5757 35.5418 28.0515 34.5425C28.6732 33.2401 26.9685 32.4875 25.3165 31.9972C24.5874 29.2483 24.0921 26.4434 23.8356 23.6122C27.7071 21.2468 31.5187 18.093 33.7158 14.1599C34.4252 12.7777 34.9525 11.3106 35.2848 9.7947C35.5148 8.86121 35.5776 7.89482 35.4703 6.93973C35.4703 6.93973 35.4414 6.73114 35.2848 6.71107" fill="#545860"/>
</mask>
<g mask="url(#mask0_58757_180753)">
<rect x="0.0283203" y="-0.00195312" width="31.6954" height="31.6954" rx="3.04762" fill="white"/>
</g>
</g>
<defs>
<clipPath id="clip0_58757_180753">
<rect y="0.00585938" width="32" height="31.9922" rx="4" fill="white"/>
</clipPath>
</defs>
</svg>
