<svg width="386" height="256" viewBox="0 0 386 256" fill="none" xmlns="http://www.w3.org/2000/svg">
<rect width="385.048" height="255.086" rx="9.44763" fill="#CDCDCD"/>
<mask id="path-2-inside-1_2475_400444" fill="white">
<path d="M194.215 85.499C217.832 85.4992 236.978 104.645 236.978 128.263C236.977 151.88 217.832 171.025 194.215 171.025C170.597 171.025 151.451 151.88 151.451 128.263C151.451 104.645 170.597 85.499 194.215 85.499ZM194.215 98.1992C177.612 98.1994 164.153 111.659 164.152 128.262C164.152 144.865 177.612 158.325 194.215 158.325C210.818 158.325 224.278 144.865 224.278 128.262C224.278 111.659 210.818 98.1992 194.215 98.1992Z"/>
</mask>
<path d="M194.215 85.499C217.832 85.4992 236.978 104.645 236.978 128.263C236.977 151.88 217.832 171.025 194.215 171.025C170.597 171.025 151.451 151.88 151.451 128.263C151.451 104.645 170.597 85.499 194.215 85.499ZM194.215 98.1992C177.612 98.1994 164.153 111.659 164.152 128.262C164.152 144.865 177.612 158.325 194.215 158.325C210.818 158.325 224.278 144.865 224.278 128.262C224.278 111.659 210.818 98.1992 194.215 98.1992Z" fill="black"/>
<path d="M194.215 85.499L194.215 84.499H194.215V85.499ZM236.978 128.263L237.978 128.263V128.263H236.978ZM194.215 171.025V172.025H194.215L194.215 171.025ZM151.451 128.263H150.451V128.263L151.451 128.263ZM194.215 98.1992V97.1992H194.215L194.215 98.1992ZM164.152 128.262L163.152 128.262V128.262H164.152ZM194.215 158.325L194.215 159.325H194.215V158.325ZM224.278 128.262H225.278V128.262L224.278 128.262ZM194.215 85.499L194.215 86.499C217.28 86.4992 235.978 105.197 235.978 128.263H236.978H237.978C237.978 104.093 218.385 84.4992 194.215 84.499L194.215 85.499ZM236.978 128.263L235.978 128.263C235.977 151.328 217.28 170.025 194.215 170.025L194.215 171.025L194.215 172.025C218.384 172.025 237.977 152.432 237.978 128.263L236.978 128.263ZM194.215 171.025V170.025C171.15 170.025 152.451 151.328 152.451 128.263L151.451 128.263L150.451 128.263C150.451 152.432 170.045 172.025 194.215 172.025V171.025ZM151.451 128.263H152.451C152.451 105.197 171.15 86.499 194.215 86.499V85.499V84.499C170.045 84.499 150.451 104.093 150.451 128.263H151.451ZM194.215 98.1992L194.215 97.1992C177.06 97.1994 163.153 111.106 163.152 128.262L164.152 128.262L165.152 128.262C165.153 112.211 178.164 99.1994 194.215 99.1992L194.215 98.1992ZM164.152 128.262H163.152C163.152 145.417 177.059 159.325 194.215 159.325L194.215 158.325L194.215 157.325C178.164 157.325 165.152 144.313 165.152 128.262H164.152ZM194.215 158.325V159.325C211.37 159.325 225.278 145.417 225.278 128.262H224.278H223.278C223.278 144.313 210.266 157.325 194.215 157.325V158.325ZM224.278 128.262L225.278 128.262C225.278 111.106 211.37 97.1992 194.215 97.1992V98.1992V99.1992C210.266 99.1992 223.278 112.211 223.278 128.262L224.278 128.262Z" fill="black" mask="url(#path-2-inside-1_2475_400444)"/>
<mask id="path-4-inside-2_2475_400444" fill="white">
<path d="M190.764 84C214.381 84.0001 233.527 103.146 233.527 126.764C233.527 150.381 214.381 169.527 190.764 169.527C167.146 169.527 148 150.381 148 126.764C148 103.146 167.146 84 190.764 84ZM190.764 96.7002C174.16 96.7003 160.701 110.16 160.701 126.764C160.701 143.367 174.161 156.826 190.764 156.826C207.367 156.826 220.827 143.367 220.827 126.764C220.827 110.16 207.367 96.7002 190.764 96.7002Z"/>
</mask>
<path d="M190.764 84C214.381 84.0001 233.527 103.146 233.527 126.764C233.527 150.381 214.381 169.527 190.764 169.527C167.146 169.527 148 150.381 148 126.764C148 103.146 167.146 84 190.764 84ZM190.764 96.7002C174.16 96.7003 160.701 110.16 160.701 126.764C160.701 143.367 174.161 156.826 190.764 156.826C207.367 156.826 220.827 143.367 220.827 126.764C220.827 110.16 207.367 96.7002 190.764 96.7002Z" fill="#D9D9D9"/>
<path d="M190.764 84L190.764 83H190.764V84ZM233.527 126.764L234.527 126.764V126.764H233.527ZM190.764 169.527V170.527H190.764L190.764 169.527ZM148 126.764H147V126.764L148 126.764ZM190.764 96.7002V95.7002H190.764L190.764 96.7002ZM160.701 126.764H159.701V126.764L160.701 126.764ZM190.764 156.826L190.764 157.826H190.764V156.826ZM220.827 126.764L221.827 126.764V126.764H220.827ZM190.764 84L190.764 85C213.829 85.0001 232.527 103.698 232.527 126.764H233.527H234.527C234.527 102.594 214.933 83.0001 190.764 83L190.764 84ZM233.527 126.764L232.527 126.764C232.527 149.829 213.829 168.527 190.764 168.527L190.764 169.527L190.764 170.527C214.933 170.527 234.527 150.933 234.527 126.764L233.527 126.764ZM190.764 169.527V168.527C167.698 168.527 149 149.829 149 126.764L148 126.764L147 126.764C147 150.933 166.594 170.527 190.764 170.527V169.527ZM148 126.764H149C149 103.698 167.698 85 190.764 85V84V83C166.594 83 147 102.594 147 126.764H148ZM190.764 96.7002L190.764 95.7002C173.608 95.7003 159.701 109.608 159.701 126.764H160.701H161.701C161.701 110.713 174.713 97.7003 190.764 97.7002L190.764 96.7002ZM160.701 126.764L159.701 126.764C159.701 143.919 173.608 157.826 190.764 157.826L190.764 156.826L190.764 155.826C174.713 155.826 161.701 142.814 161.701 126.764L160.701 126.764ZM190.764 156.826V157.826C207.919 157.826 221.827 143.919 221.827 126.764L220.827 126.764L219.827 126.764C219.827 142.814 206.815 155.826 190.764 155.826V156.826ZM220.827 126.764H221.827C221.827 109.608 207.919 95.7002 190.764 95.7002V96.7002V97.7002C206.815 97.7002 219.827 110.713 219.827 126.764H220.827Z" fill="black" mask="url(#path-4-inside-2_2475_400444)"/>
<mask id="path-6-inside-3_2475_400444" fill="white">
<path d="M190.765 84.001C191.071 84.001 191.376 84.004 191.681 84.0104C186.318 86.0281 185.747 93.8584 190.617 96.7031C174.082 96.783 160.703 110.211 160.703 126.764C160.703 143.367 174.162 156.827 190.765 156.827C206.315 156.827 219.108 145.021 220.668 129.883C220.668 139.816 233.286 138.781 233.286 129.883C231.599 151.956 213.27 169.528 190.765 169.528C167.148 169.528 148.002 150.382 148.002 126.764C148.002 103.147 167.148 84.001 190.765 84.001Z"/>
</mask>
<path d="M190.765 84.001C191.071 84.001 191.376 84.004 191.681 84.0104C186.318 86.0281 185.747 93.8584 190.617 96.7031C174.082 96.783 160.703 110.211 160.703 126.764C160.703 143.367 174.162 156.827 190.765 156.827C206.315 156.827 219.108 145.021 220.668 129.883C220.668 139.816 233.286 138.781 233.286 129.883C231.599 151.956 213.27 169.528 190.765 169.528C167.148 169.528 148.002 150.382 148.002 126.764C148.002 103.147 167.148 84.001 190.765 84.001Z" fill="white"/>
<path d="M191.681 84.0104L192.033 84.9463L191.702 83.0106L191.681 84.0104ZM190.617 96.7031L190.622 97.7031L194.282 97.6854L191.122 95.8396L190.617 96.7031ZM160.703 126.764H159.703V126.764L160.703 126.764ZM190.765 156.827L190.765 157.827H190.765V156.827ZM220.668 129.883H221.668C221.668 129.351 221.251 128.912 220.72 128.884C220.188 128.857 219.728 129.251 219.674 129.78L220.668 129.883ZM233.286 129.883H234.286C234.286 129.346 233.862 128.904 233.324 128.884C232.787 128.863 232.33 129.271 232.289 129.807L233.286 129.883ZM148.002 126.764H147.002V126.764L148.002 126.764ZM190.765 84.001V85.001C191.065 85.001 191.363 85.0039 191.66 85.0102L191.681 84.0104L191.702 83.0106C191.39 83.0041 191.078 83.001 190.765 83.001V84.001ZM191.681 84.0104L191.329 83.0745C188.225 84.2424 186.545 87.084 186.315 89.9672C186.086 92.8469 187.291 95.9182 190.113 97.5666L190.617 96.7031L191.122 95.8396C189.073 94.6433 188.129 92.3771 188.309 90.126C188.488 87.8784 189.775 85.7961 192.033 84.9463L191.681 84.0104ZM190.617 96.7031L190.612 95.7031C173.527 95.7857 159.703 109.66 159.703 126.764H160.703H161.703C161.703 110.761 174.637 97.7804 190.622 97.7031L190.617 96.7031ZM160.703 126.764L159.703 126.764C159.703 143.92 173.61 157.827 190.765 157.827L190.765 156.827L190.765 155.827C174.715 155.827 161.703 142.815 161.703 126.764L160.703 126.764ZM190.765 156.827V157.827C206.833 157.827 220.051 145.628 221.663 129.986L220.668 129.883L219.674 129.78C218.165 144.414 205.798 155.827 190.765 155.827V156.827ZM220.668 129.883H219.668C219.668 132.585 220.532 134.657 221.94 136.038C223.34 137.412 225.195 138.019 227.018 137.944C230.679 137.794 234.286 134.898 234.286 129.883H233.286H232.286C232.286 133.766 229.585 135.837 226.936 135.945C225.606 136 224.306 135.559 223.34 134.611C222.382 133.671 221.668 132.148 221.668 129.883H220.668ZM233.286 129.883L232.289 129.807C230.64 151.372 212.734 168.528 190.765 168.528V169.528V170.528C213.807 170.528 232.557 152.54 234.283 129.959L233.286 129.883ZM190.765 169.528V168.528C167.7 168.528 149.002 149.83 149.002 126.764L148.002 126.764L147.002 126.764C147.002 150.934 166.596 170.528 190.765 170.528V169.528ZM148.002 126.764H149.002C149.002 103.699 167.7 85.001 190.765 85.001V84.001V83.001C166.596 83.001 147.002 102.595 147.002 126.764H148.002Z" fill="black" mask="url(#path-6-inside-3_2475_400444)"/>
</svg>
