<svg width="386" height="256" viewBox="0 0 386 256" fill="none" xmlns="http://www.w3.org/2000/svg">
<rect width="385.048" height="255.086" rx="9.44763" fill="#CDCDCD"/>
<path d="M60 170.588V74C60 71.2386 62.2386 69 65 69H309.867C318.151 69 324.867 75.7157 324.867 84V180.588C324.867 183.349 322.628 185.588 319.867 185.588H75C66.7157 185.588 60 178.872 60 170.588Z" fill="black" stroke="black" stroke-linecap="round" stroke-linejoin="round"/>
<path d="M60 173.548V74C60 71.2386 62.2386 69 65 69H312.225C314.986 69 317.225 71.2386 317.225 74V173.548C317.225 176.309 314.986 178.548 312.225 178.548H65C62.2386 178.548 60 176.309 60 173.548Z" fill="white" stroke="black" stroke-linecap="round" stroke-linejoin="round"/>
<rect x="224.454" y="92.6602" width="76.654" height="62.6306" rx="4.5" stroke="black"/>
<path d="M226.433 154.716L245.541 132.114C247.913 129.308 252.228 129.275 254.644 132.043L274.431 154.716" stroke="black" stroke-linecap="round"/>
<path d="M264.274 142.906L270.701 135.072C273.128 132.114 277.666 132.152 280.042 135.15L295.702 154.906" stroke="black" stroke-linecap="round"/>
<path d="M284.393 101.974C288.992 101.974 292.721 105.702 292.721 110.301C292.721 114.9 288.992 118.629 284.393 118.629C279.794 118.629 276.065 114.9 276.065 110.301C276.066 105.702 279.794 101.974 284.393 101.974Z" stroke="black"/>
<rect x="78.4092" y="107.245" width="117.846" height="5.10384" rx="2.55192" fill="#DCDCDC"/>
<rect x="78.4092" y="89.6083" width="80.4192" height="5.10384" rx="2.55192" fill="#DCDCDC"/>
<rect x="78.4092" y="128.263" width="106.889" height="5.10384" rx="2.55192" fill="#DCDCDC"/>
<rect x="78.4092" y="117.754" width="125.515" height="5.10384" rx="2.55192" fill="#DCDCDC"/>
<rect x="78.8028" y="144.891" width="48.7468" height="17.6363" rx="3.60635" fill="#C2C2C2" stroke="black" stroke-width="0.787302"/>
<path d="M85.1113 153.709C85.1113 152.838 85.8174 152.132 86.6883 152.132H119.664C120.535 152.132 121.241 152.838 121.241 153.709C121.241 154.58 120.535 155.286 119.664 155.286H86.6883C85.8174 155.286 85.1113 154.58 85.1113 153.709Z" fill="white"/>
</svg>
