<svg width="32" height="32" viewBox="0 0 32 32" fill="none" xmlns="http://www.w3.org/2000/svg">
<g clip-path="url(#clip0_62436_151446)">
<path d="M0 32H32V0H0V32Z" fill="#00B6ED"/>
<path d="M14.9855 27.78C16.7042 27.1533 18.8868 26.2347 21.1868 25.032C21.4975 27.6573 21.8348 29.5667 22.2108 30.9707C20.5255 30.36 18.1228 29.3813 14.9855 27.78ZM23.8228 21.0533C23.3175 14.3213 23.5242 6.84533 24.7908 2.26133C25.0815 1.21067 25.3868 0.497333 25.6468 0H21.5228C21.2282 0.418667 20.9428 0.901333 20.6695 1.44667C19.2268 4.32533 12.5788 19.9693 1.96016 30.528C1.37616 31.1093 0.797492 31.596 0.229492 32H5.02683C11.1522 25.1 17.8575 12.6733 20.6855 7.18267C20.4055 10.504 20.3095 16.0733 20.9282 22.6C17.6415 24.2013 14.6922 25.144 13.3028 25.5093C11.7975 25.904 10.8655 26.5173 10.8375 27.2147C10.8082 27.9787 11.8188 28.6227 13.2802 29.3173C14.4602 29.8773 16.6682 30.9227 18.9068 32H25.9055C25.7748 31.9573 25.6442 31.9173 25.5148 31.8773C24.8788 29.6667 24.3708 26.6933 24.0322 23.4173C26.9415 21.6267 29.8175 19.3893 32.0002 16.7067V14.0093C29.8615 16.9453 26.8468 19.2733 23.8228 21.0533Z" fill="white"/>
</g>
<defs>
<clipPath id="clip0_62436_151446">
<rect width="32" height="32" rx="4" fill="white"/>
</clipPath>
</defs>
</svg>
