<svg width="386" height="256" viewBox="0 0 386 256" fill="none" xmlns="http://www.w3.org/2000/svg">
<rect width="385.048" height="255.086" rx="9.44763" fill="#CDCDCD"/>
<path d="M116 107.394H262.278C266.479 107.394 269.885 110.799 269.885 115V141.373C269.885 144.469 267.375 146.979 264.278 146.979H120C115.799 146.979 112.394 143.574 112.394 139.373V111C112.394 109.008 114.008 107.394 116 107.394Z" fill="black" stroke="black" stroke-width="0.787302"/>
<path d="M116 107.394H262.028C264.02 107.394 265.635 109.008 265.635 111V139.46C265.635 141.452 264.02 143.066 262.028 143.066H116C114.008 143.066 112.394 141.452 112.394 139.46V111C112.394 109.008 114.008 107.394 116 107.394Z" fill="white" stroke="black" stroke-width="0.787302"/>
<path d="M125.264 125.99C125.264 124.266 126.661 122.869 128.384 122.869H223.075C224.798 122.869 226.195 124.266 226.195 125.99C226.195 127.714 224.798 129.111 223.075 129.111H128.384C126.661 129.111 125.264 127.714 125.264 125.99Z" fill="#D9D9D9"/>
<path d="M241.423 122.869L246.809 129.11L252.195 122.869" stroke="black" stroke-linecap="round" stroke-linejoin="round"/>
</svg>
