<svg width="386" height="256" viewBox="0 0 386 256" fill="none" xmlns="http://www.w3.org/2000/svg">
<rect width="385.048" height="255.086" rx="9.44763" fill="#CDCDCD"/>
<path d="M48 79.2984C48 75.8199 50.8199 73 54.2984 73H331.158C334.637 73 337.457 75.8199 337.457 79.2984V168.85C337.457 171.459 335.342 173.574 332.733 173.574H54.2984C50.8199 173.574 48 170.754 48 167.275V79.2984Z" fill="black"/>
<rect x="48.3937" y="73.3937" width="285.063" height="95.8972" rx="2.75556" fill="white" stroke="black" stroke-width="0.787302"/>
<path d="M51.1494 73.3936H330.7C332.222 73.3936 333.456 74.6276 333.456 76.1494V105.729H48.3936V76.1494C48.3936 74.6276 49.6276 73.3936 51.1494 73.3936Z" fill="#DCDCDC" stroke="black" stroke-width="0.787302"/>
<rect x="67.6406" y="86.4312" width="156.511" height="6.56756" rx="3.14921" fill="white"/>
<rect x="67.6406" y="124.691" width="230.943" height="5.95521" rx="2.9776" fill="#DCDCDC"/>
<rect x="67.6406" y="149.213" width="209.47" height="5.95521" rx="2.9776" fill="#DCDCDC"/>
<rect x="67.6406" y="136.952" width="245.972" height="5.95521" rx="2.9776" fill="#DCDCDC"/>
</svg>
