<svg width="386" height="256" viewBox="0 0 386 256" fill="none" xmlns="http://www.w3.org/2000/svg">
<rect width="385.048" height="255.086" rx="9.44763" fill="#CDCDCD"/>
<path d="M63 125.942C63 123.213 65.2126 121 67.9421 121H317.597C320.326 121 322.539 123.213 322.539 125.942C322.539 128.671 320.326 130.884 317.597 130.884H67.9421C65.2126 130.884 63 128.671 63 125.942Z" fill="white"/>
<path d="M137.075 125.942C137.075 128.671 134.863 130.884 132.133 130.884H67.9424C65.2131 130.884 63.0002 128.672 63 125.942C63 123.213 65.213 121 67.9424 121H132.133C134.863 121 137.075 123.213 137.075 125.942Z" fill="black"/>
</svg>
