<svg width="386" height="256" viewBox="0 0 386 256" fill="none" xmlns="http://www.w3.org/2000/svg">
<rect width="385.048" height="255.086" rx="9.44763" fill="#CDCDCD"/>
<path d="M73 53.7834C73 52.175 74.3039 50.8711 75.9124 50.8711H299.614C304.585 50.8711 308.614 54.9005 308.614 59.8711V197.096C308.614 200.962 305.48 204.096 301.614 204.096H82C77.0295 204.096 73 200.066 73 195.096V53.7834Z" fill="black" stroke="black" stroke-linecap="round"/>
<path d="M73 52.9123C73 51.3039 74.3039 50 75.9124 50H300.473C302.081 50 303.385 51.3039 303.385 52.9124V190.56C303.385 194.426 300.251 197.56 296.385 197.56H80C76.134 197.56 73 194.426 73 190.56V52.9123Z" fill="#D9D9D9" stroke="black" stroke-linecap="round"/>
<path d="M296.387 197.56C300.253 197.56 303.387 194.426 303.387 190.56L303.387 156.576L73.0008 156.576L73.0008 190.56C73.0008 194.426 76.1348 197.56 80.0008 197.56L296.387 197.56Z" fill="white" stroke="black" stroke-linecap="round"/>
<rect x="86.9199" y="169.728" width="102.248" height="4.7997" rx="2.39985" fill="#DCDCDC"/>
<rect x="86.9199" y="179.609" width="108.902" height="4.7997" rx="2.39985" fill="#DCDCDC"/>
<path d="M258.135 172.127V181.714M258.135 172.127H290.022M258.135 172.127L290.022 181.714M258.135 181.714H290.022M258.135 181.714L290.022 172.127M290.022 181.714V172.127" stroke="black" stroke-linecap="round" stroke-linejoin="round"/>
</svg>
