<svg width="386" height="256" viewBox="0 0 386 256" fill="none" xmlns="http://www.w3.org/2000/svg">
<rect width="385.048" height="255.086" rx="9.44763" fill="#CDCDCD"/>
<path d="M59 71.2984C59 67.8199 61.8199 65 65.2984 65H319.131C322.61 65 325.43 67.8199 325.43 71.2984V184.376C325.43 186.985 323.315 189.1 320.706 189.1H65.2984C61.8199 189.1 59 186.28 59 182.802V71.2984Z" fill="black"/>
<rect x="59.3937" y="65.3937" width="261.02" height="118.514" rx="2.75556" fill="white" stroke="black" stroke-width="0.787302"/>
<path d="M62.1494 65.3936H317.657C319.179 65.3936 320.413 66.6276 320.413 68.1494V71.7061H59.3936V68.1494C59.3936 66.6276 60.6276 65.3936 62.1494 65.3936Z" fill="#DCDCDC" stroke="black" stroke-width="0.787302"/>
<rect x="76.9883" y="108.343" width="211.518" height="5.45431" rx="2.72715" fill="#DCDCDC"/>
<rect x="76.9883" y="89.4946" width="85.9414" height="5.45431" rx="2.72715" fill="#DCDCDC"/>
<rect x="76.9883" y="130.803" width="191.852" height="5.45431" rx="2.72715" fill="#DCDCDC"/>
<rect x="76.9883" y="119.573" width="225.283" height="5.45431" rx="2.72715" fill="#DCDCDC"/>
<rect x="77.3819" y="148.547" width="52.1482" height="18.9014" rx="3.60635" fill="#C2C2C2" stroke="black" stroke-width="0.787302"/>
<path d="M84.1504 157.998C84.1504 157.067 84.9049 156.312 85.8356 156.312H121.075C122.006 156.312 122.761 157.067 122.761 157.998C122.761 158.928 122.006 159.683 121.075 159.683H85.8356C84.9049 159.683 84.1504 158.928 84.1504 157.998Z" fill="white"/>
</svg>
