<svg width="392" height="320" viewBox="0 0 392 320" fill="none" xmlns="http://www.w3.org/2000/svg">
<path d="M58.6123 227.416C59.5257 216.419 61.4437 193.731 61.809 190.953H70.0292L75.9659 227.416H58.6123Z" fill="white" stroke="black"/>
<path d="M68.2346 51.2559C68.4848 51.8509 68.7574 52.5227 69.0252 53.1801C69.5745 54.5299 70.1424 55.9252 70.5457 56.7523L70.772 57.2162C72.5729 60.918 74.4281 64.7299 77.2411 67.648C76.5055 67.5749 75.7946 67.3359 75.161 66.9451C74.9038 66.787 74.5766 66.8076 74.3434 66.9976C74.1096 67.1869 74.0202 67.5025 74.1208 67.7862C76.1853 73.6018 79.4454 79.0062 83.5497 83.4131C83.8381 83.7229 84.1329 84.0399 84.3144 84.371C82.9007 84.8295 80.3966 83.935 79.1109 83.199C79.7372 84.2738 80.2136 84.814 80.4232 85.303C80.4285 85.3047 80.4339 85.3066 80.4393 85.3082C82.1707 90.6443 85.868 94.75 89.4535 98.7199L90.0053 99.3304C90.1037 99.4394 90.1565 99.5112 90.1849 99.5496C90.1225 99.5765 90.019 99.6065 89.8781 99.6171C87.9818 100.198 86.0723 99.5339 84.0133 98.9875C84.0671 99.0598 84.1196 99.1325 84.169 99.2067C86.0374 103.841 88.1027 109.304 90.7315 113.577C91.0356 114.072 91.3802 114.525 91.7417 114.954C90.3864 114.851 89.0436 114.609 87.7337 114.235C89.9254 119.736 93.7888 125.318 97.8552 129.667C98.7857 130.663 99.833 131.485 100.846 132.28C101.73 132.975 102.571 133.635 103.347 134.404C103.3 134.423 103.246 134.439 103.191 134.447C100.708 134.792 97.98 133.977 95.6703 133.082C98.9673 138.528 101.403 144.674 104.853 150.041C105.974 151.785 107.308 153.647 108.98 154.925C107.557 155.055 106.079 154.818 104.69 154.228C104.456 154.128 104.184 154.163 103.981 154.318C103.779 154.474 103.675 154.727 103.711 154.98C104.076 157.564 110.088 166.935 111.893 168.557C110.732 168.549 102.296 161.807 101.271 161.644C101.271 167.421 109.704 176.975 113.126 181.753C113.099 181.753 113.072 181.754 113.044 181.754C110.509 181.754 108.274 180.637 106.159 179.369C107.433 184.575 109.536 189.382 111.893 194.203C113.213 196.903 114.786 199.852 117.112 201.954C112.987 201.687 108.381 201.044 104.882 198.309C104.635 198.117 104.29 198.108 104.035 198.29C103.779 198.471 103.674 198.8 103.775 199.097C104.334 200.733 105.158 202.279 106.188 203.636C101.475 203.962 96.725 202.701 92.688 200.041C92.4534 199.885 92.1493 199.884 91.914 200.037C91.678 200.189 91.554 200.467 91.5979 200.744C91.936 202.873 92.9359 204.898 94.3704 206.438C89.6169 206.258 84.8575 204.468 81.0778 201.397C80.8418 201.205 80.511 201.186 80.2545 201.347C79.9979 201.509 79.8718 201.815 79.942 202.111C80.353 203.851 80.883 205.568 81.5216 207.232C78.1458 206.275 75.1129 204.058 73.0618 201.009C72.93 200.813 72.7098 200.696 72.4747 200.696H72.4695C72.2313 200.697 72.01 200.819 71.8803 201.017C69.9029 204.049 66.956 206.339 63.666 207.438C64.1685 205.445 64.4545 203.242 64.5168 200.87C64.5246 200.586 64.3621 200.325 64.1041 200.206C63.8462 200.089 63.542 200.135 63.3322 200.326C60.527 202.876 57.38 204.882 53.9624 206.303C54.2126 204.644 54.3515 202.96 54.3756 201.284C54.3805 200.967 54.1744 200.686 53.8711 200.594C53.5678 200.504 53.2402 200.625 53.0701 200.892C51.3351 203.609 48.6557 205.02 46.7116 205.726C44.4535 206.546 42.0448 206.858 39.8626 207.007C40.7641 204.951 41.2406 202.698 41.247 200.421C41.2477 200.133 41.0738 199.873 40.8073 199.764C40.5409 199.653 40.2348 199.717 40.0328 199.922C36.5054 203.516 31.6306 205.687 26.7573 205.889C28.0068 204.145 28.9294 202.139 29.4525 200.012C29.5219 199.731 29.3945 199.447 29.1592 199.278C28.9239 199.109 28.5909 199.112 28.3457 199.267C25.941 200.798 23.6698 202.245 20.9823 202.8C19.6102 203.082 18.2049 203.238 16.8066 203.265C16.6762 203.251 16.1082 203.197 15.6511 203.141C15.1458 203.078 14.7206 203.029 14.3606 202.992C14.6136 202.725 14.8695 202.46 15.1211 202.198C16.075 201.209 17.0608 200.185 17.8978 199.103C19.0204 197.65 19.8698 195.727 20.6189 194.03C20.8095 193.598 20.9968 193.174 21.1832 192.768C22.1676 190.63 23.0704 188.414 23.8685 186.179C24.281 185.023 24.6728 183.841 25.0328 182.665C25.4699 181.241 26.3327 180.224 27.1181 178.931C25.4839 179.635 21.0478 179.959 19.4478 179.781C23.3749 173.216 26.0835 167.931 29.711 159.759L30.065 158.873L30.8099 157.215C28.9784 157.894 27.0598 158.074 25.2182 157.737C25.4428 157.427 25.6831 157.125 25.9304 156.813L26.1204 156.573C31.7239 149.463 33.7299 141.464 36.4204 133.082C35.3007 133.35 35.0915 133.447 33.5679 133.162C37.4525 128.282 40.9245 121.911 43.4122 115.106C43.4373 115.101 43.4624 115.095 43.4875 115.091L43.9443 113.535C42.9223 113.818 41.8535 113.918 40.7995 113.807C40.8179 113.786 40.8372 113.765 40.8556 113.744C41.0632 113.514 41.264 113.29 41.4256 113.076C42.7856 111.268 44.056 109.35 45.2021 107.377C46.394 105.324 47.6811 102.055 47.9232 99.7532L47.932 99.4883C47.0373 99.6871 45.7913 100.01 44.9124 99.9595C45.0456 99.7567 45.2321 99.5483 45.4362 99.3278C49.5703 94.8595 52.4877 89.4978 54.576 83.8552C53.1646 84.2386 52.1346 84.3749 50.9558 83.9991C50.8086 83.9516 50.7195 83.9123 50.691 83.8811C50.5939 83.7733 50.8043 83.2599 51.2948 82.7684C54.888 79.1716 57.9129 74.7876 60.093 70.0585C60.053 69.5571 59.9638 69.0493 59.8091 68.5452L59.9539 68.4101C59.8078 68.3682 59.6508 68.3688 59.5033 68.4262C59.059 68.6042 58.5792 68.688 58.0945 68.661C61.1428 65.7564 63.605 62.1495 65.255 58.1555L65.6682 57.1424C66.3245 55.5224 67.4153 52.8319 68.2346 51.2559Z" fill="white" stroke="black"/>
<path d="M47.2412 99.2072L51.5202 97.5632L49.1133 103.317C51.1636 102.495 55.7457 100.194 57.6712 97.5632L56.334 104.687C59.0084 104.048 65.9082 100.632 66.764 96.4672" stroke="black" stroke-linecap="round" stroke-linejoin="round"/>
<path d="M52.3787 84.0387C54.1388 83.7032 55.6555 83.3632 57.5162 82.0815L55.2043 87.2191C56.9169 86.3221 60.8043 84.0387 62.6538 82.0815" stroke="black" stroke-linecap="round" stroke-linejoin="round"/>
<path d="M86.2869 99.4512C84.5267 99.1156 83.01 98.7757 81.1493 97.494L83.4612 102.632C81.7487 101.735 77.8612 99.4512 76.0117 97.494" stroke="black" stroke-linecap="round" stroke-linejoin="round"/>
<path d="M95.5379 132.958L92.0868 130.766L92.8262 136.781C91.095 135.45 87.3517 132.043 86.2276 129.064L85.5782 136.058C83.2033 134.724 77.5529 129.639 77.862 125.531" stroke="black" stroke-linecap="round" stroke-linejoin="round"/>
<path d="M106.304 179.396L102.853 177.204L103.593 183.219C101.862 181.888 98.1182 178.481 96.9941 175.502L96.3447 182.496C93.9698 181.162 81.1698 172.083 81.4789 167.974" stroke="black" stroke-linecap="round" stroke-linejoin="round"/>
<path d="M33.9967 132.958C36.1186 133.223 43.5461 130.57 47.6177 129.039L45.6993 135.166C48.1827 133.804 53.6359 130.322 55.5813 127.286L55.3331 134.403C58.6624 133.036 66.8845 127.84 67.1255 123.658" stroke="black" stroke-linecap="round" stroke-linejoin="round"/>
<path d="M22.059 179.38C25.5075 179.38 34.1515 175.947 38.2232 174.416L36.3047 180.542C38.7881 179.181 44.2414 175.698 46.1868 172.663L45.9385 179.779C49.2679 178.413 57.49 173.216 57.731 169.034C58.5732 171.334 59.9393 176.25 58.666 177.523C57.0744 179.115 66.8893 175.667 68.4809 170.361C69.2767 172.573 70.7092 177.552 70.0725 179.779C69.2767 182.564 76.1737 176.993 78.2958 171.688" stroke="black" stroke-linecap="round" stroke-linejoin="round"/>
<path d="M43.1311 113.173L49.8551 109.824L46.8965 116.244C50.9643 114.267 53.0114 112.824 56.579 109.824L55.2342 116.244C58.0733 115.531 59.8016 114.215 63.034 109.824C63.034 110.847 63.8409 113.732 63.034 116.244C66.1523 115.344 67.8712 114.105 70.8338 109.824C70.6545 111.406 71.2641 114.904 75.1371 116.244L77.0198 110.103L78.2316 111.815C80.0668 114.139 84.0169 116.936 85.7626 118.044L83.605 112.073L88.3419 114.535" stroke="black"/>
<path d="M29.7732 157.195L39.8767 154.427L35.314 160.323C41.5872 158.507 44.7443 157.182 50.2462 154.427L48.1723 160.323C52.5507 159.669 55.216 158.46 60.201 154.427C60.201 155.367 61.4454 158.016 60.201 160.323C65.01 159.497 67.6609 158.359 72.2297 154.427C71.9532 155.88 72.8934 159.093 78.8663 160.323L81.7698 154.684L83.6385 156.256C86.4687 158.39 90.9498 161.21 93.6419 162.228L89.1179 152.917C92.1418 155.712 93.8801 157.233 97.8998 158.705C96.5844 155.597 96.0952 153.759 96.8353 149.898L103.754 154.176" stroke="black"/>
<path fill-rule="evenodd" clip-rule="evenodd" d="M134.514 183.883C140.909 183.592 147.299 184.569 153.319 186.758C159.338 188.946 164.871 192.303 169.599 196.637C174.327 200.972 178.159 206.199 180.876 212.019C183.593 217.84 185.141 224.141 185.433 230.561L88.0393 234.988C88.0371 234.938 88.0356 234.888 88.0335 234.839L50.636 236.539C50.6335 236.483 50.6325 236.426 50.6301 236.37L26.6819 237.557C26.4738 233.358 27.1476 229.155 28.6653 225.19C30.183 221.226 32.5152 217.576 35.5276 214.45C38.54 211.324 42.1744 208.782 46.2229 206.97C50.2714 205.159 54.6551 204.113 59.1233 203.891C60.8079 203.808 62.4922 203.842 64.1624 203.992C67.1803 201.256 70.5916 198.979 74.2874 197.241C79.1821 194.939 84.4811 193.629 89.8811 193.384C95.0334 193.149 100.181 193.891 105.058 195.564C108.379 192.714 112.075 190.32 116.048 188.452C121.845 185.726 128.119 184.173 134.514 183.883Z" fill="#B4D5F0"/>
<path fill-rule="evenodd" clip-rule="evenodd" d="M166.108 200.259C170.099 200.078 174.087 200.687 177.844 202.053C181.601 203.419 185.054 205.515 188.005 208.22C190.956 210.925 193.347 214.188 195.043 217.821C196.739 221.454 197.706 225.386 197.888 229.393L137.102 232.156C137.1 232.113 137.099 232.069 137.097 232.026L119.402 232.903C119.248 229.799 119.746 226.693 120.867 223.763C121.989 220.833 123.712 218.135 125.939 215.825C128.165 213.514 130.852 211.635 133.844 210.296C136.836 208.957 140.077 208.184 143.379 208.02C144.625 207.958 145.87 207.984 147.105 208.095C149.334 206.075 151.853 204.394 154.582 203.111C158.2 201.41 162.116 200.441 166.108 200.259Z" fill="#9199D6"/>
<path d="M297.467 0.500977L138.411 83.3689H198.249" stroke="black" stroke-width="1.12985"/>
<path d="M365.458 3.80859L198.342 83.152V237.802L223.927 247.433V109.945L299.436 86.3666V162.417V273.337L390.815 307.451" stroke="black" stroke-width="1.12985"/>
<path d="M281.95 1.24097L138.411 76.7783V83.3688" stroke="black" stroke-width="1.12985"/>
<ellipse cx="90.2435" cy="24.1012" rx="90.2435" ry="24.1012" transform="matrix(-0.999932 0.0116713 0.0116713 0.999932 337.361 269.196)" fill="#DCDCDC" style="mix-blend-mode:darken"/>
<path d="M368.795 242.528C376.821 186.058 346.324 171.537 329.227 172.306C329.227 175.595 266.272 216.26 250.79 225.416C235.309 234.571 223.267 258.376 227.052 274.124C230.079 286.722 269.137 292.552 288.287 293.893C333.483 291.946 352.879 278.686 363.896 258.13C366.483 253.303 368.024 247.95 368.795 242.528Z" fill="#F1F1F1"/>
<path d="M322.89 238.1C327.434 237.799 348.894 226.727 353.892 206.692M329.227 172.306C346.324 171.537 376.821 186.058 368.795 242.528C368.024 247.95 366.483 253.303 363.896 258.13C352.879 278.686 333.483 291.946 288.287 293.893C269.137 292.552 230.079 286.722 227.052 274.124C223.267 258.376 235.309 234.571 250.79 225.416C266.272 216.26 329.227 175.595 329.227 172.306Z" stroke="black" stroke-width="1.12985"/>
<path d="M238.376 296.4L250.176 281.772L236.268 279.265L225.936 296.4H238.376Z" fill="white" stroke="black" stroke-width="1.12985"/>
<path d="M214.74 291.195L223.929 277.739L210.935 275.261L203.148 292.705L214.74 291.195Z" fill="white" stroke="black" stroke-width="1.12985"/>
<path d="M270.98 243.679C297.009 239.128 305.013 233.599 305.761 231.403C301.722 210.086 283.321 207.552 274.626 208.949L238.624 226.791C236.491 227.848 234.703 229.492 233.471 231.53L201.698 284.097H207.869H222.127C259.108 241.895 250.597 260.345 262.004 249.367L270.98 243.679Z" fill="black"/>
<path d="M203.444 284.447C204.981 284.428 206.435 284.435 207.869 284.456C212.072 284.516 216.11 284.692 221.598 284.657C221.778 284.656 221.954 284.655 222.127 284.653L222.377 284.654L222.546 284.463C227.088 279.232 227.782 278.16 233.372 272.154C239.109 265.991 245.069 260.037 248.076 257.856C251.144 255.759 251.141 254.992 256.355 253.709C259.049 252.702 260.628 251.037 262.204 249.575L262.159 249.611C263.82 248.546 265.421 247.502 267.297 246.273C268.19 245.687 269.512 244.831 271.073 243.825L271.01 243.85C277.181 242.78 286.383 240.645 290.229 239.5C295.261 238.117 300.827 235.806 303.715 233.668C304.629 233.002 305.266 232.381 305.61 231.791C305.749 231.548 305.772 231.4 305.758 231.403C305.758 231.403 305.758 231.403 305.758 231.403C305.741 231.393 305.674 231.583 305.467 231.881C304.417 233.318 302.044 234.687 299.206 235.915C293.793 238.059 293.22 238.39 285.599 240.398C280.09 241.744 276.144 242.449 270.925 243.367L270.81 243.411C269.069 244.51 267.174 245.719 264.985 247.132C263.83 247.878 262.802 248.532 261.853 249.13L261.809 249.164C257.647 254.492 252.407 251.708 244.406 260.018C234.982 269.204 234.012 270.111 225.176 279.798C224.073 281.03 222.932 282.319 221.702 283.724L222.127 283.532C217.432 283.535 212.519 283.558 207.869 283.585C205.742 283.597 203.67 283.61 201.698 283.621L202.105 284.342C204.508 280.313 206.619 276.775 208.139 274.273C212.222 267.547 217.723 258.524 223.454 248.954C226.606 243.693 230.207 237.779 233.858 231.763C235.036 229.815 236.788 228.208 238.828 227.201C241.875 225.691 244.895 224.185 247.818 222.713C256.044 218.569 266.82 213.149 274.731 209.16L274.664 209.181C277.569 208.705 280.215 208.801 282.21 209.005C290.039 210.261 292.233 211.116 297.984 216.141C301.226 219.193 304.195 224.728 305.362 229.763C305.946 232.303 305.92 231.696 305.35 229.141C304.455 225.382 303.014 222.539 302.047 220.804C300.027 217.42 298.967 215.879 294.828 213.002C290.54 210.356 288.21 209.615 285.352 208.942C283.015 208.674 282.577 207.873 274.577 208.645L274.489 208.673C272.825 209.493 270.789 210.491 268.273 211.718C254.994 218.196 247.726 221.771 242.703 224.236C241.533 224.81 240.071 225.536 238.412 226.364C236.435 227.34 234.44 229.024 233.086 231.297C230.641 235.379 227.966 239.835 225.593 243.726C220.844 251.51 211.284 267.393 207.366 273.757C203.866 279.44 203.578 280.113 201.376 283.902L201.03 284.47L201.698 284.473C202.222 284.464 202.799 284.455 203.444 284.447Z" fill="black"/>
<path d="M299.046 244.135C325.338 239.525 333.422 233.924 334.177 231.7C330.097 210.105 311.512 207.537 302.729 208.953L266.058 227.179C264.097 228.154 262.425 229.627 261.212 231.45L225.1 285.687L245.499 287.203C253.432 284.049 278.458 261.019 289.98 249.898L299.046 244.135Z" fill="black" stroke="black" stroke-width="1.12985"/>
<path d="M224.959 285.729L261.657 231.227C262.095 230.577 262.688 230.047 263.382 229.684L287.11 217.289" stroke="white" stroke-width="1.12971" stroke-linecap="round"/>
<path d="M306.595 153.891C298.708 149.549 297.863 146.335 298.427 145.27C303.538 123.084 283.424 120.608 281.734 136.572C280.044 152.536 288.85 149.102 289.976 151.975C290.878 154.274 288.474 155.7 287.16 156.126C286.596 155.7 285.357 156.126 284.906 161.234C284.343 167.62 294.483 168.897 299.835 166.662C304.116 164.874 306.126 157.403 306.595 153.891Z" fill="white" stroke="black" stroke-width="1.12985"/>
<path d="M216.854 289.634L202.271 287.039L201.459 288.445C196.708 290.54 186.512 295.346 183.738 297.808C180.965 300.271 183.164 301.878 184.61 302.374L215.95 305.446L216.854 289.634Z" fill="#B4D5F0"/>
<path d="M184.826 298.002L214.193 301.438M202.271 287.039L216.854 289.634L215.95 305.446L184.61 302.374C183.164 301.878 180.965 300.271 183.738 297.808C186.512 295.346 196.708 290.54 201.459 288.445L202.271 287.039Z" stroke="black" stroke-width="1.12985"/>
<path d="M241.546 294.883L225.827 292.086L224.968 293.511C219.877 295.598 208.955 300.394 205.997 302.877C203.038 305.36 205.421 307.021 206.982 307.542L240.736 310.998L241.546 294.883Z" fill="#B4D5F0"/>
<path d="M207.169 303.085L238.804 306.893M225.827 292.086L241.546 294.883L240.736 310.998L206.982 307.542C205.421 307.021 203.038 305.36 205.997 302.877C208.955 300.394 219.877 295.598 224.968 293.511L225.827 292.086Z" stroke="black" stroke-width="1.12985"/>
<path d="M342.099 219.681C341.344 170.412 318.055 154.684 305.946 153.05C304.036 157.184 298.612 165.148 292.195 163.939C285.777 162.729 287.611 156.982 289.33 154.26C287.802 153.857 282.912 154.502 275.578 160.309C268.244 166.116 257.816 197.612 253.519 212.635L298.498 213.239H310.244C326.86 215.962 331.157 231.387 333.163 231.992C333.728 232.162 334.712 231.838 335.85 231.266C340.068 229.149 342.171 224.4 342.099 219.681Z" fill="#006DCC"/>
<path d="M281.804 142.352C273.284 127.461 282.349 120.467 289.862 124.933C290.186 123.75 291.838 122.995 295.792 124.153C300.734 125.601 301.923 134.257 301.878 136.587C301.842 138.452 299.938 137.833 298.99 137.29C299.905 146.08 295.948 149.517 293.855 150.137C285.16 154.639 282.445 146.839 282.175 142.377C282.954 144.573 285.947 144.883 287.346 144.763C300.741 144.485 296.858 128.531 293.423 132.018C290.675 134.808 285.142 134.034 282.719 133.298C283.404 136.113 282.128 138.412 282.22 140.047C282.293 141.354 282.215 142.362 281.804 142.352Z" fill="black"/>
<path d="M279.013 178.546L283.193 197.77" stroke="black" stroke-width="1.12985"/>
<path d="M304.503 173.111L295.739 198.171L266.055 199.44" stroke="black" stroke-width="1.12985"/>
<path d="M325.817 186.065C324.528 193.692 319.463 209.721 309.518 212.812" stroke="black" stroke-width="1.12985"/>
<path d="M301.448 139.96C301.743 137.893 299.592 138.341 298.479 138.823L297.952 143.991C299.652 144.846 301.079 142.545 301.448 139.96Z" fill="white" stroke="black" stroke-width="1.12985"/>
<path d="M300.245 223.785H292.854H282.441L268.428 190.415C267.805 188.932 266.354 187.967 264.745 187.967H223.526C221.825 187.967 220.665 189.69 221.305 191.267L236.336 228.253C236.58 228.855 237.166 229.249 237.816 229.249H300.245C301.754 229.249 302.977 228.026 302.977 226.517C302.977 225.008 301.754 223.785 300.245 223.785Z" fill="#F7F7FF" stroke="black" stroke-width="1.14176"/>
<path d="M0.0307077 239.697L197.734 229.335" stroke="black" stroke-width="1.17678"/>
</svg>
