<svg width="472" height="305" viewBox="0 0 472 305" fill="none" xmlns="http://www.w3.org/2000/svg">
<path d="M58.677 239.402C58.677 216.859 63.1087 194.536 71.7192 173.709C80.3296 152.881 92.9501 133.957 108.86 118.017C124.77 102.076 143.658 89.4313 164.446 80.8043C185.233 72.1773 207.513 67.7371 230.013 67.7371C252.513 67.7371 274.793 72.1773 295.58 80.8043C316.368 89.4313 335.256 102.076 351.166 118.017C367.076 133.957 379.696 152.881 388.307 173.709C396.917 194.536 401.349 216.859 401.349 239.402L58.677 239.402Z" fill="#B4D5F0"/>
<path d="M345.27 203.568C350.889 208.528 365.164 216.211 377.317 207.267C371.265 201.073 356.383 191.66 345.27 203.568Z" fill="#ACB8E4" stroke="black" stroke-width="1.1774" stroke-linecap="round"/>
<path d="M245.713 255.294C254.058 229.735 273.424 222.629 345.249 202.325" stroke="black" stroke-width="1.1774" stroke-linecap="round"/>
<path d="M315.705 215.231C320.942 211.998 334.252 209.114 345.594 223.437C342.103 227.304 331.238 231.075 315.705 215.231Z" fill="#ACB8E4"/>
<path d="M280.844 236.669C285.588 233.611 297.008 230.393 304.735 241.993C301.411 245.939 291.978 250.4 280.844 236.669Z" fill="#ACB8E4"/>
<path d="M315.705 215.231C320.942 211.998 334.252 209.114 345.594 223.437C342.103 227.304 331.238 231.075 315.705 215.231Z" stroke="black" stroke-width="1.1774" stroke-linecap="round"/>
<path d="M280.844 236.669C285.588 233.611 297.008 230.393 304.735 241.993C301.411 245.939 291.978 250.4 280.844 236.669Z" stroke="black" stroke-width="1.1774" stroke-linecap="round"/>
<path d="M313.206 214.029C312.771 207.659 314.765 194.079 326.216 190.712C328.196 195.565 328.366 207.024 313.206 214.029Z" fill="#ACB8E4" stroke="black" stroke-width="1.1774" stroke-linecap="round"/>
<path d="M344.49 201.345C343.183 197.226 343.707 183.719 354.761 177.327C356.163 187.242 359.475 195.734 344.49 201.345Z" fill="#ACB8E4" stroke="black" stroke-width="1.1774" stroke-linecap="round"/>
<path d="M280.064 234.447C280.029 227.243 283.51 211.584 297.711 206.582C299.358 211.275 298.134 223.419 280.064 234.447Z" fill="#ACB8E4" stroke="black" stroke-width="1.1774" stroke-linecap="round"/>
<path d="M301.024 181.683C307.554 176.608 323.716 168.195 336.128 175.147C322.095 181.339 311.166 195.43 301.024 181.683Z" fill="#ACB8E4" stroke="black" stroke-width="1.1774" stroke-linecap="round"/>
<path d="M329.326 153.396C336.609 148.888 354.477 141.706 367.689 149.042C353.555 152.115 346.862 161.825 329.326 153.396Z" fill="#ACB8E4"/>
<path d="M305.537 154.281C312.431 163.51 307.173 173.55 303.682 177.416L300.284 181.943C295.563 166.121 302.025 156.906 305.537 154.281Z" fill="#ACB8E4"/>
<path d="M329.326 153.396C336.609 148.888 354.477 141.706 367.689 149.042C353.555 152.115 346.862 161.825 329.326 153.396Z" stroke="black" stroke-width="1.1774" stroke-linecap="round"/>
<path d="M305.537 154.281C312.431 163.51 307.173 173.55 303.682 177.416L300.284 181.943C295.563 166.121 302.025 156.906 305.537 154.281Z" stroke="black" stroke-width="1.1774" stroke-linecap="round"/>
<path d="M352.614 136.867C350.754 129.196 350.215 111.318 362.943 101.172C366.256 106.666 368.828 121.497 352.614 136.867Z" fill="#ACB8E4" stroke="black" stroke-width="1.1774" stroke-linecap="round"/>
<path d="M328.328 152.915C325.882 149.891 323.36 140.177 332.841 125.514C335.254 126.468 337.729 133.284 328.328 152.915Z" fill="#ACB8E4"/>
<path d="M364.12 130.076C366.345 124.574 376.172 114.923 397.684 120.335C395.972 126.906 385.02 132.114 364.12 130.076Z" fill="#ACB8E4"/>
<path d="M328.328 152.915C325.882 149.891 323.36 140.177 332.841 125.514C335.254 126.468 337.729 133.284 328.328 152.915Z" stroke="black" stroke-width="1.1774" stroke-linecap="round"/>
<path d="M364.12 130.076C366.345 124.574 376.172 114.923 397.684 120.335C395.972 126.906 385.02 132.114 364.12 130.076Z" stroke="black" stroke-width="1.1774" stroke-linecap="round"/>
<path d="M248.127 254.086C262.226 211.373 293.056 164.423 364.907 130.455" stroke="black" stroke-width="1.1774" stroke-linecap="round"/>
<path d="M250.54 255.9C280.163 194.035 267.751 199.573 271.571 99.1426" stroke="black" stroke-width="1.1774" stroke-linecap="round"/>
<path d="M273.449 98.6885L272.228 98.7972C267.497 86.2395 284.832 73.1417 284.302 81.2154C283.756 89.5374 279.299 96.7036 273.449 98.6885Z" fill="#ACB8E4" stroke="black" stroke-width="1.1774" stroke-linecap="round"/>
<path d="M254.137 107.441C257.437 109.129 260.211 111.413 261.694 113.131C265.259 117.261 267.673 122.51 269.545 131.895C269.695 132.645 268.402 132.71 267.459 132.457C266.516 132.205 265.244 131.471 264.447 130.835C261.592 128.557 258.155 125.666 256.054 122.901C251.915 117.453 249.028 111.864 250.798 108.977C251.09 108.502 251.531 108.127 251.979 107.746C252.428 107.366 252.939 106.829 254.137 107.441Z" fill="#ACB8E4" stroke="black" stroke-width="1.1774" stroke-linecap="round"/>
<path d="M258.728 78.1172C261.603 79.8778 263.965 82.1384 265.194 83.7955C268.15 87.7782 269.992 92.6865 271.074 101.285C271.161 101.973 269.987 101.938 269.15 101.642C268.313 101.346 267.21 100.592 266.53 99.9608C264.096 97.7003 261.174 94.8438 259.454 92.1986C256.064 86.9856 253.817 81.7361 255.607 79.2609C255.902 78.853 256.326 78.547 256.756 78.2363C257.186 77.9256 257.684 77.4781 258.728 78.1172Z" fill="#ACB8E4" stroke="black" stroke-width="1.1774" stroke-linecap="round"/>
<path d="M249.989 139.986C253.439 141.34 256.425 143.339 258.07 144.902C262.023 148.661 264.942 153.646 267.728 162.8C267.951 163.531 266.671 163.724 265.707 163.565C264.744 163.407 263.406 162.802 262.55 162.248C259.485 160.264 255.78 157.725 253.418 155.182C248.763 150.169 245.341 144.892 246.818 141.844C247.062 141.342 247.464 140.926 247.873 140.503C248.281 140.08 248.737 139.495 249.989 139.986Z" fill="#ACB8E4" stroke="black" stroke-width="1.1774" stroke-linecap="round"/>
<path d="M273.092 159.305C276.419 157.787 280.458 155.802 283.156 153.542C286.521 150.724 290.902 146.066 290.639 138.887C290.502 135.138 281.862 140.116 279.863 141.573C275.414 144.819 271.838 149.589 267.843 158.863C267.524 159.604 268.778 160.066 269.762 160.089C270.746 160.112 272.164 159.729 273.092 159.305Z" fill="#ACB8E4" stroke="black" stroke-width="1.1774" stroke-linecap="round"/>
<path d="M254.984 189.727C252.824 184.348 251.508 176.605 253.404 177.889C257.464 180.638 259.833 182.713 260.782 184.767C262.735 188.998 263.651 193.616 263.479 200.995C263.466 201.585 262.498 201.168 261.841 200.649C261.185 200.13 260.365 199.149 259.881 198.409C258.145 195.757 256.08 192.457 254.984 189.727Z" fill="#ACB8E4" stroke="black" stroke-width="1.1774" stroke-linecap="round"/>
<path d="M263.018 229.676C266.344 228.157 270.384 226.172 273.082 223.913C276.447 221.094 280.827 216.436 280.565 209.258C280.428 205.508 271.788 210.486 269.789 211.944C265.34 215.19 261.764 219.959 257.769 229.233C257.45 229.974 258.704 230.437 259.688 230.459C260.672 230.482 262.089 230.1 263.018 229.676Z" fill="#ACB8E4" stroke="black" stroke-width="1.1774" stroke-linecap="round"/>
<path d="M269.429 193.346C272.88 191.812 277.074 189.813 279.894 187.578C283.412 184.789 288.012 180.205 287.89 173.285C287.826 169.671 278.841 174.652 276.756 176.099C272.115 179.323 268.34 183.998 264.041 193.027C263.698 193.749 264.978 194.169 265.989 194.171C267 194.172 268.465 193.774 269.429 193.346Z" fill="#ACB8E4" stroke="black" stroke-width="1.1774" stroke-linecap="round"/>
<path d="M274.175 126.893C277.205 125.702 280.891 124.13 283.397 122.249C286.523 119.904 290.64 115.971 290.748 109.576C290.804 106.236 282.885 110.249 281.039 111.45C276.929 114.124 273.522 118.194 269.529 126.249C269.21 126.893 270.303 127.364 271.177 127.431C272.051 127.498 273.329 127.226 274.175 126.893Z" fill="#ACB8E4" stroke="black" stroke-width="1.1774" stroke-linecap="round"/>
<path d="M253.289 227.58C250.86 224.886 247.972 221.475 246.456 218.274C244.564 214.28 242.537 208.104 245.946 201.1C247.727 197.441 253.581 205.461 254.8 207.619C257.513 212.423 258.742 218.422 258.374 229.024C258.345 229.871 256.973 229.879 256.046 229.549C255.119 229.218 253.967 228.332 253.289 227.58Z" fill="#ACB8E4" stroke="black" stroke-width="1.1774" stroke-linecap="round"/>
<path d="M6.0376e-05 240.579L241.711 240.579L471.761 240.579" stroke="black" stroke-width="1.18413"/>
<path d="M220.976 63.0341V-2.41238e-05" stroke="black" stroke-width="1.18413"/>
<path d="M287.176 211.305C305.657 220.868 350.119 222.107 370.04 221.531L373.496 271.151C327.367 276.485 295.528 261.408 285.374 253.203L287.176 211.305Z" fill="#F3F3F3" stroke="black" stroke-width="1.18413"/>
<path d="M413.639 270.078C404.757 272.794 359.599 275.917 348.227 276.644C351.914 257.807 350.797 238.348 344.979 220.067L344.538 218.682C357.937 217.647 398.688 216.118 408.991 215.759L413.639 270.078Z" fill="#006DCC"/>
<path d="M400.19 218.513C380.471 221.402 327.258 223.873 307.794 216.523" stroke="black" stroke-width="1.18413"/>
<path d="M314.813 204.919C315.036 158.71 239.869 84.4756 202.258 53.1345L105.785 93.1517C145.52 126.228 177.105 149.242 191.199 169.066C189.78 240.781 221.51 234.485 228.455 245.384C234.011 254.104 241.518 254.921 244.577 254.239C253.377 258.743 262.05 268.572 285.537 253.59C301.804 243.215 314.704 227.578 314.813 204.919Z" fill="white"/>
<path d="M106.273 93.6786C151.919 129.674 175.432 151.891 191.583 169.632C190.132 241.341 221.894 235.031 228.84 245.926C234.397 254.643 241.91 255.456 244.972 254.774C253.778 259.274 262.455 269.097 285.97 254.107C302.256 243.726 315.175 228.084 315.294 205.427C315.274 194.053 308.194 162.79 277.54 129.674" stroke="black" stroke-width="1.18413" stroke-linecap="round"/>
<path d="M229.079 214.186C226.792 212.915 223.975 210.065 221.324 206.796L216.256 200.882" stroke="black" stroke-width="1.18413" stroke-linecap="round"/>
<path d="M294.346 207.004C298.132 224.735 288.562 254.966 275.525 259.581" stroke="black" stroke-width="1.18413" stroke-linecap="round" stroke-linejoin="bevel"/>
<path d="M308.971 210.329C311.258 216.819 312.5 225.366 306.45 234.771" stroke="black" stroke-width="1.18413" stroke-linecap="round" stroke-linejoin="bevel"/>
<path d="M245.494 254.96C255.497 257.942 274.128 244.704 271.921 222.551" stroke="black" stroke-width="1.18413" stroke-linecap="round" stroke-linejoin="bevel"/>
<path d="M226.926 207.525C217.471 195.521 230.431 193.244 241.063 193.682C244.116 193.807 247.451 194.246 249.479 196.531C252.514 199.952 249.766 204.347 247.502 206.511C255.851 211.328 251.93 216.701 248.926 218.786C257.059 224.538 252.071 229.342 248.56 231.024C256.145 241.881 236.778 243.021 233.099 241.85C226.965 239.897 229.437 232.438 231.44 228.953C225.029 228.528 226.11 221.714 227.452 218.359C223.088 214.314 225.283 209.451 226.926 207.525Z" fill="#F3F3F3"/>
<path d="M226.912 207.532C225.269 209.458 223.074 214.321 227.438 218.366C226.096 221.72 225.015 228.535 231.426 228.959C229.423 232.445 226.543 238.634 233.63 242.362" stroke="black" stroke-width="1.18413" stroke-linecap="round"/>
<path d="M245.259 194.191C253.637 197.573 249.984 203.912 247.111 206.659C255.46 211.476 251.539 216.849 248.535 218.933C256.668 224.686 251.68 229.489 248.169 231.172C255.754 242.029 236.387 243.169 232.708 241.998C230.466 242.252 224.379 242.085 217.494 238.138" stroke="black" stroke-width="1.18413" stroke-linecap="round"/>
<path d="M247.19 206.627C244.933 206.294 239.237 205.362 232.549 206.466M248.614 218.901C245.264 216.608 235.79 217.484 229.787 218.899" stroke="black" stroke-width="1.18413" stroke-linecap="round" stroke-linejoin="bevel"/>
<path d="M248.367 231.453C244.706 229.277 238.323 227.419 232.18 229.029" stroke="black" stroke-width="1.18413" stroke-linecap="round" stroke-linejoin="bevel"/>
<path d="M240.256 241.991C238.648 242.124 234.864 241.822 232.588 239.551" stroke="black" stroke-width="1.18413" stroke-linecap="round"/>
<path d="M114.971 109.642C114.52 109.583 114.108 109.516 113.737 109.445C112.379 109.187 111.28 108.238 110.63 107.017L105.883 98.0998C104.534 95.5667 105.462 92.4214 107.968 91.0298L195.519 42.4134C197.473 41.3284 199.9 41.5992 201.569 43.0885L222.286 61.5698C223.827 62.9446 224.435 65.0981 223.795 67.0606C223.482 68.0192 223.189 68.8716 222.93 69.5307C222.133 71.175 220.539 72.4119 218.411 73.832C217.82 74.2265 217.141 74.5284 216.44 74.415C213.702 73.9726 210.372 70.787 209.43 72.6565C208.014 75.4627 206.775 80.2073 203.682 79.6155C201.035 79.1088 196.854 74.6165 195.206 77.4091C194.074 79.327 193.562 81.8963 192.176 82.6216C190.887 83.2961 189.637 84.7402 188.031 84.4572C185.679 84.0429 182.845 80.5262 180.562 82.1247C179.601 82.7977 179.392 84.1979 178.467 85.0429C176.348 86.9798 173.395 90.1083 170.877 88.933C169.466 88.2743 167.355 86.8126 165.203 87.0579C164.427 87.1463 164.308 87.769 163.959 88.2949C162.531 90.4478 161.406 94.5137 158.583 94.0719C156.526 93.7499 152.892 88.7055 149.338 91.1836C146.863 92.9087 145.681 96.1487 143.001 97.319C140.122 98.5767 134.846 94.2356 133.248 96.755C132.618 97.749 132.252 100.413 129.75 101.724C126.263 103.551 122.047 100.88 120.305 103.635C118.818 105.987 117.736 110.003 114.971 109.642Z" fill="#9199D6"/>
<path d="M239.401 193.342C229.568 191.918 222.463 196.547 224.493 203.667" stroke="black" stroke-width="1.18413" stroke-linecap="round"/>
</svg>
