<svg width="386" height="256" viewBox="0 0 386 256" fill="none" xmlns="http://www.w3.org/2000/svg">
<rect width="385.048" height="255.086" rx="9.44763" fill="#CDCDCD"/>
<path d="M58.0049 46.0096C58.0049 42.1436 61.1389 39.0096 65.0049 39.0096L318.278 39.0096C323.249 39.0096 327.278 43.0391 327.278 48.0096L327.278 208.119C327.278 211.985 324.144 215.119 320.278 215.119L67.0049 215.119C62.0343 215.119 58.0049 211.09 58.0049 206.119L58.0049 46.0096Z" fill="black" stroke="black" stroke-linecap="round"/>
<path d="M321.297 204.727C321.297 206.336 319.993 207.639 318.385 207.639L60.9121 207.639C59.3037 207.639 57.9998 206.336 57.9998 204.727L57.9998 45.9999C57.9998 42.1339 61.1338 38.9999 64.9998 38.9999L314.297 39C318.163 39 321.297 42.134 321.297 46L321.297 204.727Z" fill="#D9D9D9" stroke="black" stroke-linecap="round"/>
<path d="M58.0039 203.638C58.0039 205.847 59.7948 207.638 62.0039 207.638L150.166 207.638V39.0104H65.0039C61.1379 39.0104 58.0039 42.1444 58.0039 46.0104V203.638Z" fill="white" stroke="black" stroke-linecap="round"/>
<rect x="67.2314" y="52.8816" width="34.5301" height="10.2198" rx="2" fill="#D9D9D9"/>
<path d="M59.4512 71.5405H149.165V99.2877H59.4512V71.5405Z" fill="white"/>
<path d="M59.4512 99.2886H149.165V127.036H59.4512V99.2886Z" fill="white"/>
<path d="M59.4512 127.036H149.165V154.783H59.4512V127.036Z" fill="white"/>
<path d="M61.668 133.846C61.668 132.189 63.0111 130.846 64.668 130.846H143.934C145.591 130.846 146.934 132.189 146.934 133.846V150.255C146.934 151.912 145.591 153.255 143.934 153.255H64.668C63.0111 153.255 61.668 151.912 61.668 150.255V133.846Z" fill="#D9D9D9"/>
<path d="M59.4512 154.782H149.165V182.529H59.4512V154.782Z" fill="white"/>
<rect width="53.5101" height="5.03889" rx="2.51945" transform="matrix(-1 0 0 1 120.741 82.895)" fill="#D9D9D9"/>
<rect width="31.8753" height="5.03889" rx="2.51945" transform="matrix(-1 0 0 1 99.1074 166.136)" fill="#DCDCDC"/>
<rect width="42.0564" height="5.03889" rx="2.51945" transform="matrix(-1 0 0 1 109.288 110.643)" fill="#D9D9D9"/>
<rect width="49.9043" height="5.03889" rx="2.51945" transform="matrix(-1 0 0 1 117.139 139.532)" fill="white"/>
<path d="M66.333 99.2312H141.843M66.333 71.5163H141.843M66.333 158.659H141.843M66.333 126.659H141.843" stroke="#D9D9D9" stroke-linecap="round" stroke-linejoin="round"/>
</svg>
