<svg width="890" height="631" viewBox="0 0 890 631" fill="none" xmlns="http://www.w3.org/2000/svg">
<rect x="360" y="2" width="176" height="176" rx="6" fill="#CDF4D3" stroke="#66D575" stroke-width="4" stroke-linecap="round"/>
<path d="M419.065 84H417.201L421.389 72.3636H423.417L427.605 84H425.741L422.451 74.4773H422.36L419.065 84ZM419.377 79.4432H425.423V80.9205H419.377V79.4432ZM430.672 78.8182V84H428.973V75.2727H430.603V76.6932H430.711C430.912 76.2311 431.226 75.8598 431.654 75.5795C432.086 75.2992 432.63 75.1591 433.285 75.1591C433.88 75.1591 434.401 75.2841 434.848 75.5341C435.295 75.7803 435.641 76.1477 435.887 76.6364C436.134 77.125 436.257 77.7292 436.257 78.4489V84H434.558V78.6534C434.558 78.0208 434.393 77.5265 434.064 77.1705C433.734 76.8106 433.281 76.6307 432.706 76.6307C432.312 76.6307 431.961 76.7159 431.654 76.8864C431.351 77.0568 431.111 77.3068 430.933 77.6364C430.759 77.9621 430.672 78.3561 430.672 78.8182ZM442.018 87.4545C441.325 87.4545 440.728 87.3636 440.228 87.1818C439.732 87 439.327 86.7595 439.013 86.4602C438.698 86.161 438.463 85.8333 438.308 85.4773L439.768 84.875C439.871 85.0417 440.007 85.2178 440.177 85.4034C440.352 85.5928 440.586 85.7538 440.882 85.8864C441.181 86.0189 441.566 86.0852 442.035 86.0852C442.679 86.0852 443.211 85.928 443.632 85.6136C444.052 85.303 444.263 84.8068 444.263 84.125V82.4091H444.155C444.052 82.5947 443.905 82.8011 443.711 83.0284C443.522 83.2557 443.261 83.4527 442.927 83.6193C442.594 83.786 442.16 83.8693 441.626 83.8693C440.937 83.8693 440.316 83.7083 439.763 83.3864C439.213 83.0606 438.778 82.5814 438.456 81.9489C438.138 81.3125 437.978 80.5303 437.978 79.6023C437.978 78.6742 438.136 77.8788 438.45 77.2159C438.768 76.553 439.204 76.0455 439.757 75.6932C440.31 75.3371 440.937 75.1591 441.638 75.1591C442.179 75.1591 442.617 75.25 442.95 75.4318C443.283 75.6098 443.543 75.8182 443.728 76.0568C443.918 76.2955 444.064 76.5057 444.166 76.6875H444.291V75.2727H445.956V84.1932C445.956 84.9432 445.782 85.5587 445.433 86.0398C445.085 86.5208 444.613 86.8769 444.018 87.108C443.427 87.339 442.761 87.4545 442.018 87.4545ZM442.001 82.4602C442.49 82.4602 442.903 82.3466 443.24 82.1193C443.581 81.8883 443.838 81.5587 444.013 81.1307C444.191 80.6989 444.28 80.1818 444.28 79.5795C444.28 78.9924 444.193 78.4754 444.018 78.0284C443.844 77.5814 443.588 77.233 443.251 76.983C442.914 76.7292 442.497 76.6023 442.001 76.6023C441.49 76.6023 441.064 76.7348 440.723 77C440.382 77.2614 440.124 77.6174 439.95 78.0682C439.78 78.5189 439.694 79.0227 439.694 79.5795C439.694 80.1515 439.782 80.6534 439.956 81.0852C440.13 81.517 440.388 81.8542 440.728 82.0966C441.073 82.339 441.497 82.4602 442.001 82.4602ZM453.587 80.3807V75.2727H455.291V84H453.621V82.4886H453.53C453.329 82.9545 453.007 83.3428 452.564 83.6534C452.124 83.9602 451.577 84.1136 450.922 84.1136C450.361 84.1136 449.865 83.9905 449.433 83.7443C449.005 83.4943 448.668 83.125 448.422 82.6364C448.179 82.1477 448.058 81.5436 448.058 80.8239V75.2727H449.757V80.6193C449.757 81.214 449.922 81.6875 450.251 82.0398C450.581 82.392 451.009 82.5682 451.535 82.5682C451.854 82.5682 452.17 82.4886 452.484 82.3295C452.802 82.1705 453.066 81.9299 453.274 81.608C453.486 81.286 453.59 80.8769 453.587 80.3807ZM459.097 72.3636V84H457.398V72.3636H459.097ZM463.746 84.1932C463.193 84.1932 462.693 84.0909 462.246 83.8864C461.799 83.678 461.445 83.3769 461.183 82.983C460.926 82.589 460.797 82.1061 460.797 81.5341C460.797 81.0417 460.892 80.6364 461.081 80.3182C461.271 80 461.526 79.7481 461.848 79.5625C462.17 79.3769 462.53 79.2367 462.928 79.142C463.325 79.0473 463.731 78.9754 464.144 78.9261C464.666 78.8655 465.091 78.8163 465.416 78.7784C465.742 78.7367 465.979 78.6705 466.127 78.5795C466.274 78.4886 466.348 78.3409 466.348 78.1364V78.0966C466.348 77.6004 466.208 77.2159 465.928 76.9432C465.651 76.6705 465.238 76.5341 464.689 76.5341C464.117 76.5341 463.666 76.661 463.337 76.9148C463.011 77.1648 462.786 77.4432 462.661 77.75L461.064 77.3864C461.254 76.8561 461.53 76.428 461.894 76.1023C462.261 75.7727 462.683 75.5341 463.161 75.3864C463.638 75.2348 464.14 75.1591 464.666 75.1591C465.015 75.1591 465.384 75.2008 465.774 75.2841C466.168 75.3636 466.536 75.5114 466.877 75.7273C467.221 75.9432 467.504 76.2519 467.723 76.6534C467.943 77.0511 468.053 77.5682 468.053 78.2045V84H466.394V82.8068H466.325C466.216 83.0265 466.051 83.2424 465.831 83.4545C465.611 83.6667 465.329 83.8428 464.985 83.983C464.64 84.1231 464.227 84.1932 463.746 84.1932ZM464.115 82.8295C464.585 82.8295 464.986 82.7367 465.32 82.5511C465.657 82.3655 465.913 82.1231 466.087 81.8239C466.265 81.5208 466.354 81.197 466.354 80.8523V79.7273C466.293 79.7879 466.176 79.8447 466.002 79.8977C465.831 79.947 465.636 79.9905 465.416 80.0284C465.197 80.0625 464.983 80.0947 464.774 80.125C464.566 80.1515 464.392 80.1742 464.252 80.1932C463.922 80.2348 463.621 80.3049 463.348 80.4034C463.079 80.5019 462.863 80.6439 462.7 80.8295C462.541 81.0114 462.462 81.2538 462.462 81.5568C462.462 81.9773 462.617 82.2955 462.928 82.5114C463.238 82.7235 463.634 82.8295 464.115 82.8295ZM470.14 84V75.2727H471.782V76.6591H471.872C472.032 76.1894 472.312 75.8201 472.713 75.5511C473.119 75.2784 473.577 75.142 474.088 75.142C474.194 75.142 474.319 75.1458 474.463 75.1534C474.611 75.161 474.727 75.1705 474.81 75.1818V76.8068C474.742 76.7879 474.621 76.767 474.446 76.7443C474.272 76.7178 474.098 76.7045 473.924 76.7045C473.522 76.7045 473.164 76.7898 472.85 76.9602C472.539 77.1269 472.293 77.3598 472.111 77.6591C471.929 77.9545 471.838 78.2917 471.838 78.6705V84H470.14ZM405.97 108.176C405.125 108.176 404.398 107.985 403.788 107.602C403.182 107.216 402.716 106.684 402.39 106.006C402.064 105.328 401.901 104.551 401.901 103.676C401.901 102.79 402.068 102.008 402.401 101.33C402.735 100.648 403.204 100.116 403.81 99.733C404.417 99.3504 405.131 99.1591 405.953 99.1591C406.615 99.1591 407.206 99.2822 407.725 99.5284C408.244 99.7708 408.663 100.112 408.981 100.551C409.303 100.991 409.494 101.504 409.555 102.091H407.901C407.81 101.682 407.602 101.33 407.276 101.034C406.954 100.739 406.523 100.591 405.981 100.591C405.507 100.591 405.093 100.716 404.737 100.966C404.384 101.212 404.11 101.564 403.913 102.023C403.716 102.477 403.617 103.015 403.617 103.636C403.617 104.273 403.714 104.822 403.907 105.284C404.1 105.746 404.373 106.104 404.725 106.358C405.081 106.612 405.5 106.739 405.981 106.739C406.303 106.739 406.595 106.68 406.856 106.562C407.121 106.441 407.343 106.269 407.521 106.045C407.703 105.822 407.829 105.553 407.901 105.239H409.555C409.494 105.803 409.31 106.307 409.004 106.75C408.697 107.193 408.286 107.542 407.771 107.795C407.259 108.049 406.659 108.176 405.97 108.176ZM414.872 108.176C414.054 108.176 413.339 107.989 412.73 107.614C412.12 107.239 411.646 106.714 411.309 106.04C410.972 105.366 410.804 104.578 410.804 103.676C410.804 102.771 410.972 101.979 411.309 101.301C411.646 100.623 412.12 100.097 412.73 99.7216C413.339 99.3466 414.054 99.1591 414.872 99.1591C415.69 99.1591 416.404 99.3466 417.014 99.7216C417.624 100.097 418.097 100.623 418.434 101.301C418.771 101.979 418.94 102.771 418.94 103.676C418.94 104.578 418.771 105.366 418.434 106.04C418.097 106.714 417.624 107.239 417.014 107.614C416.404 107.989 415.69 108.176 414.872 108.176ZM414.877 106.75C415.408 106.75 415.847 106.61 416.196 106.33C416.544 106.049 416.802 105.676 416.968 105.21C417.139 104.744 417.224 104.231 417.224 103.67C417.224 103.114 417.139 102.602 416.968 102.136C416.802 101.667 416.544 101.29 416.196 101.006C415.847 100.722 415.408 100.58 414.877 100.58C414.343 100.58 413.9 100.722 413.548 101.006C413.199 101.29 412.94 101.667 412.769 102.136C412.603 102.602 412.519 103.114 412.519 103.67C412.519 104.231 412.603 104.744 412.769 105.21C412.94 105.676 413.199 106.049 413.548 106.33C413.9 106.61 414.343 106.75 414.877 106.75ZM420.66 108V99.2727H422.291V100.693H422.399C422.581 100.212 422.878 99.8371 423.291 99.5682C423.704 99.2955 424.198 99.1591 424.774 99.1591C425.357 99.1591 425.846 99.2955 426.24 99.5682C426.637 99.8409 426.931 100.216 427.12 100.693H427.211C427.42 100.227 427.751 99.8561 428.206 99.5795C428.66 99.2992 429.202 99.1591 429.831 99.1591C430.622 99.1591 431.268 99.4072 431.768 99.9034C432.272 100.4 432.524 101.148 432.524 102.148V108H430.825V102.307C430.825 101.716 430.664 101.288 430.342 101.023C430.02 100.758 429.636 100.625 429.189 100.625C428.636 100.625 428.206 100.795 427.899 101.136C427.592 101.473 427.439 101.907 427.439 102.438V108H425.745V102.199C425.745 101.725 425.598 101.345 425.302 101.057C425.007 100.769 424.622 100.625 424.149 100.625C423.827 100.625 423.529 100.71 423.257 100.881C422.988 101.047 422.77 101.28 422.603 101.58C422.44 101.879 422.359 102.225 422.359 102.619V108H420.66ZM434.625 111.273V99.2727H436.284V100.688H436.426C436.524 100.506 436.666 100.295 436.852 100.057C437.038 99.8182 437.295 99.6098 437.625 99.4318C437.954 99.25 438.39 99.1591 438.932 99.1591C439.636 99.1591 440.265 99.3371 440.818 99.6932C441.371 100.049 441.805 100.562 442.119 101.233C442.437 101.903 442.596 102.71 442.596 103.653C442.596 104.597 442.439 105.405 442.125 106.08C441.81 106.75 441.379 107.267 440.829 107.631C440.28 107.991 439.653 108.17 438.949 108.17C438.418 108.17 437.985 108.081 437.648 107.903C437.314 107.725 437.053 107.517 436.863 107.278C436.674 107.04 436.528 106.828 436.426 106.642H436.324V111.273H434.625ZM436.29 103.636C436.29 104.25 436.379 104.788 436.557 105.25C436.735 105.712 436.992 106.074 437.329 106.335C437.666 106.593 438.079 106.722 438.568 106.722C439.076 106.722 439.5 106.587 439.841 106.318C440.182 106.045 440.439 105.676 440.613 105.21C440.791 104.744 440.88 104.22 440.88 103.636C440.88 103.061 440.793 102.544 440.619 102.085C440.449 101.627 440.191 101.265 439.846 101C439.505 100.735 439.079 100.602 438.568 100.602C438.076 100.602 437.659 100.729 437.318 100.983C436.981 101.237 436.725 101.591 436.551 102.045C436.377 102.5 436.29 103.03 436.29 103.636ZM448 108.176C447.182 108.176 446.468 107.989 445.858 107.614C445.248 107.239 444.775 106.714 444.437 106.04C444.1 105.366 443.932 104.578 443.932 103.676C443.932 102.771 444.1 101.979 444.437 101.301C444.775 100.623 445.248 100.097 445.858 99.7216C446.468 99.3466 447.182 99.1591 448 99.1591C448.818 99.1591 449.532 99.3466 450.142 99.7216C450.752 100.097 451.225 100.623 451.562 101.301C451.9 101.979 452.068 102.771 452.068 103.676C452.068 104.578 451.9 105.366 451.562 106.04C451.225 106.714 450.752 107.239 450.142 107.614C449.532 107.989 448.818 108.176 448 108.176ZM448.006 106.75C448.536 106.75 448.975 106.61 449.324 106.33C449.672 106.049 449.93 105.676 450.097 105.21C450.267 104.744 450.352 104.231 450.352 103.67C450.352 103.114 450.267 102.602 450.097 102.136C449.93 101.667 449.672 101.29 449.324 101.006C448.975 100.722 448.536 100.58 448.006 100.58C447.472 100.58 447.028 100.722 446.676 101.006C446.328 101.29 446.068 101.667 445.898 102.136C445.731 102.602 445.648 103.114 445.648 103.67C445.648 104.231 445.731 104.744 445.898 105.21C446.068 105.676 446.328 106.049 446.676 106.33C447.028 106.61 447.472 106.75 448.006 106.75ZM455.487 102.818V108H453.788V99.2727H455.419V100.693H455.527C455.728 100.231 456.042 99.8598 456.47 99.5795C456.902 99.2992 457.446 99.1591 458.101 99.1591C458.696 99.1591 459.216 99.2841 459.663 99.5341C460.11 99.7803 460.457 100.148 460.703 100.636C460.949 101.125 461.073 101.729 461.073 102.449V108H459.374V102.653C459.374 102.021 459.209 101.527 458.879 101.17C458.55 100.811 458.097 100.631 457.521 100.631C457.127 100.631 456.777 100.716 456.47 100.886C456.167 101.057 455.927 101.307 455.749 101.636C455.574 101.962 455.487 102.356 455.487 102.818ZM466.936 108.176C466.076 108.176 465.336 107.992 464.715 107.625C464.097 107.254 463.62 106.733 463.283 106.062C462.95 105.388 462.783 104.598 462.783 103.693C462.783 102.799 462.95 102.011 463.283 101.33C463.62 100.648 464.09 100.116 464.692 99.733C465.298 99.3504 466.006 99.1591 466.817 99.1591C467.309 99.1591 467.787 99.2405 468.249 99.4034C468.711 99.5663 469.126 99.822 469.493 100.17C469.861 100.519 470.15 100.972 470.362 101.528C470.575 102.081 470.681 102.754 470.681 103.545V104.148H463.743V102.875H469.016C469.016 102.428 468.925 102.032 468.743 101.688C468.561 101.339 468.306 101.064 467.976 100.864C467.65 100.663 467.268 100.562 466.828 100.562C466.351 100.562 465.934 100.68 465.578 100.915C465.226 101.146 464.953 101.449 464.76 101.824C464.571 102.195 464.476 102.598 464.476 103.034V104.028C464.476 104.612 464.578 105.108 464.783 105.517C464.991 105.926 465.281 106.239 465.652 106.455C466.023 106.667 466.457 106.773 466.953 106.773C467.275 106.773 467.569 106.727 467.834 106.636C468.099 106.542 468.328 106.402 468.522 106.216C468.715 106.03 468.862 105.801 468.965 105.528L470.573 105.818C470.444 106.292 470.213 106.706 469.879 107.062C469.55 107.415 469.135 107.689 468.635 107.886C468.139 108.08 467.573 108.176 466.936 108.176ZM474.088 102.818V108H472.39V99.2727H474.02V100.693H474.128C474.329 100.231 474.643 99.8598 475.071 99.5795C475.503 99.2992 476.047 99.1591 476.702 99.1591C477.297 99.1591 477.818 99.2841 478.265 99.5341C478.712 99.7803 479.058 100.148 479.304 100.636C479.551 101.125 479.674 101.729 479.674 102.449V108H477.975V102.653C477.975 102.021 477.81 101.527 477.48 101.17C477.151 100.811 476.698 100.631 476.122 100.631C475.729 100.631 475.378 100.716 475.071 100.886C474.768 101.057 474.528 101.307 474.35 101.636C474.176 101.962 474.088 102.356 474.088 102.818ZM485.85 99.2727V100.636H481.083V99.2727H485.85ZM482.361 97.1818H484.06V105.438C484.06 105.767 484.109 106.015 484.208 106.182C484.306 106.345 484.433 106.456 484.589 106.517C484.748 106.574 484.92 106.602 485.106 106.602C485.242 106.602 485.361 106.593 485.464 106.574C485.566 106.555 485.645 106.54 485.702 106.528L486.009 107.932C485.911 107.97 485.77 108.008 485.589 108.045C485.407 108.087 485.179 108.11 484.907 108.114C484.46 108.121 484.043 108.042 483.657 107.875C483.27 107.708 482.958 107.451 482.719 107.102C482.481 106.754 482.361 106.316 482.361 105.79V97.1818ZM493.952 101.403L492.413 101.676C492.348 101.479 492.246 101.292 492.106 101.114C491.969 100.936 491.784 100.79 491.549 100.676C491.314 100.562 491.021 100.506 490.668 100.506C490.187 100.506 489.786 100.614 489.464 100.83C489.142 101.042 488.981 101.316 488.981 101.653C488.981 101.945 489.089 102.18 489.305 102.358C489.521 102.536 489.869 102.682 490.35 102.795L491.736 103.114C492.539 103.299 493.138 103.585 493.532 103.972C493.926 104.358 494.123 104.86 494.123 105.477C494.123 106 493.971 106.466 493.668 106.875C493.369 107.28 492.95 107.598 492.413 107.83C491.878 108.061 491.259 108.176 490.555 108.176C489.577 108.176 488.78 107.968 488.163 107.551C487.545 107.131 487.166 106.534 487.026 105.761L488.668 105.511C488.771 105.939 488.981 106.263 489.299 106.483C489.617 106.699 490.032 106.807 490.543 106.807C491.1 106.807 491.545 106.691 491.878 106.46C492.212 106.225 492.378 105.939 492.378 105.602C492.378 105.33 492.276 105.1 492.072 104.915C491.871 104.729 491.562 104.589 491.146 104.494L489.668 104.17C488.854 103.985 488.252 103.689 487.861 103.284C487.475 102.879 487.282 102.366 487.282 101.744C487.282 101.229 487.426 100.778 487.714 100.392C488.002 100.006 488.399 99.7045 488.907 99.4886C489.414 99.2689 489.996 99.1591 490.651 99.1591C491.594 99.1591 492.337 99.3636 492.878 99.7727C493.42 100.178 493.778 100.722 493.952 101.403Z" fill="black" fill-opacity="0.8"/>
<rect x="2" y="116.085" width="176" height="176" rx="6" fill="#C2E5FF" stroke="#3DADFF" stroke-width="4" stroke-linecap="round"/>
<path d="M25.8201 198.085L22.5928 186.449H24.4394L26.7064 195.46H26.8144L29.1723 186.449H31.0019L33.3598 195.466H33.4678L35.7292 186.449H37.5814L34.3485 198.085H32.5814L30.1326 189.37H30.0417L27.5928 198.085H25.8201ZM41.7719 198.262C40.9121 198.262 40.1715 198.078 39.5503 197.71C38.9329 197.339 38.4556 196.818 38.1185 196.148C37.7852 195.474 37.6185 194.684 37.6185 193.779C37.6185 192.885 37.7852 192.097 38.1185 191.415C38.4556 190.733 38.9253 190.201 39.5276 189.818C40.1337 189.436 40.842 189.245 41.6526 189.245C42.145 189.245 42.6223 189.326 43.0844 189.489C43.5465 189.652 43.9613 189.907 44.3287 190.256C44.6962 190.604 44.9859 191.057 45.198 191.614C45.4102 192.167 45.5162 192.839 45.5162 193.631V194.233H38.5787V192.96H43.8515C43.8515 192.513 43.7605 192.118 43.5787 191.773C43.3969 191.424 43.1412 191.15 42.8117 190.949C42.4859 190.748 42.1034 190.648 41.664 190.648C41.1867 190.648 40.77 190.765 40.414 191C40.0617 191.231 39.789 191.534 39.5958 191.909C39.4064 192.281 39.3117 192.684 39.3117 193.12V194.114C39.3117 194.697 39.414 195.193 39.6185 195.602C39.8268 196.012 40.1166 196.324 40.4878 196.54C40.859 196.752 41.2927 196.858 41.789 196.858C42.1109 196.858 42.4045 196.813 42.6696 196.722C42.9348 196.627 43.164 196.487 43.3571 196.301C43.5503 196.116 43.698 195.887 43.8003 195.614L45.4083 195.904C45.2795 196.377 45.0484 196.792 44.7151 197.148C44.3855 197.5 43.9708 197.775 43.4708 197.972C42.9746 198.165 42.4083 198.262 41.7719 198.262ZM47.3615 198.085V186.449H49.0604V190.773H49.1627C49.2612 190.591 49.4032 190.381 49.5888 190.142C49.7744 189.904 50.032 189.695 50.3615 189.517C50.6911 189.335 51.1267 189.245 51.6684 189.245C52.3729 189.245 53.0017 189.423 53.5547 189.779C54.1077 190.135 54.5415 190.648 54.8559 191.318C55.174 191.989 55.3331 192.796 55.3331 193.739C55.3331 194.682 55.1759 195.491 54.8615 196.165C54.5471 196.835 54.1153 197.352 53.5661 197.716C53.0168 198.076 52.3899 198.256 51.6854 198.256C51.1551 198.256 50.7214 198.167 50.3843 197.989C50.0509 197.811 49.7896 197.602 49.6002 197.364C49.4108 197.125 49.2649 196.913 49.1627 196.727H49.0206V198.085H47.3615ZM49.0263 193.722C49.0263 194.335 49.1153 194.873 49.2934 195.335C49.4714 195.798 49.729 196.159 50.0661 196.421C50.4032 196.678 50.8161 196.807 51.3047 196.807C51.8123 196.807 52.2365 196.673 52.5774 196.404C52.9184 196.131 53.1759 195.762 53.3502 195.296C53.5282 194.83 53.6172 194.305 53.6172 193.722C53.6172 193.146 53.5301 192.629 53.3559 192.171C53.1854 191.712 52.9278 191.351 52.5831 191.085C52.2422 190.82 51.8161 190.688 51.3047 190.688C50.8123 190.688 50.3956 190.815 50.0547 191.068C49.7176 191.322 49.4619 191.676 49.2877 192.131C49.1134 192.585 49.0263 193.116 49.0263 193.722ZM64.7993 198.262C63.9546 198.262 63.2273 198.07 62.6175 197.688C62.0114 197.301 61.5455 196.769 61.2198 196.091C60.894 195.413 60.7311 194.637 60.7311 193.762C60.7311 192.875 60.8978 192.093 61.2311 191.415C61.5645 190.733 62.0342 190.201 62.6402 189.818C63.2463 189.436 63.9603 189.245 64.7823 189.245C65.4451 189.245 66.0361 189.368 66.555 189.614C67.0739 189.856 67.4925 190.197 67.8107 190.637C68.1326 191.076 68.3239 191.589 68.3845 192.176H66.7311C66.6402 191.767 66.4319 191.415 66.1061 191.12C65.7842 190.824 65.3523 190.676 64.8107 190.676C64.3372 190.676 63.9224 190.801 63.5664 191.051C63.2141 191.298 62.9395 191.65 62.7425 192.108C62.5455 192.563 62.447 193.101 62.447 193.722C62.447 194.358 62.5436 194.907 62.7368 195.37C62.93 195.832 63.2027 196.19 63.555 196.443C63.9111 196.697 64.3296 196.824 64.8107 196.824C65.1326 196.824 65.4243 196.765 65.6857 196.648C65.9508 196.527 66.1724 196.354 66.3504 196.131C66.5323 195.907 66.6592 195.638 66.7311 195.324H68.3845C68.3239 195.888 68.1402 196.392 67.8334 196.835C67.5266 197.279 67.1156 197.627 66.6004 197.881C66.0891 198.135 65.4887 198.262 64.7993 198.262ZM73.7014 198.262C72.8833 198.262 72.1692 198.074 71.5594 197.699C70.9495 197.324 70.4761 196.799 70.1389 196.125C69.8018 195.451 69.6333 194.663 69.6333 193.762C69.6333 192.856 69.8018 192.065 70.1389 191.387C70.4761 190.709 70.9495 190.182 71.5594 189.807C72.1692 189.432 72.8833 189.245 73.7014 189.245C74.5196 189.245 75.2336 189.432 75.8435 189.807C76.4533 190.182 76.9268 190.709 77.2639 191.387C77.6011 192.065 77.7696 192.856 77.7696 193.762C77.7696 194.663 77.6011 195.451 77.2639 196.125C76.9268 196.799 76.4533 197.324 75.8435 197.699C75.2336 198.074 74.5196 198.262 73.7014 198.262ZM73.7071 196.835C74.2374 196.835 74.6768 196.695 75.0253 196.415C75.3738 196.135 75.6314 195.762 75.798 195.296C75.9685 194.83 76.0537 194.317 76.0537 193.756C76.0537 193.199 75.9685 192.688 75.798 192.222C75.6314 191.752 75.3738 191.375 75.0253 191.091C74.6768 190.807 74.2374 190.665 73.7071 190.665C73.173 190.665 72.7298 190.807 72.3776 191.091C72.0291 191.375 71.7696 191.752 71.5992 192.222C71.4325 192.688 71.3492 193.199 71.3492 193.756C71.3492 194.317 71.4325 194.83 71.5992 195.296C71.7696 195.762 72.0291 196.135 72.3776 196.415C72.7298 196.695 73.173 196.835 73.7071 196.835ZM79.4899 198.085V189.358H81.1206V190.779H81.2286C81.4104 190.298 81.7077 189.923 82.1206 189.654C82.5335 189.381 83.0278 189.245 83.6036 189.245C84.1869 189.245 84.6755 189.381 85.0695 189.654C85.4672 189.926 85.7608 190.301 85.9502 190.779H86.0411C86.2494 190.313 86.5808 189.942 87.0354 189.665C87.4899 189.385 88.0316 189.245 88.6604 189.245C89.452 189.245 90.0979 189.493 90.5979 189.989C91.1017 190.485 91.3536 191.233 91.3536 192.233V198.085H89.6547V192.392C89.6547 191.801 89.4937 191.373 89.1717 191.108C88.8498 190.843 88.4653 190.71 88.0183 190.71C87.4653 190.71 87.0354 190.881 86.7286 191.222C86.4217 191.559 86.2683 191.993 86.2683 192.523V198.085H84.5752V192.284C84.5752 191.811 84.4274 191.43 84.132 191.142C83.8365 190.854 83.452 190.71 82.9786 190.71C82.6566 190.71 82.3592 190.796 82.0865 190.966C81.8176 191.133 81.5998 191.366 81.4331 191.665C81.2702 191.964 81.1888 192.311 81.1888 192.705V198.085H79.4899ZM93.4545 201.358V189.358H95.1136V190.773H95.2557C95.3542 190.591 95.4962 190.381 95.6818 190.142C95.8674 189.904 96.125 189.695 96.4545 189.517C96.7841 189.335 97.2197 189.245 97.7614 189.245C98.4659 189.245 99.0947 189.423 99.6477 189.779C100.201 190.135 100.634 190.648 100.949 191.318C101.267 191.989 101.426 192.796 101.426 193.739C101.426 194.682 101.269 195.491 100.955 196.165C100.64 196.835 100.208 197.352 99.6591 197.716C99.1098 198.076 98.483 198.256 97.7784 198.256C97.2481 198.256 96.8144 198.167 96.4773 197.989C96.1439 197.811 95.8826 197.602 95.6932 197.364C95.5038 197.125 95.358 196.913 95.2557 196.727H95.1534V201.358H93.4545ZM95.1193 193.722C95.1193 194.335 95.2083 194.873 95.3864 195.335C95.5644 195.798 95.822 196.159 96.1591 196.421C96.4962 196.678 96.9091 196.807 97.3977 196.807C97.9053 196.807 98.3295 196.673 98.6705 196.404C99.0114 196.131 99.2689 195.762 99.4432 195.296C99.6212 194.83 99.7102 194.305 99.7102 193.722C99.7102 193.146 99.6231 192.629 99.4489 192.171C99.2784 191.712 99.0208 191.351 98.6761 191.085C98.3352 190.82 97.9091 190.688 97.3977 190.688C96.9053 190.688 96.4886 190.815 96.1477 191.068C95.8106 191.322 95.5549 191.676 95.3807 192.131C95.2064 192.585 95.1193 193.116 95.1193 193.722ZM106.83 198.262C106.012 198.262 105.297 198.074 104.688 197.699C104.078 197.324 103.604 196.799 103.267 196.125C102.93 195.451 102.762 194.663 102.762 193.762C102.762 192.856 102.93 192.065 103.267 191.387C103.604 190.709 104.078 190.182 104.688 189.807C105.297 189.432 106.012 189.245 106.83 189.245C107.648 189.245 108.362 189.432 108.972 189.807C109.582 190.182 110.055 190.709 110.392 191.387C110.729 192.065 110.898 192.856 110.898 193.762C110.898 194.663 110.729 195.451 110.392 196.125C110.055 196.799 109.582 197.324 108.972 197.699C108.362 198.074 107.648 198.262 106.83 198.262ZM106.835 196.835C107.366 196.835 107.805 196.695 108.154 196.415C108.502 196.135 108.76 195.762 108.926 195.296C109.097 194.83 109.182 194.317 109.182 193.756C109.182 193.199 109.097 192.688 108.926 192.222C108.76 191.752 108.502 191.375 108.154 191.091C107.805 190.807 107.366 190.665 106.835 190.665C106.301 190.665 105.858 190.807 105.506 191.091C105.157 191.375 104.898 191.752 104.727 192.222C104.561 192.688 104.477 193.199 104.477 193.756C104.477 194.317 104.561 194.83 104.727 195.296C104.898 195.762 105.157 196.135 105.506 196.415C105.858 196.695 106.301 196.835 106.835 196.835ZM114.317 192.904V198.085H112.618V189.358H114.249V190.779H114.357C114.558 190.317 114.872 189.945 115.3 189.665C115.732 189.385 116.275 189.245 116.931 189.245C117.525 189.245 118.046 189.37 118.493 189.62C118.94 189.866 119.287 190.233 119.533 190.722C119.779 191.21 119.902 191.815 119.902 192.534V198.085H118.203V192.739C118.203 192.106 118.039 191.612 117.709 191.256C117.38 190.896 116.927 190.716 116.351 190.716C115.957 190.716 115.607 190.801 115.3 190.972C114.997 191.142 114.756 191.392 114.578 191.722C114.404 192.048 114.317 192.442 114.317 192.904ZM125.766 198.262C124.906 198.262 124.166 198.078 123.544 197.71C122.927 197.339 122.45 196.818 122.113 196.148C121.779 195.474 121.613 194.684 121.613 193.779C121.613 192.885 121.779 192.097 122.113 191.415C122.45 190.733 122.919 190.201 123.522 189.818C124.128 189.436 124.836 189.245 125.647 189.245C126.139 189.245 126.616 189.326 127.079 189.489C127.541 189.652 127.955 189.907 128.323 190.256C128.69 190.604 128.98 191.057 129.192 191.614C129.404 192.167 129.51 192.839 129.51 193.631V194.233H122.573V192.96H127.846C127.846 192.513 127.755 192.118 127.573 191.773C127.391 191.424 127.135 191.15 126.806 190.949C126.48 190.748 126.097 190.648 125.658 190.648C125.181 190.648 124.764 190.765 124.408 191C124.056 191.231 123.783 191.534 123.59 191.909C123.401 192.281 123.306 192.684 123.306 193.12V194.114C123.306 194.697 123.408 195.193 123.613 195.602C123.821 196.012 124.111 196.324 124.482 196.54C124.853 196.752 125.287 196.858 125.783 196.858C126.105 196.858 126.399 196.813 126.664 196.722C126.929 196.627 127.158 196.487 127.351 196.301C127.544 196.116 127.692 195.887 127.794 195.614L129.402 195.904C129.274 196.377 129.043 196.792 128.709 197.148C128.38 197.5 127.965 197.775 127.465 197.972C126.969 198.165 126.402 198.262 125.766 198.262ZM132.918 192.904V198.085H131.219V189.358H132.85V190.779H132.958C133.159 190.317 133.473 189.945 133.901 189.665C134.333 189.385 134.876 189.245 135.532 189.245C136.126 189.245 136.647 189.37 137.094 189.62C137.541 189.866 137.888 190.233 138.134 190.722C138.38 191.21 138.503 191.815 138.503 192.534V198.085H136.805V192.739C136.805 192.106 136.64 191.612 136.31 191.256C135.981 190.896 135.528 190.716 134.952 190.716C134.558 190.716 134.208 190.801 133.901 190.972C133.598 191.142 133.358 191.392 133.18 191.722C133.005 192.048 132.918 192.442 132.918 192.904ZM144.68 189.358V190.722H139.913V189.358H144.68ZM141.191 187.267H142.89V195.523C142.89 195.852 142.939 196.101 143.038 196.267C143.136 196.43 143.263 196.542 143.418 196.602C143.577 196.659 143.75 196.688 143.935 196.688C144.072 196.688 144.191 196.678 144.293 196.659C144.396 196.64 144.475 196.625 144.532 196.614L144.839 198.017C144.74 198.055 144.6 198.093 144.418 198.131C144.236 198.173 144.009 198.195 143.736 198.199C143.29 198.207 142.873 198.127 142.486 197.96C142.1 197.794 141.788 197.536 141.549 197.188C141.31 196.839 141.191 196.402 141.191 195.875V187.267ZM152.782 191.489L151.242 191.762C151.178 191.565 151.076 191.377 150.935 191.199C150.799 191.021 150.614 190.875 150.379 190.762C150.144 190.648 149.85 190.591 149.498 190.591C149.017 190.591 148.615 190.699 148.293 190.915C147.971 191.127 147.81 191.402 147.81 191.739C147.81 192.031 147.918 192.265 148.134 192.443C148.35 192.621 148.699 192.767 149.18 192.881L150.566 193.199C151.369 193.385 151.968 193.671 152.362 194.057C152.756 194.443 152.953 194.945 152.953 195.563C152.953 196.085 152.801 196.551 152.498 196.96C152.199 197.366 151.78 197.684 151.242 197.915C150.708 198.146 150.089 198.262 149.384 198.262C148.407 198.262 147.61 198.053 146.992 197.637C146.375 197.216 145.996 196.62 145.856 195.847L147.498 195.597C147.6 196.025 147.81 196.349 148.129 196.568C148.447 196.784 148.862 196.892 149.373 196.892C149.93 196.892 150.375 196.777 150.708 196.546C151.042 196.311 151.208 196.025 151.208 195.688C151.208 195.415 151.106 195.186 150.901 195C150.701 194.815 150.392 194.674 149.975 194.58L148.498 194.256C147.684 194.07 147.081 193.775 146.691 193.37C146.305 192.964 146.112 192.451 146.112 191.83C146.112 191.315 146.256 190.864 146.543 190.477C146.831 190.091 147.229 189.79 147.737 189.574C148.244 189.354 148.826 189.245 149.481 189.245C150.424 189.245 151.167 189.449 151.708 189.858C152.25 190.263 152.608 190.807 152.782 191.489ZM62.3617 216.267C62.3617 214.843 62.5492 213.532 62.9242 212.335C63.2992 211.138 63.8466 210.034 64.5663 209.023H66.1231C65.8428 209.398 65.5814 209.858 65.339 210.404C65.0966 210.949 64.8845 211.548 64.7026 212.199C64.5208 212.847 64.3788 213.519 64.2765 214.216C64.1742 214.909 64.1231 215.593 64.1231 216.267C64.1231 217.169 64.2121 218.082 64.3901 219.006C64.5682 219.93 64.8087 220.788 65.1117 221.58C65.4148 222.371 65.7519 223.017 66.1231 223.517H64.5663C63.8466 222.506 63.2992 221.402 62.9242 220.205C62.5492 219.008 62.3617 217.695 62.3617 216.267ZM74.2212 213.506C74.1606 212.968 73.9106 212.551 73.4712 212.256C73.0319 211.957 72.4788 211.807 71.8122 211.807C71.3349 211.807 70.922 211.883 70.5735 212.034C70.225 212.182 69.9542 212.387 69.761 212.648C69.5716 212.906 69.4769 213.199 69.4769 213.529C69.4769 213.805 69.5413 214.044 69.6701 214.245C69.8027 214.445 69.975 214.614 70.1872 214.75C70.4031 214.883 70.6341 214.995 70.8803 215.085C71.1266 215.173 71.3633 215.245 71.5906 215.301L72.7269 215.597C73.0981 215.688 73.4788 215.811 73.869 215.966C74.2591 216.121 74.6209 216.326 74.9542 216.58C75.2875 216.834 75.5565 217.148 75.761 217.523C75.9694 217.898 76.0735 218.347 76.0735 218.87C76.0735 219.529 75.9031 220.114 75.5622 220.625C75.225 221.137 74.7345 221.54 74.0906 221.835C73.4504 222.131 72.6758 222.279 71.7667 222.279C70.8955 222.279 70.1417 222.14 69.5053 221.864C68.869 221.587 68.3709 221.195 68.011 220.688C67.6512 220.176 67.4523 219.57 67.4144 218.87H69.1758C69.2099 219.29 69.3462 219.64 69.5849 219.921C69.8273 220.197 70.136 220.404 70.511 220.54C70.8898 220.673 71.3046 220.739 71.7553 220.739C72.2516 220.739 72.6928 220.661 73.0792 220.506C73.4694 220.347 73.7762 220.127 73.9997 219.847C74.2231 219.563 74.3349 219.231 74.3349 218.852C74.3349 218.508 74.2364 218.226 74.0394 218.006C73.8462 217.786 73.583 217.604 73.2497 217.46C72.9201 217.317 72.547 217.19 72.1303 217.08L70.7553 216.705C69.8235 216.451 69.0849 216.078 68.5394 215.585C67.9978 215.093 67.7269 214.442 67.7269 213.631C67.7269 212.96 67.9087 212.375 68.2724 211.875C68.636 211.375 69.1284 210.987 69.7497 210.71C70.3709 210.43 71.0716 210.29 71.8519 210.29C72.6398 210.29 73.3349 210.428 73.9372 210.705C74.5432 210.981 75.0205 211.362 75.369 211.847C75.7175 212.328 75.8993 212.881 75.9144 213.506H74.2212ZM85.3251 213.358L82.1603 222.085H80.3421L77.1717 213.358H78.9955L81.2058 220.074H81.2967L83.5012 213.358H85.3251ZM90.2102 222.262C89.3503 222.262 88.6098 222.078 87.9886 221.71C87.3711 221.339 86.8939 220.818 86.5567 220.148C86.2234 219.474 86.0567 218.684 86.0567 217.779C86.0567 216.885 86.2234 216.097 86.5567 215.415C86.8939 214.733 87.3636 214.201 87.9658 213.818C88.5719 213.436 89.2802 213.245 90.0908 213.245C90.5833 213.245 91.0605 213.326 91.5227 213.489C91.9848 213.652 92.3996 213.907 92.767 214.256C93.1344 214.604 93.4242 215.057 93.6363 215.614C93.8484 216.167 93.9545 216.839 93.9545 217.631V218.233H87.017V216.96H92.2897C92.2897 216.513 92.1988 216.118 92.017 215.773C91.8352 215.424 91.5795 215.15 91.2499 214.949C90.9242 214.748 90.5416 214.648 90.1022 214.648C89.6249 214.648 89.2083 214.765 88.8522 215C88.4999 215.231 88.2272 215.534 88.034 215.909C87.8446 216.281 87.7499 216.684 87.7499 217.12V218.114C87.7499 218.697 87.8522 219.193 88.0567 219.602C88.2651 220.012 88.5549 220.324 88.9261 220.54C89.2973 220.752 89.731 220.858 90.2272 220.858C90.5492 220.858 90.8427 220.813 91.1079 220.722C91.373 220.627 91.6022 220.487 91.7954 220.301C91.9886 220.116 92.1363 219.887 92.2386 219.614L93.8465 219.904C93.7177 220.377 93.4867 220.792 93.1533 221.148C92.8238 221.5 92.409 221.775 91.909 221.972C91.4128 222.165 90.8465 222.262 90.2102 222.262ZM97.3623 210.449V222.085H95.6634V210.449H97.3623ZM103.546 213.358V214.722H98.7786V213.358H103.546ZM100.057 211.267H101.756V219.523C101.756 219.852 101.805 220.101 101.904 220.267C102.002 220.43 102.129 220.542 102.284 220.602C102.443 220.659 102.616 220.688 102.801 220.688C102.938 220.688 103.057 220.678 103.159 220.659C103.262 220.64 103.341 220.625 103.398 220.614L103.705 222.017C103.606 222.055 103.466 222.093 103.284 222.131C103.102 222.173 102.875 222.195 102.602 222.199C102.156 222.207 101.739 222.127 101.352 221.96C100.966 221.794 100.654 221.536 100.415 221.188C100.176 220.839 100.057 220.402 100.057 219.875V211.267ZM108.917 222.262C108.057 222.262 107.316 222.078 106.695 221.71C106.078 221.339 105.6 220.818 105.263 220.148C104.93 219.474 104.763 218.684 104.763 217.779C104.763 216.885 104.93 216.097 105.263 215.415C105.6 214.733 106.07 214.201 106.672 213.818C107.278 213.436 107.987 213.245 108.797 213.245C109.29 213.245 109.767 213.326 110.229 213.489C110.691 213.652 111.106 213.907 111.473 214.256C111.841 214.604 112.131 215.057 112.343 215.614C112.555 216.167 112.661 216.839 112.661 217.631V218.233H105.723V216.96H110.996C110.996 216.513 110.905 216.118 110.723 215.773C110.542 215.424 110.286 215.15 109.956 214.949C109.631 214.748 109.248 214.648 108.809 214.648C108.331 214.648 107.915 214.765 107.559 215C107.206 215.231 106.934 215.534 106.74 215.909C106.551 216.281 106.456 216.684 106.456 217.12V218.114C106.456 218.697 106.559 219.193 106.763 219.602C106.971 220.012 107.261 220.324 107.632 220.54C108.004 220.752 108.437 220.858 108.934 220.858C109.256 220.858 109.549 220.813 109.814 220.722C110.079 220.627 110.309 220.487 110.502 220.301C110.695 220.116 110.843 219.887 110.945 219.614L112.553 219.904C112.424 220.377 112.193 220.792 111.86 221.148C111.53 221.5 111.115 221.775 110.615 221.972C110.119 222.165 109.553 222.262 108.917 222.262ZM117.637 217.256C117.637 218.684 117.449 219.996 117.074 221.193C116.699 222.39 116.152 223.495 115.432 224.506H113.875C114.156 224.131 114.417 223.671 114.66 223.125C114.902 222.58 115.114 221.983 115.296 221.335C115.478 220.684 115.62 220.01 115.722 219.313C115.824 218.616 115.875 217.93 115.875 217.256C115.875 216.358 115.786 215.447 115.608 214.523C115.43 213.599 115.19 212.741 114.887 211.949C114.584 211.157 114.247 210.512 113.875 210.012H115.432C116.152 211.023 116.699 212.127 117.074 213.324C117.449 214.521 117.637 215.832 117.637 217.256Z" fill="black" fill-opacity="0.8"/>
<circle cx="448" cy="541" r="88" fill="#DCCCFF" stroke="#874FFF" stroke-width="4" stroke-linecap="round"/>
<path d="M399.726 547H395.959V535.364H399.846C400.986 535.364 401.965 535.597 402.783 536.062C403.601 536.525 404.228 537.189 404.664 538.057C405.103 538.92 405.323 539.956 405.323 541.165C405.323 542.377 405.101 543.419 404.658 544.29C404.219 545.161 403.583 545.831 402.749 546.301C401.916 546.767 400.908 547 399.726 547ZM397.715 545.466H399.63C400.516 545.466 401.253 545.299 401.84 544.966C402.427 544.629 402.867 544.142 403.158 543.506C403.45 542.866 403.596 542.085 403.596 541.165C403.596 540.252 403.45 539.477 403.158 538.841C402.87 538.205 402.44 537.722 401.868 537.392C401.297 537.062 400.586 536.898 399.738 536.898H397.715V545.466ZM410.955 547.176C410.095 547.176 409.355 546.992 408.734 546.625C408.116 546.254 407.639 545.733 407.302 545.062C406.969 544.388 406.802 543.598 406.802 542.693C406.802 541.799 406.969 541.011 407.302 540.33C407.639 539.648 408.109 539.116 408.711 538.733C409.317 538.35 410.025 538.159 410.836 538.159C411.328 538.159 411.806 538.241 412.268 538.403C412.73 538.566 413.145 538.822 413.512 539.17C413.88 539.519 414.169 539.972 414.381 540.528C414.594 541.081 414.7 541.754 414.7 542.545V543.148H407.762V541.875H413.035C413.035 541.428 412.944 541.032 412.762 540.688C412.58 540.339 412.325 540.064 411.995 539.864C411.669 539.663 411.287 539.562 410.847 539.562C410.37 539.562 409.953 539.68 409.597 539.915C409.245 540.146 408.972 540.449 408.779 540.824C408.59 541.195 408.495 541.598 408.495 542.034V543.028C408.495 543.612 408.597 544.108 408.802 544.517C409.01 544.926 409.3 545.239 409.671 545.455C410.042 545.667 410.476 545.773 410.972 545.773C411.294 545.773 411.588 545.727 411.853 545.636C412.118 545.542 412.347 545.402 412.541 545.216C412.734 545.03 412.881 544.801 412.984 544.528L414.592 544.818C414.463 545.292 414.232 545.706 413.898 546.062C413.569 546.415 413.154 546.689 412.654 546.886C412.158 547.08 411.592 547.176 410.955 547.176ZM422.948 540.403L421.409 540.676C421.344 540.479 421.242 540.292 421.102 540.114C420.965 539.936 420.78 539.79 420.545 539.676C420.31 539.562 420.017 539.506 419.664 539.506C419.183 539.506 418.782 539.614 418.46 539.83C418.138 540.042 417.977 540.316 417.977 540.653C417.977 540.945 418.085 541.18 418.301 541.358C418.517 541.536 418.865 541.682 419.346 541.795L420.732 542.114C421.535 542.299 422.134 542.585 422.528 542.972C422.922 543.358 423.119 543.86 423.119 544.477C423.119 545 422.967 545.466 422.664 545.875C422.365 546.28 421.946 546.598 421.409 546.83C420.874 547.061 420.255 547.176 419.551 547.176C418.573 547.176 417.776 546.968 417.159 546.551C416.541 546.131 416.162 545.534 416.022 544.761L417.664 544.511C417.767 544.939 417.977 545.263 418.295 545.483C418.613 545.699 419.028 545.807 419.539 545.807C420.096 545.807 420.541 545.691 420.874 545.46C421.208 545.225 421.374 544.939 421.374 544.602C421.374 544.33 421.272 544.1 421.068 543.915C420.867 543.729 420.558 543.589 420.142 543.494L418.664 543.17C417.85 542.985 417.248 542.689 416.857 542.284C416.471 541.879 416.278 541.366 416.278 540.744C416.278 540.229 416.422 539.778 416.71 539.392C416.998 539.006 417.395 538.705 417.903 538.489C418.41 538.269 418.992 538.159 419.647 538.159C420.59 538.159 421.333 538.364 421.874 538.773C422.416 539.178 422.774 539.722 422.948 540.403ZM424.811 547V538.273H426.51V547H424.811ZM425.669 536.926C425.373 536.926 425.119 536.828 424.907 536.631C424.699 536.43 424.595 536.191 424.595 535.915C424.595 535.634 424.699 535.396 424.907 535.199C425.119 534.998 425.373 534.898 425.669 534.898C425.964 534.898 426.216 534.998 426.424 535.199C426.636 535.396 426.742 535.634 426.742 535.915C426.742 536.191 426.636 536.43 426.424 536.631C426.216 536.828 425.964 536.926 425.669 536.926ZM432.278 550.455C431.585 550.455 430.988 550.364 430.488 550.182C429.992 550 429.587 549.759 429.272 549.46C428.958 549.161 428.723 548.833 428.568 548.477L430.028 547.875C430.13 548.042 430.267 548.218 430.437 548.403C430.611 548.593 430.846 548.754 431.142 548.886C431.441 549.019 431.825 549.085 432.295 549.085C432.939 549.085 433.471 548.928 433.892 548.614C434.312 548.303 434.522 547.807 434.522 547.125V545.409H434.415C434.312 545.595 434.165 545.801 433.971 546.028C433.782 546.256 433.521 546.453 433.187 546.619C432.854 546.786 432.42 546.869 431.886 546.869C431.197 546.869 430.575 546.708 430.022 546.386C429.473 546.061 429.038 545.581 428.716 544.949C428.397 544.312 428.238 543.53 428.238 542.602C428.238 541.674 428.396 540.879 428.71 540.216C429.028 539.553 429.464 539.045 430.017 538.693C430.57 538.337 431.197 538.159 431.897 538.159C432.439 538.159 432.877 538.25 433.21 538.432C433.543 538.61 433.803 538.818 433.988 539.057C434.178 539.295 434.324 539.506 434.426 539.688H434.551V538.273H436.216V547.193C436.216 547.943 436.041 548.559 435.693 549.04C435.344 549.521 434.873 549.877 434.278 550.108C433.687 550.339 433.021 550.455 432.278 550.455ZM432.261 545.46C432.75 545.46 433.163 545.347 433.5 545.119C433.841 544.888 434.098 544.559 434.272 544.131C434.45 543.699 434.54 543.182 434.54 542.58C434.54 541.992 434.452 541.475 434.278 541.028C434.104 540.581 433.848 540.233 433.511 539.983C433.174 539.729 432.757 539.602 432.261 539.602C431.75 539.602 431.324 539.735 430.983 540C430.642 540.261 430.384 540.617 430.21 541.068C430.04 541.519 429.954 542.023 429.954 542.58C429.954 543.152 430.041 543.653 430.216 544.085C430.39 544.517 430.647 544.854 430.988 545.097C431.333 545.339 431.757 545.46 432.261 545.46ZM440.017 541.818V547H438.318V538.273H439.949V539.693H440.057C440.257 539.231 440.572 538.86 441 538.58C441.432 538.299 441.975 538.159 442.631 538.159C443.225 538.159 443.746 538.284 444.193 538.534C444.64 538.78 444.987 539.148 445.233 539.636C445.479 540.125 445.602 540.729 445.602 541.449V547H443.903V541.653C443.903 541.021 443.738 540.527 443.409 540.17C443.079 539.811 442.627 539.631 442.051 539.631C441.657 539.631 441.307 539.716 441 539.886C440.697 540.057 440.456 540.307 440.278 540.636C440.104 540.962 440.017 541.356 440.017 541.818ZM455.837 538.273V539.636H451.07V538.273H455.837ZM452.348 536.182H454.047V544.438C454.047 544.767 454.096 545.015 454.195 545.182C454.293 545.345 454.42 545.456 454.575 545.517C454.735 545.574 454.907 545.602 455.092 545.602C455.229 545.602 455.348 545.593 455.45 545.574C455.553 545.555 455.632 545.54 455.689 545.528L455.996 546.932C455.897 546.97 455.757 547.008 455.575 547.045C455.394 547.087 455.166 547.11 454.894 547.114C454.447 547.121 454.03 547.042 453.644 546.875C453.257 546.708 452.945 546.451 452.706 546.102C452.467 545.754 452.348 545.316 452.348 544.79V536.182ZM461.122 547.176C460.304 547.176 459.59 546.989 458.98 546.614C458.371 546.239 457.897 545.714 457.56 545.04C457.223 544.366 457.054 543.578 457.054 542.676C457.054 541.771 457.223 540.979 457.56 540.301C457.897 539.623 458.371 539.097 458.98 538.722C459.59 538.347 460.304 538.159 461.122 538.159C461.941 538.159 462.655 538.347 463.264 538.722C463.874 539.097 464.348 539.623 464.685 540.301C465.022 540.979 465.191 541.771 465.191 542.676C465.191 543.578 465.022 544.366 464.685 545.04C464.348 545.714 463.874 546.239 463.264 546.614C462.655 546.989 461.941 547.176 461.122 547.176ZM461.128 545.75C461.658 545.75 462.098 545.61 462.446 545.33C462.795 545.049 463.052 544.676 463.219 544.21C463.389 543.744 463.475 543.231 463.475 542.67C463.475 542.114 463.389 541.602 463.219 541.136C463.052 540.667 462.795 540.29 462.446 540.006C462.098 539.722 461.658 539.58 461.128 539.58C460.594 539.58 460.151 539.722 459.799 540.006C459.45 540.29 459.191 540.667 459.02 541.136C458.853 541.602 458.77 542.114 458.77 542.67C458.77 543.231 458.853 543.744 459.02 544.21C459.191 544.676 459.45 545.049 459.799 545.33C460.151 545.61 460.594 545.75 461.128 545.75ZM468.473 544.04L468.462 541.966H468.758L472.235 538.273H474.269L470.303 542.477H470.036L468.473 544.04ZM466.911 547V535.364H468.61V547H466.911ZM472.422 547L469.297 542.852L470.468 541.665L474.508 547H472.422ZM479.043 547.176C478.183 547.176 477.443 546.992 476.822 546.625C476.204 546.254 475.727 545.733 475.39 545.062C475.056 544.388 474.89 543.598 474.89 542.693C474.89 541.799 475.056 541.011 475.39 540.33C475.727 539.648 476.197 539.116 476.799 538.733C477.405 538.35 478.113 538.159 478.924 538.159C479.416 538.159 479.894 538.241 480.356 538.403C480.818 538.566 481.233 538.822 481.6 539.17C481.967 539.519 482.257 539.972 482.469 540.528C482.681 541.081 482.787 541.754 482.787 542.545V543.148H475.85V541.875H481.123C481.123 541.428 481.032 541.032 480.85 540.688C480.668 540.339 480.412 540.064 480.083 539.864C479.757 539.663 479.375 539.562 478.935 539.562C478.458 539.562 478.041 539.68 477.685 539.915C477.333 540.146 477.06 540.449 476.867 540.824C476.678 541.195 476.583 541.598 476.583 542.034V543.028C476.583 543.612 476.685 544.108 476.89 544.517C477.098 544.926 477.388 545.239 477.759 545.455C478.13 545.667 478.564 545.773 479.06 545.773C479.382 545.773 479.676 545.727 479.941 545.636C480.206 545.542 480.435 545.402 480.628 545.216C480.822 545.03 480.969 544.801 481.072 544.528L482.68 544.818C482.551 545.292 482.32 545.706 481.986 546.062C481.657 546.415 481.242 546.689 480.742 546.886C480.246 547.08 479.68 547.176 479.043 547.176ZM486.195 541.818V547H484.496V538.273H486.127V539.693H486.235C486.436 539.231 486.75 538.86 487.178 538.58C487.61 538.299 488.154 538.159 488.809 538.159C489.404 538.159 489.924 538.284 490.371 538.534C490.818 538.78 491.165 539.148 491.411 539.636C491.657 540.125 491.781 540.729 491.781 541.449V547H490.082V541.653C490.082 541.021 489.917 540.527 489.587 540.17C489.258 539.811 488.805 539.631 488.229 539.631C487.835 539.631 487.485 539.716 487.178 539.886C486.875 540.057 486.635 540.307 486.457 540.636C486.282 540.962 486.195 541.356 486.195 541.818ZM500.423 540.403L498.883 540.676C498.819 540.479 498.716 540.292 498.576 540.114C498.44 539.936 498.254 539.79 498.019 539.676C497.784 539.562 497.491 539.506 497.139 539.506C496.658 539.506 496.256 539.614 495.934 539.83C495.612 540.042 495.451 540.316 495.451 540.653C495.451 540.945 495.559 541.18 495.775 541.358C495.991 541.536 496.339 541.682 496.82 541.795L498.207 542.114C499.01 542.299 499.608 542.585 500.002 542.972C500.396 543.358 500.593 543.86 500.593 544.477C500.593 545 500.442 545.466 500.139 545.875C499.839 546.28 499.421 546.598 498.883 546.83C498.349 547.061 497.73 547.176 497.025 547.176C496.048 547.176 495.25 546.968 494.633 546.551C494.015 546.131 493.637 545.534 493.497 544.761L495.139 544.511C495.241 544.939 495.451 545.263 495.769 545.483C496.087 545.699 496.502 545.807 497.014 545.807C497.57 545.807 498.015 545.691 498.349 545.46C498.682 545.225 498.849 544.939 498.849 544.602C498.849 544.33 498.747 544.1 498.542 543.915C498.341 543.729 498.033 543.589 497.616 543.494L496.139 543.17C495.324 542.985 494.722 542.689 494.332 542.284C493.945 541.879 493.752 541.366 493.752 540.744C493.752 540.229 493.896 539.778 494.184 539.392C494.472 539.006 494.87 538.705 495.377 538.489C495.885 538.269 496.466 538.159 497.122 538.159C498.065 538.159 498.807 538.364 499.349 538.773C499.89 539.178 500.248 539.722 500.423 540.403Z" fill="black" fill-opacity="0.8"/>
<rect x="360" y="230" width="176" height="176" rx="6" fill="#C6FAF6" stroke="#5AD8CC" stroke-width="4" stroke-linecap="round"/>
<path d="M425.734 312V300.364H429.882C430.783 300.364 431.531 300.519 432.126 300.83C432.725 301.14 433.172 301.57 433.467 302.119C433.762 302.665 433.91 303.295 433.91 304.011C433.91 304.723 433.761 305.35 433.461 305.892C433.166 306.43 432.719 306.848 432.12 307.148C431.526 307.447 430.778 307.597 429.876 307.597H426.734V306.085H429.717C430.285 306.085 430.747 306.004 431.103 305.841C431.463 305.678 431.726 305.441 431.893 305.131C432.06 304.82 432.143 304.447 432.143 304.011C432.143 303.572 432.058 303.191 431.887 302.869C431.721 302.547 431.458 302.301 431.098 302.131C430.742 301.956 430.274 301.869 429.694 301.869H427.49V312H425.734ZM431.478 306.75L434.353 312H432.353L429.535 306.75H431.478ZM439.386 312.176C438.526 312.176 437.786 311.992 437.165 311.625C436.547 311.254 436.07 310.733 435.733 310.062C435.399 309.388 435.233 308.598 435.233 307.693C435.233 306.799 435.399 306.011 435.733 305.33C436.07 304.648 436.54 304.116 437.142 303.733C437.748 303.35 438.456 303.159 439.267 303.159C439.759 303.159 440.237 303.241 440.699 303.403C441.161 303.566 441.576 303.822 441.943 304.17C442.31 304.519 442.6 304.972 442.812 305.528C443.024 306.081 443.13 306.754 443.13 307.545V308.148H436.193V306.875H441.466C441.466 306.428 441.375 306.032 441.193 305.688C441.011 305.339 440.755 305.064 440.426 304.864C440.1 304.663 439.718 304.562 439.278 304.562C438.801 304.562 438.384 304.68 438.028 304.915C437.676 305.146 437.403 305.449 437.21 305.824C437.021 306.195 436.926 306.598 436.926 307.034V308.028C436.926 308.612 437.028 309.108 437.233 309.517C437.441 309.926 437.731 310.239 438.102 310.455C438.473 310.667 438.907 310.773 439.403 310.773C439.725 310.773 440.019 310.727 440.284 310.636C440.549 310.542 440.778 310.402 440.971 310.216C441.165 310.03 441.312 309.801 441.415 309.528L443.023 309.818C442.894 310.292 442.663 310.706 442.329 311.062C442 311.415 441.585 311.689 441.085 311.886C440.589 312.08 440.023 312.176 439.386 312.176ZM447.379 312.193C446.826 312.193 446.326 312.091 445.879 311.886C445.432 311.678 445.078 311.377 444.817 310.983C444.559 310.589 444.43 310.106 444.43 309.534C444.43 309.042 444.525 308.636 444.714 308.318C444.904 308 445.16 307.748 445.481 307.562C445.803 307.377 446.163 307.237 446.561 307.142C446.959 307.047 447.364 306.975 447.777 306.926C448.3 306.866 448.724 306.816 449.05 306.778C449.375 306.737 449.612 306.67 449.76 306.58C449.908 306.489 449.981 306.341 449.981 306.136V306.097C449.981 305.6 449.841 305.216 449.561 304.943C449.285 304.67 448.872 304.534 448.322 304.534C447.75 304.534 447.3 304.661 446.97 304.915C446.644 305.165 446.419 305.443 446.294 305.75L444.697 305.386C444.887 304.856 445.163 304.428 445.527 304.102C445.894 303.773 446.317 303.534 446.794 303.386C447.271 303.235 447.773 303.159 448.3 303.159C448.648 303.159 449.017 303.201 449.408 303.284C449.802 303.364 450.169 303.511 450.51 303.727C450.855 303.943 451.137 304.252 451.356 304.653C451.576 305.051 451.686 305.568 451.686 306.205V312H450.027V310.807H449.959C449.849 311.027 449.684 311.242 449.464 311.455C449.245 311.667 448.963 311.843 448.618 311.983C448.273 312.123 447.86 312.193 447.379 312.193ZM447.749 310.83C448.218 310.83 448.62 310.737 448.953 310.551C449.29 310.366 449.546 310.123 449.72 309.824C449.898 309.521 449.987 309.197 449.987 308.852V307.727C449.927 307.788 449.809 307.845 449.635 307.898C449.464 307.947 449.269 307.991 449.05 308.028C448.83 308.062 448.616 308.095 448.408 308.125C448.199 308.152 448.025 308.174 447.885 308.193C447.555 308.235 447.254 308.305 446.981 308.403C446.713 308.502 446.497 308.644 446.334 308.83C446.175 309.011 446.095 309.254 446.095 309.557C446.095 309.977 446.25 310.295 446.561 310.511C446.872 310.723 447.267 310.83 447.749 310.83ZM457.449 312.176C456.604 312.176 455.877 311.985 455.267 311.602C454.661 311.216 454.195 310.684 453.869 310.006C453.544 309.328 453.381 308.551 453.381 307.676C453.381 306.79 453.547 306.008 453.881 305.33C454.214 304.648 454.684 304.116 455.29 303.733C455.896 303.35 456.61 303.159 457.432 303.159C458.095 303.159 458.686 303.282 459.205 303.528C459.724 303.771 460.142 304.112 460.46 304.551C460.782 304.991 460.974 305.504 461.034 306.091H459.381C459.29 305.682 459.082 305.33 458.756 305.034C458.434 304.739 458.002 304.591 457.46 304.591C456.987 304.591 456.572 304.716 456.216 304.966C455.864 305.212 455.589 305.564 455.392 306.023C455.195 306.477 455.097 307.015 455.097 307.636C455.097 308.273 455.193 308.822 455.386 309.284C455.58 309.746 455.852 310.104 456.205 310.358C456.561 310.612 456.979 310.739 457.46 310.739C457.782 310.739 458.074 310.68 458.335 310.562C458.6 310.441 458.822 310.269 459 310.045C459.182 309.822 459.309 309.553 459.381 309.239H461.034C460.974 309.803 460.79 310.307 460.483 310.75C460.176 311.193 459.765 311.542 459.25 311.795C458.739 312.049 458.138 312.176 457.449 312.176ZM466.749 303.273V304.636H461.982V303.273H466.749ZM463.26 301.182H464.959V309.438C464.959 309.767 465.008 310.015 465.107 310.182C465.205 310.345 465.332 310.456 465.487 310.517C465.647 310.574 465.819 310.602 466.004 310.602C466.141 310.602 466.26 310.593 466.362 310.574C466.465 310.555 466.544 310.54 466.601 310.528L466.908 311.932C466.809 311.97 466.669 312.008 466.487 312.045C466.306 312.087 466.078 312.11 465.806 312.114C465.359 312.121 464.942 312.042 464.556 311.875C464.169 311.708 463.857 311.451 463.618 311.102C463.379 310.754 463.26 310.316 463.26 309.79V301.182ZM405.97 336.176C405.125 336.176 404.398 335.985 403.788 335.602C403.182 335.216 402.716 334.684 402.39 334.006C402.064 333.328 401.901 332.551 401.901 331.676C401.901 330.79 402.068 330.008 402.401 329.33C402.735 328.648 403.204 328.116 403.81 327.733C404.417 327.35 405.131 327.159 405.953 327.159C406.615 327.159 407.206 327.282 407.725 327.528C408.244 327.771 408.663 328.112 408.981 328.551C409.303 328.991 409.494 329.504 409.555 330.091H407.901C407.81 329.682 407.602 329.33 407.276 329.034C406.954 328.739 406.523 328.591 405.981 328.591C405.507 328.591 405.093 328.716 404.737 328.966C404.384 329.212 404.11 329.564 403.913 330.023C403.716 330.477 403.617 331.015 403.617 331.636C403.617 332.273 403.714 332.822 403.907 333.284C404.1 333.746 404.373 334.104 404.725 334.358C405.081 334.612 405.5 334.739 405.981 334.739C406.303 334.739 406.595 334.68 406.856 334.562C407.121 334.441 407.343 334.269 407.521 334.045C407.703 333.822 407.829 333.553 407.901 333.239H409.555C409.494 333.803 409.31 334.307 409.004 334.75C408.697 335.193 408.286 335.542 407.771 335.795C407.259 336.049 406.659 336.176 405.97 336.176ZM414.872 336.176C414.054 336.176 413.339 335.989 412.73 335.614C412.12 335.239 411.646 334.714 411.309 334.04C410.972 333.366 410.804 332.578 410.804 331.676C410.804 330.771 410.972 329.979 411.309 329.301C411.646 328.623 412.12 328.097 412.73 327.722C413.339 327.347 414.054 327.159 414.872 327.159C415.69 327.159 416.404 327.347 417.014 327.722C417.624 328.097 418.097 328.623 418.434 329.301C418.771 329.979 418.94 330.771 418.94 331.676C418.94 332.578 418.771 333.366 418.434 334.04C418.097 334.714 417.624 335.239 417.014 335.614C416.404 335.989 415.69 336.176 414.872 336.176ZM414.877 334.75C415.408 334.75 415.847 334.61 416.196 334.33C416.544 334.049 416.802 333.676 416.968 333.21C417.139 332.744 417.224 332.231 417.224 331.67C417.224 331.114 417.139 330.602 416.968 330.136C416.802 329.667 416.544 329.29 416.196 329.006C415.847 328.722 415.408 328.58 414.877 328.58C414.343 328.58 413.9 328.722 413.548 329.006C413.199 329.29 412.94 329.667 412.769 330.136C412.603 330.602 412.519 331.114 412.519 331.67C412.519 332.231 412.603 332.744 412.769 333.21C412.94 333.676 413.199 334.049 413.548 334.33C413.9 334.61 414.343 334.75 414.877 334.75ZM420.66 336V327.273H422.291V328.693H422.399C422.581 328.212 422.878 327.837 423.291 327.568C423.704 327.295 424.198 327.159 424.774 327.159C425.357 327.159 425.846 327.295 426.24 327.568C426.637 327.841 426.931 328.216 427.12 328.693H427.211C427.42 328.227 427.751 327.856 428.206 327.58C428.66 327.299 429.202 327.159 429.831 327.159C430.622 327.159 431.268 327.407 431.768 327.903C432.272 328.4 432.524 329.148 432.524 330.148V336H430.825V330.307C430.825 329.716 430.664 329.288 430.342 329.023C430.02 328.758 429.636 328.625 429.189 328.625C428.636 328.625 428.206 328.795 427.899 329.136C427.592 329.473 427.439 329.907 427.439 330.438V336H425.745V330.199C425.745 329.725 425.598 329.345 425.302 329.057C425.007 328.769 424.622 328.625 424.149 328.625C423.827 328.625 423.529 328.71 423.257 328.881C422.988 329.047 422.77 329.28 422.603 329.58C422.44 329.879 422.359 330.225 422.359 330.619V336H420.66ZM434.625 339.273V327.273H436.284V328.688H436.426C436.524 328.506 436.666 328.295 436.852 328.057C437.038 327.818 437.295 327.61 437.625 327.432C437.954 327.25 438.39 327.159 438.932 327.159C439.636 327.159 440.265 327.337 440.818 327.693C441.371 328.049 441.805 328.562 442.119 329.233C442.437 329.903 442.596 330.71 442.596 331.653C442.596 332.597 442.439 333.405 442.125 334.08C441.81 334.75 441.379 335.267 440.829 335.631C440.28 335.991 439.653 336.17 438.949 336.17C438.418 336.17 437.985 336.081 437.648 335.903C437.314 335.725 437.053 335.517 436.863 335.278C436.674 335.04 436.528 334.828 436.426 334.642H436.324V339.273H434.625ZM436.29 331.636C436.29 332.25 436.379 332.788 436.557 333.25C436.735 333.712 436.992 334.074 437.329 334.335C437.666 334.593 438.079 334.722 438.568 334.722C439.076 334.722 439.5 334.587 439.841 334.318C440.182 334.045 440.439 333.676 440.613 333.21C440.791 332.744 440.88 332.22 440.88 331.636C440.88 331.061 440.793 330.544 440.619 330.085C440.449 329.627 440.191 329.265 439.846 329C439.505 328.735 439.079 328.602 438.568 328.602C438.076 328.602 437.659 328.729 437.318 328.983C436.981 329.237 436.725 329.591 436.551 330.045C436.377 330.5 436.29 331.03 436.29 331.636ZM448 336.176C447.182 336.176 446.468 335.989 445.858 335.614C445.248 335.239 444.775 334.714 444.437 334.04C444.1 333.366 443.932 332.578 443.932 331.676C443.932 330.771 444.1 329.979 444.437 329.301C444.775 328.623 445.248 328.097 445.858 327.722C446.468 327.347 447.182 327.159 448 327.159C448.818 327.159 449.532 327.347 450.142 327.722C450.752 328.097 451.225 328.623 451.562 329.301C451.9 329.979 452.068 330.771 452.068 331.676C452.068 332.578 451.9 333.366 451.562 334.04C451.225 334.714 450.752 335.239 450.142 335.614C449.532 335.989 448.818 336.176 448 336.176ZM448.006 334.75C448.536 334.75 448.975 334.61 449.324 334.33C449.672 334.049 449.93 333.676 450.097 333.21C450.267 332.744 450.352 332.231 450.352 331.67C450.352 331.114 450.267 330.602 450.097 330.136C449.93 329.667 449.672 329.29 449.324 329.006C448.975 328.722 448.536 328.58 448.006 328.58C447.472 328.58 447.028 328.722 446.676 329.006C446.328 329.29 446.068 329.667 445.898 330.136C445.731 330.602 445.648 331.114 445.648 331.67C445.648 332.231 445.731 332.744 445.898 333.21C446.068 333.676 446.328 334.049 446.676 334.33C447.028 334.61 447.472 334.75 448.006 334.75ZM455.487 330.818V336H453.788V327.273H455.419V328.693H455.527C455.728 328.231 456.042 327.86 456.47 327.58C456.902 327.299 457.446 327.159 458.101 327.159C458.696 327.159 459.216 327.284 459.663 327.534C460.11 327.78 460.457 328.148 460.703 328.636C460.949 329.125 461.073 329.729 461.073 330.449V336H459.374V330.653C459.374 330.021 459.209 329.527 458.879 329.17C458.55 328.811 458.097 328.631 457.521 328.631C457.127 328.631 456.777 328.716 456.47 328.886C456.167 329.057 455.927 329.307 455.749 329.636C455.574 329.962 455.487 330.356 455.487 330.818ZM466.936 336.176C466.076 336.176 465.336 335.992 464.715 335.625C464.097 335.254 463.62 334.733 463.283 334.062C462.95 333.388 462.783 332.598 462.783 331.693C462.783 330.799 462.95 330.011 463.283 329.33C463.62 328.648 464.09 328.116 464.692 327.733C465.298 327.35 466.006 327.159 466.817 327.159C467.309 327.159 467.787 327.241 468.249 327.403C468.711 327.566 469.126 327.822 469.493 328.17C469.861 328.519 470.15 328.972 470.362 329.528C470.575 330.081 470.681 330.754 470.681 331.545V332.148H463.743V330.875H469.016C469.016 330.428 468.925 330.032 468.743 329.688C468.561 329.339 468.306 329.064 467.976 328.864C467.65 328.663 467.268 328.562 466.828 328.562C466.351 328.562 465.934 328.68 465.578 328.915C465.226 329.146 464.953 329.449 464.76 329.824C464.571 330.195 464.476 330.598 464.476 331.034V332.028C464.476 332.612 464.578 333.108 464.783 333.517C464.991 333.926 465.281 334.239 465.652 334.455C466.023 334.667 466.457 334.773 466.953 334.773C467.275 334.773 467.569 334.727 467.834 334.636C468.099 334.542 468.328 334.402 468.522 334.216C468.715 334.03 468.862 333.801 468.965 333.528L470.573 333.818C470.444 334.292 470.213 334.706 469.879 335.062C469.55 335.415 469.135 335.689 468.635 335.886C468.139 336.08 467.573 336.176 466.936 336.176ZM474.088 330.818V336H472.39V327.273H474.02V328.693H474.128C474.329 328.231 474.643 327.86 475.071 327.58C475.503 327.299 476.047 327.159 476.702 327.159C477.297 327.159 477.818 327.284 478.265 327.534C478.712 327.78 479.058 328.148 479.304 328.636C479.551 329.125 479.674 329.729 479.674 330.449V336H477.975V330.653C477.975 330.021 477.81 329.527 477.48 329.17C477.151 328.811 476.698 328.631 476.122 328.631C475.729 328.631 475.378 328.716 475.071 328.886C474.768 329.057 474.528 329.307 474.35 329.636C474.176 329.962 474.088 330.356 474.088 330.818ZM485.85 327.273V328.636H481.083V327.273H485.85ZM482.361 325.182H484.06V333.438C484.06 333.767 484.109 334.015 484.208 334.182C484.306 334.345 484.433 334.456 484.589 334.517C484.748 334.574 484.92 334.602 485.106 334.602C485.242 334.602 485.361 334.593 485.464 334.574C485.566 334.555 485.645 334.54 485.702 334.528L486.009 335.932C485.911 335.97 485.77 336.008 485.589 336.045C485.407 336.087 485.179 336.11 484.907 336.114C484.46 336.121 484.043 336.042 483.657 335.875C483.27 335.708 482.958 335.451 482.719 335.102C482.481 334.754 482.361 334.316 482.361 333.79V325.182ZM493.952 329.403L492.413 329.676C492.348 329.479 492.246 329.292 492.106 329.114C491.969 328.936 491.784 328.79 491.549 328.676C491.314 328.562 491.021 328.506 490.668 328.506C490.187 328.506 489.786 328.614 489.464 328.83C489.142 329.042 488.981 329.316 488.981 329.653C488.981 329.945 489.089 330.18 489.305 330.358C489.521 330.536 489.869 330.682 490.35 330.795L491.736 331.114C492.539 331.299 493.138 331.585 493.532 331.972C493.926 332.358 494.123 332.86 494.123 333.477C494.123 334 493.971 334.466 493.668 334.875C493.369 335.28 492.95 335.598 492.413 335.83C491.878 336.061 491.259 336.176 490.555 336.176C489.577 336.176 488.78 335.968 488.163 335.551C487.545 335.131 487.166 334.534 487.026 333.761L488.668 333.511C488.771 333.939 488.981 334.263 489.299 334.483C489.617 334.699 490.032 334.807 490.543 334.807C491.1 334.807 491.545 334.691 491.878 334.46C492.212 334.225 492.378 333.939 492.378 333.602C492.378 333.33 492.276 333.1 492.072 332.915C491.871 332.729 491.562 332.589 491.146 332.494L489.668 332.17C488.854 331.985 488.252 331.689 487.861 331.284C487.475 330.879 487.282 330.366 487.282 329.744C487.282 329.229 487.426 328.778 487.714 328.392C488.002 328.006 488.399 327.705 488.907 327.489C489.414 327.269 489.996 327.159 490.651 327.159C491.594 327.159 492.337 327.364 492.878 327.773C493.42 328.178 493.778 328.722 493.952 329.403Z" fill="black" fill-opacity="0.8"/>
<path d="M712 140.085C712 126.83 751.399 116.085 800 116.085C848.601 116.085 888 126.83 888 140.085V268.085C888 281.34 848.601 292.085 800 292.085C751.399 292.085 712 281.34 712 268.085V140.085Z" fill="#FFC7C2"/>
<path d="M888 140.085H886C886 142.34 884.299 144.975 880.001 147.747C875.792 150.461 869.568 152.98 861.699 155.127C845.99 159.411 824.175 162.085 800 162.085V164.085V166.085C824.426 166.085 846.611 163.388 862.752 158.986C870.808 156.789 877.472 154.137 882.168 151.108C886.776 148.137 890 144.458 890 140.085H888ZM800 164.085V162.085C775.825 162.085 754.01 159.411 738.301 155.127C730.432 152.98 724.208 150.461 719.999 147.747C715.701 144.975 714 142.34 714 140.085H712H710C710 144.458 713.224 148.137 717.832 151.108C722.528 154.137 729.192 156.789 737.248 158.986C753.389 163.388 775.574 166.085 800 166.085V164.085ZM712 140.085H714C714 137.831 715.701 135.196 719.999 132.424C724.208 129.71 730.432 127.19 738.301 125.044C754.01 120.76 775.825 118.085 800 118.085V116.085V114.085C775.574 114.085 753.389 116.783 737.248 121.185C729.192 123.382 722.528 126.034 717.832 129.063C713.224 132.033 710 135.713 710 140.085H712ZM800 116.085V118.085C824.175 118.085 845.99 120.76 861.699 125.044C869.568 127.19 875.792 129.71 880.001 132.424C884.299 135.196 886 137.831 886 140.085H888H890C890 135.713 886.776 132.033 882.168 129.063C877.472 126.034 870.808 123.382 862.752 121.185C846.611 116.783 824.426 114.085 800 114.085V116.085ZM712 140.085H710V268.085H712H714V140.085H712ZM712 268.085H710C710 272.458 713.224 276.137 717.832 279.108C722.528 282.137 729.192 284.789 737.248 286.986C753.389 291.388 775.574 294.085 800 294.085V292.085V290.085C775.825 290.085 754.01 287.411 738.301 283.127C730.432 280.981 724.208 278.461 719.999 275.747C715.701 272.975 714 270.34 714 268.085H712ZM800 292.085V294.085C824.426 294.085 846.611 291.388 862.752 286.986C870.808 284.789 877.472 282.137 882.168 279.108C886.776 276.137 890 272.458 890 268.085H888H886C886 270.34 884.299 272.975 880.001 275.747C875.792 278.461 869.568 280.981 861.699 283.127C845.99 287.411 824.175 290.085 800 290.085V292.085ZM888 268.085H890V140.085H888H886V268.085H888Z" fill="#F24822"/>
<path d="M773.529 218.449V230.085H771.915L766 221.551H765.892V230.085H764.137V218.449H765.762L771.682 226.995H771.79V218.449H773.529ZM775.914 230.085V218.449H780.061C780.967 218.449 781.717 218.614 782.311 218.943C782.906 219.273 783.351 219.724 783.647 220.296C783.942 220.864 784.09 221.504 784.09 222.216C784.09 222.932 783.94 223.576 783.641 224.148C783.346 224.716 782.899 225.167 782.3 225.5C781.705 225.83 780.957 225.995 780.056 225.995H777.203V224.506H779.897C780.469 224.506 780.933 224.407 781.289 224.21C781.645 224.01 781.906 223.737 782.073 223.392C782.239 223.048 782.323 222.656 782.323 222.216C782.323 221.777 782.239 221.387 782.073 221.046C781.906 220.705 781.643 220.438 781.283 220.245C780.927 220.051 780.457 219.955 779.874 219.955H777.669V230.085H775.914ZM785.972 218.449H788.103L791.807 227.495H791.944L795.648 218.449H797.779V230.085H796.108V221.665H796.001L792.569 230.068H791.182L787.751 221.659H787.643V230.085H785.972V218.449ZM804.077 230.085V221.358H805.72V222.745H805.81C805.97 222.275 806.25 221.906 806.651 221.637C807.057 221.364 807.515 221.227 808.026 221.227C808.132 221.227 808.257 221.231 808.401 221.239C808.549 221.246 808.665 221.256 808.748 221.267V222.892C808.68 222.873 808.559 222.852 808.384 222.83C808.21 222.803 808.036 222.79 807.862 222.79C807.46 222.79 807.102 222.875 806.788 223.046C806.477 223.212 806.231 223.445 806.049 223.745C805.867 224.04 805.776 224.377 805.776 224.756V230.085H804.077ZM813.491 230.262C812.631 230.262 811.891 230.078 811.269 229.71C810.652 229.339 810.175 228.818 809.838 228.148C809.504 227.474 809.338 226.684 809.338 225.779C809.338 224.885 809.504 224.097 809.838 223.415C810.175 222.733 810.644 222.201 811.247 221.818C811.853 221.436 812.561 221.245 813.372 221.245C813.864 221.245 814.341 221.326 814.803 221.489C815.266 221.652 815.68 221.907 816.048 222.256C816.415 222.604 816.705 223.057 816.917 223.614C817.129 224.167 817.235 224.839 817.235 225.631V226.233H810.298V224.96H815.571C815.571 224.513 815.48 224.118 815.298 223.773C815.116 223.424 814.86 223.15 814.531 222.949C814.205 222.748 813.822 222.648 813.383 222.648C812.906 222.648 812.489 222.765 812.133 223C811.781 223.231 811.508 223.534 811.315 223.909C811.125 224.281 811.031 224.684 811.031 225.12V226.114C811.031 226.697 811.133 227.193 811.338 227.602C811.546 228.012 811.836 228.324 812.207 228.54C812.578 228.752 813.012 228.858 813.508 228.858C813.83 228.858 814.124 228.813 814.389 228.722C814.654 228.627 814.883 228.487 815.076 228.301C815.269 228.116 815.417 227.887 815.519 227.614L817.127 227.904C816.999 228.377 816.767 228.792 816.434 229.148C816.105 229.5 815.69 229.775 815.19 229.972C814.694 230.165 814.127 230.262 813.491 230.262ZM818.944 233.358V221.358H820.603V222.773H820.745C820.844 222.591 820.986 222.381 821.172 222.142C821.357 221.904 821.615 221.695 821.944 221.517C822.274 221.335 822.709 221.245 823.251 221.245C823.956 221.245 824.584 221.423 825.137 221.779C825.69 222.135 826.124 222.648 826.439 223.318C826.757 223.989 826.916 224.796 826.916 225.739C826.916 226.682 826.759 227.491 826.444 228.165C826.13 228.835 825.698 229.352 825.149 229.716C824.6 230.076 823.973 230.256 823.268 230.256C822.738 230.256 822.304 230.167 821.967 229.989C821.634 229.811 821.372 229.602 821.183 229.364C820.993 229.125 820.848 228.913 820.745 228.727H820.643V233.358H818.944ZM820.609 225.722C820.609 226.335 820.698 226.873 820.876 227.335C821.054 227.798 821.312 228.159 821.649 228.421C821.986 228.678 822.399 228.807 822.887 228.807C823.395 228.807 823.819 228.673 824.16 228.404C824.501 228.131 824.759 227.762 824.933 227.296C825.111 226.83 825.2 226.305 825.2 225.722C825.2 225.146 825.113 224.629 824.939 224.171C824.768 223.712 824.511 223.351 824.166 223.085C823.825 222.82 823.399 222.688 822.887 222.688C822.395 222.688 821.978 222.815 821.637 223.068C821.3 223.322 821.045 223.676 820.87 224.131C820.696 224.585 820.609 225.116 820.609 225.722ZM832.319 230.262C831.501 230.262 830.787 230.074 830.177 229.699C829.567 229.324 829.094 228.799 828.757 228.125C828.42 227.451 828.251 226.663 828.251 225.762C828.251 224.856 828.42 224.065 828.757 223.387C829.094 222.709 829.567 222.182 830.177 221.807C830.787 221.432 831.501 221.245 832.319 221.245C833.138 221.245 833.852 221.432 834.461 221.807C835.071 222.182 835.545 222.709 835.882 223.387C836.219 224.065 836.388 224.856 836.388 225.762C836.388 226.663 836.219 227.451 835.882 228.125C835.545 228.799 835.071 229.324 834.461 229.699C833.852 230.074 833.138 230.262 832.319 230.262ZM832.325 228.835C832.855 228.835 833.295 228.695 833.643 228.415C833.992 228.135 834.249 227.762 834.416 227.296C834.586 226.83 834.672 226.317 834.672 225.756C834.672 225.199 834.586 224.688 834.416 224.222C834.249 223.752 833.992 223.375 833.643 223.091C833.295 222.807 832.855 222.665 832.325 222.665C831.791 222.665 831.348 222.807 830.996 223.091C830.647 223.375 830.388 223.752 830.217 224.222C830.05 224.688 829.967 225.199 829.967 225.756C829.967 226.317 830.05 226.83 830.217 227.296C830.388 227.762 830.647 228.135 830.996 228.415C831.348 228.695 831.791 228.835 832.325 228.835Z" fill="black" fill-opacity="0.8"/>
<path d="M352 543C353.105 543 354 542.105 354 541C354 539.895 353.105 539 352 539V541V543ZM91.4142 299.171C90.6332 298.39 89.3668 298.39 88.5858 299.171L75.8579 311.899C75.0768 312.68 75.0768 313.947 75.8579 314.728C76.6389 315.509 77.9052 315.509 78.6863 314.728L90 303.414L101.314 314.728C102.095 315.509 103.361 315.509 104.142 314.728C104.923 313.947 104.923 312.68 104.142 311.899L91.4142 299.171ZM352 541V539H114V541V543H352V541ZM90 517H92V300.585H90H88V517H90ZM114 541V539C101.85 539 92 529.15 92 517H90H88C88 531.359 99.6406 543 114 543V541Z" fill="#874FFF"/>
<path d="M186 202.085C184.895 202.085 184 202.981 184 204.085C184 205.19 184.895 206.085 186 206.085V204.085V202.085ZM352.914 319.414C353.695 318.633 353.695 317.367 352.914 316.586L340.186 303.858C339.405 303.077 338.139 303.077 337.358 303.858C336.577 304.639 336.577 305.905 337.358 306.686L348.672 318L337.358 329.314C336.577 330.095 336.577 331.361 337.358 332.142C338.139 332.923 339.405 332.923 340.186 332.142L352.914 319.414ZM186 204.085V206.085H245V204.085V202.085H186V204.085ZM269 228.085H267V294H269H271V228.085H269ZM293 318V320H351.5V318V316H293V318ZM269 294H267C267 308.359 278.641 320 293 320V318V316C280.85 316 271 306.15 271 294H269ZM245 204.085V206.085C257.15 206.085 267 215.935 267 228.085H269H271C271 213.726 259.359 202.085 245 202.085V204.085Z" fill="#3DADFF"/>
<path d="M186 202.085C184.895 202.085 184 202.981 184 204.085C184 205.19 184.895 206.085 186 206.085V204.085V202.085ZM352.914 91.4142C353.695 90.6332 353.695 89.3668 352.914 88.5858L340.186 75.8579C339.405 75.0768 338.139 75.0768 337.358 75.8579C336.577 76.6389 336.577 77.9052 337.358 78.6863L348.672 90L337.358 101.314C336.577 102.095 336.577 103.361 337.358 104.142C338.139 104.923 339.405 104.923 340.186 104.142L352.914 91.4142ZM186 204.085V206.085H245V204.085V202.085H186V204.085ZM269 180.085H271V114H269H267V180.085H269ZM293 90V92H351.5V90V88H293V90ZM269 114H271C271 101.85 280.85 92 293 92V90V88C278.641 88 267 99.6406 267 114H269ZM245 204.085V206.085C259.359 206.085 271 194.445 271 180.085H269H267C267 192.236 257.15 202.085 245 202.085V204.085Z" fill="#3DADFF"/>
<path d="M544 88C542.895 88 542 88.8954 542 90C542 91.1046 542.895 92 544 92V90V88ZM704.914 205.5C705.695 204.719 705.695 203.452 704.914 202.671L692.186 189.943C691.405 189.162 690.139 189.162 689.358 189.943C688.577 190.724 688.577 191.991 689.358 192.772L700.672 204.085L689.358 215.399C688.577 216.18 688.577 217.447 689.358 218.228C690.139 219.009 691.405 219.009 692.186 218.228L704.914 205.5ZM544 90V92H600V90V88H544V90ZM624 114H622V180.085H624H626V114H624ZM648 204.085V206.085H703.5V204.085V202.085H648V204.085ZM624 180.085H622C622 194.445 633.641 206.085 648 206.085V204.085V202.085C635.85 202.085 626 192.236 626 180.085H624ZM600 90V92C612.15 92 622 101.85 622 114H624H626C626 99.6406 614.359 88 600 88V90Z" fill="#66D575"/>
<path d="M544 316C542.895 316 542 316.895 542 318C542 319.105 542.895 320 544 320V318V316ZM704.914 205.5C705.695 204.719 705.695 203.452 704.914 202.671L692.186 189.943C691.405 189.162 690.139 189.162 689.358 189.943C688.577 190.724 688.577 191.991 689.358 192.772L700.672 204.085L689.358 215.399C688.577 216.18 688.577 217.447 689.358 218.228C690.139 219.009 691.405 219.009 692.186 218.228L704.914 205.5ZM544 318V320H600V318V316H544V318ZM624 294H626V228.085H624H622V294H624ZM648 204.085V206.085H703.5V204.085V202.085H648V204.085ZM624 228.085H626C626 215.935 635.85 206.085 648 206.085V204.085V202.085C633.641 202.085 622 213.726 622 228.085H624ZM600 318V320C614.359 320 626 308.359 626 294H624H622C622 306.15 612.15 316 600 316V318Z" fill="#5AD8CC"/>
<path d="M544 539C542.895 539 542 539.895 542 541C542 542.105 542.895 543 544 543V541V539ZM801.414 299.171C800.633 298.39 799.367 298.39 798.586 299.171L785.858 311.899C785.077 312.68 785.077 313.947 785.858 314.728C786.639 315.509 787.905 315.509 788.686 314.728L800 303.414L811.314 314.728C812.095 315.509 813.361 315.509 814.142 314.728C814.923 313.947 814.923 312.68 814.142 311.899L801.414 299.171ZM544 541V543H776V541V539H544V541ZM800 517H802V300.585H800H798V517H800ZM776 541V543C790.359 543 802 531.359 802 517H800H798C798 529.15 788.15 539 776 539V541Z" fill="#874FFF"/>
</svg>
