<svg width="383" height="258" viewBox="0 0 383 258" fill="none" xmlns="http://www.w3.org/2000/svg">
<g clip-path="url(#clip0_1510_286085)">
<path d="M338.933 166.986C338.933 156.021 336.773 145.164 332.578 135.034C328.382 124.905 322.232 115.7 314.479 107.947C306.725 100.194 297.521 94.0441 287.391 89.8482C277.262 85.6523 266.404 83.4927 255.44 83.4927C244.475 83.4927 233.618 85.6523 223.488 89.8482C213.359 94.0441 204.154 100.194 196.401 107.947C188.648 115.7 182.498 124.905 178.302 135.034C174.106 145.164 171.947 156.021 171.947 166.986L338.933 166.986Z" fill="#D2EBFE"/>
<path d="M188.48 66.459C176.43 66.459 164.498 68.8431 153.365 73.4752C142.232 78.1074 132.117 84.8968 123.596 93.4559C115.075 102.015 108.316 112.176 103.705 123.359C99.0936 134.542 96.7202 146.528 96.7202 158.632C96.7202 170.736 99.0936 182.722 103.705 193.905C108.316 205.088 115.075 215.249 123.596 223.808C132.117 232.367 142.232 239.157 153.365 243.789C164.498 248.421 176.43 250.805 188.48 250.805L188.48 66.459Z" fill="#9BA0EB"/>
<ellipse cx="68.6132" cy="68.1999" rx="68.6132" ry="68.1999" transform="matrix(-1 0 0 1 262.053 90.4326)" fill="#006DCC"/>
<path d="M367.59 0C366.144 0.370279 365.203 1.55517 364.769 3.55468C366.867 4.73957 369.001 6.51692 371.171 8.8867C373.342 11.2565 374.861 13.8484 375.729 16.6626H375.404C372.654 16.6626 370.52 17.4031 369.001 18.8842C367.41 20.2913 366.614 22.1427 366.614 24.4384C366.614 26.5861 367.41 28.4004 369.001 29.8815C370.52 31.3627 372.365 32.1032 374.535 32.1032C377.14 32.1032 379.202 31.1775 380.721 29.3261C382.24 27.4007 383 25.1049 383 22.4389C383 17.9215 381.589 13.8855 378.767 10.3308C375.946 6.77611 372.22 3.33251 367.59 0ZM345.888 0C344.441 0.370279 343.5 1.55517 343.066 3.55468C345.164 4.73957 347.298 6.51692 349.469 8.8867C351.639 11.2565 353.158 13.8484 354.026 16.6626H353.701C350.952 16.6626 348.818 17.4031 347.298 18.8842C345.707 20.2913 344.911 22.1427 344.911 24.4384C344.911 26.5861 345.707 28.4004 347.298 29.8815C348.818 31.3627 350.662 32.1032 352.833 32.1032C355.437 32.1032 357.499 31.1775 359.018 29.3261C360.537 27.4007 361.297 25.1049 361.297 22.4389C361.297 17.9215 359.886 13.8855 357.065 10.3308C354.243 6.77611 350.518 3.33251 345.888 0Z" fill="white"/>
<mask id="path-5-inside-1_1510_286085" fill="white">
<path d="M374.458 26.8223L351.957 26.8223C351.957 20.6218 354.42 14.6754 358.804 10.291C362.981 6.11405 368.576 3.68265 374.458 3.46191V26.8223Z"/>
</mask>
<path d="M374.458 26.8223V28.3223H375.958V26.8223H374.458ZM351.957 26.8223L350.457 26.8223L350.457 28.3223H351.957V26.8223ZM358.804 10.291L357.744 9.23034L357.744 9.23036L358.804 10.291ZM374.458 3.46191L375.958 3.46191V1.90456L374.401 1.96297L374.458 3.46191ZM374.458 26.8223V25.3223L351.957 25.3223V26.8223V28.3223L374.458 28.3223V26.8223ZM351.957 26.8223L353.457 26.8223C353.457 21.0197 355.762 15.4548 359.865 11.3517L358.804 10.291L357.744 9.23036C353.078 13.896 350.457 20.224 350.457 26.8223L351.957 26.8223ZM358.804 10.291L359.865 11.3517C363.774 7.44293 369.009 5.16744 374.514 4.96086L374.458 3.46191L374.401 1.96297C368.143 2.19786 362.189 4.78517 357.744 9.23034L358.804 10.291ZM374.458 3.46191H372.958V26.8223H374.458H375.958V3.46191L374.458 3.46191Z" fill="black" mask="url(#path-5-inside-1_1510_286085)"/>
<rect x="123.848" y="32.3813" width="194.968" height="180.874" rx="19.3893" fill="white"/>
<path d="M309.345 101.252L307.432 100.426C306.457 100.005 305.324 100.224 304.576 100.978C303.906 101.652 303.661 102.641 303.939 103.55L304.823 106.447C305.164 107.563 305.111 108.762 304.672 109.843C304.209 110.984 303.348 111.917 302.249 112.471L300.144 113.532C299.244 113.985 298.677 114.906 298.677 115.912C298.677 116.919 299.244 117.84 300.144 118.293L302.498 119.48C303.44 119.954 304.188 120.738 304.618 121.7C305.089 122.754 305.143 123.947 304.772 125.04L304.014 127.268C303.688 128.224 303.898 129.281 304.563 130.041C305.32 130.906 306.526 131.226 307.613 130.851L309.527 130.189C310.635 129.806 311.845 129.842 312.93 130.289C314.043 130.748 314.944 131.608 315.454 132.699L316.441 134.813C316.87 135.732 317.792 136.319 318.807 136.319C319.786 136.319 320.684 135.77 321.131 134.898L322.057 133.089C322.596 132.038 323.454 131.185 324.509 130.654L324.675 130.57C325.912 129.947 327.349 129.85 328.659 130.303L330.185 130.83C331.3 131.215 332.538 130.864 333.285 129.95C333.867 129.238 334.065 128.286 333.814 127.4L333.173 125.143C332.845 123.983 332.959 122.742 333.495 121.662C333.962 120.721 334.721 119.957 335.659 119.485L338.024 118.293C338.923 117.84 339.49 116.919 339.49 115.912C339.49 114.906 338.923 113.985 338.024 113.532L335.766 112.394C334.762 111.888 333.962 111.053 333.5 110.028C332.964 108.84 332.922 107.487 333.385 106.268L333.984 104.689C334.403 103.585 334.096 102.337 333.214 101.552C332.484 100.903 331.473 100.674 330.534 100.944L328.389 101.562C327.238 101.893 326.008 101.821 324.904 101.357L324.785 101.307C323.57 100.797 322.608 99.8219 322.116 98.5992L321.565 97.233C321.144 96.1893 320.131 95.5059 319.006 95.5059C317.881 95.5059 316.868 96.1893 316.448 97.233L315.907 98.5754C315.408 99.8114 314.416 100.796 313.18 101.294C311.951 101.79 310.562 101.778 309.345 101.252Z" fill="#006DCC"/>
<path d="M319.083 108.26C322.867 108.26 325.935 111.328 325.935 115.112C325.935 118.897 322.867 121.965 319.083 121.965C315.298 121.965 312.23 118.897 312.23 115.112C312.23 111.328 315.298 108.26 319.083 108.26Z" fill="white" stroke="black" stroke-width="1.5"/>
<path d="M258.016 187.014L254.345 175.61C253.764 173.804 255.513 172.119 257.296 172.767L268.579 176.867C270.622 177.61 270.567 180.518 268.498 181.183L264.817 182.366C264.11 182.594 263.557 183.152 263.337 183.862L262.366 186.991C261.705 189.119 258.698 189.135 258.016 187.014Z" fill="white" stroke="black" stroke-width="1.5"/>
<path d="M221.005 98.0771C241.028 98.0772 257.26 114.309 257.26 134.332C257.26 154.355 241.028 170.587 221.005 170.587C200.982 170.587 184.75 154.355 184.75 134.332C184.75 114.309 200.982 98.0771 221.005 98.0771Z" fill="#D2EBFE" stroke="black" stroke-width="1.5"/>
<path d="M221.723 110.106V97.3271" stroke="black" stroke-width="1.5"/>
<path d="M221.723 171.337V158.558" stroke="black" stroke-width="1.5"/>
<path d="M245.149 134.066L257.927 134.066" stroke="black" stroke-width="1.5"/>
<path d="M183.92 134.066L196.699 134.066" stroke="black" stroke-width="1.5"/>
<path d="M220.925 110.855C233.891 110.856 244.401 121.367 244.401 134.332C244.401 147.297 233.89 157.807 220.925 157.808C207.96 157.808 197.449 147.297 197.449 134.332C197.449 121.367 207.96 110.855 220.925 110.855Z" fill="#9BA0EB" stroke="black" stroke-width="1.5"/>
<path d="M239.304 119.147L248.38 110.071" stroke="black" stroke-width="1.5"/>
<path d="M196.252 161.329L205.329 152.252" stroke="black" stroke-width="1.5"/>
<path d="M202.771 118.506L193.694 109.429" stroke="black" stroke-width="1.5"/>
<path d="M246.059 161.096L236.982 152.02" stroke="black" stroke-width="1.5"/>
<path d="M151.127 73.8804H292.851" stroke="black" stroke-width="1.5" stroke-dasharray="5.7 5.7"/>
<path d="M161.184 128.69C168.542 55.6098 275.192 55.6098 282.55 128.69" stroke="black" stroke-width="1.5" stroke-dasharray="5.7 5.7"/>
<circle cx="292.852" cy="73.8802" r="4.69803" fill="black"/>
<circle cx="282.673" cy="131.823" r="4.69803" fill="black"/>
<circle cx="160.525" cy="131.823" r="4.69803" fill="black"/>
<rect x="217.684" y="69.1821" width="8.61306" height="9.39606" fill="black"/>
<circle cx="151.128" cy="73.8802" r="4.69803" fill="black"/>
<path d="M319.083 136.521V192.335C319.083 203.673 309.891 212.864 298.553 212.864H273.827" stroke="black" stroke-width="1.5" stroke-linecap="round"/>
<path d="M123.065 64.4849V55.1926C123.065 42.5945 133.278 32.3817 145.876 32.3817H148.121" stroke="black" stroke-width="1.5" stroke-linecap="round"/>
<rect x="87.625" y="188.479" width="67.3732" height="63.1091" rx="8.75783" fill="#D2EBFE"/>
<path d="M119.225 201.339C120.359 200.563 121.852 200.563 122.986 201.339L139.055 212.327C140.294 213.174 140.814 214.746 140.324 216.165L134.271 233.699C133.807 235.042 132.542 235.944 131.121 235.944H111.089C109.668 235.944 108.404 235.042 107.94 233.699L101.887 216.165C101.397 214.746 101.916 213.174 103.155 212.327L119.225 201.339Z" fill="#056BD1"/>
<circle cx="329.786" cy="235.255" r="14.9232" transform="rotate(-45 329.786 235.255)" stroke="white" stroke-width="1.5"/>
<path d="M319.798 234.311L324.938 230.976C325.326 230.724 325.839 230.999 325.844 231.462C325.853 232.279 325.437 233.042 324.745 233.476L323.471 234.275C322.755 234.725 322.76 235.77 323.48 236.213L324.833 237.046C325.505 237.459 325.918 238.188 325.926 238.976C325.931 239.429 325.435 239.709 325.05 239.471L319.819 236.238C319.107 235.797 319.096 234.766 319.798 234.311Z" fill="white"/>
<path d="M339.042 234.1L333.83 230.879C333.437 230.635 332.93 230.922 332.935 231.384C332.944 232.201 333.376 232.955 334.078 233.374L335.368 234.145C336.094 234.579 336.112 235.624 335.402 236.082L334.067 236.945C333.405 237.373 333.008 238.11 333.017 238.899C333.022 239.351 333.524 239.621 333.903 239.374L339.063 236.027C339.765 235.572 339.754 234.54 339.042 234.1Z" fill="white"/>
<path d="M327.664 241.276L329.098 228.177C329.149 227.712 329.533 227.355 329.999 227.338C330.571 227.317 331.029 227.807 330.971 228.376L329.622 241.484C329.572 241.972 329.169 242.349 328.679 242.367C328.078 242.389 327.598 241.873 327.664 241.276Z" fill="white"/>
<path d="M0 121.712V110.797C0 107.648 2.5532 105.095 5.70274 105.095H104.244C107.393 105.095 109.946 107.648 109.946 110.797V121.712C109.946 124.861 107.393 127.415 104.244 127.415H5.70275C2.55321 127.415 0 124.861 0 121.712Z" stroke="white" stroke-width="2"/>
<path d="M91.7603 114.188L96.2124 119.668C96.6803 120.243 97.5648 120.226 98.0101 119.633L102.094 114.188" stroke="white" stroke-width="2" stroke-linecap="round"/>
<path d="M9.91992 117.495L81.0131 117.495" stroke="white" stroke-width="2" stroke-linecap="round"/>
<ellipse cx="159.727" cy="33.3053" rx="17.36" ry="17.36" fill="#B4D5F0"/>
<ellipse cx="159.846" cy="33.4251" rx="9.50665" ry="9.50665" fill="#006DCC"/>
</g>
<defs>
<clipPath id="clip0_1510_286085">
<rect width="383" height="257.42" fill="white"/>
</clipPath>
</defs>
</svg>
