<svg width="32" height="32" viewBox="0 0 32 32" fill="none" xmlns="http://www.w3.org/2000/svg">
<rect x="0.0283203" width="31.6954" height="31.6876" rx="4" fill="#00B6ED"/>
<g clip-path="url(#clip0_2374_533480)">
<mask id="mask0_2374_533480" style="mask-type:alpha" maskUnits="userSpaceOnUse" x="-11" y="-2" width="47" height="39">
<path d="M22.0166 31.1015C19.5458 30.197 17.1343 29.14 14.7963 27.9369C16.9188 27.1631 18.9884 26.2533 20.992 25.2131C21.1964 27.1976 21.5382 29.1658 22.0151 31.1037M35.2845 6.71135C34.2506 6.58161 34.7878 7.05899 34.4997 8.41157C33.2542 14.2434 28.4498 18.4466 23.6267 21.2665C23.1213 14.5881 23.3278 7.17367 24.5942 2.62995C25.6628 -1.20559 26.9336 -0.501698 25.3574 -1.30737C23.6967 -2.15533 21.9169 -1.03499 20.475 1.82213C19.0332 4.67925 12.3934 20.1891 1.77962 30.6621C-3.6493 36.023 -8.55979 33.2619 -9.54319 32.4376C-10.3432 31.7667 -10.6385 32.8025 -9.64572 33.8633C-5.25508 38.5633 1.1594 35.8667 3.49515 33.5494C9.95007 27.1441 17.4548 13.356 20.4909 7.50555C20.1374 12.601 20.2188 17.7171 20.7343 22.799C18.289 23.9901 15.7386 24.9559 13.1154 25.684C11.6107 26.0754 10.68 26.6839 10.6526 27.3757C10.623 28.1333 11.6331 28.7727 13.0938 29.4608C15.6931 30.6865 23.309 34.2583 25.1855 35.3385C26.7921 36.2638 27.5762 35.542 28.052 34.5428C28.6737 33.2404 26.969 32.4878 25.317 31.9975C24.5879 29.2486 24.0926 26.4437 23.8361 23.6125C27.7076 21.2471 31.5192 18.0932 33.7163 14.1602C34.4257 12.778 34.953 11.3108 35.2853 9.79497C35.5153 8.86149 35.5781 7.8951 35.4708 6.94C35.4708 6.94 35.4419 6.73142 35.2853 6.71135" fill="#545860"/>
</mask>
<g mask="url(#mask0_2374_533480)">
<rect x="0.0283203" y="-0.000335693" width="31.6954" height="31.6954" rx="3.04762" fill="white"/>
</g>
</g>
<defs>
<clipPath id="clip0_2374_533480">
<rect y="0.00595093" width="32" height="31.9922" rx="4" fill="white"/>
</clipPath>
</defs>
</svg>
