<svg width="130" height="130" viewBox="0 0 130 130" fill="none" xmlns="http://www.w3.org/2000/svg">
<g clip-path="url(#clip0_2669_424565)">
<path d="M128.132 3.44922C72.4455 3.44922 2.58789 128.124 2.58789 128.124H128.132V3.44922Z" fill="#E0F1FF"/>
<path d="M3.01758 127.659C3.01758 121.006 78.2347 2.78857 127.717 2.78857" stroke="#006DCC" stroke-width="1.92834"/>
<path d="M126.674 0.482422C128.245 0.482422 129.518 1.75538 129.519 3.32617C129.519 4.89717 128.245 6.1709 126.674 6.1709C125.103 6.17069 123.83 4.89704 123.83 3.32617C123.83 1.7555 125.103 0.482628 126.674 0.482422Z" fill="#006DCC" stroke="#006DCC" stroke-width="0.964169"/>
<path d="M3.32617 123.896C4.85894 123.896 6.1023 125.139 6.10254 126.672C6.10254 128.205 4.85908 129.448 3.32617 129.448C1.79344 129.448 0.550781 128.205 0.550781 126.672C0.551019 125.139 1.79358 123.897 3.32617 123.896Z" fill="#006DCC" stroke="#006DCC" stroke-width="1.10191"/>
</g>
<defs>
<clipPath id="clip0_2669_424565">
<rect width="130.001" height="130" fill="white"/>
</clipPath>
</defs>
</svg>
