<svg width="386" height="256" viewBox="0 0 386 256" fill="none" xmlns="http://www.w3.org/2000/svg">
<rect width="385.048" height="255.086" rx="9.44763" fill="#CDCDCD"/>
<path d="M127.487 85.5001H329.132C333.274 85.5003 336.632 88.8581 336.632 93.0001V149.289C336.632 152.879 333.722 155.789 330.132 155.789H128.581C124.294 155.789 120.879 152.202 121.089 147.921L123.991 88.8282C124.082 86.9643 125.621 85.5001 127.487 85.5001Z" fill="black" stroke="black"/>
<path d="M125.263 85.5001H327.378C329.311 85.5001 330.878 87.0671 330.878 89.0001V145.3C330.878 147.233 329.311 148.8 327.378 148.8H123.937C122.021 148.8 120.462 147.26 120.437 145.345L120.291 133.909C120.274 132.615 119.702 131.391 118.719 130.549L106.123 119.758C105.881 119.551 105.892 119.173 106.145 118.981L119.475 108.857C120.556 108.035 121.209 106.77 121.251 105.413L121.764 88.8917C121.821 87.061 123.277 85.5939 125.086 85.504L125.263 85.5001Z" fill="white" stroke="black"/>
<circle cx="72.2973" cy="117.15" r="24.7974" fill="white" stroke="black"/>
<path fill-rule="evenodd" clip-rule="evenodd" d="M66.2606 114.74C66.2606 113.629 67.1615 112.728 68.2729 112.728H72.2973C73.4086 112.728 74.3095 113.629 74.3095 114.74V127.82H77.8309C78.9423 127.82 79.8432 128.72 79.8432 129.832C79.8432 130.943 78.9423 131.844 77.8309 131.844H66.7637C65.6524 131.844 64.7515 130.943 64.7515 129.832C64.7515 128.72 65.6524 127.82 66.7637 127.82H70.2851V116.752H68.2729C67.1615 116.752 66.2606 115.851 66.2606 114.74Z" fill="black"/>
<path d="M71.7943 102.454C71.1475 102.454 70.5153 102.646 69.9776 103.005C69.4399 103.364 69.0208 103.875 68.7733 104.472C68.5258 105.07 68.4611 105.727 68.5872 106.362C68.7134 106.996 69.0248 107.579 69.4821 108.036C69.9394 108.493 70.522 108.805 71.1563 108.931C71.7906 109.057 72.4481 108.992 73.0456 108.745C73.6431 108.497 74.1538 108.078 74.5131 107.54C74.8724 107.003 75.0641 106.37 75.0641 105.724C75.0641 104.857 74.7196 104.025 74.1064 103.412C73.4932 102.798 72.6615 102.454 71.7943 102.454Z" fill="black"/>
<path fill-rule="evenodd" clip-rule="evenodd" d="M66.2606 114.74C66.2606 113.629 67.1615 112.728 68.2729 112.728H72.2973C73.4086 112.728 74.3095 113.629 74.3095 114.74V127.82H77.8309C78.9423 127.82 79.8432 128.72 79.8432 129.832C79.8432 130.943 78.9423 131.844 77.8309 131.844H66.7637C65.6524 131.844 64.7515 130.943 64.7515 129.832C64.7515 128.72 65.6524 127.82 66.7637 127.82H70.2851V116.752H68.2729C67.1615 116.752 66.2606 115.851 66.2606 114.74Z" stroke="black"/>
<path d="M71.7943 102.454C71.1475 102.454 70.5153 102.646 69.9776 103.005C69.4399 103.364 69.0208 103.875 68.7733 104.472C68.5258 105.07 68.4611 105.727 68.5872 106.362C68.7134 106.996 69.0248 107.579 69.4821 108.036C69.9394 108.493 70.522 108.805 71.1563 108.931C71.7906 109.057 72.4481 108.992 73.0456 108.745C73.6431 108.497 74.1538 108.078 74.5131 107.54C74.8724 107.003 75.0641 106.37 75.0641 105.724C75.0641 104.857 74.7196 104.025 74.1064 103.412C73.4932 102.798 72.6615 102.454 71.7943 102.454Z" stroke="black"/>
<rect x="138.214" y="101.124" width="160.124" height="4.71885" rx="2.35943" fill="#D9D9D9"/>
<rect x="298.338" y="135.062" width="160.124" height="4.71885" rx="2.35943" transform="rotate(180 298.338 135.062)" fill="#D9D9D9"/>
<rect x="138.214" y="110.84" width="170.544" height="4.71885" rx="2.35943" fill="#D9D9D9"/>
<rect x="308.759" y="125.347" width="170.544" height="4.71885" rx="2.35943" transform="rotate(180 308.759 125.347)" fill="#D9D9D9"/>
<path d="M81.6633 140.979L82.8955 140.408C84.5371 139.648 86.4846 140.362 87.2452 142.004C89.3488 141.029 91.8369 141.908 92.8684 143.967L92.4218 143.003C92.3268 142.798 92.416 142.555 92.6208 142.46C94.6691 141.511 97.099 142.402 98.0481 144.45L99.0527 146.618C99.7055 148.027 100.1 149.542 100.216 151.09L100.908 160.255C100.939 160.67 100.709 161.062 100.331 161.237L89.2189 166.386C88.9864 166.494 88.7141 166.469 88.5045 166.322L74.0103 156.12C72.7322 155.221 72.3859 153.476 73.2235 152.156C74.068 150.826 75.8135 150.403 77.1736 151.198L80.8928 153.372C81.1012 153.494 81.3424 153.275 81.2409 153.056L74.2634 137.997C73.6425 136.657 74.2254 135.068 75.5655 134.447C76.9056 133.826 78.4953 134.409 79.1163 135.749L84.4005 147.153L81.6406 141.041C81.6301 141.017 81.6402 140.99 81.6633 140.979Z" fill="white"/>
<path d="M88.9317 145.643L87.2452 142.004M87.2452 142.004C89.3893 141.01 91.9329 141.943 92.9264 144.087L93.2745 144.843L92.4218 143.003C92.3268 142.798 92.416 142.555 92.6208 142.46C94.6691 141.511 97.099 142.402 98.0481 144.45L99.0527 146.618C99.7055 148.027 100.1 149.542 100.216 151.09L100.908 160.255C100.939 160.67 100.709 161.062 100.331 161.237L89.2189 166.386C88.9864 166.494 88.7141 166.469 88.5045 166.322L74.0103 156.12C72.7322 155.221 72.3859 153.476 73.2235 152.156C74.068 150.826 75.8135 150.403 77.1736 151.198L80.8928 153.372C81.1012 153.494 81.3424 153.275 81.2409 153.056L74.2634 137.997C73.6425 136.657 74.2254 135.068 75.5655 134.447C76.9056 133.826 78.4953 134.409 79.1163 135.749L84.4005 147.153L81.6406 141.041C81.6301 141.017 81.6402 140.99 81.6633 140.979L82.8955 140.408C84.5371 139.648 86.4846 140.362 87.2452 142.004Z" stroke="black" stroke-linecap="round" stroke-linejoin="round"/>
</svg>
