<svg width="386" height="256" viewBox="0 0 386 256" fill="none" xmlns="http://www.w3.org/2000/svg">
<rect width="385.048" height="255.086" rx="9.44763" fill="#CDCDCD"/>
<path d="M82 207.232V43C82 40.7909 83.7909 39 86 39H285.231C289.649 39 293.231 42.5817 293.231 47V208.232C293.231 212.098 290.097 215.232 286.231 215.232H90C85.5817 215.232 82 211.65 82 207.232Z" fill="black" stroke="black" stroke-linecap="round"/>
<path d="M82.001 204.463V43C82.001 40.7909 83.7918 39 86.001 39H283.312C285.522 39 287.312 40.7909 287.312 43V204.463C287.312 206.673 285.522 208.463 283.312 208.463H86.001C83.7918 208.463 82.001 206.673 82.001 204.463Z" fill="white" stroke="black" stroke-linecap="round"/>
<path d="M99.6611 52.7988V194.664M112.212 52.7988V194.664M125.6 52.7988V194.664M139.197 52.7988V194.664M152.166 52.7988V194.664M165.136 52.7988V194.664" stroke="#D9D9D9" stroke-linecap="round"/>
<path d="M178.019 52.7988V194.664M190.57 52.7988V194.664M203.957 52.7988V194.664M217.554 52.7988V194.664M230.524 52.7988V194.664M243.493 52.7988V194.664" stroke="#D9D9D9" stroke-linecap="round"/>
<path d="M256.376 52.7988V194.664M268.927 52.7988V194.664" stroke="#D9D9D9" stroke-linecap="round"/>
<path d="M276.007 58.126L93.2974 58.126M276.007 69.5005L93.2974 69.5005M276.007 81.6333L93.2974 81.6333M276.007 93.9557L93.2974 93.9557M276.007 105.709L93.2974 105.709" stroke="#D9D9D9" stroke-linecap="round"/>
<path d="M276.007 117.813L93.2974 117.813M276.007 129.188L93.2974 129.188M276.007 141.321L93.2974 141.321M276.007 153.643L93.2974 153.643M276.007 165.397L93.2974 165.397M276.007 177.753L93.2974 177.753M276.007 189.507L93.2974 189.507" stroke="#D9D9D9" stroke-linecap="round"/>
<rect x="99.6611" y="58.126" width="78.3575" height="11.6524" fill="#D9D9D9"/>
<rect x="99.6611" y="81.918" width="78.3575" height="11.6524" fill="#D9D9D9"/>
<rect x="99.6611" y="105.709" width="78.3575" height="11.6524" fill="#D9D9D9"/>
<rect x="99.6611" y="129.5" width="78.3575" height="11.6524" fill="#D9D9D9"/>
<rect x="99.6611" y="153.291" width="78.3575" height="11.6524" fill="#D9D9D9"/>
<rect x="99.6611" y="177.854" width="78.3575" height="11.6524" fill="#D9D9D9"/>
<rect x="190.57" y="58.126" width="78.3575" height="11.6524" fill="#D9D9D9"/>
<rect x="190.57" y="81.918" width="78.3575" height="11.6524" fill="#D9D9D9"/>
<rect x="190.57" y="129.5" width="78.3575" height="11.6524" fill="#D9D9D9"/>
<rect x="190.57" y="105.709" width="78.3575" height="11.6524" fill="#D9D9D9"/>
<rect x="190.57" y="153.291" width="78.3575" height="11.6524" fill="#D9D9D9"/>
<rect x="190.57" y="177.854" width="78.3575" height="11.6524" fill="#D9D9D9"/>
</svg>
