<svg width="978" height="483" viewBox="0 0 978 483" fill="none" xmlns="http://www.w3.org/2000/svg">
<rect y="7.62939e-05" width="231.693" height="231.693" rx="9.30865" fill="#F1F1F1"/>
<path d="M163.091 164.805H68.6361C68.6362 138.78 78.9752 113.822 97.3783 95.4193C114.913 77.8853 138.401 67.6724 163.091 66.7474V164.805Z" fill="#C2C2C2"/>
<rect x="248.75" width="231.693" height="231.693" rx="9.30865" fill="#F1F1F1"/>
<path d="M354.901 56.6128L304.314 136.825L347.498 175.08L425.228 125.719L354.901 56.6128Z" fill="#C2C2C2"/>
<rect x="497.5" width="231.693" height="231.693" rx="9.30865" fill="#F1F1F1"/>
<circle cx="613.393" cy="120.982" r="54.1859" fill="#C2C2C2"/>
<rect x="746.25" width="231.692" height="231.692" rx="7.89144" fill="#F1F1F1"/>
<path d="M807.168 69.558C813.864 69.558 875.247 67.171 885.004 71.3509C891.271 74.0359 897.207 78.1507 901.942 83.542C918.921 102.874 919.436 130.092 902.846 148.981C898.11 154.372 895.603 157.01 885.004 160.837C874.404 164.663 813.864 162.652 807.168 162.652L807.168 136.226C810.516 136.226 871.969 137.697 875.247 134.017C885.004 134.017 893.122 106.601 875.247 98.1708C872.153 96.712 810.516 95.9611 807.168 95.9611L807.168 69.558Z" fill="#C2C2C2"/>
<rect y="250.825" width="231.693" height="231.693" rx="9.30865" fill="#F1F1F1"/>
<path d="M181.72 337.841C181.72 346.514 180.016 355.103 176.705 363.116C173.395 371.13 168.543 378.411 162.426 384.544C156.309 390.677 149.047 395.542 141.055 398.861C133.063 402.18 124.497 403.889 115.846 403.889C107.195 403.889 98.6296 402.18 90.6374 398.861C82.6453 395.542 75.3835 390.677 69.2665 384.544C63.1496 378.411 58.2974 371.13 54.987 363.116C51.6765 355.103 49.9727 346.514 49.9727 337.841L115.846 337.841H181.72Z" fill="#C2C2C2"/>
<rect x="248.75" y="250.825" width="231.693" height="231.693" rx="9.30865" fill="#F1F1F1"/>
<path d="M337.137 416.463V316.971H386.415L392.175 416.463H337.137Z" fill="#C2C2C2"/>
<rect x="497.5" y="250.825" width="231.693" height="231.693" rx="9.30865" fill="#F1F1F1"/>
<path d="M613.204 395.858L668.785 395.858C668.785 380.542 662.701 365.854 651.871 355.024C641.553 344.706 627.733 338.696 613.204 338.151L613.204 395.858Z" fill="#C2C2C2"/>
<path d="M558.049 395.861L613.628 395.861C613.628 380.545 607.545 365.857 596.715 355.027C586.397 344.709 572.577 338.699 558.049 338.154L558.049 395.861Z" fill="#C2C2C2"/>
<rect x="746.25" y="250.825" width="231.692" height="231.692" rx="7.89144" fill="#F1F1F1"/>
<path d="M855.482 315.673C859.423 312.956 864.633 312.956 868.574 315.673L910.17 344.351C914.425 347.285 916.209 352.692 914.534 357.581L898.898 403.248C897.301 407.911 892.917 411.044 887.988 411.044H836.069C831.139 411.044 826.755 407.911 825.158 403.248L809.522 357.581C807.848 352.692 809.631 347.285 813.887 344.351L855.482 315.673Z" fill="#C2C2C2"/>
</svg>
