<svg width="386" height="256" viewBox="0 0 386 256" fill="none" xmlns="http://www.w3.org/2000/svg">
<rect width="385.048" height="255.086" rx="9.44763" fill="#CDCDCD"/>
<path d="M43 107.394H133.028C137.229 107.394 140.635 110.799 140.635 115V141.373C140.635 144.469 138.125 146.979 135.028 146.979H47C42.7991 146.979 39.3936 143.574 39.3936 139.373V111C39.3936 109.008 41.0083 107.394 43 107.394Z" fill="black" stroke="black" stroke-width="0.787302"/>
<rect x="39.3937" y="107.394" width="97.2408" height="35.6731" rx="3.60635" fill="white" stroke="black" stroke-width="0.787302"/>
<path d="M52.2637 125.23C52.2637 123.507 53.6609 122.109 55.3845 122.109H120.643C122.366 122.109 123.764 123.507 123.764 125.23C123.764 126.954 122.366 128.351 120.643 128.351H55.3845C53.6609 128.351 52.2637 126.954 52.2637 125.23Z" fill="#D9D9D9"/>
<path d="M157.195 107.394H247.224C251.424 107.394 254.83 110.799 254.83 115V141.373C254.83 144.469 252.32 146.979 249.224 146.979H161.195C156.994 146.979 153.589 143.574 153.589 139.373V111C153.589 109.008 155.204 107.394 157.195 107.394Z" fill="black" stroke="black" stroke-width="0.787302"/>
<rect x="153.589" y="107.394" width="97.2408" height="35.6731" rx="3.60635" fill="#D9D9D9" stroke="black" stroke-width="0.787302"/>
<path d="M166.459 125.23C166.459 123.507 167.856 122.109 169.58 122.109H234.838C236.562 122.109 237.959 123.507 237.959 125.23C237.959 126.954 236.562 128.351 234.838 128.351H169.58C167.856 128.351 166.459 126.954 166.459 125.23Z" fill="white"/>
<path d="M274.877 128.67C274.877 126.946 276.274 125.549 277.998 125.549H343.256C344.98 125.549 346.377 126.946 346.377 128.67C346.377 130.393 344.98 131.79 343.256 131.79H277.998C276.274 131.79 274.877 130.393 274.877 128.67Z" fill="white"/>
<path d="M280.627 128.67L340.627 128.67" stroke="black" stroke-linecap="round"/>
</svg>
