<svg width="659" height="330" viewBox="0 0 659 330" fill="none" xmlns="http://www.w3.org/2000/svg">
<path d="M0 11.13C0 4.98308 4.98309 0 11.13 0H647.87C654.017 0 659 4.98309 659 11.13V318.37C659 324.517 654.017 329.5 647.87 329.5H11.13C4.98305 329.5 0 324.517 0 318.37V11.13Z" fill="#F1F1F1"/>
<path d="M445.595 117.289C445.796 118.897 444.841 119.634 444.339 119.802V122.314L443.082 133.621L446.6 117.792C446.181 116.954 445.394 115.681 445.595 117.289Z" fill="#B4D5F0"/>
<path d="M442.38 111.855C441.445 115.335 437.594 117.126 434.33 115.6L431.332 114.198C427.437 112.376 425.288 108.132 426.124 103.914L426.72 100.91C427.442 97.2696 431.352 95.2368 434.746 96.7375L437.876 98.1213C442.091 99.9852 444.318 104.644 443.122 109.095L442.38 111.855Z" fill="#B4D5F0"/>
<circle cx="355.143" cy="192.415" r="56.5325" fill="#9BA0EB"/>
<path d="M319.95 156.605L319.95 65.8047C294.931 65.8048 270.937 75.7436 253.246 93.4346C236.39 110.291 226.571 132.869 225.682 156.605L319.95 156.605Z" fill="#B4D5F0"/>
<path d="M319.955 246.716L319.955 155.908C294.936 155.908 270.941 165.847 253.25 183.538C236.391 200.396 226.573 222.978 225.686 246.716L319.955 246.716Z" fill="#B4D5F0"/>
<path d="M272.416 72.4071C271.152 86.0828 307.807 99.5583 332.853 106.75C338.692 108.426 342.217 114.438 340.631 120.302L327.587 168.533C326.086 174.08 320.506 177.526 314.934 176.122C285.474 168.699 266.069 157.601 258.374 148.842C255.648 145.739 255.555 141.396 256.535 137.383L272.416 72.4071Z" stroke="black" stroke-linecap="round"/>
<path d="M423.736 247.439L211.676 247.439" stroke="black" stroke-linecap="round"/>
<path d="M325.387 163.139C306.053 158.744 271.967 149.101 262.1 135.198" stroke="black" stroke-linecap="round"/>
<path d="M440.74 106.723C440.595 110.431 437.797 113.303 434.491 113.138C431.184 112.972 428.621 109.832 428.766 106.123C428.911 102.415 431.709 99.5428 435.015 99.7083C438.321 99.8738 440.884 103.014 440.74 106.723Z" fill="white"/>
<path d="M438.219 106.243C438.285 106.04 438.276 105.816 438.194 105.62C438.112 105.425 437.964 105.273 437.782 105.2L435.087 104.109C435.029 104.086 434.978 104.044 434.941 103.988L434.683 103.596C434.598 103.467 434.48 103.368 434.344 103.313L433.414 102.937C433.232 102.863 433.031 102.873 432.855 102.965C432.68 103.056 432.544 103.222 432.478 103.425L432.265 104.081C432.255 104.11 432.256 104.142 432.268 104.17C432.28 104.197 432.301 104.219 432.327 104.23L438.014 106.531C438.04 106.542 438.069 106.54 438.094 106.527C438.119 106.514 438.138 106.49 438.148 106.461L438.219 106.243Z" fill="#AEB2EF"/>
<path d="M431.268 107.142C431.202 107.345 431.211 107.569 431.293 107.764C431.375 107.96 431.523 108.111 431.705 108.185L436.216 110.01C436.398 110.084 436.599 110.074 436.774 109.982C436.95 109.891 437.085 109.725 437.151 109.523L437.934 107.117C437.944 107.088 437.942 107.056 437.931 107.028C437.919 107 437.898 106.979 437.872 106.968L432.185 104.667C432.159 104.656 432.13 104.658 432.105 104.671C432.08 104.684 432.061 104.708 432.051 104.737L431.268 107.142Z" fill="#AEB2EF"/>
<ellipse cx="51.8754" cy="8.84492" rx="51.8754" ry="8.84492" transform="matrix(-0.999998 0.00221078 -0.0615074 -0.998107 406.627 265.063)" fill="#DCDCDC" style="mix-blend-mode:darken"/>
<ellipse cx="30.4767" cy="5.19637" rx="30.4767" ry="5.19637" transform="matrix(-0.999998 0.00221078 -0.0615074 -0.998107 346.64 280.121)" fill="#DCDCDC" style="mix-blend-mode:darken"/>
<path d="M395.703 171.999L381.316 210.949C380.265 213.793 377.555 215.681 374.523 215.681H356.728C354.269 215.681 352.525 213.283 353.283 210.944L365.864 172.132C366.832 169.146 369.614 167.123 372.753 167.123H392.307C394.827 167.123 396.577 169.634 395.703 171.999Z" fill="black" stroke="black" stroke-linecap="round"/>
<path d="M256.967 225.632C258.713 174.092 293.115 165.332 310.097 167.395C309.612 167.346 312.354 168.297 327.201 172.491C342.049 176.684 352.554 188.555 355.95 193.966L332.138 247.431H258.828L256.967 225.632Z" fill="#006DCC" stroke="black" stroke-linecap="round"/>
<path d="M389.339 256.435C372.561 268.972 351.373 245.774 342.877 232.768L350.943 211.979L373.206 204.942C396.695 238.205 393.749 253.13 389.339 256.435Z" fill="white" stroke="black" stroke-linecap="round"/>
<path d="M365.288 246.03L347.079 204.942" stroke="black" stroke-linecap="round"/>
<path d="M316.829 274.339C299.828 276.695 288.684 254.253 284.98 241.906L311.164 220.749L316.619 235.34C322.074 227.68 334.074 216.007 347.166 199.228C359.621 183.265 361.47 179.409 362.44 180.99L360.985 186.461C368.986 182.814 385.999 181.587 386.805 184.273C387.901 187.921 381.34 188.067 377.132 189.049C376.397 189.221 376.565 189.722 377.308 189.586L391.633 186.974C393.177 186.692 394.653 187.73 394.91 189.278C395.071 190.247 394.715 191.23 393.97 191.87L392.624 193.027H393.135C394.259 193.027 395.169 193.938 395.169 195.062C395.169 196.88 393.963 198.477 392.214 198.975L391.324 199.228L386.805 203.241C379.241 209.369 365.107 211.387 360.985 211.265C348.898 237.245 335.696 257.543 327.008 267.935C324.355 271.108 320.926 273.771 316.829 274.339Z" fill="white" stroke="black" stroke-linecap="round"/>
<path d="M393.586 192.666L392.019 193.219C390.22 193.854 388.363 194.309 386.475 194.579L382.279 195.179" stroke="black" stroke-linecap="round"/>
<path d="M392.245 198.91C390.661 199.401 389.033 199.736 387.384 199.91L385.969 200.06" stroke="black" stroke-linecap="round"/>
<path d="M267.239 201.207L277.166 239.045C277.904 241.854 280.805 243.511 283.599 242.718M304.686 204.095L311.594 221.421" stroke="black" stroke-linecap="round"/>
<path d="M308.792 169.899L315.946 154.517C320.595 157.569 328.879 164.288 327.033 168.068C325.245 171.73 325.603 173.195 325.96 173.562C329.108 179.422 326.556 182.352 325.245 183.084C317.805 188.358 311.177 176.492 308.792 169.899Z" fill="white" stroke="black" stroke-linecap="round"/>
<path d="M311.346 151.428C309.127 145.066 312.734 141.669 315.855 143.476L316.898 141.915C323.086 132.653 336.484 132.058 343.469 140.733C344.88 142.485 345.524 144.74 345.201 146.966C343.545 158.359 341.334 165.816 335.275 169.501C326.952 174.561 321.75 170.947 317.935 161.549C314.121 152.151 314.373 160.103 311.346 151.428Z" fill="white"/>
<path d="M311.346 151.895C309.127 145.533 312.734 142.136 315.855 143.943L316.898 142.382C323.086 133.12 336.484 132.524 343.469 141.2C344.88 142.952 345.524 145.207 345.201 147.433C343.545 158.826 341.334 166.283 335.275 169.968C328.786 173.913 324.195 172.586 320.679 167.357" stroke="black" stroke-linecap="round"/>
<path d="M331.949 124.983C317.233 122.215 313.974 136.633 314.437 143.669C316.936 143.527 318.718 148.455 319.296 150.936C323.184 150.936 326.932 146.091 328.321 143.669C328.436 144.015 330.056 145.192 335.61 147.129C342.552 149.552 345.675 145.745 344.981 148.168C344.426 150.105 344.831 152.907 344.022 154.984C348.765 154.407 355.259 153.006 353.899 141.406C352.435 128.93 342.061 125.365 339.632 127.095C337.688 128.48 333.801 125.214 331.949 124.983Z" fill="black"/>
<path d="M396.239 118.467L398.181 110.17L402.042 94.008L403.526 87.4113C404.87 81.4412 410.905 77.7166 416.738 79.5659C446.534 89.0123 451.312 99.8316 449.618 104.451L434.061 172.063C431.637 159.101 406.862 151.318 392.922 147.277C391.328 146.814 390.23 145.358 390.23 143.698" stroke="black" stroke-linecap="round"/>
<path d="M429.168 134.321L430.268 126.361C430.75 122.871 433.673 120.235 437.194 120.114L446.349 119.801L441.439 140.907L434.907 140.907C431.393 140.907 428.688 137.803 429.168 134.321Z" fill="#B4D5F0"/>
<path d="M440.808 123.695C442.303 123.762 443.662 124.322 444.74 125.215L442.051 137.202C441.46 137.346 440.84 137.412 440.203 137.384C436.497 137.22 433.629 134.022 433.796 130.242C433.964 126.463 437.103 123.532 440.808 123.695Z" fill="white"/>
<path d="M439.844 127.797L439.209 127.804L439.206 127.576C439.184 127.579 439.162 127.58 439.139 127.578L438.912 127.557C438.545 127.524 438.272 127.884 438.406 128.223L440.794 134.243C441.056 134.905 441.916 134.986 442.329 134.495L442.329 135.23C441.554 135.589 440.517 135.303 440.161 134.363L437.869 128.302C437.634 127.683 438.093 127.022 438.761 127.014L439.162 127.009C439.175 127.009 439.187 127.01 439.199 127.012L439.197 126.845L439.832 126.837L439.844 127.797Z" fill="#9BA0EB" stroke="#9BA0EB" stroke-linecap="round"/>
<path d="M449.883 103.146C444.912 115.95 405.891 111.996 380.215 107.348C374.237 106.266 368.399 110.075 367.203 116.031L356.936 167.112C356.041 171.568 358.767 175.968 363.198 176.982C389.059 182.898 409.531 182.964 421.952 180.147C424.294 179.616 426.35 178.982 428.101 178.266C431.91 176.709 433.933 172.877 434.85 168.865L449.883 103.146Z" stroke="black" stroke-linecap="round"/>
<path d="M309.047 127.539L321.064 78.6722C322.526 72.7299 318.787 66.704 312.741 65.7565C281.861 60.9167 272.757 68.4673 272.213 73.3571L255.711 141.292C262.437 132.396 281.98 133.644 296.504 135.783C302.195 136.621 307.673 133.125 309.047 127.539Z" fill="white" stroke="black" stroke-linecap="round"/>
<path d="M373.35 124.258C374.152 119.277 378.77 115.786 383.785 116.372L391.458 117.269C396.738 117.886 400.393 122.764 399.502 128.001L398.517 133.789C397.689 138.65 393.22 142.075 388.307 141.613L376.919 140.543C373.607 140.231 371.266 137.21 371.794 133.929L373.35 124.258Z" fill="#B4D5F0"/>
<ellipse cx="385.847" cy="129.152" rx="8.55676" ry="8.47832" transform="rotate(2.53163 385.847 129.152)" fill="white"/>
<path d="M276.653 83.2446C281.627 81.9264 295.407 79.8438 310.735 82.0593" stroke="black" stroke-linecap="round"/>
<path d="M274.859 89.823C279.833 88.5048 293.613 86.4222 308.941 88.6376" stroke="black" stroke-linecap="round"/>
<path d="M273.065 97.2312C278.039 95.913 291.818 93.8304 307.147 96.0458" stroke="black" stroke-linecap="round"/>
<path d="M267.034 122.085C272.008 120.767 285.788 118.684 301.116 120.899" stroke="black" stroke-linecap="round"/>
<path d="M370.374 148.068C375.399 149.231 408.497 154.347 433.164 151.208" stroke="black" stroke-linecap="round"/>
<path d="M368.131 154.347C373.744 155.523 405.637 161.012 433.164 157.935" stroke="black" stroke-linecap="round"/>
<path d="M277.983 76.5051C282.921 75.0146 296.645 72.5546 312.037 74.638" stroke="black" stroke-linecap="round"/>
<path d="M321.975 116.585C273.537 105.372 237.432 115.239 257.391 132.955" stroke="black" stroke-linecap="round"/>
<path d="M402.948 127.33C403.554 122.407 407.901 118.814 412.85 119.145L421.09 119.697C424.42 119.919 426.873 122.901 426.45 126.211L425.284 135.333C424.822 138.953 421.738 141.664 418.088 141.657L407.725 141.64C404.249 141.634 401.561 138.589 401.986 135.139L402.948 127.33Z" fill="#B4D5F0"/>
<ellipse cx="414.788" cy="130.701" rx="7.44109" ry="7.59082" transform="rotate(2.53163 414.788 130.701)" fill="white"/>
<path d="M413.748 128.877L413.841 126.784C413.859 126.384 414.197 126.074 414.596 126.092L415.267 126.122C415.667 126.139 415.976 126.478 415.959 126.877L415.866 128.971C415.848 129.371 416.158 129.709 416.558 129.726L418.052 129.793C418.452 129.81 418.761 130.148 418.744 130.548L418.709 131.321C418.692 131.721 418.353 132.031 417.954 132.013L416.459 131.947C416.06 131.929 415.722 132.239 415.704 132.638L415.617 134.612C415.599 135.012 415.261 135.321 414.861 135.304L414.19 135.274C413.791 135.256 413.481 134.918 413.499 134.518L413.586 132.545C413.604 132.145 413.294 131.807 412.895 131.789L411.518 131.728C411.118 131.711 410.809 131.373 410.826 130.973L410.861 130.199C410.878 129.8 411.216 129.49 411.616 129.508L412.993 129.569C413.392 129.586 413.731 129.277 413.748 128.877Z" fill="#9BA0EB"/>
<circle cx="372.982" cy="176.083" r="2.01004" fill="white"/>
<path d="M299.93 107.034C297.578 106.119 292.78 103.659 292.404 101.138C291.934 97.987 294.147 98.1394 294.432 102.748C294.716 107.356 292.867 108.627 290.166 105.035C289.75 105.735 288.784 106.74 288.245 105.154C287.572 103.171 287.272 107.238 286.324 105.272C285.377 103.307 279.675 100.19 283.349 101.697C286.288 102.904 280.367 102.46 277.038 102.087" stroke="black" stroke-linecap="round"/>
<path d="M422.689 102.994C421.586 106.07 418.158 107.626 415.116 106.431L413.75 105.895C409.596 104.263 407.176 99.9228 407.97 95.5314L408.699 91.5036C409.367 87.8125 413.313 85.719 416.744 87.2359L418.799 88.1445C423.281 90.1264 425.471 95.2335 423.817 99.847L422.689 102.994Z" fill="#B4D5F0"/>
<ellipse cx="415.947" cy="96.6864" rx="5.27636" ry="6.03013" fill="white"/>
<rect x="417.257" y="91.7703" width="3.50227" height="8.31789" rx="1.75113" transform="rotate(38.5354 417.257 91.7703)" fill="#9BA0EB"/>
<path d="M418.627 92.8612C419.383 93.4637 419.508 94.5654 418.906 95.3219L417.269 97.3766L414.53 95.1947L416.166 93.14C416.769 92.3835 417.87 92.2587 418.627 92.8612Z" fill="#0077CD"/>
<path d="M384.843 127.692C384.871 127.632 384.915 127.582 384.969 127.549C385.023 127.517 385.085 127.502 385.146 127.508C385.208 127.514 385.267 127.539 385.315 127.582C385.363 127.624 385.398 127.681 385.416 127.745L386.12 130.286L386.699 129.032C386.725 128.976 386.764 128.929 386.813 128.897C386.862 128.864 386.918 128.847 386.976 128.847C387.033 128.847 387.09 128.864 387.138 128.897C387.187 128.929 387.227 128.976 387.252 129.032L387.785 130.187H389.655C389.933 129.565 390.074 128.881 390.067 128.19C390.055 126.89 389.092 125.832 387.921 125.832C386.991 125.832 386.374 126.45 386.047 126.9C385.721 126.45 385.104 125.832 384.174 125.832C383.003 125.832 382.04 126.89 382.028 128.19C382.023 128.639 382.081 129.087 382.2 129.517H384.001L384.843 127.692Z" fill="#9BA0EB"/>
<path d="M387.317 130.671L386.975 129.931L386.324 131.341C386.298 131.397 386.259 131.444 386.21 131.476C386.161 131.509 386.105 131.526 386.047 131.526C386.039 131.526 386.03 131.526 386.021 131.525C385.959 131.52 385.9 131.494 385.852 131.452C385.803 131.409 385.768 131.352 385.75 131.288L385.047 128.747L384.467 130.001C384.441 130.057 384.402 130.103 384.354 130.136C384.305 130.169 384.249 130.186 384.192 130.187H382.44C382.621 130.595 382.861 130.998 383.161 131.394C383.523 131.873 384.181 132.638 385.7 133.755C385.802 133.831 385.923 133.872 386.048 133.872C386.172 133.872 386.293 133.831 386.396 133.755C387.914 132.638 388.572 131.873 388.935 131.394C389.065 131.221 389.188 131.042 389.302 130.856H387.594C387.536 130.856 387.48 130.839 387.431 130.806C387.382 130.774 387.343 130.727 387.317 130.671Z" fill="#9BA0EB"/>
</svg>
