<!-- Generator: Adobe Illustrator 22.1.0, SVG Export Plug-In  -->
<svg version="1.1"
	 xmlns="http://www.w3.org/2000/svg" xmlns:xlink="http://www.w3.org/1999/xlink" xmlns:a="http://ns.adobe.com/AdobeSVGViewerExtensions/3.0/"
	 x="0px" y="0px" width="216px" height="92px" viewBox="0 0 216 92" style="enable-background:new 0 0 216 92;"
	 xml:space="preserve">
<style type="text/css">
	.st0{fill:#00AAD2;}
	.st1{fill:#FFFFFF;}
</style>
<defs>
</defs>
<g>
	<g>
		<rect x="196.4" y="31" class="st0" width="19.6" height="19.6"/>
		<g>
			<path class="st1" d="M91.3,47.9c-2,0.2-4.1,0.4-6.3,0.6c0.8-6.3,4.1-15,8.2-13.6C95.5,35.7,94.3,43,91.3,47.9 M86.1,52.3
				c-0.7,0.1-1.3,0.1-1.8,0c0.3-0.2,0.5-0.6,0.5-1c0-0.3,0-0.5,0-0.8c1.1,0,2.8-0.2,4.9-0.4C88.6,51.2,87.4,52.1,86.1,52.3
				 M111.2,37.3c2.6-2.4,3.9-2.2,4.2-1.6c0.7,1.4-2.3,6.3-8.2,9C107.8,42.1,109.2,39.2,111.2,37.3 M207.6,39.7
				c-0.3-4.9-4.6-5.7-5.2-4.3c-0.2,0.5,1.6,0.3,1.6,3.8c0,5.7-5.8,13.2-13.2,13.2c-8,0-10.1-6.3-10.5-9.3c-0.3-2.1,0.2-5-3.4-4.6
				c-2.5,0.3-4.7,5.1-7.9,9.2c-2.7,3.5-3.9,3.2-3.3,0.2c0.8-3.8,3.9-12.6,7.5-13.2c1.7-0.3,2.3,2.6,3,0.8c0.8-1.8,0.1-5.8-3.7-5.8
				c-2.6,0-5.7,2.8-8.3,5.9c-2.2,2.7-13.5,19.4-18.3,15.8c-2.2-1.7-2-8.5-0.6-16.6c5.6-2.2,10.3-1.5,12.9-0.2
				c1.3,0.6,1.5,0.5,0.9-0.9c-0.8-2.1-5.3-5.4-12.4-3.9c-0.2,0-0.3,0.1-0.5,0.1c0.6-2.6,1.2-5.3,2-7.8c0.7-2.4,2.6-6.5-2.5-7.2
				c-1.6-0.2-0.9,0.5-1.5,2.7c-1,4-2.2,9.2-3.1,14.5c-4.2,2.4-8,6.4-10.9,11.7c0.5-2.4,1.3-5.1,1.3-6.9c0.1-1.9-1.3-2.3-1.8-2.5
				c-1.1-0.3-2.5,0.2-3.8,2.1c-3.1,4.4-7,11.3-13,14.2c-4.3,2.1-6.2,0-6.3-3.2c0.8-0.3,1.6-0.5,2.2-0.8c7.8-3.4,10.4-8.6,8.5-11.8
				c-1.9-3-7.2-2.1-11.4,2.4c-2.1,2.2-3.7,6-3.9,9.4c-1.8,0.4-3.8,0.7-6.1,1c3.6-5.9,3.3-13.9-2-15.2c-6.2-1.6-9.3,4.4-10.6,9.4
				c0.4-5,1.2-11.1,2.3-16.7c0.5-2.4,2.1-6.5-3-7.2c-1.6-0.3-1.4,0.5-1.2,2.7c0.2,3-3.1,20.9-1.4,28.7c-2.2,0.7-3.1,2.4-0.3,4.1
				c1.9,1.2,6.3,1.6,10.6-0.5c1.6-0.8,2.9-1.9,4-3.1c2.6-0.3,5.3-0.7,7.8-1.2c0.4,3.5,2.7,6.1,7.9,5.6c7.4-0.7,14-9.8,16.5-14.2
				c-0.5,4.7-3.5,15,1.7,14.5c2-0.2,1.2-0.5,1.3-2.3c0.4-6.2,5.6-11.5,10.7-14.7c-0.9,7.6-0.6,14.4,2.9,16.5
				c6.3,4,15.3-6.5,20.3-12.9c-2.5,5.7-3.9,12.9-0.2,14c4.4,1.3,7.9-6.1,12-11.7c0.5,4,3.2,11,14,11C200.7,54.2,208,47.1,207.6,39.7
				 M51.1,52.1c-2.7-1-6.5-2.5-11.4-5c2.7-1,6.2-2.4,9.8-4.3C50,46.9,50.5,49.9,51.1,52.1 M80.5,57.7c-0.1-0.3-0.9,0.1-1.6,0
				c-2.1-0.3-4.9-3.2-5.7-7.9c-1.5-8.5-0.6-16.9,1.9-29.3c0.5-2.4,2.1-6.5-3-7.2c-1.6-0.2-0.8,0.6-1.2,2.7c-2,9.3-9.6,16-17.2,20.5
				C52.8,25.8,53.2,14,55.2,6.7c1.7-6.1,3.7-5,1.2-6.3c-2.6-1.4-5.4,0.4-7.7,5c-2.3,4.6-12.8,29.3-29.6,46
				C10.5,60,2.7,55.6,1.2,54.2c-1.3-1.1-1.7,0.6-0.2,2.3c7,7.5,17.1,3.2,20.8-0.5C32,45.8,43.9,23.8,48.7,14.5
				c-0.4,5.3-0.6,14.1,0.4,24.4c-5.2,2.5-9.9,4-12.1,4.6c-2.4,0.6-3.9,1.6-3.9,2.7c0,1.2,1.6,2.2,3.9,3.3c4.1,2,16.2,7.6,19.1,9.4
				c2.5,1.5,3.8,0.3,4.5-1.3c1-2.1-1.7-3.3-4.3-4.1c-1-3.5-1.8-8.2-2.3-13.4c6.1-3.8,12.2-8.8,15.6-15.1c-0.9,5.2-3.1,23.1,2.5,30.6
				c1.2,1.7,4,3.5,6.7,3.2C80,58.8,80.7,58,80.5,57.7"/>
		</g>
	</g>
	<g>
		<path class="st1" d="M68.4,72.1h5c4.4,0,5.9,2.5,5.9,6.2c0,4.9-2.9,9.2-8.4,9.2h-5.7L68.4,72.1z M66.8,86.3h3.7
			c5.1,0,7.3-4,7.3-8.3c0-3.1-1.6-4.6-4.6-4.6h-3.5L66.8,86.3z"/>
		<path class="st1" d="M82.8,82.3c0,0.3-0.1,0.6-0.1,0.9c0,2,1,3.5,3.2,3.5c1.8,0,3.1-1.1,3.7-2.8H91c-0.7,2.5-2.4,3.9-5.1,3.9
			c-2.9,0-4.5-1.8-4.5-4.7c0-3.5,2.2-7.1,6-7.1c2.7,0,4.2,1.8,4.2,4.3c0,0.6,0,1.3-0.1,1.9H82.8z M90.2,81.2c0-0.3,0-0.6,0-0.9
			c0-1.9-1.2-3.1-3-3.1c-2.2,0-3.8,1.9-4.3,4H90.2z"/>
		<path class="st1" d="M94.8,83.9c0,2.2,1.6,2.8,3.2,2.8c1.2,0,2.8-0.6,2.8-2.1c0-1.4-1.5-1.9-3-2.5c-1.5-0.6-3-1.3-3-3.1
			c0-2.2,2.3-3,4.1-3c2.3,0,4,1,4,3.6h-1.4c0.1-1.7-1.1-2.4-2.6-2.4c-1.2,0-2.8,0.4-2.8,1.9c0,1,1.1,1.6,2.4,2.1
			c1.5,0.6,3.6,1.2,3.6,3.3c0,2.5-2.4,3.4-4.5,3.4c-2.1,0-4.3-1.2-4.2-4H94.8z"/>
		<path class="st1" d="M107,76.4h1.4L106,87.5h-1.4L107,76.4z M108,72.1h1.4l-0.5,2.2h-1.4L108,72.1z"/>
		<path class="st1" d="M119.3,86.3c-0.8,3.9-2.1,5.6-5.6,5.6c-2.3,0-4.3-1-4.3-3.6h1.4c0,1.9,1.5,2.5,3.1,2.5c3.5,0,3.9-3.7,4.4-5.6
			l0,0c-0.8,1.3-2.3,2.1-3.8,2.1c-2.7,0-4.1-2-4.1-4.5c0-3.3,2.1-6.7,5.7-6.7c1.7,0,3.3,0.9,3.7,2.6h0l0.5-2.3h1.3L119.3,86.3z
			 M114.6,86.1c2.8,0,4.5-3,4.5-5.5c0-2-0.8-3.4-3-3.4c-2.8,0-4.4,3-4.4,5.4C111.6,84.5,112.6,86.1,114.6,86.1z"/>
		<path class="st1" d="M125.2,76.4h1.3l-0.4,2h0c0.8-1.3,2.3-2.4,4-2.4c1.9,0,3.4,0.9,3.4,3c0,0.3-0.1,0.8-0.2,1.3l-1.5,7.2h-1.4
			l1.6-7.2c0.1-0.3,0.2-0.8,0.2-1.1c0-1.5-1.1-2-2.3-2c-2,0-3.8,1.8-4.4,4.6l-1.2,5.7h-1.4L125.2,76.4z"/>
		<path class="st1" d="M154.6,76.6c0-2.7-1.4-3.6-4.1-3.6c-1.9,0-3.9,0.9-3.9,3.1c0,1.6,1.3,2.2,2.6,2.5l1.6,0.5
			c2.1,0.6,4.1,1.3,4.1,3.9c0,1.5-1,4.8-6,4.8c-3.5,0-6-1.7-5.8-5.4h1.5c-0.2,3,1.6,4.1,4.5,4.1c2,0,4.4-1,4.4-3.3
			c0-2.2-2.1-2.6-3.8-3.1l-1.5-0.5c-1.8-0.5-3-1.6-3-3.6c0-3.1,2.7-4.4,5.5-4.4c3.1,0,5.7,1.3,5.5,4.8H154.6z"/>
		<path class="st1" d="M156.6,90.4c0.4,0,0.8,0.1,1.2,0.1c0.8,0,1.4-0.6,1.8-1.2l1-1.8l-2.1-11.1h1.4l1.6,9.5h0l5.1-9.5h1.5
			l-7.9,13.8c-0.6,1-1.5,1.5-2.7,1.5c-0.4,0-0.8-0.1-1.2-0.1L156.6,90.4z"/>
		<path class="st1" d="M169.9,83.9c0,2.2,1.6,2.8,3.2,2.8c1.2,0,2.8-0.6,2.8-2.1c0-1.4-1.5-1.9-3-2.5c-1.5-0.6-3-1.3-3-3.1
			c0-2.2,2.3-3,4.1-3c2.3,0,4,1,4,3.6h-1.4c0.1-1.7-1.1-2.4-2.6-2.4c-1.2,0-2.8,0.4-2.8,1.9c0,1,1.1,1.6,2.4,2.1
			c1.5,0.6,3.6,1.2,3.6,3.3c0,2.5-2.4,3.4-4.5,3.4c-2.1,0-4.3-1.2-4.2-4H169.9z"/>
		<path class="st1" d="M180.7,76.4h2l0.7-3.4h1.4l-0.7,3.4h2.2l-0.2,1.1h-2.3l-1.5,7.2c-0.1,0.5-0.2,0.7-0.2,1.1
			c0,0.4,0.2,0.8,0.7,0.8c0.5,0,1.1,0,1.6-0.1l-0.2,1.2c-0.5,0-0.9,0.1-1.4,0.1c-1,0-2.1-0.3-2.1-1.6c0-0.2,0-0.6,0.2-1.1l1.5-7.4
			h-2L180.7,76.4z"/>
		<path class="st1" d="M188.5,82.3c0,0.3-0.1,0.6-0.1,0.9c0,2,1,3.5,3.2,3.5c1.8,0,3.1-1.1,3.7-2.8h1.4c-0.7,2.5-2.4,3.9-5.1,3.9
			c-2.9,0-4.5-1.8-4.5-4.7c0-3.5,2.2-7.1,6-7.1c2.7,0,4.2,1.8,4.2,4.3c0,0.6,0,1.3-0.1,1.9H188.5z M196,81.2c0-0.3,0-0.6,0-0.9
			c0-1.9-1.2-3.1-3-3.1c-2.2,0-3.8,1.9-4.3,4H196z"/>
		<path class="st1" d="M201.5,76.4h1.3l-0.4,1.9l0,0c0.8-1.3,2.3-2.3,3.9-2.3c1.6,0,2.5,0.8,2.7,2.4h0c0.9-1.4,2.2-2.4,3.9-2.4
			c2.1,0,3.1,1.2,3.1,2.9c0,0.4-0.1,0.8-0.2,1.3l-1.6,7.3h-1.4l1.6-7.3c0.1-0.4,0.1-0.8,0.1-1.1c0-1.1-0.7-1.9-2.1-1.9
			c-2.4,0-3.4,2.3-4.1,5.2l-1.1,5.1H206l1.6-7.3c0.1-0.4,0.1-0.7,0.1-1.1c0-1.1-0.6-2-1.9-2c-2,0-3.6,2.1-4.2,4.7l-1.2,5.7h-1.4
			L201.5,76.4z"/>
	</g>
</g>
</svg>
