<svg width="98" height="83" viewBox="0 0 98 83" fill="none" xmlns="http://www.w3.org/2000/svg">
<path d="M93.9654 72.2239H5.39076C3.45257 72.2239 1.88135 70.6527 1.88135 68.7145V12.3427V5.39093C1.88135 3.45274 3.45257 1.88152 5.39076 1.88152H93.9654C95.9036 1.88152 97.4748 3.45273 97.4748 5.39093V12.3427V68.7145C97.4748 70.6527 95.9036 72.2239 93.9654 72.2239Z" fill="black"/>
<path d="M1.88135 12.3427V5.39093C1.88135 3.45274 3.45257 1.88152 5.39076 1.88152H93.9654C95.9036 1.88152 97.4748 3.45273 97.4748 5.39093V12.3427M1.88135 12.3427V68.7145C1.88135 70.6527 3.45257 72.2239 5.39076 72.2239H93.9654C95.9036 72.2239 97.4748 70.6527 97.4748 68.7145V12.3427M1.88135 12.3427H97.4748" stroke="black" stroke-width="0.877354"/>
<path d="M92.5225 70.781H3.94789C2.0097 70.781 0.438477 69.2098 0.438477 67.2716V10.8998V3.94809C0.438477 2.00989 2.00969 0.438675 3.94789 0.438675H92.5225C94.4607 0.438675 96.0319 2.00989 96.0319 3.94809V10.8998V67.2716C96.0319 69.2098 94.4607 70.781 92.5225 70.781Z" fill="white"/>
<path d="M0.438477 10.8998V3.94809C0.438477 2.00989 2.00969 0.438675 3.94789 0.438675H92.5225C94.4607 0.438675 96.0319 2.00989 96.0319 3.94809V10.8998M0.438477 10.8998V67.2716C0.438477 69.2098 2.0097 70.781 3.94789 70.781H92.5225C94.4607 70.781 96.0319 69.2098 96.0319 67.2716V10.8998M0.438477 10.8998H96.0319" stroke="black" stroke-width="0.877354"/>
<circle cx="7.11317" cy="5.90233" r="1.62391" fill="black"/>
<circle cx="11.6605" cy="5.66992" r="1.18523" stroke="black" stroke-width="0.877354"/>
<circle cx="16.8568" cy="5.66992" r="1.18523" stroke="black" stroke-width="0.877354"/>
<rect x="78.8975" y="16.9604" width="7.14521" height="7.14521" rx="2.36977" fill="black"/>
<rect x="80.635" y="16.7495" width="6.26785" height="5.61829" rx="1.93109" fill="white" stroke="black" stroke-width="0.877354"/>
<path d="M82.4056 20.6428L84.5478 18.2022" stroke="black" stroke-width="0.877354" stroke-linecap="round" stroke-linejoin="round"/>
<path d="M82.1445 18.471L84.7428 17.8424V20.6732" stroke="black" stroke-width="0.877354" stroke-linecap="round" stroke-linejoin="round"/>
<path d="M11.2607 41.9226H81.2424" stroke="black" stroke-width="0.877354" stroke-linecap="round"/>
<path d="M11.2607 33.2651H81.2424" stroke="black" stroke-width="0.877354" stroke-linecap="round"/>
<path d="M11.2607 50.5802H81.2424" stroke="black" stroke-width="0.877354" stroke-linecap="round"/>
<path d="M11.2607 28.9364L84.8497 28.9364" stroke="black" stroke-width="0.877354" stroke-linecap="round"/>
<path d="M14.8682 46.2514H84.8498" stroke="black" stroke-width="0.877354" stroke-linecap="round"/>
<path d="M14.8682 37.5939H84.8498" stroke="black" stroke-width="0.877354" stroke-linecap="round"/>
<path d="M14.8682 54.9089H84.8498" stroke="black" stroke-width="0.877354" stroke-linecap="round"/>
<path d="M11.9819 59.2377H81.9636" stroke="black" stroke-width="0.877354" stroke-linecap="round"/>
<path d="M18.7301 79.1855L33.209 59.9591L36.6359 62.3038L21.8446 81.5547C21.2173 82.3712 20.0645 82.5617 19.2077 81.9906C18.2719 81.3667 18.0535 80.084 18.7301 79.1855Z" fill="black" stroke="black" stroke-width="0.877354" stroke-linejoin="round"/>
<path d="M47.4195 24.7572C58.6482 25.435 67.2012 35.087 66.5233 46.3157C65.8455 57.5443 56.1935 66.0973 44.9649 65.4195C33.7362 64.7416 25.1832 55.0896 25.861 43.861C26.5389 32.6324 36.1909 24.0794 47.4195 24.7572ZM47.2808 28.3364C37.9839 27.7752 29.9924 34.857 29.4309 44.1538C28.8697 53.4508 35.9514 61.4423 45.2484 62.0036C54.5453 62.5648 62.5369 55.4832 63.0982 46.1862C63.6592 36.8894 56.5776 28.8976 47.2808 28.3364Z" fill="white"/>
<path d="M47.3506 25.1923C58.3543 25.8567 66.7357 35.316 66.0715 46.3197C65.4071 57.3233 55.9487 65.7048 44.945 65.0407C33.9413 64.3764 25.559 54.9179 26.2231 43.9142C26.8874 32.9104 36.3467 24.528 47.3506 25.1923Z" stroke="black" stroke-width="0.877354"/>
<path d="M47.861 28.8419C56.6338 29.3715 63.2916 37.3219 62.7592 46.1414C62.2268 54.961 54.6161 62.7954 45.8433 62.2658" stroke="black" stroke-width="0.877354" stroke-linecap="round"/>
<path d="M34.1889 33.4C30.1218 36.3294 25.5265 48.3858 33.938 56.8372" stroke="black" stroke-width="0.877354" stroke-linecap="round"/>
<path d="M43.9375 29.03C42.2929 29.0525 40.0136 29.8585 37.7634 31.3515" stroke="black" stroke-width="0.877354" stroke-linecap="round"/>
<path d="M10.5391 23.1842V19.0319C10.5391 18.5474 10.9319 18.1546 11.4164 18.1546H24.8124C25.2969 18.1546 25.6897 18.5474 25.6897 19.0319V23.1842C25.6897 23.6687 25.2969 24.0615 24.8124 24.0615H11.4164C10.9319 24.0615 10.5391 23.6687 10.5391 23.1842Z" stroke="black" stroke-width="0.877354"/>
<path d="M26.0493 43.8708C26.722 32.73 36.2982 24.2434 47.439 24.9157C58.58 25.5882 67.0665 35.1653 66.394 46.3063C65.7213 57.4471 56.1452 65.9337 45.0044 65.2614C33.8634 64.5888 25.377 55.0116 26.0493 43.8708ZM47.1978 28.9196C38.2682 28.3806 30.5925 35.1825 30.0532 44.112C29.5142 53.0415 36.3161 60.7172 45.2456 61.2565C54.1753 61.7954 61.8511 54.9938 62.3901 46.0641C62.929 37.1344 56.1275 29.4587 47.1978 28.9196Z" fill="black" stroke="black" stroke-width="0.438677"/>
<path d="M10.5391 18.4751L25.6897 23.5253" stroke="black" stroke-width="0.877354"/>
<path d="M25.6899 18.4751L10.5393 23.5253" stroke="black" stroke-width="0.877354"/>
</svg>
