<svg width="1520" height="681" viewBox="0 0 1520 681" fill="none" xmlns="http://www.w3.org/2000/svg">
<g filter="url(#filter0_d_988_31698)">
<g clip-path="url(#clip0_988_31698)">
<rect width="1511.97" height="672.697" transform="translate(4 4)" fill="white"/>
<g opacity="0.45">
<mask id="path-1-inside-1_988_31698" fill="white">
<path d="M3.99988 592.817H1515.97V676.697H3.99988V592.817Z"/>
</mask>
<path d="M3.99988 592.817V593.999H1515.97V592.817V591.636H3.99988V592.817Z" fill="#E9E9E9" mask="url(#path-1-inside-1_988_31698)"/>
<rect width="1511.97" height="82.6987" transform="translate(3.99988 593.999)" fill="#F1F1F1"/>
<path d="M92.5632 639.348V633.753C92.5632 631.315 92.5821 628.821 92.6388 627.441H92.5632C92.0152 629.577 89.8795 635.228 88.3675 639.348H86.8178C85.6649 635.984 83.4726 629.671 82.8678 627.422H82.8111C82.9245 628.934 82.9623 631.863 82.9623 634.112V639.348H81.318V626.212H83.9261C85.4192 630.295 87.2336 635.549 87.6872 637.231H87.725C88.0274 635.965 90.1819 630.181 91.7317 626.212H94.2642V639.348H92.5632ZM96.0843 629.766H97.8798C99.4107 634.358 100.28 636.91 100.526 637.873H100.545C100.847 636.796 101.546 634.604 103.096 629.766H104.778L101.338 639.801C100.356 642.598 99.6374 643.317 97.6719 643.317C97.3695 643.317 97.0104 643.298 96.6513 643.241V641.805C96.8781 641.842 97.1616 641.861 97.4262 641.861C98.6547 641.861 99.1083 641.332 99.6752 639.726L96.0843 629.766ZM115.615 639.574C114.065 639.574 113.252 638.932 112.836 638.176V643.128H111.173V632.109C111.173 631.334 111.173 630.522 111.154 629.766H112.78C112.818 630.087 112.836 630.673 112.836 631.278C113.347 630.314 114.329 629.539 115.955 629.539C118.185 629.539 119.791 631.41 119.791 634.32C119.791 637.741 117.939 639.574 115.615 639.574ZM115.388 638.195C117.146 638.195 118.091 636.74 118.091 634.377C118.091 632.355 117.164 630.956 115.52 630.956C113.536 630.956 112.761 632.223 112.761 634.547C112.761 636.815 113.403 638.195 115.388 638.195ZM121.952 639.348V632.374C121.952 631.032 121.952 630.276 121.933 629.766H123.558C123.596 630.049 123.615 630.786 123.615 631.731C124.106 630.427 125.259 629.595 126.847 629.539V631.202C124.881 631.259 123.615 632.279 123.615 634.698V639.348H121.952ZM132.285 629.539C134.95 629.539 136.689 631.542 136.689 634.547C136.689 637.307 135.101 639.574 132.172 639.574C129.431 639.574 127.768 637.458 127.768 634.585C127.768 631.75 129.394 629.539 132.285 629.539ZM132.21 630.937C130.414 630.937 129.469 632.374 129.469 634.566C129.469 636.664 130.528 638.195 132.247 638.195C134.005 638.195 134.988 636.74 134.988 634.566C134.988 632.412 134.005 630.937 132.21 630.937ZM140.879 639.348H139.234V631.126H137.685V629.766H139.234V628.632C139.234 626.855 139.915 625.286 142.032 625.286C142.372 625.286 142.844 625.343 143.09 625.419V626.817C142.844 626.761 142.504 626.742 142.239 626.742C141.257 626.742 140.879 627.328 140.879 628.726V629.766H142.806V631.126H140.879V639.348ZM144.414 639.348V629.766H146.077V639.348H144.414ZM144.414 627.554V625.475H146.077V627.554H144.414ZM150.562 639.348H148.899V625.475H150.562V639.348ZM161.132 634.868H154.385C154.385 636.815 155.368 638.195 156.993 638.195C158.524 638.195 159.016 637.42 159.318 636.721H160.981C160.603 637.949 159.583 639.574 156.956 639.574C153.932 639.574 152.703 637.136 152.703 634.661C152.703 631.826 154.14 629.539 157.05 629.539C160.15 629.539 161.17 632.034 161.17 634.075C161.17 634.358 161.17 634.604 161.132 634.868ZM154.442 633.697H159.488C159.469 632.128 158.675 630.862 157.031 630.862C155.349 630.862 154.612 632.034 154.442 633.697Z" fill="#6F6F6F"/>
<path d="M79.5981 641.238H161.869V642.183H79.5981V641.238Z" fill="#6F6F6F"/>
<path d="M209.167 635.417H203.913L202.495 639.348H200.756L205.444 626.212H207.598L212.474 639.348H210.622L209.167 635.417ZM204.366 633.923H208.713C207.466 630.465 206.766 628.632 206.483 627.63H206.464C206.143 628.745 205.387 630.956 204.366 633.923ZM220.189 636.418H221.833C221.417 638.081 220.302 639.574 217.864 639.574C215.237 639.574 213.593 637.684 213.593 634.623C213.593 631.901 215.123 629.539 217.977 629.539C220.756 629.539 221.701 631.523 221.833 632.752H220.189C219.943 631.769 219.338 630.937 217.958 630.937C216.257 630.937 215.294 632.393 215.294 634.566C215.294 636.74 216.22 638.214 217.883 638.214C219.092 638.214 219.792 637.571 220.189 636.418ZM229.841 636.418H231.486C231.07 638.081 229.955 639.574 227.517 639.574C224.89 639.574 223.245 637.684 223.245 634.623C223.245 631.901 224.776 629.539 227.63 629.539C230.408 629.539 231.353 631.523 231.486 632.752H229.841C229.596 631.769 228.991 630.937 227.611 630.937C225.91 630.937 224.946 632.393 224.946 634.566C224.946 636.74 225.872 638.214 227.536 638.214C228.745 638.214 229.444 637.571 229.841 636.418ZM241.309 634.868H234.561C234.561 636.815 235.544 638.195 237.17 638.195C238.7 638.195 239.192 637.42 239.494 636.721H241.157C240.779 637.949 239.759 639.574 237.132 639.574C234.108 639.574 232.879 637.136 232.879 634.661C232.879 631.826 234.316 629.539 237.226 629.539C240.326 629.539 241.346 632.034 241.346 634.075C241.346 634.358 241.346 634.604 241.309 634.868ZM234.618 633.697H239.664C239.645 632.128 238.852 630.862 237.207 630.862C235.525 630.862 234.788 632.034 234.618 633.697ZM242.769 636.607H244.413C244.677 637.666 245.452 638.27 246.756 638.27C248.174 638.27 248.722 637.666 248.722 636.796C248.722 635.908 248.287 635.492 246.454 635.039C243.714 634.377 243.147 633.545 243.147 632.241C243.147 630.881 244.129 629.539 246.605 629.539C249.062 629.539 250.083 630.975 250.215 632.317H248.609C248.476 631.693 248.004 630.824 246.53 630.824C245.188 630.824 244.791 631.485 244.791 632.109C244.791 632.827 245.188 633.167 246.945 633.602C249.837 634.283 250.423 635.246 250.423 636.683C250.423 638.365 249.1 639.574 246.7 639.574C244.224 639.574 243.014 638.327 242.769 636.607ZM251.849 636.607H253.493C253.758 637.666 254.533 638.27 255.837 638.27C257.254 638.27 257.803 637.666 257.803 636.796C257.803 635.908 257.368 635.492 255.535 635.039C252.794 634.377 252.227 633.545 252.227 632.241C252.227 630.881 253.21 629.539 255.686 629.539C258.143 629.539 259.163 630.975 259.296 632.317H257.689C257.557 631.693 257.084 630.824 255.61 630.824C254.268 630.824 253.871 631.485 253.871 632.109C253.871 632.827 254.268 633.167 256.026 633.602C258.918 634.283 259.504 635.246 259.504 636.683C259.504 638.365 258.181 639.574 255.78 639.574C253.304 639.574 252.095 638.327 251.849 636.607ZM261.614 639.348V629.766H263.277V639.348H261.614ZM261.614 627.554V625.475H263.277V627.554H261.614ZM266.099 636.135V625.475H267.762V631.145C268.197 630.314 269.066 629.539 270.824 629.539C273.224 629.539 274.736 631.523 274.736 634.377C274.736 637.288 273.281 639.574 270.559 639.574C269.028 639.574 268.234 639.026 267.743 638.1C267.743 638.592 267.724 639.102 267.686 639.348H266.08C266.099 638.289 266.099 637.212 266.099 636.135ZM270.351 638.195C272.052 638.195 273.035 636.74 273.035 634.396C273.035 632.336 272.09 630.956 270.427 630.956C268.404 630.956 267.686 632.317 267.686 634.604C267.686 636.588 268.31 638.195 270.351 638.195ZM276.951 639.348V629.766H278.614V639.348H276.951ZM276.951 627.554V625.475H278.614V627.554H276.951ZM283.099 639.348H281.436V625.475H283.099V639.348ZM285.921 639.348V629.766H287.584V639.348H285.921ZM285.921 627.554V625.475H287.584V627.554H285.921ZM289.251 631.126V629.766H290.915V626.95H292.578V629.766H294.676V631.126H292.578V636.74C292.578 637.666 292.805 638.138 293.655 638.138C293.901 638.138 294.241 638.138 294.506 638.062V639.31C294.09 639.461 293.523 639.48 293.069 639.48C291.576 639.48 290.915 638.724 290.915 637.118V631.126H289.251ZM295.767 629.766H297.563C299.093 634.358 299.963 636.91 300.208 637.873H300.227C300.53 636.796 301.229 634.604 302.779 629.766H304.461L301.021 639.801C300.038 642.598 299.32 643.317 297.355 643.317C297.052 643.317 296.693 643.298 296.334 643.241V641.805C296.561 641.842 296.844 641.861 297.109 641.861C298.337 641.861 298.791 641.332 299.358 639.726L295.767 629.766Z" fill="#6F6F6F"/>
<path d="M200.397 641.238H304.669V642.183H200.397V641.238Z" fill="#6F6F6F"/>
<path d="M344.916 639.348V626.212H349.906C352.476 626.212 354.215 627.63 354.215 630.03C354.215 632.601 352.382 633.961 349.811 633.961H346.674V639.348H344.916ZM346.674 627.668V632.487H349.717C351.512 632.487 352.419 631.599 352.419 630.087C352.419 628.48 351.323 627.668 349.792 627.668H346.674ZM356.112 639.348V632.374C356.112 631.032 356.112 630.276 356.093 629.766H357.718C357.756 630.049 357.775 630.786 357.775 631.731C358.266 630.427 359.419 629.595 361.007 629.539V631.202C359.041 631.259 357.775 632.279 357.775 634.698V639.348H356.112ZM362.627 639.348V629.766H364.29V639.348H362.627ZM362.627 627.554V625.475H364.29V627.554H362.627ZM366.014 629.766H367.772C369.076 633.697 370.021 636.626 370.304 637.817H370.323C370.55 636.758 371.571 633.886 373.007 629.766H374.708L371.174 639.348H369.359L366.014 629.766ZM383.263 632.695V637.269C383.263 638.138 383.339 639.083 383.395 639.348H381.808C381.732 639.14 381.675 638.686 381.656 638.1C381.316 638.743 380.56 639.574 378.708 639.574C376.44 639.574 375.476 638.119 375.476 636.664C375.476 634.509 377.158 633.545 380.012 633.545C380.674 633.545 381.278 633.545 381.638 633.545V632.714C381.638 631.882 381.373 630.843 379.577 630.843C377.971 630.843 377.706 631.637 377.536 632.393H375.93C376.062 631.07 376.875 629.539 379.634 629.539C381.978 629.558 383.263 630.503 383.263 632.695ZM381.656 635.001V634.679C381.335 634.679 380.617 634.679 380.107 634.679C378.179 634.679 377.158 635.209 377.158 636.569C377.158 637.552 377.858 638.289 379.029 638.289C381.335 638.289 381.656 636.74 381.656 635.001ZM392.038 636.418H393.683C393.267 638.081 392.152 639.574 389.714 639.574C387.087 639.574 385.442 637.684 385.442 634.623C385.442 631.901 386.973 629.539 389.827 629.539C392.605 629.539 393.55 631.523 393.683 632.752H392.038C391.793 631.769 391.188 630.937 389.808 630.937C388.107 630.937 387.143 632.393 387.143 634.566C387.143 636.74 388.069 638.214 389.733 638.214C390.942 638.214 391.641 637.571 392.038 636.418ZM394.824 629.766H396.619C398.15 634.358 399.02 636.91 399.265 637.873H399.284C399.587 636.796 400.286 634.604 401.836 629.766H403.518L400.078 639.801C399.095 642.598 398.377 643.317 396.412 643.317C396.109 643.317 395.75 643.298 395.391 643.241V641.805C395.618 641.842 395.901 641.861 396.166 641.861C397.394 641.861 397.848 641.332 398.415 639.726L394.824 629.766Z" fill="#6F6F6F"/>
<path d="M343.196 641.238H403.726V642.183H343.196V641.238Z" fill="#6F6F6F"/>
<path d="M446.38 639.348V627.706H442.128V626.212H452.39V627.706H448.138V639.348H446.38ZM459.781 634.868H453.033C453.033 636.815 454.016 638.195 455.642 638.195C457.172 638.195 457.664 637.42 457.966 636.721H459.629C459.251 637.949 458.231 639.574 455.604 639.574C452.58 639.574 451.351 637.136 451.351 634.661C451.351 631.826 452.788 629.539 455.698 629.539C458.798 629.539 459.818 632.034 459.818 634.075C459.818 634.358 459.818 634.604 459.781 634.868ZM453.09 633.697H458.136C458.117 632.128 457.324 630.862 455.679 630.862C453.997 630.862 453.26 632.034 453.09 633.697ZM461.943 639.348V632.374C461.943 631.032 461.943 630.276 461.924 629.766H463.549C463.587 630.049 463.606 630.786 463.606 631.731C464.097 630.427 465.25 629.595 466.838 629.539V631.202C464.872 631.259 463.606 632.279 463.606 634.698V639.348H461.943ZM468.403 639.348V632.241C468.403 631.41 468.403 630.559 468.384 629.766H469.99C470.009 630.068 470.066 630.767 470.047 631.24C470.482 630.389 471.332 629.539 472.844 629.539C474.205 629.539 475.131 630.238 475.49 631.259C476 630.351 476.908 629.539 478.552 629.539C480.102 629.539 481.576 630.465 481.576 633.054V639.348H479.931V633.262C479.931 632.147 479.535 630.975 478.042 630.975C476.492 630.975 475.811 632.147 475.811 633.848V639.348H474.186V633.319C474.186 632.071 473.827 630.975 472.334 630.975C470.784 630.975 470.047 632.223 470.047 634.056V639.348H468.403ZM483.444 636.607H485.088C485.353 637.666 486.128 638.27 487.432 638.27C488.849 638.27 489.397 637.666 489.397 636.796C489.397 635.908 488.963 635.492 487.129 635.039C484.389 634.377 483.822 633.545 483.822 632.241C483.822 630.881 484.805 629.539 487.28 629.539C489.737 629.539 490.758 630.975 490.89 632.317H489.284C489.152 631.693 488.679 630.824 487.205 630.824C485.863 630.824 485.466 631.485 485.466 632.109C485.466 632.827 485.863 633.167 487.621 633.602C490.512 634.283 491.098 635.246 491.098 636.683C491.098 638.365 489.775 639.574 487.375 639.574C484.899 639.574 483.69 638.327 483.444 636.607ZM505.133 632.695V637.269C505.133 638.138 505.208 639.083 505.265 639.348H503.677C503.602 639.14 503.545 638.686 503.526 638.1C503.186 638.743 502.43 639.574 500.578 639.574C498.31 639.574 497.346 638.119 497.346 636.664C497.346 634.509 499.028 633.545 501.882 633.545C502.544 633.545 503.148 633.545 503.507 633.545V632.714C503.507 631.882 503.243 630.843 501.447 630.843C499.841 630.843 499.576 631.637 499.406 632.393H497.8C497.932 631.07 498.745 629.539 501.504 629.539C503.848 629.558 505.133 630.503 505.133 632.695ZM503.526 635.001V634.679C503.205 634.679 502.487 634.679 501.977 634.679C500.049 634.679 499.028 635.209 499.028 636.569C499.028 637.552 499.727 638.289 500.899 638.289C503.205 638.289 503.526 636.74 503.526 635.001ZM508.011 639.348V632.185C508.011 631.353 508.011 630.522 507.992 629.766H509.599C509.636 630.049 509.674 631.07 509.655 631.353C510.052 630.522 510.827 629.539 512.679 629.539C514.475 629.539 515.873 630.654 515.873 633.186V639.348H514.229V633.413C514.229 631.958 513.662 630.975 512.188 630.975C510.392 630.975 509.655 632.355 509.655 634.283V639.348H508.011ZM525.028 625.475H526.673V636.645C526.673 637.552 526.673 638.44 526.692 639.348H525.104C525.066 639.102 525.028 638.365 525.028 638.006C524.556 638.989 523.573 639.574 522.004 639.574C519.548 639.574 518.036 637.59 518.036 634.661C518.036 631.712 519.661 629.539 522.307 629.539C524.008 629.539 524.764 630.238 525.028 630.767V625.475ZM522.477 630.956C520.795 630.956 519.755 632.298 519.755 634.623C519.755 636.929 520.852 638.176 522.345 638.176C524.594 638.176 525.085 636.532 525.085 634.434C525.085 632.298 524.65 630.956 522.477 630.956ZM540.209 636.418H541.853C541.437 638.081 540.322 639.574 537.884 639.574C535.257 639.574 533.613 637.684 533.613 634.623C533.613 631.901 535.144 629.539 537.998 629.539C540.776 629.539 541.721 631.523 541.853 632.752H540.209C539.963 631.769 539.358 630.937 537.979 630.937C536.278 630.937 535.314 632.393 535.314 634.566C535.314 636.74 536.24 638.214 537.903 638.214C539.113 638.214 539.812 637.571 540.209 636.418ZM547.764 629.539C550.429 629.539 552.167 631.542 552.167 634.547C552.167 637.307 550.58 639.574 547.65 639.574C544.91 639.574 543.247 637.458 543.247 634.585C543.247 631.75 544.872 629.539 547.764 629.539ZM547.688 630.937C545.893 630.937 544.948 632.374 544.948 634.566C544.948 636.664 546.006 638.195 547.726 638.195C549.484 638.195 550.466 636.74 550.466 634.566C550.466 632.412 549.484 630.937 547.688 630.937ZM554.337 639.348V632.185C554.337 631.353 554.337 630.522 554.318 629.766H555.925C555.963 630.049 556 631.07 555.981 631.353C556.378 630.522 557.153 629.539 559.005 629.539C560.801 629.539 562.199 630.654 562.199 633.186V639.348H560.555V633.413C560.555 631.958 559.988 630.975 558.514 630.975C556.719 630.975 555.981 632.355 555.981 634.283V639.348H554.337ZM571.354 625.475H572.999V636.645C572.999 637.552 572.999 638.44 573.018 639.348H571.43C571.392 639.102 571.354 638.365 571.354 638.006C570.882 638.989 569.899 639.574 568.331 639.574C565.874 639.574 564.362 637.59 564.362 634.661C564.362 631.712 565.987 629.539 568.633 629.539C570.334 629.539 571.09 630.238 571.354 630.767V625.475ZM568.803 630.956C567.121 630.956 566.081 632.298 566.081 634.623C566.081 636.929 567.178 638.176 568.671 638.176C570.92 638.176 571.411 636.532 571.411 634.434C571.411 632.298 570.976 630.956 568.803 630.956ZM575.82 639.348V629.766H577.483V639.348H575.82ZM575.82 627.554V625.475H577.483V627.554H575.82ZM579.151 631.126V629.766H580.814V626.95H582.477V629.766H584.575V631.126H582.477V636.74C582.477 637.666 582.704 638.138 583.554 638.138C583.8 638.138 584.14 638.138 584.405 638.062V639.31C583.989 639.461 583.422 639.48 582.968 639.48C581.475 639.48 580.814 638.724 580.814 637.118V631.126H579.151ZM586.34 639.348V629.766H588.004V639.348H586.34ZM586.34 627.554V625.475H588.004V627.554H586.34ZM594.662 629.539C597.327 629.539 599.066 631.542 599.066 634.547C599.066 637.307 597.478 639.574 594.549 639.574C591.808 639.574 590.145 637.458 590.145 634.585C590.145 631.75 591.77 629.539 594.662 629.539ZM594.586 630.937C592.791 630.937 591.846 632.374 591.846 634.566C591.846 636.664 592.904 638.195 594.624 638.195C596.382 638.195 597.365 636.74 597.365 634.566C597.365 632.412 596.382 630.937 594.586 630.937ZM601.235 639.348V632.185C601.235 631.353 601.235 630.522 601.217 629.766H602.823C602.861 630.049 602.899 631.07 602.88 631.353C603.277 630.522 604.051 629.539 605.904 629.539C607.699 629.539 609.098 630.654 609.098 633.186V639.348H607.453V633.413C607.453 631.958 606.886 630.975 605.412 630.975C603.617 630.975 602.88 632.355 602.88 634.283V639.348H601.235ZM610.979 636.607H612.623C612.888 637.666 613.663 638.27 614.967 638.27C616.384 638.27 616.932 637.666 616.932 636.796C616.932 635.908 616.498 635.492 614.664 635.039C611.924 634.377 611.357 633.545 611.357 632.241C611.357 630.881 612.34 629.539 614.816 629.539C617.273 629.539 618.293 630.975 618.425 632.317H616.819C616.687 631.693 616.214 630.824 614.74 630.824C613.398 630.824 613.001 631.485 613.001 632.109C613.001 632.827 613.398 633.167 615.156 633.602C618.047 634.283 618.633 635.246 618.633 636.683C618.633 638.365 617.31 639.574 614.91 639.574C612.434 639.574 611.225 638.327 610.979 636.607Z" fill="#6F6F6F"/>
<path d="M441.995 641.238H619.352V642.183H441.995V641.238Z" fill="#6F6F6F"/>
<path d="M993.223 639.348V629.161H989.502V627.854H998.482V629.161H994.761V639.348H993.223ZM999.767 627.209H1001.22V632.204C1001.65 631.476 1002.41 630.765 1003.84 630.765C1005.17 630.765 1006.66 631.509 1006.66 634.006V639.348H1005.22V634.238C1005.22 632.815 1004.61 632.022 1003.41 632.022C1001.88 632.022 1001.22 633.03 1001.22 634.767V639.348H999.767V627.209ZM1009.13 639.348V630.963H1010.59V639.348H1009.13ZM1009.13 629.028V627.209H1010.59V629.028H1009.13ZM1012.25 636.95H1013.69C1013.92 637.876 1014.6 638.405 1015.74 638.405C1016.98 638.405 1017.46 637.876 1017.46 637.115C1017.46 636.338 1017.08 635.974 1015.47 635.577C1013.08 634.998 1012.58 634.271 1012.58 633.13C1012.58 631.939 1013.44 630.765 1015.61 630.765C1017.76 630.765 1018.65 632.022 1018.77 633.196H1017.36C1017.24 632.65 1016.83 631.889 1015.54 631.889C1014.37 631.889 1014.02 632.468 1014.02 633.014C1014.02 633.642 1014.37 633.94 1015.9 634.32C1018.43 634.916 1018.95 635.759 1018.95 637.016C1018.95 638.488 1017.79 639.546 1015.69 639.546C1013.52 639.546 1012.46 638.455 1012.25 636.95ZM1024.98 639.348V630.963H1026.43V639.348H1024.98ZM1024.98 629.028V627.209H1026.43V629.028H1024.98ZM1028.09 636.95H1029.53C1029.76 637.876 1030.44 638.405 1031.58 638.405C1032.82 638.405 1033.3 637.876 1033.3 637.115C1033.3 636.338 1032.92 635.974 1031.32 635.577C1028.92 634.998 1028.42 634.271 1028.42 633.13C1028.42 631.939 1029.28 630.765 1031.45 630.765C1033.6 630.765 1034.49 632.022 1034.61 633.196H1033.2C1033.09 632.65 1032.67 631.889 1031.38 631.889C1030.21 631.889 1029.86 632.468 1029.86 633.014C1029.86 633.642 1030.21 633.94 1031.75 634.32C1034.28 634.916 1034.79 635.759 1034.79 637.016C1034.79 638.488 1033.63 639.546 1031.53 639.546C1029.37 639.546 1028.31 638.455 1028.09 636.95ZM1047.07 633.527V637.529C1047.07 638.289 1047.14 639.116 1047.19 639.348H1045.8C1045.73 639.166 1045.68 638.769 1045.66 638.256C1045.37 638.818 1044.71 639.546 1043.08 639.546C1041.1 639.546 1040.26 638.273 1040.26 636.999C1040.26 635.114 1041.73 634.271 1044.23 634.271C1044.8 634.271 1045.33 634.271 1045.65 634.271V633.543C1045.65 632.815 1045.42 631.906 1043.85 631.906C1042.44 631.906 1042.21 632.601 1042.06 633.262H1040.65C1040.77 632.104 1041.48 630.765 1043.9 630.765C1045.95 630.781 1047.07 631.608 1047.07 633.527ZM1045.66 635.544V635.263C1045.38 635.263 1044.76 635.263 1044.31 635.263C1042.62 635.263 1041.73 635.726 1041.73 636.917C1041.73 637.777 1042.34 638.422 1043.37 638.422C1045.38 638.422 1045.66 637.066 1045.66 635.544ZM1063.36 633.146V639.348H1062.19C1062.12 639.133 1062.07 638.62 1062.06 637.793C1061.54 638.62 1060.55 639.513 1058.48 639.513C1055.16 639.513 1053.39 636.999 1053.39 633.725C1053.39 630.269 1055.29 627.689 1058.77 627.689C1061.43 627.689 1063.12 629.128 1063.45 631.195H1061.92C1061.53 629.905 1060.6 628.962 1058.73 628.962C1056.05 628.962 1055 631.096 1055 633.642C1055 636.024 1056.07 638.223 1058.67 638.223C1061.25 638.223 1061.87 636.52 1061.87 634.568V634.453H1058.63V633.146H1063.36ZM1069.24 630.765C1071.57 630.765 1073.09 632.518 1073.09 635.147C1073.09 637.562 1071.7 639.546 1069.14 639.546C1066.74 639.546 1065.29 637.694 1065.29 635.18C1065.29 632.7 1066.71 630.765 1069.24 630.765ZM1069.17 631.989C1067.6 631.989 1066.78 633.245 1066.78 635.164C1066.78 636.999 1067.7 638.339 1069.21 638.339C1070.75 638.339 1071.61 637.066 1071.61 635.164C1071.61 633.279 1070.75 631.989 1069.17 631.989ZM1073.97 630.963H1075.5C1076.65 634.403 1077.47 636.966 1077.72 638.008H1077.74C1077.94 637.082 1078.83 634.568 1080.09 630.963H1081.57L1078.48 639.348H1076.89L1073.97 630.963ZM1089.72 635.428H1083.81C1083.81 637.132 1084.67 638.339 1086.1 638.339C1087.44 638.339 1087.87 637.661 1088.13 637.049H1089.59C1089.25 638.124 1088.36 639.546 1086.06 639.546C1083.42 639.546 1082.34 637.413 1082.34 635.246C1082.34 632.766 1083.6 630.765 1086.15 630.765C1088.86 630.765 1089.75 632.948 1089.75 634.734C1089.75 634.982 1089.75 635.197 1089.72 635.428ZM1083.86 634.403H1088.28C1088.26 633.03 1087.57 631.922 1086.13 631.922C1084.66 631.922 1084.01 632.948 1083.86 634.403ZM1091.61 639.348V633.245C1091.61 632.071 1091.61 631.41 1091.59 630.963H1093.02C1093.05 631.211 1093.06 631.856 1093.06 632.683C1093.49 631.542 1094.5 630.815 1095.89 630.765V632.22C1094.17 632.27 1093.06 633.163 1093.06 635.28V639.348H1091.61ZM1097.28 639.348V633.08C1097.28 632.352 1097.28 631.625 1097.26 630.963H1098.67C1098.7 631.211 1098.73 632.104 1098.72 632.352C1099.06 631.625 1099.74 630.765 1101.36 630.765C1102.93 630.765 1104.16 631.741 1104.16 633.957V639.348H1102.72V634.155C1102.72 632.882 1102.22 632.022 1100.93 632.022C1099.36 632.022 1098.72 633.229 1098.72 634.916V639.348H1097.28ZM1106.63 639.348V633.13C1106.63 632.402 1106.63 631.658 1106.61 630.963H1108.02C1108.03 631.228 1108.08 631.84 1108.07 632.253C1108.45 631.509 1109.19 630.765 1110.51 630.765C1111.71 630.765 1112.52 631.377 1112.83 632.27C1113.28 631.476 1114.07 630.765 1115.51 630.765C1116.87 630.765 1118.16 631.575 1118.16 633.841V639.348H1116.72V634.023C1116.72 633.047 1116.37 632.022 1115.06 632.022C1113.71 632.022 1113.11 633.047 1113.11 634.535V639.348H1111.69V634.072C1111.69 632.981 1111.37 632.022 1110.07 632.022C1108.71 632.022 1108.07 633.113 1108.07 634.717V639.348H1106.63ZM1127.39 635.428H1121.49C1121.49 637.132 1122.35 638.339 1123.77 638.339C1125.11 638.339 1125.54 637.661 1125.81 637.049H1127.26C1126.93 638.124 1126.04 639.546 1123.74 639.546C1121.09 639.546 1120.02 637.413 1120.02 635.246C1120.02 632.766 1121.28 630.765 1123.82 630.765C1126.53 630.765 1127.43 632.948 1127.43 634.734C1127.43 634.982 1127.43 635.197 1127.39 635.428ZM1121.54 634.403H1125.96C1125.94 633.03 1125.24 631.922 1123.81 631.922C1122.33 631.922 1121.69 632.948 1121.54 634.403ZM1129.3 639.348V633.08C1129.3 632.352 1129.3 631.625 1129.29 630.963H1130.69C1130.73 631.211 1130.76 632.104 1130.74 632.352C1131.09 631.625 1131.77 630.765 1133.39 630.765C1134.96 630.765 1136.18 631.741 1136.18 633.957V639.348H1134.74V634.155C1134.74 632.882 1134.25 632.022 1132.96 632.022C1131.39 632.022 1130.74 633.229 1130.74 634.916V639.348H1129.3ZM1137.48 632.154V630.963H1138.94V628.499H1140.39V630.963H1142.23V632.154H1140.39V637.066C1140.39 637.876 1140.59 638.289 1141.33 638.289C1141.55 638.289 1141.85 638.289 1142.08 638.223V639.315C1141.71 639.447 1141.22 639.463 1140.82 639.463C1139.52 639.463 1138.94 638.802 1138.94 637.396V632.154H1137.48ZM1151.38 630.765C1153.71 630.765 1155.23 632.518 1155.23 635.147C1155.23 637.562 1153.84 639.546 1151.28 639.546C1148.88 639.546 1147.42 637.694 1147.42 635.18C1147.42 632.7 1148.85 630.765 1151.38 630.765ZM1151.31 631.989C1149.74 631.989 1148.91 633.245 1148.91 635.164C1148.91 636.999 1149.84 638.339 1151.34 638.339C1152.88 638.339 1153.74 637.066 1153.74 635.164C1153.74 633.279 1152.88 631.989 1151.31 631.989ZM1158.9 639.348H1157.46V632.154H1156.1V630.963H1157.46V629.971C1157.46 628.417 1158.05 627.044 1159.9 627.044C1160.2 627.044 1160.62 627.094 1160.83 627.16V628.384C1160.62 628.334 1160.32 628.317 1160.09 628.317C1159.23 628.317 1158.9 628.83 1158.9 630.054V630.963H1160.58V632.154H1158.9V639.348ZM1172.33 635.908H1167.73L1166.49 639.348H1164.97L1169.07 627.854H1170.96L1175.22 639.348H1173.6L1172.33 635.908ZM1168.13 634.602H1171.93C1170.84 631.575 1170.23 629.971 1169.98 629.095H1169.97C1169.68 630.07 1169.02 632.005 1168.13 634.602ZM1178.25 639.348H1176.8V627.209H1178.25V639.348ZM1180.72 636.536V627.209H1182.18V632.171C1182.56 631.443 1183.32 630.765 1184.86 630.765C1186.96 630.765 1188.28 632.501 1188.28 634.998C1188.28 637.545 1187.01 639.546 1184.63 639.546C1183.29 639.546 1182.59 639.067 1182.16 638.256C1182.16 638.686 1182.14 639.133 1182.11 639.348H1180.71C1180.72 638.422 1180.72 637.479 1180.72 636.536ZM1184.44 638.339C1185.93 638.339 1186.79 637.066 1186.79 635.015C1186.79 633.212 1185.97 632.005 1184.51 632.005C1182.74 632.005 1182.11 633.196 1182.11 635.197C1182.11 636.933 1182.66 638.339 1184.44 638.339ZM1197.05 635.428H1191.14C1191.14 637.132 1192 638.339 1193.43 638.339C1194.77 638.339 1195.2 637.661 1195.46 637.049H1196.92C1196.58 638.124 1195.69 639.546 1193.39 639.546C1190.75 639.546 1189.67 637.413 1189.67 635.246C1189.67 632.766 1190.93 630.765 1193.48 630.765C1196.19 630.765 1197.08 632.948 1197.08 634.734C1197.08 634.982 1197.08 635.197 1197.05 635.428ZM1191.19 634.403H1195.61C1195.59 633.03 1194.9 631.922 1193.46 631.922C1191.99 631.922 1191.34 632.948 1191.19 634.403ZM1198.94 639.348V633.245C1198.94 632.071 1198.94 631.41 1198.92 630.963H1200.35C1200.38 631.211 1200.39 631.856 1200.39 632.683C1200.82 631.542 1201.83 630.815 1203.22 630.765V632.22C1201.5 632.27 1200.39 633.163 1200.39 635.28V639.348H1198.94ZM1204.13 632.154V630.963H1205.59V628.499H1207.04V630.963H1208.88V632.154H1207.04V637.066C1207.04 637.876 1207.24 638.289 1207.98 638.289C1208.2 638.289 1208.5 638.289 1208.73 638.223V639.315C1208.36 639.447 1207.87 639.463 1207.47 639.463C1206.16 639.463 1205.59 638.802 1205.59 637.396V632.154H1204.13ZM1216.69 633.527V637.529C1216.69 638.289 1216.76 639.116 1216.8 639.348H1215.42C1215.35 639.166 1215.3 638.769 1215.28 638.256C1214.99 638.818 1214.32 639.546 1212.7 639.546C1210.72 639.546 1209.88 638.273 1209.88 636.999C1209.88 635.114 1211.35 634.271 1213.84 634.271C1214.42 634.271 1214.95 634.271 1215.27 634.271V633.543C1215.27 632.815 1215.04 631.906 1213.46 631.906C1212.06 631.906 1211.83 632.601 1211.68 633.262H1210.27C1210.39 632.104 1211.1 630.765 1213.51 630.765C1215.56 630.781 1216.69 631.608 1216.69 633.527ZM1215.28 635.544V635.263C1215 635.263 1214.37 635.263 1213.93 635.263C1212.24 635.263 1211.35 635.726 1211.35 636.917C1211.35 637.777 1211.96 638.422 1212.98 638.422C1215 638.422 1215.28 637.066 1215.28 635.544ZM1223.65 639.348V627.854H1227.77C1231 627.854 1233.2 630.054 1233.2 633.494C1233.2 636.884 1231.06 639.348 1227.72 639.348H1223.65ZM1225.18 629.144V638.058H1227.59C1230.3 638.058 1231.59 636.123 1231.59 633.51C1231.59 631.244 1230.42 629.144 1227.61 629.144H1225.18ZM1235.37 639.348V630.963H1236.83V639.348H1235.37ZM1235.37 629.028V627.209H1236.83V629.028H1235.37ZM1246.21 633.394V638.603C1246.21 641.282 1245.1 642.82 1242.37 642.82C1239.83 642.82 1239.05 641.398 1238.88 640.257H1240.37C1240.6 641.167 1241.35 641.663 1242.42 641.663C1244.32 641.663 1244.8 640.456 1244.8 638.521V637.843C1244.36 638.785 1243.58 639.315 1242.19 639.315C1240.12 639.315 1238.72 637.628 1238.72 635.18C1238.72 632.435 1240.31 630.765 1242.34 630.765C1243.93 630.765 1244.61 631.526 1244.8 632.088C1244.82 631.708 1244.85 631.145 1244.87 630.963H1246.24C1246.23 631.459 1246.21 632.584 1246.21 633.394ZM1242.55 632.005C1241 632.005 1240.22 633.295 1240.22 635.114C1240.22 636.884 1241.13 638.074 1242.51 638.074C1244.31 638.074 1244.84 636.867 1244.84 634.998C1244.84 633.113 1244.34 632.005 1242.55 632.005ZM1248.68 639.348V630.963H1250.14V639.348H1248.68ZM1248.68 629.028V627.209H1250.14V629.028H1248.68ZM1251.59 632.154V630.963H1253.05V628.499H1254.5V630.963H1256.34V632.154H1254.5V637.066C1254.5 637.876 1254.7 638.289 1255.45 638.289C1255.66 638.289 1255.96 638.289 1256.19 638.223V639.315C1255.83 639.447 1255.33 639.463 1254.93 639.463C1253.63 639.463 1253.05 638.802 1253.05 637.396V632.154H1251.59ZM1264.15 633.527V637.529C1264.15 638.289 1264.22 639.116 1264.27 639.348H1262.88C1262.81 639.166 1262.76 638.769 1262.75 638.256C1262.45 638.818 1261.79 639.546 1260.17 639.546C1258.18 639.546 1257.34 638.273 1257.34 636.999C1257.34 635.114 1258.81 634.271 1261.31 634.271C1261.89 634.271 1262.42 634.271 1262.73 634.271V633.543C1262.73 632.815 1262.5 631.906 1260.93 631.906C1259.52 631.906 1259.29 632.601 1259.14 633.262H1257.74C1257.85 632.104 1258.56 630.765 1260.98 630.765C1263.03 630.781 1264.15 631.608 1264.15 633.527ZM1262.75 635.544V635.263C1262.47 635.263 1261.84 635.263 1261.39 635.263C1259.7 635.263 1258.81 635.726 1258.81 636.917C1258.81 637.777 1259.42 638.422 1260.45 638.422C1262.47 638.422 1262.75 637.066 1262.75 635.544ZM1268.11 639.348H1266.65V627.209H1268.11V639.348ZM1274.22 636.156H1275.77C1276.08 637.529 1277.03 638.273 1278.68 638.273C1280.48 638.273 1281.19 637.429 1281.19 636.354C1281.19 635.197 1280.63 634.552 1278.32 633.99C1275.6 633.328 1274.66 632.402 1274.66 630.781C1274.66 629.078 1275.94 627.689 1278.5 627.689C1281.24 627.689 1282.37 629.277 1282.52 630.781H1280.96C1280.76 629.756 1280.12 628.913 1278.45 628.913C1277.04 628.913 1276.25 629.541 1276.25 630.649C1276.25 631.724 1276.91 632.154 1278.91 632.634C1282.2 633.444 1282.78 634.717 1282.78 636.189C1282.78 638.041 1281.41 639.496 1278.6 639.496C1275.7 639.496 1274.45 637.925 1274.22 636.156ZM1291.64 635.428H1285.73C1285.73 637.132 1286.59 638.339 1288.01 638.339C1289.35 638.339 1289.78 637.661 1290.05 637.049H1291.5C1291.17 638.124 1290.28 639.546 1287.98 639.546C1285.33 639.546 1284.26 637.413 1284.26 635.246C1284.26 632.766 1285.52 630.765 1288.06 630.765C1290.78 630.765 1291.67 632.948 1291.67 634.734C1291.67 634.982 1291.67 635.197 1291.64 635.428ZM1285.78 634.403H1290.2C1290.18 633.03 1289.49 631.922 1288.05 631.922C1286.57 631.922 1285.93 632.948 1285.78 634.403ZM1293.53 639.348V633.245C1293.53 632.071 1293.53 631.41 1293.51 630.963H1294.93C1294.97 631.211 1294.98 631.856 1294.98 632.683C1295.41 631.542 1296.42 630.815 1297.81 630.765V632.22C1296.09 632.27 1294.98 633.163 1294.98 635.28V639.348H1293.53ZM1298.82 630.963H1300.35C1301.5 634.403 1302.32 636.966 1302.57 638.008H1302.59C1302.79 637.082 1303.68 634.568 1304.94 630.963H1306.42L1303.33 639.348H1301.74L1298.82 630.963ZM1307.88 639.348V630.963H1309.34V639.348H1307.88ZM1307.88 629.028V627.209H1309.34V629.028H1307.88ZM1317 636.784H1318.44C1318.08 638.24 1317.1 639.546 1314.97 639.546C1312.67 639.546 1311.23 637.892 1311.23 635.213C1311.23 632.832 1312.57 630.765 1315.07 630.765C1317.5 630.765 1318.32 632.501 1318.44 633.576H1317C1316.79 632.716 1316.26 631.989 1315.05 631.989C1313.56 631.989 1312.72 633.262 1312.72 635.164C1312.72 637.066 1313.53 638.355 1314.98 638.355C1316.04 638.355 1316.65 637.793 1317 636.784ZM1327.03 635.428H1321.13C1321.13 637.132 1321.99 638.339 1323.41 638.339C1324.75 638.339 1325.18 637.661 1325.45 637.049H1326.9C1326.57 638.124 1325.68 639.546 1323.38 639.546C1320.73 639.546 1319.66 637.413 1319.66 635.246C1319.66 632.766 1320.92 630.765 1323.46 630.765C1326.18 630.765 1327.07 632.948 1327.07 634.734C1327.07 634.982 1327.07 635.197 1327.03 635.428ZM1321.18 634.403H1325.6C1325.58 633.03 1324.89 631.922 1323.45 631.922C1321.97 631.922 1321.33 632.948 1321.18 634.403Z" fill="#6F6F6F"/>
<path d="M1375.32 639.348H1368.09V639.265C1368.09 637.694 1369.14 636.057 1371.39 634.37C1373.12 633.03 1373.6 632.617 1373.6 631.41C1373.6 630.318 1373.02 629.492 1371.72 629.492C1370.39 629.492 1369.76 630.186 1369.55 631.509H1368.13C1368.31 629.673 1369.48 628.268 1371.72 628.268C1374.15 628.268 1375.09 629.839 1375.09 631.377C1375.09 633.014 1374.4 633.659 1372.39 635.213C1370.89 636.371 1370.1 637.247 1369.81 638.074H1375.52L1375.32 639.348ZM1380.8 628.268C1383.73 628.268 1384.57 631.046 1384.57 633.841C1384.57 636.536 1383.79 639.546 1380.75 639.546C1377.79 639.546 1376.96 636.735 1376.96 633.907C1376.96 631.129 1377.86 628.268 1380.8 628.268ZM1380.82 629.508C1378.91 629.508 1378.5 631.526 1378.5 633.907C1378.5 635.991 1378.85 638.322 1380.77 638.322C1382.7 638.322 1383.03 636.106 1383.03 633.841C1383.03 631.741 1382.67 629.508 1380.82 629.508ZM1393.38 639.348H1386.15V639.265C1386.15 637.694 1387.19 636.057 1389.44 634.37C1391.18 633.03 1391.66 632.617 1391.66 631.41C1391.66 630.318 1391.08 629.492 1389.77 629.492C1388.45 629.492 1387.82 630.186 1387.61 631.509H1386.18C1386.36 629.673 1387.54 628.268 1389.77 628.268C1392.2 628.268 1393.15 629.839 1393.15 631.377C1393.15 633.014 1392.45 633.659 1390.45 635.213C1388.94 636.371 1388.15 637.247 1387.87 638.074H1393.58L1393.38 639.348ZM1402.05 630.848H1400.61C1400.4 630.054 1399.88 629.458 1398.78 629.458C1396.94 629.458 1396.35 631.178 1396.28 633.477C1396.73 632.716 1397.54 631.972 1399.04 631.972C1401.16 631.972 1402.38 633.494 1402.38 635.594C1402.38 637.727 1401.12 639.546 1398.71 639.546C1395.72 639.546 1394.84 637.115 1394.84 634.056C1394.84 631.063 1395.82 628.268 1398.83 628.268C1401.04 628.268 1401.9 629.723 1402.05 630.848ZM1398.69 638.339C1400.26 638.339 1400.89 637.066 1400.89 635.693C1400.89 634.486 1400.41 633.179 1398.74 633.179C1397.4 633.179 1396.44 634.039 1396.44 635.693C1396.44 636.586 1396.91 638.339 1398.69 638.339ZM1418.12 633.146V639.348H1416.95C1416.88 639.133 1416.83 638.62 1416.81 637.793C1416.3 638.62 1415.31 639.513 1413.24 639.513C1409.92 639.513 1408.15 636.999 1408.15 633.725C1408.15 630.269 1410.05 627.689 1413.52 627.689C1416.19 627.689 1417.87 629.128 1418.2 631.195H1416.68C1416.28 629.905 1415.36 628.962 1413.49 628.962C1410.81 628.962 1409.75 631.096 1409.75 633.642C1409.75 636.024 1410.83 638.223 1413.42 638.223C1416 638.223 1416.63 636.52 1416.63 634.568V634.453H1413.39V633.146H1418.12ZM1424 630.765C1426.33 630.765 1427.85 632.518 1427.85 635.147C1427.85 637.562 1426.46 639.546 1423.9 639.546C1421.5 639.546 1420.05 637.694 1420.05 635.18C1420.05 632.7 1421.47 630.765 1424 630.765ZM1423.93 631.989C1422.36 631.989 1421.53 633.245 1421.53 635.164C1421.53 636.999 1422.46 638.339 1423.96 638.339C1425.5 638.339 1426.36 637.066 1426.36 635.164C1426.36 633.279 1425.5 631.989 1423.93 631.989ZM1436.28 635.908H1431.68L1430.44 639.348H1428.92L1433.02 627.854H1434.91L1439.17 639.348H1437.55L1436.28 635.908ZM1432.08 634.602H1435.88C1434.79 631.575 1434.18 629.971 1433.93 629.095H1433.91C1433.63 630.07 1432.97 632.005 1432.08 634.602Z" fill="#6F6F6F"/>
<path d="M1347.29 642.324H1363.82V625.787H1347.29V642.324Z" fill="#6F6F6F"/>
</g>
<path d="M229.983 152.297C229.983 143.46 237.146 136.297 245.983 136.297H1273.98C1282.82 136.297 1289.98 143.46 1289.98 152.297V501.219C1289.98 510.055 1282.82 517.219 1273.98 517.219H245.983C237.146 517.219 229.983 510.055 229.983 501.219V152.297Z" fill="white"/>
<path d="M745.374 186.635L799.741 195.402C805.022 196.254 808.185 201.746 806.272 206.741L788.977 251.888C788.829 252.275 788.551 252.58 788.208 252.766C787.939 253.081 787.6 253.056 787.125 252.948C787.107 252.945 787.089 252.942 787.071 252.938L785.732 252.67C786.302 252.731 786.755 252.865 787.125 252.948C787.507 253.012 787.886 252.942 788.208 252.766C788.229 252.742 788.25 252.715 788.27 252.686C788.433 252.455 788.449 252.157 788.414 251.877L783.465 211.952C782.542 204.501 776.804 198.559 769.39 197.375L736.138 192.066C737.513 188.273 741.391 185.993 745.374 186.635Z" fill="white"/>
<path d="M736.138 192.066L769.39 197.375C776.804 198.559 782.542 204.501 783.465 211.952L788.414 251.877C788.449 252.157 788.433 252.455 788.27 252.686C787.789 253.373 787.089 252.816 785.732 252.67L787.071 252.938C787.877 253.1 788.683 252.656 788.977 251.888L806.272 206.741C808.185 201.746 805.022 196.254 799.741 195.402L745.374 186.635C741.391 185.993 737.513 188.273 736.138 192.066Z" stroke="black" stroke-width="0.843087" stroke-linecap="round"/>
<path d="M805.51 198.603C807.499 200.718 808.284 203.892 807.151 206.878L790.029 251.981C789.851 252.451 789.502 252.81 789.077 253.01C788.71 253.287 788.284 253.231 787.922 253.153L787.897 253.148C785.936 252.75 787.407 253.198 787.871 251.592L788.553 249.683L805.66 204.621C806.439 202.569 806.311 200.428 805.51 198.603Z" fill="black" stroke="black" stroke-width="0.843087" stroke-linecap="round"/>
<path d="M729.689 191.173L729.541 189.604C728.982 183.673 724.527 178.849 718.66 177.819C714.32 177.058 710.463 180.674 710.944 185.054L716.577 236.34C716.779 238.177 718.154 239.669 719.969 240.019L786.169 252.78C787.293 252.997 788.301 252.056 788.162 250.92L783.416 211.986C782.503 204.502 776.733 198.533 769.284 197.367L729.689 191.173Z" fill="white" stroke="black" stroke-width="0.843087" stroke-linecap="round"/>
<path d="M665.948 300.219H663.868V296.267C663.868 296.155 663.852 296.043 663.788 295.931L659.932 289.163H662.3C663.196 290.875 664.476 293.307 665.02 294.443C665.5 293.339 666.86 290.827 667.772 289.163H669.948L666.028 295.915C665.98 295.995 665.948 296.043 665.948 296.251V300.219ZM672.482 291.803C674.85 291.803 676.386 293.515 676.386 296.091C676.386 298.555 674.946 300.411 672.37 300.411C669.89 300.411 668.418 298.603 668.418 296.139C668.418 293.643 669.906 291.803 672.482 291.803ZM672.402 293.387C671.17 293.387 670.45 294.331 670.45 296.107C670.45 297.771 671.202 298.843 672.434 298.843C673.666 298.843 674.37 297.787 674.37 296.123C674.37 294.363 673.666 293.387 672.402 293.387ZM684.595 291.995V297.835C684.595 298.635 684.595 299.579 684.611 300.219H682.659C682.627 300.011 682.611 299.547 682.595 299.179C682.147 300.043 681.395 300.411 680.259 300.411C678.675 300.411 677.523 299.515 677.523 297.371V291.995H679.507V296.971C679.507 297.931 679.811 298.779 680.915 298.779C682.115 298.779 682.595 298.123 682.595 296.347V291.995H684.595ZM695.023 288.523H697.007V297.947C697.007 298.699 697.007 299.467 697.023 300.219H695.119C695.071 299.995 695.039 299.499 695.023 299.259C694.623 299.979 693.871 300.411 692.607 300.411C690.511 300.411 689.199 298.731 689.199 296.187C689.199 293.659 690.607 291.803 692.911 291.803C694.191 291.803 694.831 292.283 695.023 292.683V288.523ZM693.231 293.419C691.951 293.419 691.247 294.427 691.247 296.139C691.247 297.867 691.983 298.811 693.151 298.811C694.831 298.811 695.103 297.467 695.103 296.075C695.103 294.523 694.847 293.419 693.231 293.419ZM702.2 291.803C704.568 291.803 706.104 293.515 706.104 296.091C706.104 298.555 704.664 300.411 702.088 300.411C699.608 300.411 698.136 298.603 698.136 296.139C698.136 293.643 699.624 291.803 702.2 291.803ZM702.12 293.387C700.888 293.387 700.168 294.331 700.168 296.107C700.168 297.771 700.92 298.843 702.152 298.843C703.384 298.843 704.088 297.787 704.088 296.123C704.088 294.363 703.384 293.387 702.12 293.387ZM707.289 300.219V294.075C707.289 293.371 707.289 292.619 707.273 291.995H709.209C709.241 292.219 709.273 292.891 709.273 293.147C709.577 292.571 710.249 291.803 711.737 291.803C713.353 291.803 714.473 292.875 714.473 294.971V300.219H712.473V295.211C712.473 294.171 712.105 293.451 711.017 293.451C709.865 293.451 709.273 294.203 709.273 295.723V300.219H707.289ZM716.908 293.099H715.308C715.74 291.611 716.028 289.723 716.06 288.523H718.14C718.028 289.995 717.532 291.883 716.908 293.099ZM718.706 293.531V291.995H720.034V289.707H722.018V291.995H723.698V293.531H722.018V297.835C722.018 298.523 722.21 298.827 722.914 298.827C723.058 298.827 723.298 298.827 723.49 298.779V300.187C723.074 300.331 722.498 300.331 722.066 300.331C720.562 300.331 720.034 299.547 720.034 298.139V293.531H718.706ZM728.086 288.523H730.086V293.051C730.47 292.459 731.158 291.803 732.502 291.803C733.974 291.803 735.27 292.651 735.27 294.955V300.219H733.286V295.259C733.286 294.091 732.838 293.451 731.798 293.451C730.47 293.451 730.086 294.395 730.086 295.819V300.219H728.086V288.523ZM743.428 294.603V298.219C743.428 298.987 743.492 300.011 743.54 300.219H741.636C741.572 300.059 741.524 299.643 741.524 299.339C741.22 299.819 740.628 300.411 739.14 300.411C737.156 300.411 736.324 299.131 736.324 297.867C736.324 295.995 737.812 295.147 740.244 295.147C740.692 295.147 741.204 295.147 741.492 295.147V294.571C741.492 293.947 741.268 293.259 740.052 293.259C738.948 293.259 738.74 293.771 738.612 294.379H736.708C736.836 293.019 737.668 291.803 740.116 291.803C742.26 291.819 743.428 292.667 743.428 294.603ZM741.492 296.619V296.395C741.284 296.395 740.772 296.395 740.436 296.395C738.964 296.395 738.34 296.827 738.34 297.739C738.34 298.427 738.772 298.971 739.652 298.971C741.284 298.971 741.492 297.851 741.492 296.619ZM743.986 291.995H746.114C747.01 294.987 747.714 297.451 747.906 298.443H747.922C748.146 297.243 748.978 294.763 749.858 291.995H751.858L748.914 300.219H746.802L743.986 291.995ZM759.501 296.523H753.965C753.965 297.771 754.589 298.843 755.805 298.843C756.877 298.843 757.197 298.363 757.421 297.819H759.421C759.117 298.843 758.221 300.411 755.757 300.411C753.085 300.411 751.949 298.363 751.949 296.219C751.949 293.691 753.245 291.803 755.837 291.803C758.605 291.803 759.533 293.883 759.533 295.835C759.533 296.107 759.533 296.299 759.501 296.523ZM754.013 295.259H757.533C757.517 294.171 757.037 293.275 755.837 293.275C754.621 293.275 754.109 294.107 754.013 295.259ZM770.584 294.603V298.219C770.584 298.987 770.648 300.011 770.696 300.219H768.792C768.728 300.059 768.68 299.643 768.68 299.339C768.376 299.819 767.784 300.411 766.296 300.411C764.312 300.411 763.48 299.131 763.48 297.867C763.48 295.995 764.968 295.147 767.4 295.147C767.848 295.147 768.36 295.147 768.648 295.147V294.571C768.648 293.947 768.424 293.259 767.208 293.259C766.104 293.259 765.896 293.771 765.768 294.379H763.864C763.992 293.019 764.824 291.803 767.272 291.803C769.416 291.819 770.584 292.667 770.584 294.603ZM768.648 296.619V296.395C768.44 296.395 767.928 296.395 767.592 296.395C766.12 296.395 765.496 296.827 765.496 297.739C765.496 298.427 765.928 298.971 766.808 298.971C768.44 298.971 768.648 297.851 768.648 296.619ZM772.289 300.219V294.075C772.289 293.371 772.289 292.619 772.273 291.995H774.209C774.241 292.219 774.273 292.891 774.273 293.147C774.577 292.571 775.249 291.803 776.737 291.803C778.353 291.803 779.473 292.875 779.473 294.971V300.219H777.473V295.211C777.473 294.171 777.105 293.451 776.017 293.451C774.865 293.451 774.273 294.203 774.273 295.723V300.219H772.289ZM780.032 291.995H782.176C783.184 295.211 783.92 297.627 784.08 298.411H784.096C784.304 297.547 784.832 295.691 785.92 291.995H787.92L785.088 300.507C784.288 302.891 783.648 303.563 781.76 303.563C781.536 303.563 781.12 303.547 780.752 303.499V301.883C780.928 301.899 781.184 301.915 781.376 301.915C782.288 301.915 782.688 301.563 783.056 300.507L780.032 291.995ZM796.999 297.611H798.951C798.647 299.003 797.687 300.411 795.351 300.411C792.903 300.411 791.559 298.699 791.559 296.171C791.559 293.771 792.983 291.803 795.463 291.803C798.103 291.803 798.887 293.707 798.951 294.667H796.999C796.839 293.947 796.423 293.387 795.431 293.387C794.247 293.387 793.575 294.411 793.575 296.107C793.575 297.899 794.263 298.843 795.399 298.843C796.263 298.843 796.743 298.363 796.999 297.611ZM801.945 300.219H799.945V288.523H801.945V300.219ZM810.115 294.603V298.219C810.115 298.987 810.179 300.011 810.227 300.219H808.323C808.259 300.059 808.211 299.643 808.211 299.339C807.907 299.819 807.315 300.411 805.827 300.411C803.843 300.411 803.011 299.131 803.011 297.867C803.011 295.995 804.499 295.147 806.931 295.147C807.379 295.147 807.891 295.147 808.179 295.147V294.571C808.179 293.947 807.955 293.259 806.739 293.259C805.635 293.259 805.427 293.771 805.299 294.379H803.395C803.523 293.019 804.355 291.803 806.803 291.803C808.947 291.819 810.115 292.667 810.115 294.603ZM808.179 296.619V296.395C807.971 296.395 807.459 296.395 807.123 296.395C805.651 296.395 805.027 296.827 805.027 297.739C805.027 298.427 805.459 298.971 806.339 298.971C807.971 298.971 808.179 297.851 808.179 296.619ZM811.805 300.219V291.995H813.805V300.219H811.805ZM811.805 290.475V288.523H813.805V290.475H811.805ZM815.461 300.219V294.123C815.461 293.419 815.461 292.699 815.445 291.995H817.365C817.381 292.219 817.429 292.731 817.429 293.083C817.845 292.427 818.517 291.803 819.749 291.803C820.933 291.803 821.637 292.411 821.925 293.131C822.405 292.427 823.125 291.803 824.501 291.803C825.893 291.803 827.093 292.667 827.093 294.827V300.219H825.157V295.067C825.157 294.251 824.853 293.435 823.813 293.435C822.709 293.435 822.261 294.187 822.261 295.515V300.219H820.325V295.147C820.325 294.219 820.085 293.451 818.997 293.451C817.941 293.451 817.429 294.187 817.429 295.643V300.219H815.461ZM828.04 297.787H830.008C830.2 298.539 830.776 298.955 831.72 298.955C832.68 298.955 833.032 298.571 833.032 297.995C833.032 297.387 832.68 297.131 831.368 296.811C828.792 296.187 828.344 295.387 828.344 294.235C828.344 293.051 829.192 291.803 831.56 291.803C833.928 291.803 834.776 293.131 834.856 294.251H832.968C832.872 293.867 832.6 293.243 831.464 293.243C830.584 293.243 830.312 293.643 830.312 294.075C830.312 294.555 830.584 294.795 831.976 295.115C834.648 295.739 835.064 296.635 835.064 297.851C835.064 299.243 833.992 300.411 831.64 300.411C829.272 300.411 828.232 299.259 828.04 297.787ZM838.626 291.995H840.77C841.778 295.211 842.514 297.627 842.674 298.411H842.69C842.898 297.547 843.426 295.691 844.514 291.995H846.514L843.682 300.507C842.882 302.891 842.242 303.563 840.354 303.563C840.13 303.563 839.714 303.547 839.346 303.499V301.883C839.522 301.899 839.778 301.915 839.97 301.915C840.882 301.915 841.282 301.563 841.65 300.507L838.626 291.995ZM854.204 296.523H848.668C848.668 297.771 849.292 298.843 850.508 298.843C851.58 298.843 851.9 298.363 852.124 297.819H854.124C853.82 298.843 852.924 300.411 850.46 300.411C847.788 300.411 846.652 298.363 846.652 296.219C846.652 293.691 847.948 291.803 850.54 291.803C853.308 291.803 854.236 293.883 854.236 295.835C854.236 296.107 854.236 296.299 854.204 296.523ZM848.716 295.259H852.236C852.22 294.171 851.74 293.275 850.54 293.275C849.324 293.275 848.812 294.107 848.716 295.259ZM854.518 293.531V291.995H855.846V289.707H857.83V291.995H859.51V293.531H857.83V297.835C857.83 298.523 858.022 298.827 858.726 298.827C858.87 298.827 859.11 298.827 859.302 298.779V300.187C858.886 300.331 858.31 300.331 857.878 300.331C856.374 300.331 855.846 299.547 855.846 298.139V293.531H854.518Z" fill="black"/>
<path d="M605.811 335.131H607.315C607.619 336.459 608.531 337.179 610.131 337.179C611.875 337.179 612.563 336.363 612.563 335.323C612.563 334.203 612.019 333.579 609.779 333.035C607.155 332.395 606.243 331.499 606.243 329.931C606.243 328.283 607.475 326.939 609.955 326.939C612.611 326.939 613.699 328.475 613.843 329.931H612.339C612.147 328.939 611.523 328.123 609.907 328.123C608.547 328.123 607.779 328.731 607.779 329.803C607.779 330.843 608.419 331.259 610.355 331.723C613.539 332.507 614.099 333.739 614.099 335.163C614.099 336.955 612.771 338.363 610.051 338.363C607.251 338.363 606.035 336.843 605.811 335.131ZM614.955 331.259V330.107H616.363V327.723H617.771V330.107H619.547V331.259H617.771V336.011C617.771 336.795 617.963 337.195 618.683 337.195C618.891 337.195 619.179 337.195 619.403 337.131V338.187C619.051 338.315 618.571 338.331 618.187 338.331C616.923 338.331 616.363 337.691 616.363 336.331V331.259H614.955ZM627.105 332.587V336.459C627.105 337.195 627.169 337.995 627.217 338.219H625.873C625.809 338.043 625.761 337.659 625.745 337.163C625.457 337.707 624.817 338.411 623.249 338.411C621.329 338.411 620.513 337.179 620.513 335.947C620.513 334.123 621.937 333.307 624.353 333.307C624.913 333.307 625.425 333.307 625.729 333.307V332.603C625.729 331.899 625.505 331.019 623.985 331.019C622.625 331.019 622.401 331.691 622.257 332.331H620.897C621.009 331.211 621.697 329.915 624.033 329.915C626.017 329.931 627.105 330.731 627.105 332.587ZM625.745 334.539V334.267C625.473 334.267 624.865 334.267 624.433 334.267C622.801 334.267 621.937 334.715 621.937 335.867C621.937 336.699 622.529 337.323 623.521 337.323C625.473 337.323 625.745 336.011 625.745 334.539ZM629.526 338.219V332.315C629.526 331.179 629.526 330.539 629.51 330.107H630.886C630.918 330.347 630.934 330.971 630.934 331.771C631.35 330.667 632.326 329.963 633.67 329.915V331.323C632.006 331.371 630.934 332.235 630.934 334.283V338.219H629.526ZM634.549 331.259V330.107H635.957V327.723H637.365V330.107H639.141V331.259H637.365V336.011C637.365 336.795 637.557 337.195 638.277 337.195C638.485 337.195 638.773 337.195 638.997 337.131V338.187C638.645 338.315 638.165 338.331 637.781 338.331C636.517 338.331 635.957 337.691 635.957 336.331V331.259H634.549ZM650.793 332.587V336.459C650.793 337.195 650.857 337.995 650.905 338.219H649.561C649.497 338.043 649.449 337.659 649.433 337.163C649.145 337.707 648.505 338.411 646.937 338.411C645.017 338.411 644.201 337.179 644.201 335.947C644.201 334.123 645.625 333.307 648.041 333.307C648.601 333.307 649.113 333.307 649.417 333.307V332.603C649.417 331.899 649.193 331.019 647.673 331.019C646.313 331.019 646.089 331.691 645.945 332.331H644.585C644.697 331.211 645.385 329.915 647.721 329.915C649.705 329.931 650.793 330.731 650.793 332.587ZM649.433 334.539V334.267C649.161 334.267 648.553 334.267 648.121 334.267C646.489 334.267 645.625 334.715 645.625 335.867C645.625 336.699 646.217 337.323 647.209 337.323C649.161 337.323 649.433 336.011 649.433 334.539ZM657.276 338.219V332.155C657.276 331.451 657.276 330.747 657.26 330.107H658.62C658.652 330.347 658.684 331.211 658.668 331.451C659.004 330.747 659.66 329.915 661.228 329.915C662.748 329.915 663.932 330.859 663.932 333.003V338.219H662.54V333.195C662.54 331.963 662.06 331.131 660.812 331.131C659.292 331.131 658.668 332.299 658.668 333.931V338.219H657.276ZM672.883 334.427H667.171C667.171 336.075 668.003 337.243 669.379 337.243C670.675 337.243 671.091 336.587 671.347 335.995H672.755C672.435 337.035 671.571 338.411 669.347 338.411C666.787 338.411 665.747 336.347 665.747 334.251C665.747 331.851 666.963 329.915 669.427 329.915C672.051 329.915 672.915 332.027 672.915 333.755C672.915 333.995 672.915 334.203 672.883 334.427ZM667.219 333.435H671.491C671.475 332.107 670.803 331.035 669.411 331.035C667.987 331.035 667.363 332.027 667.219 333.435ZM673.945 330.107H675.433C676.441 333.915 677.017 336.091 677.145 336.923H677.177C677.321 336.171 677.897 334.155 679.049 330.107H680.425C681.689 334.699 682.073 336.043 682.201 336.779H682.217C682.409 335.899 682.745 334.683 684.009 330.107H685.433L682.921 338.219H681.417C680.617 335.275 679.849 332.523 679.673 331.659H679.657C679.513 332.539 678.777 335.003 677.865 338.219H676.297L673.945 330.107ZM696.081 335.739H697.473C697.121 337.147 696.177 338.411 694.113 338.411C691.889 338.411 690.497 336.811 690.497 334.219C690.497 331.915 691.793 329.915 694.209 329.915C696.561 329.915 697.361 331.595 697.473 332.635H696.081C695.873 331.803 695.361 331.099 694.193 331.099C692.753 331.099 691.937 332.331 691.937 334.171C691.937 336.011 692.721 337.259 694.129 337.259C695.153 337.259 695.745 336.715 696.081 335.739ZM700.543 338.219H699.135V326.475H700.543V338.219ZM708.887 332.587V336.459C708.887 337.195 708.951 337.995 708.999 338.219H707.655C707.591 338.043 707.543 337.659 707.527 337.163C707.239 337.707 706.599 338.411 705.031 338.411C703.111 338.411 702.295 337.179 702.295 335.947C702.295 334.123 703.719 333.307 706.135 333.307C706.695 333.307 707.207 333.307 707.511 333.307V332.603C707.511 331.899 707.287 331.019 705.767 331.019C704.407 331.019 704.183 331.691 704.039 332.331H702.679C702.791 331.211 703.479 329.915 705.815 329.915C707.799 329.931 708.887 330.731 708.887 332.587ZM707.527 334.539V334.267C707.255 334.267 706.647 334.267 706.215 334.267C704.583 334.267 703.719 334.715 703.719 335.867C703.719 336.699 704.311 337.323 705.303 337.323C707.255 337.323 707.527 336.011 707.527 334.539ZM711.307 338.219V330.107H712.715V338.219H711.307ZM711.307 328.235V326.475H712.715V328.235H711.307ZM715.104 338.219V332.203C715.104 331.499 715.104 330.779 715.088 330.107H716.448C716.464 330.363 716.512 330.955 716.496 331.355C716.864 330.635 717.584 329.915 718.864 329.915C720.016 329.915 720.8 330.507 721.104 331.371C721.536 330.603 722.304 329.915 723.696 329.915C725.008 329.915 726.256 330.699 726.256 332.891V338.219H724.864V333.067C724.864 332.123 724.528 331.131 723.264 331.131C721.952 331.131 721.376 332.123 721.376 333.563V338.219H720V333.115C720 332.059 719.696 331.131 718.432 331.131C717.12 331.131 716.496 332.187 716.496 333.739V338.219H715.104ZM731.978 335.899H733.37C733.594 336.795 734.25 337.307 735.354 337.307C736.554 337.307 737.018 336.795 737.018 336.059C737.018 335.307 736.65 334.955 735.098 334.571C732.778 334.011 732.298 333.307 732.298 332.203C732.298 331.051 733.13 329.915 735.226 329.915C737.306 329.915 738.17 331.131 738.282 332.267H736.922C736.81 331.739 736.41 331.003 735.162 331.003C734.026 331.003 733.69 331.563 733.69 332.091C733.69 332.699 734.026 332.987 735.514 333.355C737.962 333.931 738.458 334.747 738.458 335.963C738.458 337.387 737.338 338.411 735.306 338.411C733.21 338.411 732.186 337.355 731.978 335.899ZM746.601 330.107V335.867C746.601 336.651 746.617 337.755 746.617 338.219H745.257C745.225 338.011 745.209 337.515 745.209 337.003C744.809 337.915 744.025 338.411 742.745 338.411C741.385 338.411 740.073 337.739 740.073 335.451V330.107H741.465V335.147C741.465 336.219 741.785 337.195 743.145 337.195C744.633 337.195 745.209 336.379 745.209 334.347V330.107H746.601ZM748.995 335.499V326.475H750.403V331.275C750.771 330.571 751.507 329.915 752.995 329.915C755.027 329.915 756.307 331.595 756.307 334.011C756.307 336.475 755.075 338.411 752.771 338.411C751.475 338.411 750.803 337.947 750.387 337.163C750.387 337.579 750.371 338.011 750.339 338.219H748.979C748.995 337.323 748.995 336.411 748.995 335.499ZM752.595 337.243C754.035 337.243 754.867 336.011 754.867 334.027C754.867 332.283 754.067 331.115 752.659 331.115C750.947 331.115 750.339 332.267 750.339 334.203C750.339 335.883 750.867 337.243 752.595 337.243ZM758.135 338.219V332.203C758.135 331.499 758.135 330.779 758.119 330.107H759.479C759.495 330.363 759.543 330.955 759.527 331.355C759.895 330.635 760.615 329.915 761.895 329.915C763.047 329.915 763.831 330.507 764.135 331.371C764.567 330.603 765.335 329.915 766.727 329.915C768.039 329.915 769.287 330.699 769.287 332.891V338.219H767.895V333.067C767.895 332.123 767.559 331.131 766.295 331.131C764.983 331.131 764.407 332.123 764.407 333.563V338.219H763.031V333.115C763.031 332.059 762.727 331.131 761.463 331.131C760.151 331.131 759.527 332.187 759.527 333.739V338.219H758.135ZM771.667 338.219V330.107H773.075V338.219H771.667ZM771.667 328.235V326.475H773.075V328.235H771.667ZM774.681 335.899H776.073C776.297 336.795 776.953 337.307 778.057 337.307C779.257 337.307 779.721 336.795 779.721 336.059C779.721 335.307 779.353 334.955 777.801 334.571C775.481 334.011 775.001 333.307 775.001 332.203C775.001 331.051 775.833 329.915 777.929 329.915C780.009 329.915 780.873 331.131 780.985 332.267H779.625C779.513 331.739 779.113 331.003 777.865 331.003C776.729 331.003 776.393 331.563 776.393 332.091C776.393 332.699 776.729 332.987 778.217 333.355C780.665 333.931 781.161 334.747 781.161 335.963C781.161 337.387 780.041 338.411 778.009 338.411C775.913 338.411 774.889 337.355 774.681 335.899ZM782.369 335.899H783.761C783.985 336.795 784.641 337.307 785.745 337.307C786.945 337.307 787.409 336.795 787.409 336.059C787.409 335.307 787.041 334.955 785.489 334.571C783.169 334.011 782.689 333.307 782.689 332.203C782.689 331.051 783.521 329.915 785.617 329.915C787.697 329.915 788.561 331.131 788.673 332.267H787.313C787.201 331.739 786.801 331.003 785.553 331.003C784.417 331.003 784.081 331.563 784.081 332.091C784.081 332.699 784.417 332.987 785.905 333.355C788.353 333.931 788.849 334.747 788.849 335.963C788.849 337.387 787.729 338.411 785.697 338.411C783.601 338.411 782.577 337.355 782.369 335.899ZM790.635 338.219V330.107H792.043V338.219H790.635ZM790.635 328.235V326.475H792.043V328.235H790.635ZM797.68 329.915C799.936 329.915 801.408 331.611 801.408 334.155C801.408 336.491 800.064 338.411 797.584 338.411C795.264 338.411 793.856 336.619 793.856 334.187C793.856 331.787 795.232 329.915 797.68 329.915ZM797.616 331.099C796.096 331.099 795.296 332.315 795.296 334.171C795.296 335.947 796.192 337.243 797.648 337.243C799.136 337.243 799.968 336.011 799.968 334.171C799.968 332.347 799.136 331.099 797.616 331.099ZM803.245 338.219V332.155C803.245 331.451 803.245 330.747 803.229 330.107H804.589C804.621 330.347 804.653 331.211 804.637 331.451C804.973 330.747 805.629 329.915 807.197 329.915C808.717 329.915 809.901 330.859 809.901 333.003V338.219H808.509V333.195C808.509 331.963 808.029 331.131 806.781 331.131C805.261 331.131 804.637 332.299 804.637 333.931V338.219H803.245ZM817.987 338.219H816.595V331.259H815.283V330.107H816.595V329.147C816.595 327.643 817.171 326.315 818.963 326.315C819.251 326.315 819.651 326.363 819.859 326.427V327.611C819.651 327.563 819.363 327.547 819.139 327.547C818.307 327.547 817.987 328.043 817.987 329.227V330.107H819.619V331.259H817.987V338.219ZM824.055 329.915C826.311 329.915 827.783 331.611 827.783 334.155C827.783 336.491 826.439 338.411 823.959 338.411C821.639 338.411 820.231 336.619 820.231 334.187C820.231 331.787 821.607 329.915 824.055 329.915ZM823.991 331.099C822.471 331.099 821.671 332.315 821.671 334.171C821.671 335.947 822.567 337.243 824.023 337.243C825.511 337.243 826.343 336.011 826.343 334.171C826.343 332.347 825.511 331.099 823.991 331.099ZM829.604 338.219V332.315C829.604 331.179 829.604 330.539 829.588 330.107H830.964C830.996 330.347 831.012 330.971 831.012 331.771C831.428 330.667 832.404 329.963 833.748 329.915V331.323C832.084 331.371 831.012 332.235 831.012 334.283V338.219H829.604ZM838.252 330.107H839.772C841.068 333.995 841.804 336.155 842.012 336.971H842.028C842.284 336.059 842.876 334.203 844.188 330.107H845.612L842.7 338.603C841.868 340.971 841.26 341.579 839.596 341.579C839.34 341.579 839.036 341.563 838.732 341.515V340.299C838.924 340.331 839.164 340.347 839.388 340.347C840.428 340.347 840.812 339.899 841.292 338.539L838.252 330.107ZM850.243 329.915C852.499 329.915 853.971 331.611 853.971 334.155C853.971 336.491 852.627 338.411 850.147 338.411C847.827 338.411 846.419 336.619 846.419 334.187C846.419 331.787 847.795 329.915 850.243 329.915ZM850.179 331.099C848.659 331.099 847.859 332.315 847.859 334.171C847.859 335.947 848.755 337.243 850.211 337.243C851.699 337.243 852.531 336.011 852.531 334.171C852.531 332.347 851.699 331.099 850.179 331.099ZM862.304 330.107V335.867C862.304 336.651 862.32 337.755 862.32 338.219H860.96C860.928 338.011 860.912 337.515 860.912 337.003C860.512 337.915 859.728 338.411 858.448 338.411C857.088 338.411 855.776 337.739 855.776 335.451V330.107H857.168V335.147C857.168 336.219 857.488 337.195 858.848 337.195C860.336 337.195 860.912 336.379 860.912 334.347V330.107H862.304ZM864.698 338.219V332.315C864.698 331.179 864.698 330.539 864.682 330.107H866.058C866.09 330.347 866.106 330.971 866.106 331.771C866.522 330.667 867.498 329.963 868.842 329.915V331.323C867.178 331.371 866.106 332.235 866.106 334.283V338.219H864.698ZM879.394 335.739H880.786C880.434 337.147 879.49 338.411 877.426 338.411C875.202 338.411 873.81 336.811 873.81 334.219C873.81 331.915 875.106 329.915 877.522 329.915C879.874 329.915 880.674 331.595 880.786 332.635H879.394C879.186 331.803 878.674 331.099 877.506 331.099C876.066 331.099 875.25 332.331 875.25 334.171C875.25 336.011 876.034 337.259 877.442 337.259C878.466 337.259 879.058 336.715 879.394 335.739ZM883.856 338.219H882.448V326.475H883.856V338.219ZM886.245 338.219V330.107H887.653V338.219H886.245ZM886.245 328.235V326.475H887.653V328.235H886.245ZM896.602 334.427H890.89C890.89 336.075 891.722 337.243 893.098 337.243C894.394 337.243 894.81 336.587 895.066 335.995H896.474C896.154 337.035 895.29 338.411 893.066 338.411C890.506 338.411 889.466 336.347 889.466 334.251C889.466 331.851 890.682 329.915 893.146 329.915C895.77 329.915 896.634 332.027 896.634 333.755C896.634 333.995 896.634 334.203 896.602 334.427ZM890.938 333.435H895.21C895.194 332.107 894.522 331.035 893.13 331.035C891.706 331.035 891.082 332.027 890.938 333.435ZM898.448 338.219V332.155C898.448 331.451 898.448 330.747 898.432 330.107H899.792C899.824 330.347 899.856 331.211 899.84 331.451C900.176 330.747 900.832 329.915 902.4 329.915C903.92 329.915 905.104 330.859 905.104 333.003V338.219H903.712V333.195C903.712 331.963 903.232 331.131 901.984 331.131C900.464 331.131 899.84 332.299 899.84 333.931V338.219H898.448ZM906.361 331.259V330.107H907.769V327.723H909.177V330.107H910.953V331.259H909.177V336.011C909.177 336.795 909.369 337.195 910.089 337.195C910.297 337.195 910.585 337.195 910.809 337.131V338.187C910.457 338.315 909.977 338.331 909.593 338.331C908.329 338.331 907.769 337.691 907.769 336.331V331.259H906.361ZM913.913 338.219H912.441V335.867H913.913V338.219Z" fill="#6F6F6F"/>
<mask id="path-17-inside-2_988_31698" fill="white">
<path d="M661.483 385.219C661.483 380.8 665.064 377.219 669.483 377.219H850.483C854.901 377.219 858.483 380.8 858.483 385.219V409.219C858.483 413.637 854.901 417.219 850.483 417.219H669.483C665.064 417.219 661.483 413.637 661.483 409.219V385.219Z"/>
</mask>
<path d="M669.483 377.219V378.219H850.483V377.219V376.219H669.483V377.219ZM858.483 385.219H857.483V409.219H858.483H859.483V385.219H858.483ZM850.483 417.219V416.219H669.483V417.219V418.219H850.483V417.219ZM661.483 409.219H662.483V385.219H661.483H660.483V409.219H661.483ZM669.483 417.219V416.219C665.617 416.219 662.483 413.085 662.483 409.219H661.483H660.483C660.483 414.189 664.512 418.219 669.483 418.219V417.219ZM858.483 409.219H857.483C857.483 413.085 854.349 416.219 850.483 416.219V417.219V418.219C855.453 418.219 859.483 414.189 859.483 409.219H858.483ZM850.483 377.219V378.219C854.349 378.219 857.483 381.353 857.483 385.219H858.483H859.483C859.483 380.248 855.453 376.219 850.483 376.219V377.219ZM669.483 377.219V376.219C664.512 376.219 660.483 380.248 660.483 385.219H661.483H662.483C662.483 381.353 665.617 378.219 669.483 378.219V377.219Z" fill="#CDCDCD" mask="url(#path-17-inside-2_988_31698)"/>
<path d="M688.316 391.594C688.316 391.133 687.943 390.76 687.483 390.76C687.022 390.76 686.649 391.133 686.649 391.594V396.385H681.858C681.397 396.385 681.024 396.758 681.024 397.219C681.024 397.679 681.397 398.052 681.858 398.052H686.649V402.844C686.649 403.304 687.022 403.677 687.483 403.677C687.943 403.677 688.316 403.304 688.316 402.844V398.052H693.108C693.568 398.052 693.941 397.679 693.941 397.219C693.941 396.758 693.568 396.385 693.108 396.385H688.316V391.594Z" fill="black"/>
<path d="M704.207 400.209H706.097C706.421 401.667 707.429 402.423 709.175 402.423C711.029 402.423 711.767 401.577 711.767 400.443C711.767 399.237 711.155 398.589 708.707 397.995C705.683 397.275 704.693 396.213 704.693 394.467C704.693 392.559 706.115 391.047 708.941 391.047C711.983 391.047 713.225 392.775 713.387 394.449H711.515C711.299 393.405 710.651 392.505 708.869 392.505C707.429 392.505 706.619 393.153 706.619 394.287C706.619 395.403 707.285 395.853 709.445 396.357C713.027 397.221 713.675 398.607 713.675 400.245C713.675 402.315 712.145 403.881 709.049 403.881C705.899 403.881 704.477 402.207 704.207 400.209ZM714.619 395.979V394.557H716.167V391.911H717.931V394.557H719.911V395.979H717.931V401.181C717.931 402.027 718.147 402.459 718.975 402.459C719.173 402.459 719.479 402.441 719.731 402.387V403.683C719.317 403.827 718.741 403.845 718.291 403.845C716.797 403.845 716.167 403.071 716.167 401.541V395.979H714.619ZM728.555 397.383V401.667C728.555 402.495 728.627 403.467 728.681 403.719H726.989C726.917 403.521 726.863 403.089 726.845 402.585C726.521 403.179 725.819 403.935 724.073 403.935C721.895 403.935 720.977 402.531 720.977 401.127C720.977 399.075 722.597 398.139 725.315 398.139C725.909 398.139 726.485 398.139 726.827 398.139V397.401C726.827 396.627 726.575 395.691 724.955 395.691C723.515 395.691 723.263 396.393 723.101 397.113H721.409C721.535 395.781 722.345 394.341 725.009 394.341C727.295 394.359 728.555 395.277 728.555 397.383ZM726.827 399.597V399.309C726.557 399.309 725.891 399.309 725.441 399.309C723.659 399.309 722.759 399.813 722.759 401.037C722.759 401.919 723.371 402.585 724.451 402.585C726.557 402.585 726.827 401.181 726.827 399.597ZM731.186 403.719V397.059C731.186 395.835 731.186 395.097 731.168 394.557H732.914C732.932 394.809 732.968 395.565 732.968 396.393C733.418 395.187 734.498 394.395 736.01 394.341V396.087C734.138 396.123 732.968 397.005 732.968 399.363V403.719H731.186ZM737.013 395.979V394.557H738.561V391.911H740.325V394.557H742.305V395.979H740.325V401.181C740.325 402.027 740.541 402.459 741.369 402.459C741.567 402.459 741.873 402.441 742.125 402.387V403.683C741.711 403.827 741.135 403.845 740.685 403.845C739.191 403.845 738.561 403.071 738.561 401.541V395.979H737.013ZM755.52 397.383V401.667C755.52 402.495 755.592 403.467 755.646 403.719H753.954C753.882 403.521 753.828 403.089 753.81 402.585C753.486 403.179 752.784 403.935 751.038 403.935C748.86 403.935 747.942 402.531 747.942 401.127C747.942 399.075 749.562 398.139 752.28 398.139C752.874 398.139 753.45 398.139 753.792 398.139V397.401C753.792 396.627 753.54 395.691 751.92 395.691C750.48 395.691 750.228 396.393 750.066 397.113H748.374C748.5 395.781 749.31 394.341 751.974 394.341C754.26 394.359 755.52 395.277 755.52 397.383ZM753.792 399.597V399.309C753.522 399.309 752.856 399.309 752.406 399.309C750.624 399.309 749.724 399.813 749.724 401.037C749.724 401.919 750.336 402.585 751.416 402.585C753.522 402.585 753.792 401.181 753.792 399.597ZM762.686 403.719V396.879C762.686 396.087 762.686 395.277 762.668 394.557H764.378C764.432 394.827 764.45 395.727 764.45 395.997C764.81 395.259 765.548 394.341 767.294 394.341C769.04 394.341 770.354 395.439 770.354 397.851V403.719H768.59V398.067C768.59 396.753 768.086 395.853 766.736 395.853C765.134 395.853 764.45 397.023 764.45 398.823V403.719H762.686ZM780.494 399.489H774.122C774.122 401.217 774.986 402.495 776.498 402.495C777.866 402.495 778.298 401.811 778.586 401.163H780.368C780.008 402.333 779.018 403.935 776.444 403.935C773.528 403.935 772.322 401.613 772.322 399.255C772.322 396.501 773.726 394.341 776.534 394.341C779.522 394.341 780.512 396.699 780.512 398.715C780.512 399.003 780.512 399.237 780.494 399.489ZM774.176 398.283H778.73C778.712 396.861 778.028 395.709 776.516 395.709C774.986 395.709 774.32 396.771 774.176 398.283ZM781.614 394.557H783.486C784.548 398.751 785.16 401.127 785.322 402.117H785.358C785.52 401.217 786.096 399.111 787.356 394.557H789.066C790.416 399.615 790.83 401.091 790.974 401.955H790.992C791.208 400.983 791.568 399.597 792.918 394.557H794.7L791.892 403.719H790.002C789.12 400.371 788.328 397.509 788.13 396.483H788.112C787.95 397.509 787.194 400.155 786.204 403.719H784.26L781.614 394.557ZM806.569 400.893H808.333C807.955 402.459 806.893 403.935 804.481 403.935C801.889 403.935 800.341 402.099 800.341 399.201C800.341 396.591 801.853 394.341 804.589 394.341C807.325 394.341 808.225 396.303 808.333 397.455H806.587C806.371 396.555 805.813 395.799 804.553 395.799C803.023 395.799 802.159 397.113 802.159 399.147C802.159 401.199 803.005 402.495 804.517 402.495C805.597 402.495 806.227 401.901 806.569 400.893ZM811.929 403.719H810.147V390.525H811.929V403.719ZM821.42 397.383V401.667C821.42 402.495 821.492 403.467 821.546 403.719H819.854C819.782 403.521 819.728 403.089 819.71 402.585C819.386 403.179 818.684 403.935 816.938 403.935C814.76 403.935 813.842 402.531 813.842 401.127C813.842 399.075 815.462 398.139 818.18 398.139C818.774 398.139 819.35 398.139 819.692 398.139V397.401C819.692 396.627 819.44 395.691 817.82 395.691C816.38 395.691 816.128 396.393 815.966 397.113H814.274C814.4 395.781 815.21 394.341 817.874 394.341C820.16 394.359 821.42 395.277 821.42 397.383ZM819.692 399.597V399.309C819.422 399.309 818.756 399.309 818.306 399.309C816.524 399.309 815.624 399.813 815.624 401.037C815.624 401.919 816.236 402.585 817.316 402.585C819.422 402.585 819.692 401.181 819.692 399.597ZM824.051 403.719V394.557H825.833V403.719H824.051ZM824.051 392.559V390.525H825.833V392.559H824.051ZM828.446 403.719V396.933C828.446 396.141 828.446 395.313 828.428 394.557H830.138C830.156 394.827 830.21 395.475 830.21 395.907C830.624 395.115 831.416 394.341 832.838 394.341C834.152 394.341 834.998 395.007 835.358 395.943C835.844 395.097 836.708 394.341 838.256 394.341C839.768 394.341 841.136 395.241 841.136 397.707V403.719H839.408V397.923C839.408 396.897 839.048 395.835 837.68 395.835C836.276 395.835 835.664 396.879 835.664 398.463V403.719H833.936V397.977C833.936 396.843 833.63 395.853 832.262 395.853C830.876 395.853 830.21 396.933 830.21 398.643V403.719H828.446Z" fill="black"/>
<g opacity="0.45">
<mask id="path-21-inside-3_988_31698" fill="white">
<path d="M4 4H1515.97V79.5983H4V4Z"/>
</mask>
<path d="M4 4H1515.97V79.5983H4V4Z" fill="white"/>
<path d="M1515.97 79.5983V78.4171H4V79.5983V80.7795H1515.97V79.5983Z" fill="#E9E9E9" mask="url(#path-21-inside-3_988_31698)"/>
<g clip-path="url(#clip1_988_31698)">
<path d="M218.919 41.7995H205.959V54.7595H218.919V41.7995Z" fill="#00B6ED"/>
<path d="M138.419 52.7891C137.125 52.9133 135.774 53.0386 134.354 53.1002C134.87 49.1797 136.999 43.7689 139.644 44.6329C141.193 45.1308 140.354 49.737 138.418 52.787L138.419 52.7891ZM135.127 55.4632C134.742 55.5255 134.35 55.5255 133.966 55.4632C134.066 55.3934 134.147 55.3004 134.204 55.192C134.26 55.0837 134.289 54.9633 134.289 54.8411V54.3432C134.999 54.3432 136.095 54.219 137.451 54.0938C136.855 54.8016 136.034 55.2846 135.127 55.4632ZM151.258 46.1298C152.936 44.6329 153.775 44.7604 153.965 45.134C154.417 46.0056 152.481 49.0555 148.674 50.736C149.067 48.981 149.964 47.3796 151.255 46.1298H151.258ZM213.519 47.6235C213.325 44.5735 210.551 44.0756 210.164 44.9472C210.035 45.2582 211.196 45.134 211.196 47.3124C211.196 50.8602 207.454 55.528 202.677 55.528C201.019 55.6282 199.387 55.0811 198.124 54.0016C196.861 52.9222 196.064 51.3944 195.902 49.7392C195.707 48.4324 196.031 46.6266 193.708 46.8761C192.091 47.0629 190.676 50.0502 188.611 52.6001C186.868 54.7785 186.094 54.5916 186.481 52.7243C186.997 50.3591 188.998 44.8824 191.321 44.5087C192.417 44.3219 192.804 46.1287 193.262 45.0066C193.426 44.6116 193.491 44.1822 193.45 43.7562C193.409 43.3303 193.265 42.9209 193.029 42.5641C192.793 42.2074 192.473 41.9143 192.097 41.7106C191.721 41.5069 191.301 41.3989 190.874 41.3962C189.196 41.3962 187.196 43.1393 185.519 45.0682C184.1 46.8113 176.808 57.1426 173.711 54.9027C172.292 53.8443 172.417 49.6107 173.324 44.6329C174.635 44.0646 176.045 43.761 177.473 43.7397C178.902 43.7184 180.32 43.9797 181.648 44.5087C182.487 44.8824 182.618 44.8198 182.229 43.9482C181.712 42.6414 178.809 40.5872 174.229 41.5204C174.099 41.5204 174.034 41.583 173.905 41.583C174.292 39.963 174.679 38.2847 175.199 36.6657C175.651 35.1721 176.877 32.62 173.581 32.1848C172.549 31.998 173.001 32.4958 172.611 33.8653C171.964 36.3547 171.192 39.5893 170.611 42.8898C167.62 44.5952 165.18 47.1222 163.577 50.1723C163.95 48.7607 164.23 47.3263 164.416 45.8782C164.453 45.5202 164.353 45.1617 164.138 44.8735C163.923 44.5854 163.608 44.3885 163.255 44.3219C162.545 44.135 161.638 44.4461 160.803 45.6287C158.802 48.3676 156.287 52.6617 152.415 54.4664C149.641 55.7732 148.415 54.4664 148.351 52.4144C148.836 52.2865 149.311 52.12 149.77 51.9165C154.803 49.8007 156.481 46.564 155.255 44.5724C154.029 42.7051 150.609 43.2656 147.834 46.0661C146.373 47.6839 145.488 49.7413 145.317 51.9165C144.156 52.166 142.865 52.3485 141.381 52.5386C143.704 48.8665 143.511 43.8866 140.087 43.0162C136.087 42.0204 134.086 45.755 133.248 48.8665C133.572 45.3814 134.087 41.8951 134.732 38.4726C135.056 36.9789 136.087 34.4269 132.791 33.9916C131.759 33.8048 131.887 34.3027 131.952 35.6721C132.082 37.5395 129.952 48.6808 131.049 53.5354C129.629 53.9674 129.048 55.029 130.854 56.0875C131.947 56.5426 133.126 56.7507 134.309 56.6969C135.491 56.6431 136.646 56.3288 137.693 55.7764C138.667 55.3006 139.542 54.646 140.274 53.8464C141.952 53.6596 143.693 53.3486 145.307 53.0991C145.564 55.2775 147.049 56.8953 150.404 56.5843C155.179 56.1523 159.438 50.4844 161.051 47.7466C160.727 50.6723 158.793 57.0821 162.148 56.7711C163.442 56.6469 162.922 56.4601 162.987 55.3401C163.31 51.4812 166.6 48.1829 169.888 46.1903C169.307 50.9207 169.501 55.1543 171.759 56.4601C175.888 58.9495 181.632 52.4144 184.857 48.4313C183.239 51.9791 182.34 56.4601 184.728 57.1448C187.567 57.9537 189.825 53.3486 192.47 49.8623C192.794 52.3517 194.535 56.7085 201.504 56.7085C208.989 56.6458 213.699 52.2891 213.505 47.6213L213.519 47.6235ZM112.462 55.3973C109.947 54.516 107.49 53.4764 105.106 52.2848C107.266 51.5223 109.378 50.6286 111.43 49.6085C111.654 51.5577 111.998 53.491 112.462 55.3973ZM131.514 58.889C131.45 58.7021 130.933 58.9516 130.482 58.889C129.127 58.7021 127.321 56.8975 126.804 53.9717C125.834 48.6797 126.417 43.4536 128.03 35.6732C128.354 34.1796 129.386 31.6275 126.089 31.1296C125.057 31.0054 125.573 31.5033 125.315 32.8101C124.021 38.5989 119.121 42.7688 114.217 45.5693C113.701 38.9715 113.894 31.5649 115.188 27.0839C116.288 23.2877 117.578 23.9724 115.964 23.1635C114.351 22.3546 112.48 23.4119 110.996 26.2728C109.512 29.1338 102.742 44.512 91.8984 54.9059C86.3513 60.1958 81.3164 57.458 80.348 56.6491C79.509 55.9643 79.2513 57.0227 80.2186 58.0801C84.6712 62.8105 91.2525 60.1321 93.6389 57.8306C100.217 51.4823 107.898 37.7889 111.001 32.0012C110.635 37.0611 110.721 42.1437 111.258 47.1882C108.765 48.364 106.174 49.3219 103.516 50.0513C101.967 50.425 100.999 51.0471 100.999 51.7318C100.999 52.4165 102.031 53.1012 103.516 53.7838C106.161 55.029 113.968 58.5142 115.839 59.6342C117.457 60.5673 118.291 59.821 118.743 58.8253C119.39 57.5185 117.647 56.7733 115.969 56.3359C115.229 53.6021 114.712 50.8132 114.42 47.9961C118.356 45.6308 122.292 42.5194 124.486 38.6C123.905 41.84 122.485 52.9781 126.103 57.6459C126.603 58.2901 127.249 58.8064 127.987 59.1524C128.725 59.4984 129.534 59.6643 130.349 59.6363C131.252 59.5737 131.643 59.0143 131.51 58.889" fill="#545860"/>
</g>
<path d="M623.951 44.3695H627.046C627.447 46.1177 628.676 46.9682 630.731 46.9682C632.857 46.9682 633.732 46.0705 633.732 44.7475C633.732 43.3064 632.928 42.6213 629.975 41.9126C625.723 40.9204 624.542 39.4084 624.542 37.1641C624.542 34.4473 626.573 32.5101 630.353 32.5101C634.535 32.5101 636.236 34.8016 636.448 37.1168H633.354C633.141 35.9592 632.479 34.8253 630.259 34.8253C628.652 34.8253 627.684 35.534 627.684 36.8333C627.684 38.0854 628.463 38.6052 631.18 39.243C635.905 40.377 636.874 42.1488 636.874 44.3932C636.874 47.2517 634.724 49.307 630.519 49.307C626.384 49.307 624.329 47.2045 623.951 44.3695ZM649.369 43.6136H641.195C641.195 45.4563 642.116 47.0391 643.911 47.0391C645.494 47.0391 645.967 46.3304 646.298 45.5271H649.251C648.802 47.0391 647.479 49.3543 643.841 49.3543C639.895 49.3543 638.218 46.3304 638.218 43.1647C638.218 39.432 640.132 36.6443 643.959 36.6443C648.046 36.6443 649.416 39.7155 649.416 42.5977C649.416 42.9993 649.416 43.2828 649.369 43.6136ZM641.266 41.7472H646.463C646.439 40.1408 645.731 38.8178 643.959 38.8178C642.163 38.8178 641.407 40.0463 641.266 41.7472ZM651.28 49.0708V40.2353C651.28 38.865 651.28 37.8256 651.256 36.9278H654.138C654.186 37.2349 654.233 38.3453 654.233 39.1958C654.8 37.7074 656.147 36.6916 658.178 36.6443V39.4793C655.721 39.4793 654.233 40.3534 654.233 43.5899V49.0708H651.28ZM658.916 36.9278H662.058C663.381 41.3456 664.42 44.9838 664.704 46.4485H664.728C665.058 44.6767 666.287 41.0149 667.586 36.9278H670.539L666.192 49.0708H663.074L658.916 36.9278ZM671.762 49.0708V36.9278H674.715V49.0708H671.762ZM671.762 34.6835V31.8013H674.715V34.6835H671.762ZM684.632 45.22H687.514C687.065 47.2753 685.648 49.3543 682.199 49.3543C678.584 49.3543 676.6 46.8265 676.6 43.0938C676.6 39.5501 678.702 36.6443 682.364 36.6443C686.262 36.6443 687.42 39.4556 687.514 40.8731H684.632C684.396 39.81 683.781 38.9832 682.317 38.9832C680.569 38.9832 679.576 40.4951 679.576 42.9993C679.576 45.6453 680.592 47.0391 682.269 47.0391C683.545 47.0391 684.254 46.3304 684.632 45.22ZM699.686 43.6136H691.512C691.512 45.4563 692.433 47.0391 694.229 47.0391C695.812 47.0391 696.284 46.3304 696.615 45.5271H699.568C699.119 47.0391 697.796 49.3543 694.158 49.3543C690.213 49.3543 688.535 46.3304 688.535 43.1647C688.535 39.432 690.449 36.6443 694.276 36.6443C698.363 36.6443 699.733 39.7155 699.733 42.5977C699.733 42.9993 699.733 43.2828 699.686 43.6136ZM691.583 41.7472H696.78C696.757 40.1408 696.048 38.8178 694.276 38.8178C692.481 38.8178 691.725 40.0463 691.583 41.7472ZM706.636 49.0708V39.999C706.636 38.9595 706.636 37.8492 706.613 36.9278H709.471C709.519 37.2586 709.566 38.2508 709.566 38.6288C710.015 37.7783 711.007 36.6443 713.204 36.6443C715.59 36.6443 717.244 38.2272 717.244 41.322V49.0708H714.291V41.6763C714.291 40.1408 713.747 39.0777 712.141 39.0777C710.44 39.0777 709.566 40.188 709.566 42.4323V49.0708H706.636ZM729.413 40.7786V46.1177C729.413 47.2517 729.508 48.7637 729.579 49.0708H726.767C726.673 48.8346 726.602 48.2203 726.602 47.7715C726.153 48.4802 725.279 49.3543 723.082 49.3543C720.153 49.3543 718.924 47.4643 718.924 45.598C718.924 42.8339 721.121 41.5818 724.712 41.5818C725.374 41.5818 726.13 41.5818 726.555 41.5818V40.7314C726.555 39.81 726.224 38.7942 724.429 38.7942C722.799 38.7942 722.491 39.5501 722.302 40.4479H719.491C719.68 38.4398 720.909 36.6443 724.523 36.6443C727.689 36.668 729.413 37.9201 729.413 40.7786ZM726.555 43.7553V43.4246C726.248 43.4246 725.492 43.4246 724.996 43.4246C722.822 43.4246 721.901 44.0624 721.901 45.409C721.901 46.4249 722.539 47.2281 723.838 47.2281C726.248 47.2281 726.555 45.5744 726.555 43.7553ZM732.055 49.0708V40.0699C732.055 39.0304 732.055 37.9673 732.032 36.9278H734.867C734.89 37.2586 734.961 38.0146 734.961 38.5343C735.575 37.5657 736.568 36.6443 738.387 36.6443C740.135 36.6443 741.174 37.5421 741.6 38.6052C742.308 37.5657 743.371 36.6443 745.403 36.6443C747.458 36.6443 749.23 37.9201 749.23 41.1094V49.0708H746.372V41.4637C746.372 40.2589 745.923 39.054 744.387 39.054C742.757 39.054 742.096 40.1644 742.096 42.1252V49.0708H739.237V41.5818C739.237 40.2116 738.883 39.0777 737.276 39.0777C735.717 39.0777 734.961 40.1644 734.961 42.3142V49.0708H732.055ZM762.254 43.6136H754.08C754.08 45.4563 755.001 47.0391 756.797 47.0391C758.38 47.0391 758.852 46.3304 759.183 45.5271H762.136C761.687 47.0391 760.364 49.3543 756.726 49.3543C752.781 49.3543 751.103 46.3304 751.103 43.1647C751.103 39.432 753.017 36.6443 756.844 36.6443C760.931 36.6443 762.301 39.7155 762.301 42.5977C762.301 42.9993 762.301 43.2828 762.254 43.6136ZM754.151 41.7472H759.348C759.325 40.1408 758.616 38.8178 756.844 38.8178C755.049 38.8178 754.293 40.0463 754.151 41.7472Z" fill="black"/>
<path d="M1178.91 40.6457V42.5167H1171.61V47.4495H1179.63L1179.35 49.2993H1169.47V34.5435H1179.25V36.3933H1171.61V40.6457H1178.91ZM1188.94 33.7143H1191.02V46.2588C1191.02 47.2794 1191.02 48.2787 1191.04 49.2993H1189.04C1189 49.0229 1188.96 48.2362 1188.94 47.8535C1188.4 48.9166 1187.34 49.5545 1185.6 49.5545C1182.83 49.5545 1181.11 47.3219 1181.11 44.0051C1181.11 40.6669 1182.96 38.2218 1185.96 38.2218C1187.81 38.2218 1188.66 38.966 1188.94 39.5401V33.7143ZM1186.21 39.9653C1184.36 39.9653 1183.26 41.4324 1183.26 43.9413C1183.26 46.4715 1184.43 47.8322 1186.09 47.8322C1188.53 47.8322 1189.02 45.9824 1189.02 43.7712C1189.02 41.4749 1188.57 39.9653 1186.21 39.9653ZM1194.13 49.2993V41.2198C1194.13 40.2842 1194.13 39.3274 1194.11 38.477H1196.13C1196.19 38.7959 1196.21 39.859 1196.21 40.1779C1196.64 39.3062 1197.51 38.2218 1199.57 38.2218C1201.63 38.2218 1203.18 39.5188 1203.18 42.3679V49.2993H1201.1V42.623C1201.1 41.0709 1200.51 40.0078 1198.91 40.0078C1197.02 40.0078 1196.21 41.3898 1196.21 43.516V49.2993H1194.13ZM1214.38 41.8151V46.8754C1214.38 47.8535 1214.46 49.0016 1214.53 49.2993H1212.53C1212.44 49.0654 1212.38 48.5551 1212.36 47.9598C1211.97 48.6615 1211.15 49.5545 1209.08 49.5545C1206.51 49.5545 1205.43 47.896 1205.43 46.2376C1205.43 43.8137 1207.34 42.7081 1210.55 42.7081C1211.25 42.7081 1211.93 42.7081 1212.34 42.7081V41.8363C1212.34 40.9221 1212.04 39.8165 1210.12 39.8165C1208.42 39.8165 1208.13 40.6457 1207.93 41.4962H1205.94C1206.08 39.9228 1207.04 38.2218 1210.19 38.2218C1212.89 38.2431 1214.38 39.3274 1214.38 41.8151ZM1212.34 44.4303V44.0901C1212.02 44.0901 1211.23 44.0901 1210.7 44.0901C1208.59 44.0901 1207.53 44.6855 1207.53 46.1313C1207.53 47.1731 1208.25 47.9598 1209.53 47.9598C1212.02 47.9598 1212.34 46.3014 1212.34 44.4303ZM1235.77 49.2993V43.1546C1235.77 40.4543 1235.79 37.669 1235.86 36.0956H1235.77C1235.13 38.6045 1232.92 44.6642 1231.28 49.2993H1229.33C1228.09 45.4722 1225.8 38.6683 1225.14 36.0531H1225.08C1225.18 37.7753 1225.25 41.0071 1225.25 43.5373V49.2993H1223.18V34.5435H1226.46C1228.03 38.9872 1229.94 44.7067 1230.43 46.6416H1230.48C1230.82 45.1107 1233.09 38.8809 1234.73 34.5435H1237.9V49.2993H1235.77ZM1245.6 38.2218C1248.64 38.2218 1250.64 40.4756 1250.64 43.8775C1250.64 47.0243 1248.81 49.5545 1245.49 49.5545C1242.32 49.5545 1240.43 47.1731 1240.43 43.92C1240.43 40.6882 1242.3 38.2218 1245.6 38.2218ZM1245.51 39.944C1243.62 39.944 1242.58 41.4536 1242.58 43.8988C1242.58 46.2163 1243.71 47.8535 1245.56 47.8535C1247.45 47.8535 1248.49 46.2801 1248.49 43.8988C1248.49 41.4962 1247.45 39.944 1245.51 39.944ZM1260.2 33.7143H1262.28V46.2588C1262.28 47.2794 1262.28 48.2787 1262.3 49.2993H1260.3C1260.26 49.0229 1260.22 48.2362 1260.2 47.8535C1259.66 48.9166 1258.6 49.5545 1256.86 49.5545C1254.09 49.5545 1252.37 47.3219 1252.37 44.0051C1252.37 40.6669 1254.22 38.2218 1257.22 38.2218C1259.07 38.2218 1259.92 38.966 1260.2 39.5401V33.7143ZM1257.47 39.9653C1255.63 39.9653 1254.52 41.4324 1254.52 43.9413C1254.52 46.4715 1255.69 47.8322 1257.35 47.8322C1259.79 47.8322 1260.28 45.9824 1260.28 43.7712C1260.28 41.4749 1259.84 39.9653 1257.47 39.9653ZM1274.28 44.3027H1266.75C1266.75 46.3439 1267.77 47.8535 1269.55 47.8535C1271.17 47.8535 1271.68 47.0455 1272.02 46.2801H1274.13C1273.7 47.6621 1272.53 49.5545 1269.49 49.5545C1266.05 49.5545 1264.62 46.8117 1264.62 44.0263C1264.62 40.7732 1266.28 38.2218 1269.6 38.2218C1273.13 38.2218 1274.3 41.0071 1274.3 43.3885C1274.3 43.7287 1274.3 44.0051 1274.28 44.3027ZM1266.81 42.8782H1272.19C1272.17 41.1985 1271.36 39.8377 1269.58 39.8377C1267.77 39.8377 1266.98 41.0922 1266.81 42.8782Z" fill="black"/>
<path d="M1167.57 51.4255H1275.08V52.4886H1167.57V51.4255Z" fill="black"/>
<path d="M1293.13 43.458C1293.09 43.5013 1293.02 43.5013 1292.97 43.458L1287.7 38.1828C1287.35 37.8368 1286.79 37.8368 1286.44 38.1828C1286.1 38.5288 1286.1 39.0897 1286.44 39.4357L1292.42 45.4156C1292.77 45.7616 1293.33 45.7616 1293.68 45.4156L1299.66 39.4357C1300 39.0897 1300 38.5288 1299.66 38.1828C1299.31 37.8368 1298.75 37.8368 1298.4 38.1828L1293.13 43.458Z" fill="black"/>
<mask id="path-27-inside-4_988_31698" fill="white">
<path d="M1317.86 27.6246C1317.86 22.4056 1322.09 18.1748 1327.31 18.1748H1430.92C1436.14 18.1748 1440.37 22.4056 1440.37 27.6246V55.9739C1440.37 61.1929 1436.14 65.4237 1430.92 65.4237H1327.31C1322.09 65.4237 1317.86 61.1929 1317.86 55.9739V27.6246Z"/>
</mask>
<path d="M1327.31 18.1748V19.356H1430.92V18.1748V16.9936H1327.31V18.1748ZM1440.37 27.6246H1439.19V55.9739H1440.37H1441.55V27.6246H1440.37ZM1430.92 65.4237V64.2425H1327.31V65.4237V66.6049H1430.92V65.4237ZM1317.86 55.9739H1319.04V27.6246H1317.86H1316.67V55.9739H1317.86ZM1327.31 65.4237V64.2425C1322.74 64.2425 1319.04 60.5405 1319.04 55.9739H1317.86H1316.67C1316.67 61.8453 1321.43 66.6049 1327.31 66.6049V65.4237ZM1440.37 55.9739H1439.19C1439.19 60.5405 1435.48 64.2425 1430.92 64.2425V65.4237V66.6049C1436.79 66.6049 1441.55 61.8453 1441.55 55.9739H1440.37ZM1430.92 18.1748V19.356C1435.48 19.356 1439.19 23.058 1439.19 27.6246H1440.37H1441.55C1441.55 21.7532 1436.79 16.9936 1430.92 16.9936V18.1748ZM1327.31 18.1748V16.9936C1321.43 16.9936 1316.67 21.7532 1316.67 27.6246H1317.86H1319.04C1319.04 23.058 1322.74 19.356 1327.31 19.356V18.1748Z" fill="#CDCDCD" mask="url(#path-27-inside-4_988_31698)"/>
<path d="M1351.42 49.2993V43.1546C1351.42 40.4543 1351.44 37.669 1351.5 36.0956H1351.42C1350.78 38.6045 1348.57 44.6642 1346.93 49.2993H1344.98C1343.74 45.4722 1341.45 38.6683 1340.79 36.0531H1340.72C1340.83 37.7753 1340.89 41.0071 1340.89 43.5373V49.2993H1338.83V34.5435H1342.11C1343.68 38.9872 1345.59 44.7067 1346.08 46.6416H1346.12C1346.46 45.1107 1348.74 38.8809 1350.38 34.5435H1353.55V49.2993H1351.42ZM1365.73 44.3027H1358.21C1358.21 46.3439 1359.23 47.8535 1361.01 47.8535C1362.63 47.8535 1363.14 47.0455 1363.48 46.2801H1365.59C1365.16 47.6621 1363.99 49.5545 1360.95 49.5545C1357.51 49.5545 1356.08 46.8117 1356.08 44.0263C1356.08 40.7732 1357.74 38.2218 1361.06 38.2218C1364.59 38.2218 1365.76 41.0071 1365.76 43.3885C1365.76 43.7287 1365.76 44.0051 1365.73 44.3027ZM1358.27 42.8782H1363.65C1363.63 41.1985 1362.82 39.8377 1361.04 39.8377C1359.23 39.8377 1358.44 41.0922 1358.27 42.8782ZM1368.12 49.2993V41.2198C1368.12 40.2842 1368.12 39.3274 1368.1 38.477H1370.12C1370.18 38.7959 1370.21 39.859 1370.21 40.1779C1370.63 39.3062 1371.5 38.2218 1373.56 38.2218C1375.63 38.2218 1377.18 39.5188 1377.18 42.3679V49.2993H1375.1V42.623C1375.1 41.0709 1374.5 40.0078 1372.91 40.0078C1371.01 40.0078 1370.21 41.3898 1370.21 43.516V49.2993H1368.12ZM1389.03 38.477V46.1525C1389.03 47.2156 1389.03 48.5977 1389.05 49.2993H1387.01C1386.97 49.0229 1386.95 48.385 1386.95 47.7685C1386.39 48.9379 1385.35 49.5545 1383.71 49.5545C1381.82 49.5545 1380.14 48.5764 1380.14 45.5997V38.477H1382.2V45.1532C1382.2 46.5353 1382.63 47.7897 1384.33 47.7897C1386.2 47.7897 1386.95 46.7479 1386.95 44.1539V38.477H1389.03Z" fill="black"/>
<path d="M1409.74 43.6423C1409.69 43.6904 1409.62 43.6904 1409.57 43.6423L1403.71 37.781C1403.32 37.3966 1402.7 37.3966 1402.31 37.781C1401.93 38.1654 1401.93 38.7887 1402.31 39.1731L1408.96 45.8174C1409.34 46.2019 1409.97 46.2019 1410.35 45.8174L1417 39.1731C1417.38 38.7887 1417.38 38.1654 1417 37.781C1416.61 37.3966 1415.99 37.3966 1415.6 37.781L1409.74 43.6423Z" fill="black"/>
</g>
</g>
</g>
<defs>
<filter id="filter0_d_988_31698" x="0" y="0" width="1519.97" height="680.697" filterUnits="userSpaceOnUse" color-interpolation-filters="sRGB">
<feFlood flood-opacity="0" result="BackgroundImageFix"/>
<feColorMatrix in="SourceAlpha" type="matrix" values="0 0 0 0 0 0 0 0 0 0 0 0 0 0 0 0 0 0 127 0" result="hardAlpha"/>
<feOffset/>
<feGaussianBlur stdDeviation="2"/>
<feComposite in2="hardAlpha" operator="out"/>
<feColorMatrix type="matrix" values="0 0 0 0 0 0 0 0 0 0 0 0 0 0 0 0 0 0 0.25 0"/>
<feBlend mode="normal" in2="BackgroundImageFix" result="effect1_dropShadow_988_31698"/>
<feBlend mode="normal" in="SourceGraphic" in2="effect1_dropShadow_988_31698" result="shape"/>
</filter>
<clipPath id="clip0_988_31698">
<rect width="1511.97" height="672.697" fill="white" transform="translate(4 4)"/>
</clipPath>
<clipPath id="clip1_988_31698">
<rect width="139.321" height="37.7991" fill="white" transform="translate(79.5983 22.8999)"/>
</clipPath>
</defs>
</svg>
