<svg width="359" height="305" viewBox="0 0 359 305" fill="none" xmlns="http://www.w3.org/2000/svg">
<path d="M316.389 82.8752C316.66 85.067 315.371 86.0715 314.693 86.2998V89.7245L312.997 105.135L317.745 83.5601C317.18 82.4186 316.117 80.6835 316.389 82.8752Z" fill="#B4D5F0"/>
<path d="M312.454 73.9464C310.982 79.4755 304.864 82.3124 299.685 79.8669L298.638 79.3724C292.492 76.4698 289.099 69.7596 290.407 63.095L290.591 62.1614C291.726 56.3811 297.935 53.164 303.318 55.5671L304.309 56.0094C310.961 58.9789 314.479 66.3409 312.607 73.3739L312.454 73.9464Z" fill="#B4D5F0"/>
<path d="M270.596 185.272C270.596 227.828 236.426 262.326 194.275 262.326C152.125 262.326 117.955 227.828 117.955 185.272C117.955 142.716 152.125 108.218 194.275 108.218C236.426 108.218 270.596 142.716 270.596 185.272Z" fill="#9199D6"/>
<path d="M146.763 136.463L146.763 12.7023C112.987 12.7023 80.5933 26.2494 56.7097 50.3624C33.9534 73.3376 20.6991 104.112 19.4988 136.463L146.763 136.463Z" fill="#B4D5F0"/>
<path d="M146.77 259.286L146.77 135.514C112.993 135.514 80.5994 149.06 56.7158 173.173C33.9565 196.151 20.7014 226.931 19.5039 259.286L146.77 259.286Z" fill="#B4D5F0"/>
<path d="M82.5908 21.7011C80.9239 39.9159 128.139 57.8702 161.845 67.8263C171.012 70.534 176.554 79.9984 174.072 89.2646L157.697 150.391C155.326 159.244 146.438 164.771 137.605 162.447C100.251 152.623 75.2481 138.406 64.5276 126.876C60.1141 122.129 59.9366 115.283 61.467 108.961L82.5908 21.7011Z" stroke="black" stroke-width="1.18" stroke-linecap="round"/>
<path d="M286.878 260.271L0.590088 260.271" stroke="black" stroke-width="1.18" stroke-linecap="round"/>
<path d="M154.103 145.369C128.002 139.379 81.9847 126.236 68.6638 107.285" stroke="black" stroke-width="1.18" stroke-linecap="round"/>
<path d="M309.834 68.4735C309.638 73.5281 305.861 77.4428 301.397 77.2172C296.934 76.9917 293.474 72.7113 293.669 67.6567C293.865 62.6021 297.642 58.6874 302.106 58.9129C306.569 59.1385 310.029 63.4189 309.834 68.4735Z" fill="white"/>
<path d="M306.431 67.8188C306.52 67.5422 306.508 67.237 306.397 66.9704C306.287 66.7037 306.087 66.4976 305.841 66.3971L302.202 64.9106C302.124 64.8789 302.056 64.8216 302.006 64.7461L301.658 64.2119C301.542 64.035 301.383 63.9008 301.199 63.8263L299.944 63.3133C299.698 63.2129 299.427 63.2265 299.19 63.3511C298.953 63.4757 298.77 63.7012 298.681 63.9778L298.392 64.8719C298.38 64.9114 298.381 64.955 298.397 64.9931C298.413 65.0312 298.442 65.0606 298.477 65.075L306.155 68.2118C306.19 68.2261 306.228 68.2242 306.262 68.2064C306.296 68.1886 306.322 68.1564 306.335 68.1169L306.431 67.8188Z" fill="#AEB2EF"/>
<path d="M297.047 69.0443C296.958 69.3209 296.97 69.6261 297.081 69.8927C297.191 70.1593 297.392 70.3655 297.638 70.4659L303.727 72.9538C303.973 73.0542 304.244 73.0406 304.481 72.9159C304.717 72.7913 304.901 72.5659 304.99 72.2892L306.047 69.0109C306.059 68.9714 306.058 68.9278 306.042 68.8897C306.026 68.8516 305.998 68.8222 305.962 68.8078L298.285 65.671C298.249 65.6567 298.211 65.6586 298.177 65.6764C298.143 65.6942 298.117 65.7264 298.104 65.766L297.047 69.0443Z" fill="#AEB2EF"/>
<ellipse cx="70.0337" cy="12.0552" rx="70.0337" ry="12.0552" transform="matrix(-0.999997 0.00223202 -0.0609243 -0.998142 263.781 284.293)" fill="#DCDCDC" style="mix-blend-mode:darken"/>
<ellipse cx="41.1446" cy="7.08242" rx="41.1446" ry="7.08242" transform="matrix(-0.999997 0.00223202 -0.0609243 -0.998142 182.795 304.816)" fill="#DCDCDC" style="mix-blend-mode:darken"/>
<path d="M248.645 158.507L230.005 209.455C228.35 213.977 224.047 216.985 219.231 216.985H197.558C193.669 216.985 190.908 213.198 192.096 209.495L208.384 158.766C209.908 154.019 214.322 150.8 219.307 150.8H243.258C247.243 150.8 250.014 154.765 248.645 158.507Z" fill="black" stroke="black" stroke-width="1.18" stroke-linecap="round"/>
<path d="M61.7332 230.548C64.0914 160.299 110.535 148.36 133.462 151.171C132.807 151.104 136.508 152.4 156.552 158.116C176.597 163.832 190.779 180.011 195.364 187.387L163.217 260.26H64.2458L61.7332 230.548Z" fill="#006DCC" stroke="black" stroke-width="1.18" stroke-linecap="round"/>
<path d="M240.441 272.533C217.79 289.621 189.186 258.001 177.715 240.274L188.605 211.938L218.661 202.348C250.373 247.684 246.394 268.028 240.441 272.533Z" fill="white" stroke="black" stroke-width="1.18" stroke-linecap="round"/>
<path d="M207.972 258.35L183.388 202.348" stroke="black" stroke-width="1.18" stroke-linecap="round"/>
<path d="M141.071 297.098C118.952 298.83 104.445 269.195 99.5527 252.729L134.902 223.893L142.266 243.78C149.63 233.339 165.832 217.43 183.506 194.559C200.32 172.802 202.817 167.546 204.126 169.701L202.162 177.158C212.963 172.186 235.932 170.515 237.02 174.175C238.452 178.99 230.193 179.33 224.511 180.562C223.365 180.81 223.604 181.527 224.757 181.315L243.489 177.865C245.599 177.477 247.616 178.895 247.964 181.012C248.18 182.325 247.7 183.656 246.695 184.528L244.875 186.107H245.535C247.069 186.107 248.312 187.351 248.312 188.885C248.312 191.362 246.672 193.539 244.291 194.223L243.121 194.559L237.02 200.028C226.808 208.381 207.727 211.132 202.162 210.966C186.263 245.467 168.935 272.617 157.208 287.089C153.069 292.196 147.625 296.584 141.071 297.098Z" fill="white" stroke="black" stroke-width="1.18" stroke-linecap="round"/>
<path d="M230.826 188.456C230.503 188.502 230.28 188.802 230.326 189.124C230.373 189.447 230.672 189.67 230.994 189.624L230.91 189.04L230.826 188.456ZM246.174 185.615L245.976 185.059L244.527 185.576L244.725 186.132L244.923 186.688L246.372 186.171L246.174 185.615ZM235.872 188.324L235.788 187.74L230.826 188.456L230.91 189.04L230.994 189.624L235.956 188.908L235.872 188.324ZM244.725 186.132L244.527 185.576C241.693 186.586 238.765 187.311 235.788 187.74L235.872 188.324L235.956 188.908C239.011 188.467 242.015 187.724 244.923 186.688L244.725 186.132Z" fill="black"/>
<path d="M244.365 194.126C242.226 194.795 240.027 195.252 237.799 195.49L235.891 195.694" stroke="black" stroke-width="1.18" stroke-linecap="round"/>
<path d="M75.6008 197.257L89.0188 248.887C90.0045 252.68 93.921 254.916 97.6884 253.837M126.157 201.193L135.483 224.809" stroke="black" stroke-width="1.18" stroke-linecap="round"/>
<path d="M131.7 154.584L141.357 133.618C147.635 137.778 158.818 146.937 156.326 152.088C153.912 157.08 154.395 159.077 154.877 159.576C159.127 167.564 155.682 171.557 153.912 172.556C143.868 179.744 134.919 163.57 131.7 154.584Z" fill="white" stroke="black" stroke-width="1.18" stroke-linecap="round"/>
<path d="M135.148 129.408C132.152 120.737 137.021 116.106 141.234 118.569L142.616 116.481C150.951 103.887 169.144 103.08 178.561 114.887C180.437 117.241 181.293 120.259 180.865 123.238C178.629 138.817 175.648 149.01 167.452 154.041C156.216 160.938 149.193 156.012 144.043 143.202C138.894 130.393 139.234 141.232 135.148 129.408Z" fill="white"/>
<path d="M135.148 130.044C132.152 121.373 137.021 116.742 141.234 119.205L142.616 117.118C150.951 104.524 169.144 103.717 178.561 115.524C180.437 117.877 181.293 120.895 180.865 123.875C178.629 139.453 175.648 149.646 167.452 154.677C158.693 160.054 152.494 158.246 147.747 151.119" stroke="black" stroke-width="1.18" stroke-linecap="round"/>
<path d="M162.963 93.3637C143.095 89.5905 138.696 109.242 139.321 118.832C142.694 118.639 145.1 125.355 145.881 128.737C151.129 128.737 156.19 122.134 158.064 118.832C158.22 119.304 160.407 120.908 167.905 123.549C177.276 126.85 181.494 121.662 180.556 124.964C179.807 127.605 180.354 131.424 179.261 134.254C185.665 133.468 194.432 131.559 192.595 115.748C190.62 98.7431 176.614 93.8842 173.334 96.2424C170.71 98.1289 165.462 93.6781 162.963 93.3637Z" fill="black"/>
<path d="M249.757 84.4815L252.378 73.1722L257.591 51.1432L259.046 44.6124C261.161 35.1237 270.672 29.1916 279.831 32.2424C317.913 44.9274 324.061 59.2083 321.819 65.3765L300.818 157.533C297.545 139.867 264.101 129.258 245.281 123.749C243.128 123.119 241.644 121.132 241.644 118.871" stroke="black" stroke-width="1.18" stroke-linecap="round"/>
<path d="M294.41 104.644L295.512 96.5873C296.269 91.0535 300.901 86.869 306.483 86.6764L317.407 86.2994L310.778 115.066L303.503 115.066C297.94 115.066 293.656 110.156 294.41 104.644Z" fill="#B4D5F0"/>
<path fill-rule="evenodd" clip-rule="evenodd" d="M309.927 91.6077C311.945 91.6979 313.779 92.4613 315.234 93.6781L311.604 110.019C310.806 110.214 309.969 110.303 309.109 110.265C304.107 110.041 300.234 105.684 300.46 100.532C300.686 95.3797 304.924 91.3844 309.927 91.6077Z" fill="white"/>
<path d="M308.625 97.1972L307.768 97.2077L307.763 96.8971C307.734 96.9011 307.704 96.9026 307.674 96.8998L307.366 96.8713C306.871 96.8256 306.502 97.3161 306.683 97.7778L309.907 105.983C310.262 106.887 311.422 106.997 311.98 106.328L311.98 107.329C310.934 107.818 309.533 107.428 309.053 106.148L305.958 97.8864C305.642 97.0425 306.26 96.1412 307.163 96.13L307.704 96.1234C307.721 96.1232 307.738 96.1254 307.754 96.1272L307.751 95.8995L308.608 95.8891L308.625 97.1972Z" fill="#9BA0EB" stroke="#9BA0EB" stroke-width="1.18"/>
<path d="M322.178 63.5984C315.623 80.6423 265.226 75.9003 230.584 69.769C221.156 68.1003 211.953 74.1413 210.069 83.6072L196.694 150.795C195.486 156.861 199.17 162.857 205.149 164.238C240.063 172.302 267.701 172.39 284.469 168.552C287.065 167.957 289.401 167.269 291.462 166.501C297.537 164.239 300.752 158.162 302.196 151.791L322.178 63.5984Z" stroke="black" stroke-width="1.18" stroke-linecap="round"/>
<path d="M132.614 94.5056L147.702 32.5628C149.99 23.1726 144.122 13.6605 134.589 12.2644C94.8596 6.44599 83.0364 16.4634 82.3165 22.9962L60.0385 115.592C68.7455 103.965 93.3593 105.051 112.656 107.73C121.713 108.987 130.443 103.417 132.614 94.5056Z" fill="white" stroke="black" stroke-width="1.18" stroke-linecap="round"/>
<path d="M218.541 94.3479C219.799 86.4573 227.099 80.937 235.038 81.8738L241.033 82.5813C249.397 83.5684 255.201 91.3091 253.802 99.6108L253.153 103.458C251.855 111.158 244.792 116.575 237.014 115.837L225.105 114.707C219.857 114.208 216.14 109.413 216.969 104.211L218.541 94.3479Z" fill="#B4D5F0"/>
<ellipse cx="11.5521" cy="11.5558" rx="11.5521" ry="11.5558" transform="matrix(0.999005 0.0445944 -0.0437514 0.999042 224.691 86.9852)" fill="white"/>
<path d="M88.311 36.4731C95.0259 34.6763 113.629 31.8378 134.323 34.8575" stroke="black" stroke-width="1.18" stroke-linecap="round"/>
<path d="M85.8886 45.4396C92.6036 43.6428 111.207 40.8043 131.901 43.8239" stroke="black" stroke-width="1.18" stroke-linecap="round"/>
<path d="M83.4668 55.5368C90.1817 53.7401 108.785 50.9015 129.479 53.9212" stroke="black" stroke-width="1.18" stroke-linecap="round"/>
<path d="M75.3254 89.4125C82.0403 87.6157 100.644 84.7772 121.337 87.7968" stroke="black" stroke-width="1.18" stroke-linecap="round"/>
<path d="M214.838 124.829C221.622 126.413 266.305 133.387 299.607 129.108" stroke="black" stroke-width="1.18" stroke-linecap="round"/>
<path d="M211.81 133.386C219.388 134.988 262.444 142.47 299.607 138.277" stroke="black" stroke-width="1.18" stroke-linecap="round"/>
<path d="M90.1066 27.2868C96.7732 25.2553 115.301 21.9022 136.08 24.742" stroke="black" stroke-width="1.18" stroke-linecap="round"/>
<path d="M149.497 81.9157C84.1038 66.6329 35.3615 80.0818 62.306 104.229" stroke="black" stroke-width="1.18" stroke-linecap="round"/>
<path d="M258.574 98.5171C259.527 90.7117 266.414 85.0164 274.26 85.5463L281.879 86.0609C287.149 86.4168 291.035 91.137 290.372 96.377L289.146 106.063C288.42 111.801 283.537 116.097 277.754 116.087L266.79 116.068C261.284 116.059 257.022 111.237 257.689 105.772L258.574 98.5171Z" fill="#B4D5F0"/>
<ellipse cx="10.0459" cy="10.3461" rx="10.0459" ry="10.3461" transform="matrix(0.999005 0.0445944 -0.0437514 0.999042 265.215 90.3718)" fill="white"/>
<path d="M273.402 98.5109L273.512 95.9772C273.54 95.3442 274.076 94.854 274.709 94.8822L275.276 94.9075C275.909 94.9358 276.399 95.4718 276.372 96.1048L276.261 98.6386C276.233 99.2716 276.724 99.8076 277.357 99.8359L279.035 99.9108C279.668 99.9391 280.159 100.475 280.131 101.108L280.099 101.842C280.071 102.475 279.536 102.966 278.903 102.937L277.224 102.862C276.591 102.834 276.055 103.324 276.028 103.957L275.924 106.327C275.896 106.96 275.361 107.451 274.728 107.422L274.161 107.397C273.528 107.369 273.037 106.833 273.065 106.2L273.169 103.83C273.196 103.197 272.706 102.661 272.073 102.632L270.553 102.565C269.92 102.536 269.429 102 269.457 101.367L269.489 100.633C269.517 100 270.052 99.5098 270.685 99.5381L272.205 99.6059C272.838 99.6342 273.374 99.1439 273.402 98.5109Z" fill="#9BA0EB"/>
<ellipse cx="218.359" cy="163.012" rx="2.71363" ry="2.7397" fill="white"/>
<path d="M119.736 68.8978C116.56 67.6509 110.083 64.2981 109.576 60.862C108.941 56.5669 111.929 56.7747 112.313 63.0557C112.697 69.3367 110.2 71.0694 106.554 66.1736C105.993 67.1282 104.688 68.497 103.961 66.3353C103.052 63.6332 102.647 69.176 101.368 66.497C100.088 63.818 92.3914 59.5692 97.3512 61.6243C101.319 63.2684 93.3244 62.6635 88.8311 62.1556" stroke="black" stroke-width="1.18" stroke-linecap="round"/>
<path d="M285.746 62.603C284.106 67.2218 278.963 69.5524 274.402 67.7436C268.207 65.2865 264.595 58.802 265.77 52.2463L266.34 49.0647C267.362 43.3609 273.46 40.1369 278.756 42.5008C285.637 45.5727 289.006 53.4223 286.487 60.5161L285.746 62.603Z" fill="#B4D5F0"/>
<ellipse cx="276.363" cy="54.7941" rx="7.12328" ry="8.2191" fill="white"/>
<rect width="4.74587" height="11.2956" rx="2.37294" transform="matrix(0.77931 0.626639 -0.61935 0.785115 278.132 48.093)" fill="#9BA0EB"/>
<path d="M279.981 49.5799C281.002 50.4012 281.171 51.9028 280.357 52.9339L278.148 55.7344L274.45 52.7605L276.659 49.96C277.472 48.9288 278.96 48.7587 279.981 49.5799Z" fill="#0077CD"/>
<path d="M234.372 97.0552C234.409 96.9733 234.468 96.9057 234.541 96.8609C234.614 96.8162 234.698 96.7965 234.781 96.8044C234.864 96.8123 234.944 96.8474 235.009 96.9051C235.073 96.9628 235.121 97.0406 235.145 97.1282L236.095 100.591L236.877 98.8814C236.912 98.8056 236.965 98.7419 237.031 98.6973C237.097 98.6527 237.173 98.6291 237.251 98.6291C237.328 98.6291 237.404 98.6527 237.47 98.6973C237.536 98.7419 237.589 98.8056 237.624 98.8814L238.343 100.455H240.867C241.243 99.6079 241.434 98.6765 241.424 97.7346C241.408 95.9623 240.108 94.5201 238.526 94.5201C237.271 94.5201 236.439 95.3631 235.997 95.9754C235.557 95.3622 234.723 94.5201 233.469 94.5201C231.887 94.5201 230.587 95.9623 230.57 97.7346C230.564 98.3466 230.642 98.9562 230.803 99.5423H233.235L234.372 97.0552Z" fill="#9BA0EB"/>
<path d="M237.711 101.116L237.25 100.107L236.371 102.029C236.336 102.105 236.283 102.169 236.217 102.214C236.151 102.258 236.075 102.282 235.997 102.282C235.986 102.282 235.974 102.281 235.961 102.28C235.878 102.272 235.798 102.237 235.733 102.18C235.668 102.122 235.62 102.044 235.596 101.956L234.646 98.4934L233.864 100.203C233.829 100.279 233.776 100.342 233.711 100.387C233.645 100.431 233.57 100.455 233.493 100.455H231.128C231.371 101.013 231.695 101.561 232.1 102.101C232.59 102.754 233.478 103.797 235.528 105.32C235.666 105.423 235.83 105.479 235.998 105.479C236.165 105.479 236.329 105.423 236.467 105.32C238.518 103.797 239.406 102.754 239.895 102.101C240.072 101.866 240.237 101.622 240.391 101.369H238.085C238.007 101.369 237.931 101.345 237.865 101.3C237.799 101.256 237.746 101.192 237.711 101.116Z" fill="#9BA0EB"/>
</svg>
