<svg width="750" height="401" viewBox="0 0 750 401" fill="none" xmlns="http://www.w3.org/2000/svg" role="img" aria-label="Animated dark mode feature toggle with subtle grid movement">
<style>
  .mode-bg {
    animation: modeBackground 10s ease-in-out infinite;
  }

  .mode-panel {
    animation: modePanel 10s ease-in-out infinite;
  }

  svg > path:nth-of-type(1),
  svg > path:nth-of-type(n+6):not(.semi-arc):not(.grid-star),
  svg > circle:nth-of-type(n+2):not(.click-ring):not(.inner-orbit) {
    transform-box: view-box;
    transform-origin: center;
    animation: outlineBreath 10s ease-in-out infinite;
  }

  svg > path[fill="#0075D7"]:nth-of-type(n+15):not(.semi-arc):not(.grid-star) {
    transform-box: view-box;
    transform-origin: center;
    animation: fillBreath 10s ease-in-out infinite;
  }

  path.semi-arc {
    transform-box: fill-box;
    transform-origin: left bottom;
    animation: semiArcSettle 10s ease-in-out infinite;
  }

  circle.inner-orbit {
    transform-box: fill-box;
    transform-origin: center;
    animation: innerOrbitGrow 10s ease-in-out infinite;
  }

  path.grid-star {
    transform-box: fill-box;
    transform-origin: center;
    animation: gridStarTurn 10s ease-in-out infinite;
  }

  .sun-button,
  .moon-button {
    transform-box: fill-box;
    transform-origin: center;
  }

  .sun-button {
    animation: sunButtonHover 10s ease-in-out infinite;
  }

  .moon-button {
    animation: moonButtonHover 10s ease-in-out infinite;
  }

  .click-ring {
    transform-box: fill-box;
    transform-origin: center;
    opacity: 0;
    animation: clickRing 10s ease-in-out infinite;
  }

  .moon-ring {
    animation-delay: 0s;
  }

  .sun-ring {
    animation-name: sunClickRing;
  }

  .cursor {
    transform-box: fill-box;
    transform-origin: 12.5px 4.1px;
    animation: cursorTravel 10s ease-in-out infinite;
    filter: drop-shadow(0 3px 6px rgba(0, 117, 215, 0.22));
  }

  .cursor-shape {
    animation: cursorPress 10s ease-in-out infinite;
  }

  @keyframes modeBackground {
    0%, 31% { fill: #ffffff; }
    43%, 82% { fill: #1E1E1E; }
    94%, 100% { fill: #ffffff; }
  }

  @keyframes modePanel {
    0%, 31% { fill: #ffffff; }
    43%, 82% { fill: #1E1E1E; }
    94%, 100% { fill: #ffffff; }
  }

  @keyframes outlineBreath {
    0%, 27%, 43%, 78%, 94%, 100% {
      transform: translate(0, 0) scale(1);
      stroke-opacity: 1;
    }
    36% {
      transform: translate(0.8px, -0.5px) scale(1.004);
      stroke-opacity: 0.88;
    }
    86% {
      transform: translate(-0.7px, 0.5px) scale(0.996);
      stroke-opacity: 0.92;
    }
  }

  @keyframes fillBreath {
    0%, 30%, 45%, 80%, 95%, 100% {
      transform: translate(0, 0) scale(1);
      opacity: 1;
    }
    37% {
      transform: translate(0.8px, -0.5px) scale(1.004);
      opacity: 0.9;
    }
    87% {
      transform: translate(-0.7px, 0.4px) scale(0.996);
      opacity: 0.92;
    }
  }

  @keyframes semiArcSettle {
    0%, 28%, 45%, 78%, 95%, 100% {
      transform: rotate(0deg) scale(1);
      opacity: 1;
    }
    36% {
      transform: rotate(-7deg) scale(1.018);
      opacity: 0.9;
    }
    86% {
      transform: rotate(6deg) scale(0.988);
      opacity: 0.94;
    }
  }

  @keyframes innerOrbitGrow {
    0%, 30%, 45%, 80%, 95%, 100% {
      transform: scale(1);
      opacity: 1;
    }
    37% {
      transform: scale(1.16);
      opacity: 0.9;
    }
    87% {
      transform: scale(0.94);
      opacity: 0.94;
    }
  }

  @keyframes gridStarTurn {
    0%, 30%, 45%, 80%, 95%, 100% {
      transform: rotate(0deg) scale(1);
      opacity: 1;
    }
    37% {
      transform: rotate(12deg) scale(1.018);
      opacity: 0.9;
    }
    87% {
      transform: rotate(-9deg) scale(0.988);
      opacity: 0.94;
    }
  }

  @keyframes moonButtonHover {
    0%, 7%, 25%, 100% { transform: scale(1); }
    12%, 18%, 24% { transform: scale(1.045); }
    21% { transform: scale(1.015); }
  }

  @keyframes sunButtonHover {
    0%, 54%, 76%, 100% { transform: scale(1); }
    59%, 68%, 75% { transform: scale(1.045); }
    72% { transform: scale(1.015); }
  }

  @keyframes clickRing {
    0%, 17%, 27%, 100% { opacity: 0; transform: scale(0.76); }
    21% { opacity: 0.5; transform: scale(1); }
    25% { opacity: 0; transform: scale(1.22); }
  }

  @keyframes sunClickRing {
    0%, 68%, 78%, 100% { opacity: 0; transform: scale(0.76); }
    72% { opacity: 0.5; transform: scale(1); }
    76% { opacity: 0; transform: scale(1.22); }
  }

  @keyframes cursorTravel {
    0% { transform: translate(514px, 250px) rotate(-7deg); }
    8% { transform: translate(412.4px, 187.2px) rotate(-7deg); }
    12% { transform: translate(412.4px, 187.2px) rotate(-7deg); }
    14% { transform: translate(409.4px, 185.2px) rotate(-9deg); }
    16% { transform: translate(415.4px, 188.2px) rotate(-5deg); }
    18% { transform: translate(411.4px, 186.2px) rotate(-8deg); }
    21% { transform: translate(412.4px, 187.2px) rotate(-7deg) scale(0.94); }
    24% { transform: translate(412.4px, 187.2px) rotate(-7deg); }
    43% { transform: translate(412.4px, 187.2px) rotate(-7deg); }
    55% { transform: translate(328.5px, 187.2px) rotate(-7deg); }
    62% { transform: translate(328.5px, 187.2px) rotate(-7deg); }
    65% { transform: translate(325.5px, 185.2px) rotate(-9deg); }
    67% { transform: translate(331.5px, 188.2px) rotate(-5deg); }
    69% { transform: translate(327.5px, 186.2px) rotate(-8deg); }
    72% { transform: translate(328.5px, 187.2px) rotate(-7deg) scale(0.94); }
    75% { transform: translate(328.5px, 187.2px) rotate(-7deg); }
    90% { transform: translate(328.5px, 187.2px) rotate(-7deg); }
    100% { transform: translate(514px, 250px) rotate(-7deg); }
  }

  @keyframes cursorPress {
    0%, 19%, 24%, 70%, 75%, 100% { transform: translate(0, 0); }
    21%, 72% { transform: translate(1px, 2px); }
  }

  @media (prefers-reduced-motion: reduce) {
    .mode-bg,
    .mode-panel,
    .click-ring,
    .cursor,
    .cursor-shape,
    svg > path:nth-of-type(1),
    svg > path:nth-of-type(n+6):not(.semi-arc):not(.grid-star),
    svg > circle:nth-of-type(n+2):not(.click-ring):not(.inner-orbit),
    svg > path[fill="#0075D7"]:nth-of-type(n+15):not(.semi-arc):not(.grid-star),
    path.semi-arc,
    circle.inner-orbit,
    path.grid-star,
    .sun-button,
    .moon-button {
      animation: none;
    }
  }
</style>
<rect class="mode-bg" width="750" height="400.324" rx="16" fill="white"/>
<path d="M380.677 337.057L380.677 44.0574" stroke="#0075D7" stroke-linecap="round"/>
<rect class="mode-panel" x="294.177" y="147.557" width="173" height="87.4799" rx="43.74" fill="white" stroke="#0075D7"/>
<g class="sun-button">
<circle cx="341.004" cy="191.297" r="29.9774" fill="#0075D7" stroke="#0075D7"/>
<path d="M342.372 179.995C342.522 180.881 343.239 181.555 344.093 181.834C344.947 182.112 345.899 181.978 346.541 181.35L352.399 175.614L348.753 182.959C348.353 183.764 348.525 184.719 349.054 185.445C349.583 186.171 350.44 186.635 351.329 186.504L359.441 185.306L352.175 189.105C351.379 189.521 350.956 190.398 350.956 191.297C350.956 192.195 351.378 193.072 352.175 193.488L359.441 197.287L351.329 196.089C350.441 195.958 349.583 196.422 349.054 197.148C348.525 197.875 348.353 198.829 348.753 199.634L352.399 206.98L346.541 201.243C345.899 200.615 344.947 200.481 344.093 200.759C343.239 201.038 342.522 201.712 342.372 202.598L341.004 210.682L339.636 202.597C339.486 201.712 338.77 201.038 337.916 200.759C337.062 200.481 336.109 200.615 335.467 201.244L329.61 206.98L333.256 199.634C333.655 198.829 333.483 197.875 332.954 197.148C332.426 196.422 331.568 195.958 330.679 196.089L322.568 197.287L329.834 193.488C330.63 193.072 331.052 192.195 331.052 191.297C331.052 190.398 330.63 189.521 329.833 189.105L322.568 185.306L330.68 186.504C331.568 186.635 332.426 186.171 332.954 185.445C333.483 184.719 333.655 183.764 333.256 182.959L329.61 175.614L335.467 181.35C336.109 181.978 337.062 182.112 337.916 181.834C338.77 181.555 339.486 180.881 339.636 179.996L341.004 171.911L342.372 179.995Z" fill="white"/>
</g>
<mask id="path-6-inside-1_3248_45753" fill="white">
<path d="M411.171 172.192C412.127 171.219 413.59 172.396 413.228 173.711C409.947 185.614 416.937 197.923 428.841 201.204C432.521 202.218 436.24 202.25 439.719 201.459C441.73 201.001 443.576 203.143 442.037 204.517C436.562 209.404 428.795 211.498 421.193 209.403C409.29 206.122 402.299 193.813 405.58 181.91C406.627 178.112 408.592 174.815 411.171 172.192Z"/>
</mask>
<g class="moon-button">
<path d="M413.228 173.711L412.264 173.445L412.264 173.445L413.228 173.711ZM428.841 201.204L428.575 202.168L428.575 202.168L428.841 201.204ZM421.193 209.403L420.927 210.367L420.927 210.367L421.193 209.403ZM405.58 181.91L404.616 181.644L404.616 181.644L405.58 181.91ZM439.719 201.459L439.941 202.434L439.719 201.459ZM442.037 204.517L442.703 205.263L442.037 204.517ZM411.171 172.192L410.458 171.491L411.171 172.192ZM413.228 173.711L412.264 173.445C408.836 185.881 416.139 198.74 428.575 202.168L428.841 201.204L429.106 200.24C417.735 197.106 411.058 185.348 414.192 173.977L413.228 173.711ZM428.841 201.204L428.575 202.168C432.418 203.227 436.305 203.261 439.941 202.434L439.719 201.459L439.497 200.484C436.175 201.239 432.624 201.209 429.106 200.24L428.841 201.204ZM442.037 204.517L441.371 203.771C436.138 208.441 428.719 210.44 421.459 208.439L421.193 209.403L420.927 210.367C428.87 212.556 436.985 210.367 442.703 205.263L442.037 204.517ZM421.193 209.403L421.459 208.439C410.088 205.305 403.41 193.547 406.544 182.176L405.58 181.91L404.616 181.644C401.189 194.08 408.492 206.94 420.927 210.367L421.193 209.403ZM405.58 181.91L406.544 182.176C407.544 178.546 409.422 175.398 411.884 172.893L411.171 172.192L410.458 171.491C407.763 174.232 405.709 177.678 404.616 181.644L405.58 181.91ZM439.719 201.459L439.941 202.434C440.55 202.295 441.133 202.557 441.428 202.926C441.57 203.103 441.61 203.259 441.607 203.364C441.605 203.449 441.573 203.59 441.371 203.771L442.037 204.517L442.703 205.263C443.27 204.757 443.585 204.115 443.606 203.426C443.627 202.757 443.368 202.149 442.99 201.676C442.244 200.745 440.898 200.165 439.497 200.484L439.719 201.459ZM413.228 173.711L414.192 173.977C414.491 172.892 414.036 171.862 413.302 171.3C412.929 171.015 412.451 170.823 411.924 170.834C411.382 170.846 410.868 171.074 410.458 171.491L411.171 172.192L411.884 172.893C411.923 172.854 411.948 172.841 411.956 172.837C411.963 172.834 411.966 172.834 411.969 172.834C411.974 172.834 412.018 172.836 412.086 172.888C412.231 172.999 412.327 173.215 412.264 173.445L413.228 173.711Z" fill="#0075D7" mask="url(#path-6-inside-1_3248_45753)"/>
<path d="M421.3 182.301C423.439 181.395 424.152 180.332 424.884 177.82C425.778 180.341 426.591 181.402 428.648 182.301C426.288 183.326 425.741 184.288 425.243 186.244C424.52 184.237 423.698 183.35 421.3 182.301Z" stroke="#0075D7" stroke-linejoin="round"/>
<path d="M427.852 187.906C431.149 186.509 432.249 184.87 433.379 180.998C434.757 184.885 436.011 186.52 439.182 187.906C435.544 189.487 434.699 190.97 433.931 193.986C432.816 190.892 431.549 189.524 427.852 187.906Z" stroke="#0075D7" stroke-linejoin="round"/>
</g>
<path d="M615.677 235.057L137.677 235.057" stroke="#0075D7" stroke-linecap="round"/>
<path d="M467.677 337.057L467.677 90.0574" stroke="#0075D7" stroke-linecap="round"/>
<path d="M293.677 337.057L293.677 44.0574" stroke="#0075D7" stroke-linecap="round"/>
<path d="M441.677 323.057H152.677" stroke="#0075D7" stroke-linecap="round"/>
<path d="M206.677 337.057L206.677 44.0574" stroke="#0075D7" stroke-linecap="round"/>
<path d="M340.677 60.0574H152.677" stroke="#0075D7" stroke-linecap="round"/>
<path d="M223.677 147.057H136.677" stroke="#0075D7" stroke-linecap="round"/>
<path d="M554.677 337.057L554.677 44.0574" stroke="#0075D7" stroke-linecap="round"/>
<path d="M641.677 147.057L461.677 147.057" stroke="#0075D7" stroke-linecap="round"/>
<circle cx="249.677" cy="279.057" r="42.5" stroke="#0075D7"/>
<circle class="inner-orbit" cx="249.677" cy="279.057" r="23.8043" stroke="#0075D7"/>
<path d="M264.098 102.557C263.048 102.93 261.98 103.264 260.895 103.557L238.46 103.557C237.374 103.264 236.305 102.93 235.255 102.557L264.098 102.557Z" fill="#0075D7"/>
<path d="M271.341 99.1865C270.747 99.5339 270.143 99.8673 269.531 100.187L229.821 100.187C229.209 99.8673 228.606 99.5339 228.012 99.1865L271.341 99.1865Z" fill="#0075D7"/>
<path d="M275.907 96.1094C275.465 96.4505 275.017 96.7854 274.562 97.1094L224.791 97.1094C224.335 96.7855 223.888 96.4503 223.446 96.1094L275.907 96.1094Z" fill="#0075D7"/>
<path d="M279.479 93.0312C279.127 93.3707 278.768 93.7039 278.403 94.0312L220.949 94.0312C220.585 93.7039 220.226 93.3707 219.873 93.0312L279.479 93.0312Z" fill="#0075D7"/>
<path d="M282.38 89.9541C282.092 90.2914 281.8 90.6259 281.502 90.9541L217.851 90.9541C217.552 90.6259 217.261 90.2914 216.973 89.9541L282.38 89.9541Z" fill="#0075D7"/>
<path d="M284.982 86.584C284.748 86.9205 284.51 87.2545 284.267 87.584L215.086 87.584C214.842 87.2545 214.605 86.9205 214.37 86.584L284.982 86.584Z" fill="#0075D7"/>
<path d="M286.941 83.5059C286.747 83.8423 286.548 84.1753 286.345 84.5059L213.008 84.5059C212.805 84.1753 212.605 83.8423 212.411 83.5059L286.941 83.5059Z" fill="#0075D7"/>
<path d="M288.554 80.4287C288.395 80.7644 288.232 81.0979 288.064 81.4287L211.289 81.4287C211.122 81.0979 210.959 80.7644 210.8 80.4287L288.554 80.4287Z" fill="#0075D7"/>
<path d="M289.866 77.3516C289.738 77.687 289.606 78.0202 289.47 78.3516L209.883 78.3516C209.747 78.0202 209.614 77.687 209.486 77.3516L289.866 77.3516Z" fill="#0075D7"/>
<path d="M290.907 74.2734C290.808 74.6085 290.705 74.9418 290.598 75.2734L208.755 75.2734C208.648 74.9418 208.545 74.6085 208.445 74.2734L290.907 74.2734Z" fill="#0075D7"/>
<path d="M291.695 71.1963C291.623 71.5311 291.546 71.8644 291.466 72.1963L207.887 72.1963C207.806 71.8644 207.73 71.5311 207.657 71.1963L291.695 71.1963Z" fill="#0075D7"/>
<path d="M292.246 68.1191C292.199 68.4537 292.148 68.7871 292.093 69.1191L207.26 69.1191C207.205 68.7871 207.154 68.4537 207.106 68.1191L292.246 68.1191Z" fill="#0075D7"/>
<path d="M292.57 65.041C292.547 65.3754 292.52 65.7087 292.489 66.041L206.863 66.041C206.833 65.7087 206.805 65.3754 206.782 65.041L292.57 65.041Z" fill="#0075D7"/>
<path d="M292.677 62.0381C292.677 62.2494 292.671 62.4603 292.668 62.6709L206.685 62.6709C206.682 62.4603 206.677 62.2494 206.677 62.0381C206.677 61.9156 206.681 61.7931 206.682 61.6709L292.672 61.6709C292.673 61.7931 292.677 61.9156 292.677 62.0381Z" fill="#0075D7"/>
<path d="M583.256 194.557C584.305 194.184 585.374 193.85 586.459 193.557L608.894 193.557C609.98 193.85 611.048 194.184 612.099 194.557L583.256 194.557Z" fill="#0075D7"/>
<path d="M576.013 197.927C576.607 197.58 577.21 197.247 577.822 196.927L617.532 196.927C618.144 197.247 618.747 197.58 619.342 197.927L576.013 197.927Z" fill="#0075D7"/>
<path d="M571.446 201.005C571.889 200.664 572.336 200.329 572.792 200.005L622.563 200.005C623.018 200.328 623.465 200.664 623.907 201.005L571.446 201.005Z" fill="#0075D7"/>
<path d="M567.874 204.083C568.227 203.743 568.586 203.41 568.95 203.083L626.404 203.083C626.769 203.41 627.128 203.743 627.48 204.083L567.874 204.083Z" fill="#0075D7"/>
<path d="M564.974 207.16C565.262 206.823 565.553 206.488 565.852 206.16L629.503 206.16C629.801 206.488 630.093 206.823 630.381 207.16L564.974 207.16Z" fill="#0075D7"/>
<path d="M562.371 210.53C562.606 210.193 562.843 209.859 563.087 209.53L632.268 209.53C632.511 209.859 632.749 210.193 632.983 210.53L562.371 210.53Z" fill="#0075D7"/>
<path d="M560.412 213.608C560.606 213.272 560.806 212.939 561.009 212.608L634.346 212.608C634.549 212.939 634.748 213.272 634.942 213.608L560.412 213.608Z" fill="#0075D7"/>
<path d="M558.8 216.685C558.959 216.35 559.122 216.016 559.289 215.685L636.064 215.685C636.232 216.016 636.395 216.35 636.554 216.685L558.8 216.685Z" fill="#0075D7"/>
<path d="M557.487 219.762C557.615 219.427 557.748 219.094 557.884 218.762L637.471 218.762C637.607 219.094 637.739 219.427 637.867 219.762L557.487 219.762Z" fill="#0075D7"/>
<path d="M556.446 222.841C556.546 222.506 556.649 222.172 556.756 221.841L638.599 221.841C638.706 222.172 638.809 222.506 638.908 222.841L556.446 222.841Z" fill="#0075D7"/>
<path d="M555.658 225.918C555.731 225.583 555.807 225.25 555.888 224.918L639.467 224.918C639.547 225.25 639.624 225.583 639.696 225.918L555.658 225.918Z" fill="#0075D7"/>
<path d="M555.107 228.995C555.155 228.66 555.206 228.327 555.261 227.995L640.094 227.995C640.149 228.327 640.2 228.66 640.247 228.995L555.107 228.995Z" fill="#0075D7"/>
<path d="M554.783 232.073C554.806 231.739 554.834 231.405 554.864 231.073L640.49 231.073C640.521 231.405 640.548 231.739 640.571 232.073L554.783 232.073Z" fill="#0075D7"/>
<path d="M554.677 235.076C554.677 234.865 554.683 234.654 554.686 234.443L640.669 234.443C640.672 234.654 640.677 234.865 640.677 235.076C640.677 235.198 640.673 235.321 640.672 235.443L554.682 235.443C554.681 235.321 554.677 235.198 554.677 235.076Z" fill="#0075D7"/>
<mask id="path-23-inside-2_3248_45753" fill="white">
<path d="M467.677 323.061L467.677 278.753C479.886 278.753 491.596 283.603 500.229 292.236C508.455 300.462 513.242 311.479 513.677 323.061L467.677 323.061Z"/>
</mask>
<path d="M467.677 323.061L466.677 323.061L466.677 324.061L467.677 324.061L467.677 323.061ZM467.677 278.753L467.677 277.753L466.677 277.753L466.677 278.753L467.677 278.753ZM500.229 292.236L500.937 291.529L500.937 291.529L500.229 292.236ZM513.677 323.061L513.677 324.061L514.715 324.061L514.676 323.023L513.677 323.061ZM467.677 323.061L468.677 323.061L468.677 278.753L467.677 278.753L466.677 278.753L466.677 323.061L467.677 323.061ZM467.677 278.753L467.677 279.753C479.621 279.753 491.077 284.498 499.522 292.943L500.229 292.236L500.937 291.529C492.116 282.708 480.151 277.753 467.677 277.753L467.677 278.753ZM500.229 292.236L499.522 292.943C507.569 300.99 512.252 311.768 512.677 323.098L513.677 323.061L514.676 323.023C514.232 311.19 509.341 299.933 500.937 291.529L500.229 292.236ZM513.677 323.061L513.677 322.061L467.677 322.061L467.677 323.061L467.677 324.061L513.677 324.061L513.677 323.061Z" fill="#0075D7" mask="url(#path-23-inside-2_3248_45753)"/>
<mask id="path-25-inside-3_3248_45753" fill="white">
<path d="M467.677 279.365L467.677 235.057C479.886 235.057 491.596 239.907 500.229 248.541C508.455 256.766 513.242 267.783 513.677 279.365L467.677 279.365Z"/>
</mask>
<path d="M467.677 279.365L466.677 279.365L466.677 280.365L467.677 280.365L467.677 279.365ZM467.677 235.057L467.677 234.057L466.677 234.057L466.677 235.057L467.677 235.057ZM500.229 248.541L500.937 247.833V247.833L500.229 248.541ZM513.677 279.365L513.677 280.365L514.715 280.365L514.676 279.327L513.677 279.365ZM467.677 279.365L468.677 279.365L468.677 235.057L467.677 235.057L466.677 235.057L466.677 279.365L467.677 279.365ZM467.677 235.057L467.677 236.057C479.621 236.057 491.077 240.802 499.522 249.248L500.229 248.541L500.937 247.833C492.116 239.012 480.151 234.057 467.677 234.057L467.677 235.057ZM500.229 248.541L499.522 249.248C507.569 257.294 512.252 268.072 512.677 279.402L513.677 279.365L514.676 279.327C514.232 267.494 509.341 256.237 500.937 247.833L500.229 248.541ZM513.677 279.365L513.677 278.365L467.677 278.365L467.677 279.365L467.677 280.365L513.677 280.365L513.677 279.365Z" fill="#0075D7" mask="url(#path-25-inside-3_3248_45753)"/>
<path class="grid-star" d="M587.524 87.1094L587.694 87.0322L587.772 86.8613L601.698 56.2236L615.624 86.8613L615.701 87.0322L615.872 87.1094L646.51 101.036L615.872 114.962L615.701 115.04L615.624 115.21L601.698 145.849L587.772 115.21L587.694 115.04L587.524 114.962L556.885 101.036L587.524 87.1094Z" stroke="#0075D7"/>
<circle class="click-ring moon-ring" cx="424.9" cy="191.3" r="38" fill="none" stroke="#0075D7" stroke-width="1"/>
<circle class="click-ring sun-ring" cx="341.004" cy="191.297" r="38" fill="none" stroke="#0075D7" stroke-width="1"/>
<g class="cursor">
  <g class="cursor-shape">
    <path d="M24.0091 25.9675L17.5845 34.6631C15.8523 37.0077 12.1316 35.7538 12.1719 32.8389L12.3606 19.1988L13.9777 5.16067C14.1543 3.62781 15.9266 2.8638 17.1623 3.78788L38.2006 19.5208C40.4851 21.2292 39.3203 24.8614 36.4683 24.9226L25.5748 25.1564C24.9555 25.1697 24.3773 25.4693 24.0091 25.9675Z" fill="black" stroke="#0075D7"/>
    <path d="M12.515 31.6675L12.5116 4.08198C12.5114 2.41899 14.4228 1.48219 15.7371 2.50115L37.4158 19.3091C38.9275 20.4812 38.0892 22.903 36.1763 22.8896L24.3255 22.8068C23.6737 22.8022 23.0605 23.1156 22.6824 23.6465L16.1441 32.8274C15.0147 34.4134 12.5152 33.6145 12.515 31.6675Z" fill="white" stroke="#0075D7"/>
  </g>
</g>
</svg>
