<svg width="116" height="116" viewBox="0 0 116 116" fill="none" xmlns="http://www.w3.org/2000/svg">
<path d="M47.5649 38.0303L55.1224 22.688C56.1293 20.6438 58.565 19.7517 60.654 20.662L109.393 41.8995C111.577 42.8512 112.558 45.4071 111.573 47.5761L89.4134 96.3339C88.4281 98.5019 85.8588 99.4436 83.7059 98.4259L75.4616 94.5287C72.4152 93.0886 69.0302 95.7343 67.883 98.9026C67.0924 101.086 65.7346 102.514 64.1404 103.401C58.863 106.34 51.3005 103.782 48.4864 98.437C46.9386 95.4972 47.5623 92.4585 49.0292 89.847C50.6045 87.0428 50.1138 82.97 47.1703 81.6736L35.9354 76.7252C33.8073 75.7878 32.8217 73.319 33.7192 71.1738L38.8345 58.948C39.488 57.3861 42.5899 57.4098 43.9191 58.4585C49.8378 63.1283 62.2867 60.3793 61.9361 50.133C61.6574 41.9858 54.9257 40.4077 49.5815 40.7772C48.1277 40.8777 46.9209 39.3375 47.5649 38.0303Z" fill="black"/>
<path d="M46.1649 35.4893L53.7577 20.0007C54.7634 17.9493 57.2065 17.0541 59.2994 17.9702L108.025 39.2967C110.203 40.2497 111.182 42.7983 110.202 44.9638L87.9538 94.1416C86.9698 96.3167 84.3926 97.2612 82.2362 96.237L74.0017 92.326C70.9583 90.8805 67.5662 93.5144 66.44 96.6898C65.6571 98.8972 64.3073 100.345 62.7195 101.25C57.4362 104.261 49.7879 101.664 47.0011 96.2593C45.4685 93.2869 46.1215 90.2137 47.6132 87.5781C49.1926 84.7875 48.6984 80.7341 45.766 79.4368L34.4803 74.4437C32.3586 73.505 31.3759 71.0429 32.2681 68.9012L37.4152 56.5465C38.0677 54.9804 41.1851 55.0047 42.516 56.0568C48.4358 60.7365 60.8711 57.9492 60.5334 47.6399C60.2647 39.4368 53.5343 37.8557 48.1887 38.2341C46.7344 38.337 45.5232 36.7983 46.1649 35.4893Z" fill="white" stroke="black" stroke-width="0.947747"/>
<path d="M70.4836 58.4657C70.342 57.528 69.3537 54.9759 69.9993 52.821C71.1864 48.8592 74.938 46.0945 79.0662 47.1764C84.2487 48.5347 84.3731 54.9148 82.4226 58.1885C81.8884 59.085 79.4017 60.6701 77.9911 61.1415C77.0948 61.441 75.5547 62.6039 76.1365 64.0145C77.2509 66.7161 84.6615 72.923 81.7363 75.531C79.3013 77.702 71.378 74.0931 68.5267 73.1515C66.1122 72.3542 55.0947 68.2765 55.4618 64.7541C56.1472 58.1778 66.1596 63.19 69.6704 61.2128C70.9009 60.5198 70.7743 60.3897 70.4836 58.4657Z" fill="black"/>
<path d="M65.3029 6.37333C85.0377 9.88066 98.1926 28.7221 94.6853 48.4569C91.178 68.1918 72.3366 81.3467 52.6017 77.8394C32.8669 74.332 19.7119 55.4906 23.2192 35.7558C26.7266 16.021 45.5681 2.86608 65.3029 6.37333ZM64.3217 12.6808C47.982 9.77694 32.3814 20.6691 29.4774 37.0089C26.5734 53.3487 37.4657 68.9491 53.8054 71.8532C70.1453 74.7572 85.7458 63.865 88.6498 47.5251C91.5536 31.1853 80.6615 15.5848 64.3217 12.6808Z" fill="white"/>
<path d="M1.34488 109.942C-4.58492 105.232 21.2497 81.6082 33.4373 67.1617C35.7433 69.2144 37.2344 70.5786 39.4099 72.0041C27.6655 89.7154 4.88562 112.755 1.34488 109.942Z" fill="white" stroke="black" stroke-width="0.947747"/>
<circle cx="58.868" cy="42.1475" r="35.8742" transform="rotate(10.0775 58.868 42.1475)" stroke="black" stroke-width="0.947747"/>
<path d="M65.9568 12.6431C81.7687 15.4532 92.1775 31.2868 89.3524 47.1828C86.5274 63.0788 71.0623 75.6951 55.2505 72.885" stroke="black" stroke-width="0.947747" stroke-linecap="round"/>
<path d="M39.4475 18.3912C31.6304 22.7494 20.997 43.1873 34.1758 59.9095" stroke="black" stroke-width="0.947747" stroke-linecap="round"/>
<path d="M58.3355 12.0964C55.4133 11.7975 51.2041 12.7578 46.9049 14.9428" stroke="black" stroke-width="0.947747" stroke-linecap="round"/>
</svg>
