<svg xmlns="http://www.w3.org/2000/svg" xmlns:xlink="http://www.w3.org/1999/xlink" width="16" height="16" viewBox="0 0 16 16"><defs><style>.a{fill:none;}.b{fill:#00aad2;}.c{clip-path:url(#a);}.d{fill:#fff;}</style><clipPath id="a"><rect class="a" width="14" height="14" transform="translate(-0.345 -0.21)"/></clipPath></defs><g transform="translate(0 -0.135)"><circle class="b" cx="8" cy="8" r="8" transform="translate(0 0.135)"/><g transform="translate(1.345 1.344)"><g class="c" transform="translate(0 0)"><path class="d" d="M12.612,13.636a16.24,16.24,0,0,1-1.86-.822,13.436,13.436,0,0,0,1.6-.708,11.312,11.312,0,0,0,.264,1.53M16.032,7.3c-.266-.034-.128.091-.2.442a5.465,5.465,0,0,1-2.8,3.338,16.141,16.141,0,0,1,.249-4.84c.275-1,.6-.813.2-1.022-.427-.22-.887.071-1.258.813A27.247,27.247,0,0,1,7.4,13.522a2.141,2.141,0,0,1-2.918.461c-.206-.174-.282.095-.026.37a2.412,2.412,0,0,0,3.387-.082A32.715,32.715,0,0,0,12.219,7.51a23.541,23.541,0,0,0,.063,3.971,11.464,11.464,0,0,1-1.964.749c-.388.1-.628.26-.635.439-.007.2.253.363.63.541.67.318,2.633,1.246,3.117,1.527.414.24.616.053.739-.207.16-.338-.279-.533-.7-.661a13.175,13.175,0,0,1-.382-2.179,7.143,7.143,0,0,0,2.547-2.454,4.7,4.7,0,0,0,.4-1.133,2.125,2.125,0,0,0,.048-.742s-.007-.054-.048-.059" transform="translate(-3.51 -3.943)"/></g></g></g></svg>