<svg width="123" height="80" viewBox="0 0 123 80" fill="none" xmlns="http://www.w3.org/2000/svg">
<rect y="41.3597" width="37.763" height="37.763" rx="2.25667" fill="black"/>
<path d="M18.4677 49.4515C24.5835 49.702 28.9112 55.2954 27.6721 61.3598C27.5568 61.924 27.107 62.9792 26.3522 64.0211C24.1736 67.0286 20.1313 67.2219 16.6192 66.679C15.9926 66.5822 15.2089 66.4041 14.4212 66.169C13.0054 67.3978 10.591 68.5406 8.27741 69.2275C7.84475 69.3559 8.14032 69.2442 9.48438 67.8164C10.4708 66.7684 11.376 65.792 11.5044 64.9068C11.4041 64.8364 11.3123 64.765 11.2304 64.6929C10.223 63.8046 8.84951 62.4998 8.5947 60.6765C7.69627 54.2475 11.8093 49.4515 18.4677 49.4515Z" stroke="white" stroke-linecap="round"/>
<path d="M20.5469 62.6672C16.3678 66.4199 19.3171 71.8064 24.7595 70.9651C25.1057 70.9116 25.5388 70.8132 25.9741 70.6833C26.7565 71.3624 28.0908 71.9939 29.3694 72.3735C29.6085 72.4445 29.4451 72.3827 28.7024 71.5937C28.1572 71.0145 27.657 70.4749 27.5861 69.9857C27.6415 69.9468 27.6922 69.9074 27.7374 69.8675C28.2942 69.3767 29.0532 68.6555 29.194 67.6479C29.8536 62.9282 24.1937 59.3926 20.5469 62.6672Z" stroke="white" stroke-linecap="round"/>
<rect x="0.5" y="0.500008" width="36.763" height="36.763" rx="1.75667" fill="white" stroke="black"/>
<rect x="42.2583" width="37.763" height="37.763" rx="2.25667" fill="black"/>
<rect x="85.0161" y="0.5" width="36.763" height="36.763" rx="1.75667" fill="white" stroke="black"/>
<rect x="42.7583" y="41.8597" width="36.763" height="36.763" rx="1.75667" fill="white" stroke="black"/>
<rect x="85.0161" y="41.8597" width="36.763" height="36.763" rx="1.75667" fill="white" stroke="black"/>
<path d="M103.862 53.9472V67.0646" stroke="black" stroke-linecap="round"/>
<path d="M110.222 60.3073L97.1047 60.3073" stroke="black" stroke-linecap="round"/>
<path d="M51.249 55.745H71.9287" stroke="black" stroke-linecap="round"/>
<path d="M51.249 60.241H71.9287" stroke="black" stroke-linecap="round"/>
<path d="M51.249 64.7364H71.9287" stroke="black" stroke-linecap="round"/>
<path d="M103.066 24.4386C104.019 21.3577 106.194 15.4832 107.635 12.6338C107.746 12.4132 113.297 23.1296 113.74 24.4386" stroke="black" stroke-linecap="round"/>
<path d="M104.872 19.5238C105.11 19.5238 105.59 19.5238 106.966 19.353C107.985 19.1823 109.653 18.8408 110.692 18.6223C111.73 18.4037 112.088 18.3183 112.456 18.2304" stroke="black" stroke-linecap="round"/>
<path d="M93.5078 24.439C94.1017 22.5199 95.4561 18.8605 96.3537 17.0856C96.4232 16.9481 99.881 23.6236 100.157 24.439" stroke="black" stroke-linecap="round"/>
<path d="M94.6333 21.377C94.7818 21.377 95.081 21.377 95.9381 21.2706C96.5726 21.1643 97.612 20.9516 98.2587 20.8154C98.9055 20.6793 99.1283 20.6261 99.3577 20.5713" stroke="black" stroke-linecap="round"/>
<path d="M12.6147 18.5851C12.6147 17.1053 12.0067 15.3308 10.7896 14.4134" stroke="black" stroke-linecap="round"/>
<path d="M16.0039 17.0201C16.0039 15.735 16.0039 14.3863 15.4824 12.5876" stroke="black" stroke-linecap="round"/>
<path d="M19.3931 17.0206C19.3931 16.8485 19.4791 16.5017 19.6955 15.9386C19.998 15.2893 20.2613 14.6766 20.3917 14.1564C20.436 13.8944 20.436 13.6363 20.436 13.3703" stroke="black" stroke-linecap="round"/>
<path d="M13.396 22.496C18.0923 22.928 22.1147 23.102 26.4327 23.5389" stroke="black" stroke-linecap="round"/>
<path d="M62.6382 15.385H74.6264" stroke="white" stroke-linecap="round"/>
<path d="M62.6382 18.8819H74.6264" stroke="white" stroke-linecap="round"/>
<path d="M62.6382 22.3775H74.6264" stroke="white" stroke-linecap="round"/>
<path d="M47.6533 22.625V15.1382C47.6533 14.7228 47.9901 14.386 48.4055 14.386H56.8913C57.3067 14.386 57.6435 14.7228 57.6435 15.1382V22.625C57.6435 23.0404 57.3067 23.3772 56.8913 23.3772H48.4055C47.9901 23.3772 47.6533 23.0404 47.6533 22.625Z" stroke="white"/>
<path d="M50.1514 18.8818L52.1494 21.3793L55.646 16.8837" stroke="white" stroke-linecap="round" stroke-linejoin="round"/>
</svg>
