<svg width="386" height="256" viewBox="0 0 386 256" fill="none" xmlns="http://www.w3.org/2000/svg">
<rect width="385.048" height="255.086" rx="9.44763" fill="#CDCDCD"/>
<path d="M145.499 94.3936H229.436C233.566 94.3936 236.915 97.7423 236.915 101.873V153.048C236.915 155.439 234.976 157.378 232.585 157.378H150.223C146.092 157.378 142.743 154.029 142.743 149.898V97.1494C142.743 95.6276 143.977 94.3936 145.499 94.3936Z" fill="black" stroke="black" stroke-width="0.787302"/>
<path d="M43.1494 94.3936H127.086C131.217 94.3936 134.565 97.7423 134.565 101.873V153.048C134.565 155.439 132.627 157.378 130.235 157.378H47.873C43.7423 157.378 40.3936 154.029 40.3936 149.898V97.1494C40.3936 95.6276 41.6276 94.3936 43.1494 94.3936Z" fill="black" stroke="black" stroke-width="0.787302"/>
<path d="M247.849 94.3936H331.785C335.916 94.3936 339.265 97.7423 339.265 101.873V153.048C339.265 155.439 337.326 157.378 334.935 157.378H252.572C248.442 157.378 245.093 154.029 245.093 149.898V97.1494C245.093 95.6276 246.327 94.3936 247.849 94.3936Z" fill="black" stroke="black" stroke-width="0.787302"/>
<rect x="40.3937" y="94.3937" width="89.7524" height="59.0477" rx="2.75556" fill="#FFFEFE" stroke="black" stroke-width="0.787302"/>
<rect x="142.743" y="94.3937" width="89.7524" height="59.0477" rx="2.75556" fill="#FFFEFE" stroke="black" stroke-width="0.787302"/>
<rect x="245.093" y="94.3937" width="89.7524" height="59.0477" rx="2.75556" fill="#FFFEFE" stroke="black" stroke-width="0.787302"/>
</svg>
