<svg width="386" height="256" viewBox="0 0 386 256" fill="none" xmlns="http://www.w3.org/2000/svg">
<rect width="385.048" height="255.086" rx="9.44763" fill="#CDCDCD"/>
<path d="M99 59.2988C99 55.8203 101.82 53.0004 105.298 53.0004H278.713C282.579 53.0004 285.713 56.1344 285.713 60.0004V197.459C285.713 200.068 283.598 202.183 280.989 202.183H105.298C101.82 202.183 99 199.363 99 195.884V59.2988Z" fill="black"/>
<path d="M277.519 53.4487C279.452 53.4487 281.019 55.0157 281.019 56.9487V79.2778C281.019 81.2108 279.452 82.7778 277.519 82.7778H102.643C100.71 82.7778 99.1426 81.2108 99.1426 79.2778V56.9487C99.1426 55.0157 100.71 53.4487 102.643 53.4487H277.519Z" fill="white" stroke="black"/>
<rect width="75.8813" height="5.14457" rx="2.57229" transform="matrix(-1 0 0 1 191.213 65.7803)" fill="black"/>
<path d="M266.238 65.3013L261.275 71.3537L255.985 65.3013" stroke="black" stroke-linecap="round" stroke-linejoin="round"/>
<path d="M99.6426 83.3472H280.519V111.676H99.6426V83.3472Z" fill="white"/>
<path d="M99.6426 111.676H280.519V140.005H99.6426V111.676Z" fill="white"/>
<path d="M99.6426 140.005H280.519V168.334H99.6426V140.005Z" fill="white"/>
<path d="M104.109 145.73C104.109 144.074 105.453 142.73 107.109 142.73H273.018C274.675 142.73 276.018 144.074 276.018 145.73V162.609C276.018 164.266 274.675 165.609 273.018 165.609H107.109C105.453 165.609 104.109 164.266 104.109 162.609V145.73Z" fill="#D9D9D9"/>
<path d="M99.6426 168.334H280.519V196.664H99.6426V168.334Z" fill="white"/>
<rect width="107.884" height="5.14457" rx="2.57229" transform="matrix(-1 0 0 1 223.215 94.9395)" fill="#D9D9D9"/>
<rect width="64.265" height="5.14457" rx="2.57229" transform="matrix(-1 0 0 1 179.596 179.927)" fill="#DCDCDC"/>
<rect width="84.7914" height="5.14457" rx="2.57229" transform="matrix(-1 0 0 1 200.123 123.269)" fill="#D9D9D9"/>
<rect width="100.614" height="5.14457" rx="2.57229" transform="matrix(-1 0 0 1 215.945 151.598)" fill="white"/>
<path d="M113.518 111.619H265.755" stroke="#D9D9D9" stroke-linecap="round" stroke-linejoin="round"/>
</svg>
