<svg width="386" height="256" viewBox="0 0 386 256" fill="none" xmlns="http://www.w3.org/2000/svg">
<rect width="385.048" height="255.086" rx="9.44763" fill="#CDCDCD"/>
<path d="M76 39.5H304.57C309.817 39.5 314.07 43.7533 314.07 49V205C314.07 208.038 311.608 210.5 308.57 210.5H80C74.7533 210.5 70.5 206.247 70.5 201V45C70.5 41.9624 72.9624 39.5 76 39.5Z" fill="black" stroke="black"/>
<rect x="70.5" y="39.5" width="237.07" height="164" rx="5.5" fill="white" stroke="black"/>
<path d="M76 39.5H302.07C305.108 39.5 307.57 41.9624 307.57 45V68H70.5V45C70.5 41.9624 72.9624 39.5 76 39.5Z" fill="#D9D9D9" stroke="black"/>
<path d="M115.75 68V204M164.184 68V204M210.816 68V204M259.25 68V204" stroke="black"/>
<path d="M71 100.5H307.5" stroke="black" stroke-linecap="round"/>
<path d="M71 171.5H307.5" stroke="black" stroke-linecap="round"/>
<path d="M71 136H307.5" stroke="black" stroke-linecap="round"/>
</svg>
