<svg width="752" height="280" viewBox="0 0 752 280" fill="none" xmlns="http://www.w3.org/2000/svg">
<path d="M32.53 82.562H34.87V95H32.53V82.562ZM37.3744 95V88.088C37.3744 87.296 37.3744 86.45 37.3564 85.748H39.5344C39.5704 86 39.6064 86.756 39.6064 87.044C39.9484 86.396 40.7044 85.532 42.3784 85.532C44.1964 85.532 45.4564 86.738 45.4564 89.096V95H43.2064V89.366C43.2064 88.196 42.7924 87.386 41.5684 87.386C40.2724 87.386 39.6064 88.232 39.6064 89.942V95H37.3744ZM52.5661 95.216C51.1981 95.216 50.4781 94.694 50.1001 94.082V98.582H47.8681V87.998C47.8681 87.242 47.8681 86.486 47.8501 85.748H50.0281C50.0641 86.018 50.1001 86.594 50.1001 87.008C50.5321 86.252 51.3961 85.532 52.9081 85.532C54.9961 85.532 56.5981 87.296 56.5981 90.14C56.5981 93.434 54.7981 95.216 52.5661 95.216ZM52.0981 93.416C53.5741 93.416 54.3121 92.246 54.3121 90.23C54.3121 88.448 53.5561 87.368 52.2241 87.368C50.6041 87.368 50.0101 88.394 50.0101 90.392C50.0101 92.3 50.5321 93.416 52.0981 93.416ZM66.3701 85.748V92.318C66.3701 93.218 66.3701 94.28 66.3881 95H64.1921C64.1561 94.766 64.1381 94.244 64.1201 93.83C63.6161 94.802 62.7701 95.216 61.4921 95.216C59.7101 95.216 58.4141 94.208 58.4141 91.796V85.748H60.6461V91.346C60.6461 92.426 60.9881 93.38 62.2301 93.38C63.5801 93.38 64.1201 92.642 64.1201 90.644V85.748H66.3701ZM67.9719 87.476V85.748H69.4659V83.174H71.6979V85.748H73.5879V87.476H71.6979V92.318C71.6979 93.092 71.9139 93.434 72.7059 93.434C72.8679 93.434 73.1379 93.434 73.3539 93.38V94.964C72.8859 95.126 72.2379 95.126 71.7519 95.126C70.0599 95.126 69.4659 94.244 69.4659 92.66V87.476H67.9719ZM79.9734 95V82.562H82.3134V93.074H88.6134L88.3254 95H79.9734ZM97.6474 88.682V92.75C97.6474 93.614 97.7194 94.766 97.7734 95H95.6314C95.5594 94.82 95.5054 94.352 95.5054 94.01C95.1634 94.55 94.4974 95.216 92.8234 95.216C90.5914 95.216 89.6554 93.776 89.6554 92.354C89.6554 90.248 91.3294 89.294 94.0654 89.294C94.5694 89.294 95.1454 89.294 95.4694 89.294V88.646C95.4694 87.944 95.2174 87.17 93.8494 87.17C92.6074 87.17 92.3734 87.746 92.2294 88.43H90.0874C90.2314 86.9 91.1674 85.532 93.9214 85.532C96.3334 85.55 97.6474 86.504 97.6474 88.682ZM95.4694 90.95V90.698C95.2354 90.698 94.6594 90.698 94.2814 90.698C92.6254 90.698 91.9234 91.184 91.9234 92.21C91.9234 92.984 92.4094 93.596 93.3994 93.596C95.2354 93.596 95.4694 92.336 95.4694 90.95ZM100.11 91.958V81.842H102.36V86.846C102.756 86.198 103.548 85.532 105.114 85.532C107.562 85.532 108.876 87.566 108.876 90.212C108.876 92.912 107.508 95.216 104.862 95.216C103.44 95.216 102.792 94.766 102.324 94.01C102.324 94.37 102.288 94.766 102.252 95H100.092C100.11 93.992 100.11 92.966 100.11 91.958ZM104.412 93.416C105.834 93.416 106.608 92.174 106.608 90.248C106.608 88.556 105.924 87.35 104.466 87.35C102.828 87.35 102.252 88.43 102.252 90.428C102.252 92.102 102.756 93.416 104.412 93.416ZM118.771 90.842H112.543C112.543 92.246 113.245 93.452 114.613 93.452C115.819 93.452 116.179 92.912 116.431 92.3H118.681C118.339 93.452 117.331 95.216 114.559 95.216C111.553 95.216 110.275 92.912 110.275 90.5C110.275 87.656 111.733 85.532 114.649 85.532C117.763 85.532 118.807 87.872 118.807 90.068C118.807 90.374 118.807 90.59 118.771 90.842ZM112.597 89.42H116.557C116.539 88.196 115.999 87.188 114.649 87.188C113.281 87.188 112.705 88.124 112.597 89.42ZM122.909 95H120.659V81.842H122.909V95Z" fill="black"/>
<mask id="path-2-inside-1_62050_143367" fill="white">
<path d="M31 123C31 118.582 34.5817 115 39 115H623C627.418 115 631 118.582 631 123V163C631 167.418 627.418 171 623 171H39C34.5817 171 31 167.418 31 163V123Z"/>
</mask>
<path d="M31 123C31 118.582 34.5817 115 39 115H623C627.418 115 631 118.582 631 123V163C631 167.418 627.418 171 623 171H39C34.5817 171 31 167.418 31 163V123Z" fill="white"/>
<path d="M39 115V116H623V115V114H39V115ZM631 123H630V163H631H632V123H631ZM623 171V170H39V171V172H623V171ZM31 163H32V123H31H30V163H31ZM39 171V170C35.134 170 32 166.866 32 163H31H30C30 167.971 34.0294 172 39 172V171ZM631 163H630C630 166.866 626.866 170 623 170V171V172C627.971 172 632 167.971 632 163H631ZM623 115V116C626.866 116 630 119.134 630 123H631H632C632 118.029 627.971 114 623 114V115ZM39 115V114C34.0294 114 30 118.029 30 123H31H32C32 119.134 35.134 116 39 116V115Z" fill="#808080" mask="url(#path-2-inside-1_62050_143367)"/>
<path d="M34.248 196V187.376H31.098V186.27H38.7V187.376H35.55V196H34.248ZM39.788 185.724H41.02V189.952C41.384 189.336 42.028 188.734 43.232 188.734C44.366 188.734 45.626 189.364 45.626 191.478V196H44.408V191.674C44.408 190.47 43.89 189.798 42.868 189.798C41.58 189.798 41.02 190.652 41.02 192.122V196H39.788V185.724ZM47.7176 196V188.902H48.9496V196H47.7176ZM47.7176 187.264V185.724H48.9496V187.264H47.7176ZM50.3555 193.97H51.5735C51.7695 194.754 52.3435 195.202 53.3095 195.202C54.3595 195.202 54.7655 194.754 54.7655 194.11C54.7655 193.452 54.4435 193.144 53.0855 192.808C51.0555 192.318 50.6355 191.702 50.6355 190.736C50.6355 189.728 51.3635 188.734 53.1975 188.734C55.0175 188.734 55.7735 189.798 55.8715 190.792H54.6815C54.5835 190.33 54.2335 189.686 53.1415 189.686C52.1475 189.686 51.8535 190.176 51.8535 190.638C51.8535 191.17 52.1475 191.422 53.4495 191.744C55.5915 192.248 56.0255 192.962 56.0255 194.026C56.0255 195.272 55.0455 196.168 53.2675 196.168C51.4335 196.168 50.5375 195.244 50.3555 193.97ZM61.1298 196V188.902H62.3618V196H61.1298ZM61.1298 187.264V185.724H62.3618V187.264H61.1298ZM63.7677 193.97H64.9857C65.1817 194.754 65.7557 195.202 66.7217 195.202C67.7717 195.202 68.1777 194.754 68.1777 194.11C68.1777 193.452 67.8557 193.144 66.4977 192.808C64.4677 192.318 64.0477 191.702 64.0477 190.736C64.0477 189.728 64.7757 188.734 66.6097 188.734C68.4297 188.734 69.1857 189.798 69.2837 190.792H68.0937C67.9957 190.33 67.6457 189.686 66.5537 189.686C65.5597 189.686 65.2657 190.176 65.2657 190.638C65.2657 191.17 65.5597 191.422 66.8617 191.744C69.0037 192.248 69.4377 192.962 69.4377 194.026C69.4377 195.272 68.4577 196.168 66.6797 196.168C64.8457 196.168 63.9497 195.244 63.7677 193.97ZM73.9259 193.97H75.1439C75.3399 194.754 75.9139 195.202 76.8799 195.202C77.9299 195.202 78.3359 194.754 78.3359 194.11C78.3359 193.452 78.0139 193.144 76.6559 192.808C74.6259 192.318 74.2059 191.702 74.2059 190.736C74.2059 189.728 74.9339 188.734 76.7679 188.734C78.5879 188.734 79.3439 189.798 79.4419 190.792H78.2519C78.1539 190.33 77.8039 189.686 76.7119 189.686C75.7179 189.686 75.4239 190.176 75.4239 190.638C75.4239 191.17 75.7179 191.422 77.0199 191.744C79.1619 192.248 79.5959 192.962 79.5959 194.026C79.5959 195.272 78.6159 196.168 76.8379 196.168C75.0039 196.168 74.1079 195.244 73.9259 193.97ZM84.0147 188.734C85.9887 188.734 87.2767 190.218 87.2767 192.444C87.2767 194.488 86.1007 196.168 83.9307 196.168C81.9007 196.168 80.6687 194.6 80.6687 192.472C80.6687 190.372 81.8727 188.734 84.0147 188.734ZM83.9587 189.77C82.6287 189.77 81.9287 190.834 81.9287 192.458C81.9287 194.012 82.7127 195.146 83.9867 195.146C85.2887 195.146 86.0167 194.068 86.0167 192.458C86.0167 190.862 85.2887 189.77 83.9587 189.77ZM88.87 196V190.736C88.87 190.12 88.87 189.49 88.856 188.902H90.046C90.06 189.126 90.102 189.644 90.088 189.994C90.41 189.364 91.04 188.734 92.16 188.734C93.168 188.734 93.854 189.252 94.12 190.008C94.498 189.336 95.17 188.734 96.388 188.734C97.536 188.734 98.628 189.42 98.628 191.338V196H97.41V191.492C97.41 190.666 97.116 189.798 96.01 189.798C94.862 189.798 94.358 190.666 94.358 191.926V196H93.154V191.534C93.154 190.61 92.888 189.798 91.782 189.798C90.634 189.798 90.088 190.722 90.088 192.08V196H88.87ZM106.45 192.682H101.452C101.452 194.124 102.18 195.146 103.384 195.146C104.518 195.146 104.882 194.572 105.106 194.054H106.338C106.058 194.964 105.302 196.168 103.356 196.168C101.116 196.168 100.206 194.362 100.206 192.528C100.206 190.428 101.27 188.734 103.426 188.734C105.722 188.734 106.478 190.582 106.478 192.094C106.478 192.304 106.478 192.486 106.45 192.682ZM101.494 191.814H105.232C105.218 190.652 104.63 189.714 103.412 189.714C102.166 189.714 101.62 190.582 101.494 191.814ZM111.524 185.724H112.756V189.952C113.12 189.336 113.764 188.734 114.968 188.734C116.102 188.734 117.362 189.364 117.362 191.478V196H116.144V191.674C116.144 190.47 115.626 189.798 114.604 189.798C113.316 189.798 112.756 190.652 112.756 192.122V196H111.524V185.724ZM125.194 192.682H120.196C120.196 194.124 120.924 195.146 122.128 195.146C123.262 195.146 123.626 194.572 123.85 194.054H125.082C124.802 194.964 124.046 196.168 122.1 196.168C119.86 196.168 118.95 194.362 118.95 192.528C118.95 190.428 120.014 188.734 122.17 188.734C124.466 188.734 125.222 190.582 125.222 192.094C125.222 192.304 125.222 192.486 125.194 192.682ZM120.238 191.814H123.976C123.962 190.652 123.374 189.714 122.156 189.714C120.91 189.714 120.364 190.582 120.238 191.814ZM128.055 196H126.823V185.724H128.055V196ZM133.435 196.168C132.287 196.168 131.685 195.692 131.377 195.132V198.8H130.145V190.638C130.145 190.064 130.145 189.462 130.131 188.902H131.335C131.363 189.14 131.377 189.574 131.377 190.022C131.755 189.308 132.483 188.734 133.687 188.734C135.339 188.734 136.529 190.12 136.529 192.276C136.529 194.81 135.157 196.168 133.435 196.168ZM133.267 195.146C134.569 195.146 135.269 194.068 135.269 192.318C135.269 190.82 134.583 189.784 133.365 189.784C131.895 189.784 131.321 190.722 131.321 192.444C131.321 194.124 131.797 195.146 133.267 195.146ZM143.952 192.682H138.954C138.954 194.124 139.682 195.146 140.886 195.146C142.02 195.146 142.384 194.572 142.608 194.054H143.84C143.56 194.964 142.804 196.168 140.858 196.168C138.618 196.168 137.708 194.362 137.708 192.528C137.708 190.428 138.772 188.734 140.928 188.734C143.224 188.734 143.98 190.582 143.98 192.094C143.98 192.304 143.98 192.486 143.952 192.682ZM138.996 191.814H142.734C142.72 190.652 142.132 189.714 140.914 189.714C139.668 189.714 139.122 190.582 138.996 191.814ZM145.554 196V190.834C145.554 189.84 145.554 189.28 145.54 188.902H146.744C146.772 189.112 146.786 189.658 146.786 190.358C147.15 189.392 148.004 188.776 149.18 188.734V189.966C147.724 190.008 146.786 190.764 146.786 192.556V196H145.554ZM153.106 189.91V188.902H154.338V186.816H155.57V188.902H157.124V189.91H155.57V194.068C155.57 194.754 155.738 195.104 156.368 195.104C156.55 195.104 156.802 195.104 156.998 195.048V195.972C156.69 196.084 156.27 196.098 155.934 196.098C154.828 196.098 154.338 195.538 154.338 194.348V189.91H153.106ZM164.131 192.682H159.133C159.133 194.124 159.861 195.146 161.065 195.146C162.199 195.146 162.563 194.572 162.787 194.054H164.019C163.739 194.964 162.983 196.168 161.037 196.168C158.797 196.168 157.887 194.362 157.887 192.528C157.887 190.428 158.951 188.734 161.107 188.734C163.403 188.734 164.159 190.582 164.159 192.094C164.159 192.304 164.159 192.486 164.131 192.682ZM159.175 191.814H162.913C162.899 190.652 162.311 189.714 161.093 189.714C159.847 189.714 159.301 190.582 159.175 191.814ZM164.836 188.902H166.222C167.216 190.484 167.636 191.156 167.902 191.562H167.916C168.21 191.1 168.812 190.176 169.652 188.902H171.024L168.616 192.318L171.038 196H169.624C168.77 194.614 168.168 193.662 167.874 193.2H167.86C167.622 193.592 167.048 194.544 166.124 196H164.766L167.146 192.458L164.836 188.902ZM171.591 189.91V188.902H172.823V186.816H174.055V188.902H175.609V189.91H174.055V194.068C174.055 194.754 174.223 195.104 174.853 195.104C175.035 195.104 175.287 195.104 175.483 195.048V195.972C175.175 196.084 174.755 196.098 174.419 196.098C173.313 196.098 172.823 195.538 172.823 194.348V189.91H171.591Z" fill="#353535"/>
<rect x="39" width="30" height="30" rx="15" fill="#377FEA"/>
<path d="M54.96 20H53.466V9.722C53.052 9.992 51.882 10.334 51.396 10.424V9.236C52.296 9.038 53.304 8.516 53.898 7.904H54.96V20Z" fill="white"/>
<path d="M54 30L54 76.8088" stroke="#377FEA"/>
<rect x="72" y="279.852" width="28.3413" height="27.7969" rx="13.8984" transform="rotate(-179.918 72 279.852)" fill="#377FEA"/>
<path d="M55.4325 263.125L54.0647 263.147C54.236 261.506 55.2183 259.924 57.63 259.884C60.0056 259.846 61.0901 261.214 61.1174 262.888C61.1409 264.328 60.272 265.134 59.5568 265.434L59.5573 265.47C60.6431 265.812 61.6839 266.713 61.7124 268.459C61.7429 270.331 60.6753 272.202 57.7597 272.25C55.1681 272.292 54.0621 270.708 53.8728 269.037L55.3486 269.013C55.6011 270.143 56.3 271.049 57.8118 271.025C59.6475 270.995 60.1855 269.762 60.1652 268.52C60.1364 266.756 59.0109 266.181 57.4811 266.206L56.6712 266.219L56.6515 265.013L57.4074 265.001C58.8832 264.977 59.6474 264.37 59.6248 262.984C59.6045 261.742 58.8195 261.071 57.5956 261.091C56.3178 261.112 55.6637 261.843 55.4325 263.125Z" fill="white"/>
<path d="M57.8691 252.034L57.9394 203.022" stroke="#377FEA"/>
<rect x="716.809" y="130" width="28.3413" height="27.7969" rx="13.8984" transform="rotate(89.9081 716.809 130)" fill="#377FEA"/>
<path d="M706.33 148.831L698.806 148.809L698.806 148.719C698.81 147.441 699.5 145.571 702.224 143.365C703.956 141.93 704.642 141.374 704.646 139.97C704.649 138.89 704.076 137.863 702.636 137.858C701.16 137.854 700.546 138.788 700.361 140.228L698.921 140.224C699.053 138.316 700.12 136.609 702.694 136.617C705.07 136.624 706.2 138.157 706.194 139.939C706.189 141.703 705.341 142.582 703.229 144.286C701.768 145.47 700.919 146.601 700.61 147.519L706.532 147.536L706.33 148.831Z" fill="white"/>
<path d="M689.035 144.215L640.023 144.293" stroke="#377FEA"/>
</svg>
