<svg width="1512" height="583" viewBox="0 0 1512 583" fill="none" xmlns="http://www.w3.org/2000/svg">
<rect width="286.25" height="286.25" fill="white"/>
<path d="M57.0507 185.954C53.7756 196.078 49.8876 201.01 35.7812 207.223C47.3997 211.66 51.3731 216.061 57.0507 228.493C62.5211 217.841 66.2391 212.885 78.3202 207.223C65.5775 203.465 61.156 199.091 57.0507 185.954Z" stroke="white" stroke-width="1.80407"/>
<path d="M57.0507 185.954C53.7756 196.078 49.8876 201.01 35.7812 207.223C47.3997 211.66 51.3731 216.061 57.0507 228.493C62.5211 217.841 66.2391 212.885 78.3202 207.223C65.5775 203.465 61.156 199.091 57.0507 185.954Z" stroke="black" stroke-width="1.80407"/>
<path d="M230.289 78.0806C229.596 84.8556 227.823 88.4632 219.828 94.2419C227.693 95.4619 230.77 97.6836 235.989 104.703C237.985 97.304 239.648 93.7041 246.45 88.5417C237.972 87.897 234.618 85.7522 230.289 78.0806Z" fill="white"/>
<path d="M230.289 78.0806C229.596 84.8556 227.823 88.4632 219.828 94.2419C227.693 95.4619 230.77 97.6836 235.989 104.703C237.985 97.304 239.648 93.7041 246.45 88.5417C237.972 87.897 234.618 85.7522 230.289 78.0806Z" stroke="white" stroke-width="1.80407"/>
<path d="M230.289 78.0806C229.596 84.8556 227.823 88.4632 219.828 94.2419C227.693 95.4619 230.77 97.6836 235.989 104.703C237.985 97.304 239.648 93.7041 246.45 88.5417C237.972 87.897 234.618 85.7522 230.289 78.0806Z" stroke="black" stroke-width="1.80407"/>
<path d="M54.7331 57.2548C54.2887 61.5995 53.1521 63.9129 48.0247 67.6186C53.0688 68.401 55.0416 69.8257 58.3885 74.327C59.6686 69.5822 60.7349 67.2737 65.0969 63.9633C59.6599 63.5498 57.5096 62.1744 54.7331 57.2548Z" fill="white"/>
<path d="M54.7331 57.2548C54.2887 61.5995 53.1521 63.9129 48.0247 67.6186C53.0688 68.401 55.0416 69.8257 58.3885 74.327C59.6686 69.5822 60.7349 67.2737 65.0969 63.9633C59.6599 63.5498 57.5096 62.1744 54.7331 57.2548Z" stroke="white" stroke-width="1.80407"/>
<path d="M54.7331 57.2548C54.2887 61.5995 53.1521 63.9129 48.0247 67.6186C53.0688 68.401 55.0416 69.8257 58.3885 74.327C59.6686 69.5822 60.7349 67.2737 65.0969 63.9633C59.6599 63.5498 57.5096 62.1744 54.7331 57.2548Z" stroke="black" stroke-width="1.80407"/>
<ellipse cx="138.998" cy="133.573" rx="70.6897" ry="73.8175" fill="white" stroke="black" stroke-width="1.80407"/>
<path d="M132.863 160.931L107.094 137.159L130.409 144.666L170.903 102.127L132.863 160.931Z" fill="black"/>
<path d="M132.863 160.931L107.094 137.159L130.409 144.666L170.903 102.127L132.863 160.931Z" stroke="white" stroke-width="1.80407" stroke-linejoin="round"/>
<path d="M132.863 160.931L107.094 137.159L130.409 144.666L170.903 102.127L132.863 160.931Z" stroke="black" stroke-width="1.80407" stroke-linejoin="round"/>
<ellipse cx="139.625" cy="133.573" rx="56.3015" ry="58.8038" stroke="black" stroke-width="1.80407"/>
<path d="M125.868 205.666C128.672 205.985 131.522 206.149 134.411 206.149C175.522 206.149 208.854 172.995 208.854 132.09C208.854 97.8893 186.939 69.5222 155.27 61.0074C154.143 60.7042 151.414 60.6329 150.266 60.3818C187.35 64.6007 216.361 95.3082 216.361 133.336C216.361 174.24 183.029 207.394 141.918 207.394C136.408 207.394 131.038 206.796 125.868 205.666Z" fill="black"/>
<rect x="300.562" width="286.25" height="286.25" fill="white"/>
<path d="M412.905 219.285C371.609 180.817 365.528 108.501 367.649 77.1515L468.06 65.8374C459.733 99.1433 464.292 125.479 473.266 144.788L495.103 184.876L412.905 219.285Z" fill="white" stroke="black" stroke-width="1.33445"/>
<path d="M422.097 195.085C424.849 193.043 430.251 188.101 429.839 184.664C429.325 180.368 426.481 181.361 427.761 187.499C429.041 193.637 431.919 194.638 434.169 188.965C434.964 189.733 436.59 190.702 436.727 188.432C436.898 185.594 438.749 190.813 439.285 187.898C439.821 184.984 446.171 178.857 441.9 182.149C438.483 184.783 446.08 182.078 450.305 180.396" stroke="black" stroke-width="1.33445" stroke-linecap="round"/>
<path d="M378.878 165.684C385.032 183.113 393.875 199.942 406.361 213.557L392.562 219.439L391.532 219.878L391.231 218.8C387.232 204.449 380.102 181.998 371.716 161.309C367.523 150.964 363.022 141.079 358.451 132.873C353.866 124.641 349.261 118.197 344.888 114.643L343.5 113.515L345.196 112.95L356.102 109.314L378.878 165.684Z" fill="black"/>
<path d="M390.721 135.643C390.216 136.005 388.676 130.423 389.306 127.865L397.085 125.743C396.973 128.882 397.271 130.614 398.499 133.522C396.378 134.7 390.721 135.643 390.721 135.643Z" stroke="black" stroke-width="1.33445" stroke-linecap="round"/>
<path d="M387.337 117.257C386.832 117.619 385.293 112.038 385.923 109.479L393.701 107.358C393.589 110.497 393.887 112.229 395.115 115.136C392.994 116.315 387.337 117.257 387.337 117.257Z" stroke="black" stroke-width="1.33445" stroke-linecap="round"/>
<path d="M395.826 152.614C395.322 152.976 393.782 147.394 394.412 144.836L402.191 142.714C402.079 145.853 402.377 147.585 403.605 150.493C401.483 151.671 395.826 152.614 395.826 152.614Z" stroke="black" stroke-width="1.33445" stroke-linecap="round"/>
<path d="M401.746 168.325C401.26 168.713 399.435 163.218 399.932 160.63L407.591 158.11C407.641 161.251 408.028 162.965 409.405 165.805C407.347 167.092 401.746 168.325 401.746 168.325Z" stroke="black" stroke-width="1.33445" stroke-linecap="round"/>
<path d="M402.75 127.866L447.299 115.845M407.7 145.545L452.249 132.109M412.649 160.394L456.492 145.545M399.214 110.188L444.47 99.5811" stroke="black" stroke-width="1.33445" stroke-linecap="round"/>
<path d="M367.089 95.428L367.756 95.4145L367.74 94.6253L366.965 94.7724L367.089 95.428ZM373.782 147.958L373.133 148.114V148.114L373.782 147.958ZM379.881 168.709L379.262 168.959L380.51 168.487L379.881 168.709ZM351.918 99.5002L352.537 99.2503L352.537 99.2503L351.918 99.5002ZM351.47 98.3909L351.346 97.7353L350.546 97.8866L350.851 98.6408L351.47 98.3909ZM352.646 98.1682L352.77 98.8238L352.77 98.8237L352.646 98.1682ZM367.089 95.428L366.422 95.4414C366.722 110.323 368.556 128.991 373.133 148.114L373.782 147.958L374.431 147.803C369.879 128.788 368.055 110.216 367.756 95.4145L367.089 95.428ZM373.782 147.958L373.133 148.114C374.791 155.038 376.811 162.031 379.252 168.932L379.881 168.709L380.51 168.487C378.087 161.635 376.079 154.687 374.431 147.803L373.782 147.958ZM379.881 168.709L380.5 168.459L352.537 99.2503L351.918 99.5002L351.299 99.7502L379.262 168.959L379.881 168.709ZM351.918 99.5002L352.537 99.2503L352.088 98.1409L351.47 98.3909L350.851 98.6408L351.299 99.7502L351.918 99.5002ZM351.47 98.3909L351.594 99.0464L352.77 98.8238L352.646 98.1682L352.521 97.5126L351.346 97.7353L351.47 98.3909ZM352.646 98.1682L352.77 98.8237L367.213 96.0835L367.089 95.428L366.965 94.7724L352.521 97.5127L352.646 98.1682Z" fill="black"/>
<path d="M388.387 111.896L389.766 112.999L391.144 110.242" stroke="black" stroke-width="1.33445" stroke-linecap="round"/>
<path d="M402.171 163.455L403.825 164.007L404.928 161.25" stroke="black" stroke-width="1.33445" stroke-linecap="round"/>
<path d="M396.656 148.153L398.724 149.532L400.103 145.396" stroke="black" stroke-width="1.33445" stroke-linecap="round"/>
<path d="M391.832 131.611L393.9 132.3L394.589 128.853" stroke="black" stroke-width="1.33445" stroke-linecap="round"/>
<path d="M489.945 138.623C491.655 138.553 492.572 138.402 494.211 138.599L463.316 162.831L472.882 145.125L472.904 145.079L472.934 145.039L473.088 144.839C474.795 142.722 480.203 139.023 489.945 138.623Z" fill="white" stroke="black" stroke-width="1.33445"/>
<path d="M449.995 180.367L463.799 176.944L466.342 174.946L479.063 164.648L493.827 152.864L519.63 132.798C521.99 130.962 522.48 127.591 520.741 125.16C518.896 122.579 515.271 122.059 512.774 124.016L488.756 142.84L460.889 165.253L457.296 168.587L449.995 180.367Z" fill="white" stroke="black" stroke-width="1.33445"/>
<path d="M463.199 162.942C462.002 163.428 461.297 164.554 460.743 165.476C459.778 167.228 460.642 169.036 461.483 170.363C462.387 171.728 463.568 172.856 464.877 173.784C467.495 175.631 470.75 176.674 473.992 176.376C479.789 176 485.583 178.409 490.51 181.475C496.24 186.371 503.044 190.548 510.735 191.295C518.177 192.134 526.147 188.489 529.832 181.829C531.061 180.059 531.959 177.867 531.946 175.347C531.932 172.652 530.879 169.699 528.297 166.6C523.18 160.457 518.195 154.01 514.743 149.421C512.425 146.338 512.039 144.903 507.184 142.583C501.866 146.721 490.849 155.293 487.431 157.953C487.954 158.558 488.808 159.523 489.339 160.138C489.584 160.591 489.856 161.031 490.156 161.454C491.083 162.555 491.259 163.938 490.075 164.713C489 165.486 487.523 165.847 486.133 165.951C481.833 165.017 477.562 164.092 473.261 163.322C471.058 162.942 468.919 162.579 466.648 162.484C465.52 162.459 464.362 162.46 463.199 162.942Z" fill="white" stroke="black" stroke-width="1.33445"/>
<path d="M525.839 199.862L537.153 166.627H539.982C538.732 184.909 538.73 194.958 544.225 210.469L525.839 199.862Z" fill="black" stroke="black" stroke-width="1.33445" stroke-linecap="round"/>
<path fill-rule="evenodd" clip-rule="evenodd" d="M525.401 199.171C522.364 195.889 521.413 191.103 523.096 186.845L528.256 173.787C529.727 170.063 533.114 167.72 536.795 167.364L525.401 199.171Z" fill="#FFFEFE"/>
<path d="M525.401 199.171L524.911 199.625L525.658 200.432L526.029 199.396L525.401 199.171ZM523.096 186.845L523.716 187.09L523.716 187.09L523.096 186.845ZM528.256 173.787L527.635 173.541L527.635 173.541L528.256 173.787ZM536.795 167.364L537.423 167.589L537.778 166.598L536.73 166.7L536.795 167.364ZM525.401 199.171L525.891 198.718C523.026 195.621 522.129 191.107 523.716 187.09L523.096 186.845L522.475 186.6C520.697 191.099 521.702 196.156 524.911 199.625L525.401 199.171ZM523.096 186.845L523.716 187.09L528.876 174.032L528.256 173.787L527.635 173.541L522.475 186.6L523.096 186.845ZM528.256 173.787L528.876 174.032C530.251 170.553 533.415 168.361 536.859 168.028L536.795 167.364L536.73 166.7C532.812 167.079 529.203 169.574 527.635 173.541L528.256 173.787ZM536.795 167.364L536.167 167.139L524.773 198.946L525.401 199.171L526.029 199.396L537.423 167.589L536.795 167.364Z" fill="black"/>
<circle cx="533.615" cy="197.035" r="2.12139" fill="white"/>
<rect x="601.125" width="286.25" height="286.25" fill="white"/>
<path d="M805.502 181.592L747.294 230.016C746.248 230.886 744.81 231.115 743.545 230.612L714.505 219.066C691.734 210.013 669.65 199.318 648.428 187.065C647.117 186.308 647.07 184.433 648.341 183.611L700.321 150.032C700.923 149.643 701.664 149.534 702.353 149.733L805.054 179.45C806.009 179.726 806.266 180.956 805.502 181.592Z" fill="white" stroke="black" stroke-width="1.23851"/>
<path d="M771.078 180.548L703.221 158.902C702.487 158.668 701.686 158.789 701.053 159.229L674.569 177.654C673.807 178.184 673.878 179.333 674.699 179.766L683.839 184.587C698.391 192.262 713.531 198.765 729.116 204.035L741.381 208.182C742.23 208.469 743.169 208.275 743.835 207.673L771.532 182.647C772.241 182.006 771.988 180.838 771.078 180.548Z" stroke="black" stroke-width="1.23851"/>
<path d="M709.426 74.4512L702.506 149.42L804.477 179.346C805.95 179.778 807.457 178.781 807.635 177.257L818.098 87.8016C818.42 85.0505 816.424 82.57 813.667 82.2963L712.138 72.214C710.77 72.0782 709.553 73.0823 709.426 74.4512Z" fill="white" stroke="black" stroke-width="1.23851"/>
<path d="M716.412 136.165L721.839 88.0744C721.992 86.7242 723.203 85.7488 724.555 85.8882L800.234 93.6951C801.612 93.8372 802.605 95.0816 802.439 96.4568L794.996 157.924C794.812 159.438 793.318 160.429 791.852 160.007L718.189 138.824C717.028 138.49 716.277 137.366 716.412 136.165Z" stroke="black" stroke-width="1.23851"/>
<ellipse cx="726.842" cy="92.5509" rx="1.70987" ry="1.70987" transform="rotate(-8.2188 726.842 92.5509)" fill="black"/>
<ellipse cx="736.194" cy="93.5031" rx="1.70987" ry="1.70987" transform="rotate(-8.2188 736.194 93.5031)" fill="black"/>
<ellipse cx="731.516" cy="93.0272" rx="1.70987" ry="1.70987" transform="rotate(-8.2188 731.516 93.0272)" fill="black"/>
<path d="M725.467 97.217L795.709 105.273M735.218 136.411L768.184 144.621" stroke="black" stroke-width="1.23851" stroke-linecap="round"/>
<path d="M752.623 106.758C758.517 106.758 763.395 112.034 763.395 118.668C763.394 125.302 758.517 130.577 752.623 130.577C746.729 130.577 741.853 125.302 741.853 118.668C741.853 112.034 746.729 106.758 752.623 106.758Z" stroke="black" stroke-width="1.23851"/>
<mask id="path-40-inside-1_420_6863" fill="white">
<path fill-rule="evenodd" clip-rule="evenodd" d="M752.429 118.364C753.289 118.501 754.115 118.806 754.858 119.262C755.601 119.719 756.246 120.317 756.758 121.023C757.269 121.728 757.637 122.528 757.839 123.376C757.849 123.418 757.859 123.46 757.869 123.502C758.161 124.838 756.844 125.789 755.493 125.574L747.275 124.264C745.924 124.049 744.967 122.736 745.66 121.557C745.682 121.519 745.705 121.482 745.728 121.446C746.184 120.703 746.782 120.057 747.488 119.546C748.194 119.034 748.993 118.666 749.841 118.463C750.689 118.26 751.568 118.227 752.429 118.364ZM753.384 112.354C755.194 112.642 756.447 114.221 756.183 115.88C755.918 117.539 754.236 118.65 752.426 118.362C750.616 118.073 749.363 116.495 749.628 114.835C749.892 113.176 751.574 112.065 753.384 112.354Z"/>
</mask>
<path d="M752.429 118.364L752.624 117.141L752.624 117.141L752.429 118.364ZM754.858 119.262L755.506 118.207L755.506 118.207L754.858 119.262ZM756.758 121.023L757.76 120.296L757.76 120.296L756.758 121.023ZM757.839 123.376L759.044 123.088L759.044 123.088L757.839 123.376ZM757.869 123.502L759.079 123.238L759.079 123.238L757.869 123.502ZM755.493 125.574L755.687 124.351V124.351L755.493 125.574ZM747.275 124.264L747.08 125.487L747.08 125.487L747.275 124.264ZM745.66 121.557L744.593 120.929L744.593 120.929L745.66 121.557ZM745.728 121.446L744.672 120.797L744.672 120.797L745.728 121.446ZM747.488 119.546L746.761 118.543L746.761 118.543L747.488 119.546ZM749.841 118.463L749.553 117.258L749.553 117.258L749.841 118.463ZM753.384 112.354L753.579 111.13L753.578 111.13L753.384 112.354ZM756.183 115.88L757.406 116.075L757.406 116.075L756.183 115.88ZM752.426 118.362L752.231 119.585L752.231 119.585L752.426 118.362ZM749.628 114.835L748.405 114.641L748.405 114.641L749.628 114.835ZM752.429 118.364L752.234 119.587C752.934 119.699 753.606 119.947 754.21 120.318L754.858 119.262L755.506 118.207C754.624 117.666 753.645 117.304 752.624 117.141L752.429 118.364ZM754.858 119.262L754.21 120.318C754.813 120.689 755.338 121.175 755.755 121.75L756.758 121.023L757.76 120.296C757.153 119.459 756.388 118.749 755.506 118.207L754.858 119.262ZM756.758 121.023L755.755 121.75C756.171 122.324 756.47 122.974 756.635 123.664L757.839 123.376L759.044 123.088C758.803 122.082 758.368 121.133 757.76 120.296L756.758 121.023ZM757.839 123.376L756.635 123.664C756.645 123.707 756.653 123.738 756.659 123.766L757.869 123.502L759.079 123.238C759.066 123.182 759.054 123.128 759.044 123.088L757.839 123.376ZM757.869 123.502L756.659 123.766C756.682 123.872 756.669 123.938 756.652 123.982C756.634 124.031 756.593 124.095 756.512 124.161C756.34 124.302 756.034 124.406 755.687 124.351L755.493 125.574L755.298 126.797C756.302 126.957 757.33 126.693 758.081 126.078C758.862 125.439 759.335 124.41 759.079 123.238L757.869 123.502ZM755.493 125.574L755.687 124.351L747.47 123.041L747.275 124.264L747.08 125.487L755.298 126.797L755.493 125.574ZM747.275 124.264L747.47 123.041C747.123 122.986 746.865 122.792 746.745 122.605C746.688 122.516 746.67 122.443 746.668 122.39C746.665 122.344 746.673 122.277 746.728 122.184L745.66 121.557L744.593 120.929C743.984 121.964 744.114 123.089 744.658 123.939C745.181 124.757 746.076 125.327 747.08 125.487L747.275 124.264ZM745.66 121.557L746.728 122.184C746.743 122.159 746.759 122.132 746.783 122.094L745.728 121.446L744.672 120.797C744.65 120.833 744.622 120.88 744.593 120.929L745.66 121.557ZM745.728 121.446L746.783 122.094C747.154 121.49 747.641 120.965 748.215 120.548L747.488 119.546L746.761 118.543C745.924 119.15 745.214 119.916 744.672 120.797L745.728 121.446ZM747.488 119.546L748.215 120.548C748.789 120.132 749.44 119.832 750.129 119.668L749.841 118.463L749.553 117.258C748.547 117.499 747.598 117.936 746.761 118.543L747.488 119.546ZM749.841 118.463L750.129 119.668C750.818 119.503 751.534 119.476 752.234 119.587L752.429 118.364L752.624 117.141C751.603 116.978 750.559 117.018 749.553 117.258L749.841 118.463ZM753.384 112.354L753.189 113.577C754.426 113.774 755.101 114.8 754.96 115.685L756.183 115.88L757.406 116.075C757.794 113.642 755.961 111.51 753.579 111.13L753.384 112.354ZM756.183 115.88L754.96 115.685C754.819 116.571 753.858 117.336 752.621 117.139L752.426 118.362L752.231 119.585C754.614 119.965 757.018 118.508 757.406 116.075L756.183 115.88ZM752.426 118.362L752.621 117.139C751.384 116.941 750.71 115.916 750.851 115.03L749.628 114.835L748.405 114.641C748.017 117.073 749.848 119.205 752.231 119.585L752.426 118.362ZM749.628 114.835L750.851 115.03C750.992 114.145 751.952 113.38 753.189 113.577L753.384 112.354L753.578 111.13C751.195 110.751 748.792 112.208 748.405 114.641L749.628 114.835Z" fill="black" mask="url(#path-40-inside-1_420_6863)"/>
<path d="M702.506 163.088L764.012 183.59" stroke="black" stroke-width="1.23851" stroke-linecap="round"/>
<path d="M697.954 167.644L759.46 188.146" stroke="black" stroke-width="1.23851" stroke-linecap="round"/>
<path d="M693.401 172.2L754.907 192.702" stroke="black" stroke-width="1.23851" stroke-linecap="round"/>
<path d="M686.56 176.757L748.066 197.259" stroke="black" stroke-width="1.23851" stroke-linecap="round"/>
<path d="M695.675 185.866C700.429 187.554 712.552 191.739 723.011 194.978" stroke="black" stroke-width="1.23851" stroke-linecap="round"/>
<path d="M806.771 182.436C806.771 183.385 806.5 184.285 806.023 185.051C805.955 185.465 805.747 185.863 805.38 186.169L747.478 234.356C746.259 235.37 744.582 235.637 743.108 235.051L714.066 223.504C691.267 214.44 669.156 203.732 647.908 191.465C647.23 191.073 646.812 190.452 646.657 189.778L646.589 184.826L649.06 187.299L654.716 190.375C673.867 201.041 693.691 210.456 714.066 218.557L743.108 230.104C744.582 230.689 746.258 230.423 747.476 229.409L795.181 189.721L795.02 189.773L806.771 179.259V182.436Z" fill="black"/>
<rect x="901.688" width="286.25" height="286.25" fill="white"/>
<path d="M1020.5 105.162L1110.66 119.702C1119.42 121.115 1124.67 130.223 1121.49 138.509L1092.81 213.389C1092.57 214.031 1092.1 214.536 1091.54 214.845C1091.09 215.368 1090.53 215.326 1089.74 215.147C1089.71 215.142 1089.68 215.137 1089.65 215.131L1087.43 214.685C1088.37 214.787 1089.13 215.009 1089.74 215.147C1090.37 215.253 1091 215.136 1091.54 214.845C1091.57 214.804 1091.61 214.76 1091.64 214.712C1091.91 214.328 1091.94 213.835 1091.88 213.37L1083.67 147.151C1082.14 134.794 1072.62 124.938 1060.33 122.975L1005.18 114.17C1007.46 107.878 1013.89 104.096 1020.5 105.162Z" fill="white" stroke="black" stroke-width="1.39829" stroke-linecap="round"/>
<path d="M1120.23 125.014C1123.53 128.522 1124.83 133.787 1122.95 138.74L1094.56 213.547C1094.26 214.325 1093.68 214.921 1092.98 215.254C1092.37 215.713 1091.66 215.62 1091.06 215.49L1091.02 215.482C1087.77 214.822 1090.21 215.565 1090.98 212.901L1092.11 209.735L1120.48 134.996C1121.77 131.593 1121.56 128.041 1120.23 125.014Z" fill="black" stroke="black" stroke-width="1.39829" stroke-linecap="round"/>
<path d="M994.483 112.69L994.237 110.086C993.31 100.251 985.922 92.2489 976.191 90.5416C968.994 89.2786 962.597 95.2762 963.395 102.54L972.737 187.603C973.071 190.65 975.352 193.124 978.363 193.704L1088.16 214.87C1090.02 215.229 1091.69 213.668 1091.46 211.785L1083.59 147.209C1082.08 134.796 1072.51 124.896 1060.15 122.964L994.483 112.69Z" fill="white" stroke="black" stroke-width="1.39829" stroke-linecap="round"/>
<path d="M1049.82 84.4139C1051.12 81.9316 1052.92 75.215 1049.82 68.2063C1053.48 75.653 1062.05 88.5753 1067.05 80.6905C1072.04 72.8057 1078.31 60.1755 1080.83 54.8459C1079.68 63.6068 1079.19 80.8657 1086.42 79.8144C1093.66 78.7631 1103.36 69.5934 1107.3 65.14C1103 71.1266 1096.07 84.6329 1102.78 90.7655C1105.3 91.7146 1112 92.9557 1118.71 90.3275C1113.98 91.9336 1104.55 97.2923 1104.72 105.878" stroke="black" stroke-width="1.39829"/>
<rect x="1202.25" width="286.25" height="286.25" fill="white"/>
<path d="M1327.48 104.204C1332.85 101.668 1339.24 100.516 1345.44 100.573C1351.8 100.63 1358.22 101.965 1363.37 104.606C1363.62 103.176 1363.34 101.217 1361.01 99.399L1360.98 94.8476V61.4822C1360.98 61.4822 1359.73 58.3653 1356.93 58.0515C1356.93 58.0515 1357.55 47.1371 1347.27 43.0868C1347.27 43.0868 1347.54 38.3297 1346.34 38.0977H1344.56C1343.49 38.3297 1343.62 43.0868 1343.62 43.0868C1333.35 47.1371 1333.97 58.0515 1333.97 58.0515C1331.16 58.3653 1329.92 61.4822 1329.92 61.4822V94.8476L1329.88 99.399C1327.77 101.052 1327.35 102.821 1327.48 104.204Z" fill="#AAC9E7"/>
<path fill-rule="evenodd" clip-rule="evenodd" d="M1412.55 210.875L1399.55 192.44L1399.92 181.639L1403.58 177.607C1403.58 177.607 1405.33 175.337 1405.23 173.032C1405.12 170.727 1403.76 169.369 1403.76 169.369L1396.67 169.361C1396.67 169.361 1401.03 123.523 1362.09 105.441C1362.09 105.441 1364.93 101.547 1360.57 98.1424L1360.53 93.591V60.2256C1360.53 60.2256 1359.29 57.1087 1356.48 56.7949C1356.48 56.7949 1357.11 45.8805 1346.83 41.8302C1346.83 41.8302 1347.09 37.0731 1345.89 36.8411H1344.11C1343.04 37.0731 1343.18 41.8302 1343.18 41.8302C1332.9 45.8805 1333.52 56.7949 1333.52 56.7949C1330.72 57.1087 1329.48 60.2256 1329.48 60.2256V93.591L1329.44 98.1424C1325.08 101.547 1327.92 105.441 1327.92 105.441C1288.98 123.523 1293.34 169.361 1293.34 169.361L1287.12 169.369C1287.12 169.369 1285.76 170.727 1285.66 173.032C1285.55 175.337 1287.3 177.607 1287.3 177.607L1290.96 181.639L1291.33 192.44L1278.31 210.875L1276.68 212.515V223.593L1314.33 226.702H1376.12L1413.93 223.593V212.547L1412.55 210.875Z" fill="white" stroke="black" stroke-width="1.35067" stroke-linejoin="round"/>
<path fill-rule="evenodd" clip-rule="evenodd" d="M1301.2 207.055V182.257C1301.2 182.257 1302.41 177.42 1306.63 176.207C1310.86 175 1312.22 180.899 1312.22 180.899V204.787" fill="black"/>
<path d="M1301.2 207.055V182.257C1301.2 182.257 1302.41 177.42 1306.63 176.207C1310.86 175 1312.22 180.899 1312.22 180.899V204.787" stroke="black" stroke-width="1.35067"/>
<path fill-rule="evenodd" clip-rule="evenodd" d="M1336.97 203.927V177.713C1336.97 177.713 1338.42 172.138 1345.02 172.347C1351.61 172.555 1353.26 177.921 1353.26 177.921V203.721" fill="black"/>
<path d="M1336.97 203.927V177.713C1336.97 177.713 1338.42 172.138 1345.02 172.347C1351.61 172.555 1353.26 177.921 1353.26 177.921V203.721" stroke="black" stroke-width="1.35067"/>
<path fill-rule="evenodd" clip-rule="evenodd" d="M1389.22 207.055V182.257C1389.22 182.257 1388.01 177.42 1383.78 176.207C1379.55 175 1378.19 180.899 1378.19 180.899V204.787" fill="black"/>
<path d="M1389.22 207.055V182.257C1389.22 182.257 1388.01 177.42 1383.78 176.207C1379.55 175 1378.19 180.899 1378.19 180.899V204.787" stroke="black" stroke-width="1.35067"/>
<path d="M1278.31 210.875L1319.7 203.969H1371.16L1412.55 210.875" stroke="black" stroke-width="1.35067"/>
<path d="M1396.67 169.361L1387.5 161.73L1377.58 166.624L1366.94 165.187L1359.75 165.474L1345.08 157.99H1344.93L1330.26 165.474L1323.07 165.187L1312.44 166.624L1302.51 161.73L1293.34 169.361" stroke="black" stroke-width="1.35067"/>
<path fill-rule="evenodd" clip-rule="evenodd" d="M1349.16 145.318C1349.16 147.509 1347.39 149.286 1345.2 149.286C1343.01 149.286 1341.23 147.509 1341.23 145.318C1341.23 143.126 1343.01 141.349 1345.2 141.349C1347.39 141.349 1349.16 143.126 1349.16 145.318Z" fill="black"/>
<path fill-rule="evenodd" clip-rule="evenodd" d="M1309.56 147.83C1309.56 150.021 1308.23 151.796 1306.58 151.796C1304.93 151.796 1303.59 150.021 1303.59 147.83C1303.59 145.636 1304.93 143.861 1306.58 143.861C1308.23 143.861 1309.56 145.636 1309.56 147.83Z" fill="black"/>
<path d="M1326.21 204.081V165.321" stroke="black" stroke-width="1.35067" stroke-linejoin="round"/>
<path d="M1326.21 165.321C1326.21 165.321 1320.77 123.63 1337.33 103.178" stroke="black" stroke-width="1.35067"/>
<path d="M1365.99 204.081V165.321" stroke="black" stroke-width="1.35067" stroke-linejoin="round"/>
<path d="M1365.99 165.321C1365.99 165.321 1371.43 123.63 1354.87 103.178" stroke="black" stroke-width="1.35067"/>
<path d="M1327.92 105.441C1327.92 105.441 1345.31 98.4508 1362.09 105.441" stroke="black" stroke-width="1.35067"/>
<path fill-rule="evenodd" clip-rule="evenodd" d="M1380.85 147.83C1380.85 150.021 1382.19 151.796 1383.84 151.796C1385.48 151.796 1386.82 150.021 1386.82 147.83C1386.82 145.636 1385.48 143.861 1383.84 143.861C1382.19 143.861 1380.85 145.636 1380.85 147.83Z" fill="black"/>
<path d="M1319.7 203.969V226.457" stroke="black" stroke-width="1.35067"/>
<path d="M1371 203.969V226.457" stroke="black" stroke-width="1.35067"/>
<path d="M1345.3 89.8499V67.3408" stroke="black" stroke-width="1.35067" stroke-linecap="round"/>
<path d="M1336.97 92.5448V70.0383" stroke="black" stroke-width="1.35067" stroke-linecap="round"/>
<path d="M1353.27 92.5448V70.0383" stroke="black" stroke-width="1.35067" stroke-linecap="round"/>
<path d="M1362.7 215.212H1327.31" stroke="black" stroke-width="1.35067" stroke-linecap="round"/>
<path d="M1313.28 215.212L1283.11 217.657" stroke="black" stroke-width="1.35067" stroke-linecap="round"/>
<path d="M1377.45 215.212L1407.62 217.657" stroke="black" stroke-width="1.35067" stroke-linecap="round"/>
<rect y="296.25" width="286.25" height="286.25" fill="white"/>
<path d="M234.009 494.478H55.8187C52.6569 494.478 50.0938 491.915 50.0938 488.753V375.685V360.656C50.0938 357.495 52.6569 354.931 55.8188 354.931H234.009C237.171 354.931 239.734 357.495 239.734 360.656V375.685V488.753C239.734 491.915 237.171 494.478 234.009 494.478Z" fill="black"/>
<path d="M50.0938 375.685V360.656C50.0938 357.495 52.6569 354.931 55.8188 354.931H234.009C237.171 354.931 239.734 357.495 239.734 360.656V375.685M50.0938 375.685V488.753C50.0938 491.915 52.6569 494.478 55.8187 494.478H234.009C237.171 494.478 239.734 491.915 239.734 488.753V375.685M50.0938 375.685H239.734" stroke="black" stroke-width="1.43125"/>
<path d="M231.147 491.616H52.9563C49.7945 491.616 47.2313 489.053 47.2313 485.891V372.822V357.794C47.2313 354.632 49.7945 352.069 52.9563 352.069H231.147C234.309 352.069 236.872 354.632 236.872 357.794V372.822V485.891C236.872 489.053 234.309 491.616 231.147 491.616Z" fill="white"/>
<path d="M47.2313 372.822V357.794C47.2313 354.632 49.7945 352.069 52.9563 352.069H231.147C234.309 352.069 236.872 354.632 236.872 357.794V372.822M47.2313 372.822V485.891C47.2313 489.053 49.7945 491.616 52.9563 491.616H231.147C234.309 491.616 236.872 489.053 236.872 485.891V372.822M47.2313 372.822H236.872" stroke="black" stroke-width="1.43125"/>
<circle cx="60.4716" cy="362.908" r="3.22155" fill="black"/>
<circle cx="69.493" cy="362.447" r="2.57724" stroke="black" stroke-width="1.28862"/>
<circle cx="79.8022" cy="362.447" r="2.57724" stroke="black" stroke-width="1.28862"/>
<rect x="208.962" y="384.845" width="14.1748" height="14.1748" rx="3.86586" fill="black"/>
<rect x="212.184" y="384.201" width="12.8862" height="11.5976" rx="3.22155" fill="white" stroke="black" stroke-width="1.28862"/>
<path d="M215.922 392.15L220.171 387.309" stroke="black" stroke-width="1.28862" stroke-linecap="round" stroke-linejoin="round"/>
<path d="M215.404 387.842L220.559 386.595V392.21" stroke="black" stroke-width="1.28862" stroke-linecap="round" stroke-linejoin="round"/>
<path d="M68.7001 434.366H207.531" stroke="black" stroke-width="1.43125" stroke-linecap="round"/>
<path d="M68.7001 417.191H207.531" stroke="black" stroke-width="1.43125" stroke-linecap="round"/>
<path d="M68.7001 451.541H207.531" stroke="black" stroke-width="1.43125" stroke-linecap="round"/>
<path d="M75.8563 408.603H214.688" stroke="black" stroke-width="1.43125" stroke-linecap="round"/>
<path d="M75.8563 442.953H214.688" stroke="black" stroke-width="1.43125" stroke-linecap="round"/>
<path d="M75.8563 425.778H214.688" stroke="black" stroke-width="1.43125" stroke-linecap="round"/>
<path d="M75.8563 460.128H214.688" stroke="black" stroke-width="1.43125" stroke-linecap="round"/>
<path d="M70.1312 468.716H208.962" stroke="black" stroke-width="1.43125" stroke-linecap="round"/>
<path d="M140.432 400.313C162.708 401.657 179.676 420.806 178.331 443.081C176.987 465.357 157.838 482.325 135.563 480.98C113.287 479.635 96.3192 460.487 97.6638 438.211C99.0085 415.936 118.157 398.968 140.432 400.313ZM140.158 407.413C121.715 406.3 105.862 420.349 104.748 438.793C103.635 457.236 117.683 473.09 136.126 474.204C154.57 475.317 170.424 461.268 171.538 442.825C172.651 424.381 158.602 408.527 140.158 407.413Z" fill="white"/>
<path d="M82.9988 523.066C75.836 518.618 101.374 489.174 112.997 471.633C115.811 473.607 117.635 474.924 120.224 476.221C109.51 497.316 87.2757 525.721 82.9988 523.066Z" fill="white" stroke="black" stroke-width="1.43125"/>
<path d="M140.306 401.022C162.221 402.345 178.913 421.183 177.59 443.098C176.267 465.013 157.43 481.705 135.515 480.382C113.6 479.059 96.907 460.222 98.2297 438.307C99.5526 416.392 118.391 399.699 140.306 401.022Z" stroke="black" stroke-width="1.43125"/>
<path d="M141.309 408.416C158.713 409.467 171.921 425.239 170.865 442.735C169.809 460.232 154.71 475.774 137.307 474.723" stroke="black" stroke-width="1.43125" stroke-linecap="round"/>
<path d="M114.185 417.458C106.117 423.27 97.0004 447.188 113.687 463.953" stroke="black" stroke-width="1.43125" stroke-linecap="round"/>
<path d="M133.526 408.789C130.263 408.833 125.741 410.432 121.278 413.394" stroke="black" stroke-width="1.43125" stroke-linecap="round"/>
<path d="M67.2688 396.438V389.281C67.2688 388.491 67.9096 387.85 68.7 387.85H95.8938C96.6843 387.85 97.325 388.491 97.325 389.281V396.438C97.325 397.228 96.6843 397.869 95.8938 397.869H68.7C67.9096 397.869 67.2688 397.228 67.2688 396.438Z" stroke="black" stroke-width="1.43125"/>
<path d="M67.2688 387.85L97.325 397.869" stroke="black" stroke-width="1.43125"/>
<path d="M97.3251 387.85L67.2688 397.869" stroke="black" stroke-width="1.43125"/>
<rect x="300.562" y="296.25" width="286.25" height="286.25" fill="white"/>
<path d="M437.188 527.206L430.622 522.483V513.765L507.589 389.893L524.368 388.803L528.016 391.71C518.678 474.824 463.208 516.671 437.188 527.206Z" fill="black" stroke="black" stroke-width="1.80407" stroke-linecap="round"/>
<path d="M374.749 498.499C371.67 508.259 368.016 513.014 354.757 519.003C365.677 523.28 369.412 527.523 374.749 539.507C379.89 529.239 383.385 524.461 394.74 519.003C382.763 515.38 378.607 511.163 374.749 498.499Z" stroke="white" stroke-width="1.80407" stroke-linecap="round"/>
<path d="M374.749 498.499C371.67 508.259 368.016 513.014 354.757 519.003C365.677 523.28 369.412 527.523 374.749 539.507C379.89 529.239 383.385 524.461 394.74 519.003C382.763 515.38 378.607 511.163 374.749 498.499Z" stroke="black" stroke-width="1.80407" stroke-linecap="round"/>
<path d="M517.998 343.35C517.334 349.843 515.636 353.3 507.973 358.838C515.511 360.007 518.46 362.136 523.461 368.863C525.374 361.772 526.968 358.322 533.486 353.375C525.361 352.757 522.148 350.702 517.998 343.35Z" fill="white"/>
<path d="M517.998 343.35C517.334 349.843 515.636 353.3 507.973 358.838C515.511 360.007 518.46 362.136 523.461 368.863C525.374 361.772 526.968 358.322 533.486 353.375C525.361 352.757 522.148 350.702 517.998 343.35Z" stroke="white" stroke-width="1.80407" stroke-linecap="round"/>
<path d="M517.998 343.35C517.334 349.843 515.636 353.3 507.973 358.838C515.511 360.007 518.46 362.136 523.461 368.863C525.374 361.772 526.968 358.322 533.486 353.375C525.361 352.757 522.148 350.702 517.998 343.35Z" stroke="black" stroke-width="1.80407" stroke-linecap="round"/>
<path d="M358.837 368.669C358.411 372.833 357.322 375.05 352.408 378.601C357.242 379.351 359.132 380.716 362.34 385.03C363.567 380.483 364.588 378.271 368.769 375.098C363.558 374.702 361.497 373.384 358.837 368.669Z" fill="white"/>
<path d="M358.837 368.669C358.411 372.833 357.322 375.05 352.408 378.601C357.242 379.351 359.132 380.716 362.34 385.03C363.567 380.483 364.588 378.271 368.769 375.098C363.558 374.702 361.497 373.384 358.837 368.669Z" stroke="white" stroke-width="1.80407" stroke-linecap="round"/>
<path d="M358.837 368.669C358.411 372.833 357.322 375.05 352.408 378.601C357.242 379.351 359.132 380.716 362.34 385.03C363.567 380.483 364.588 378.271 368.769 375.098C363.558 374.702 361.497 373.384 358.837 368.669Z" stroke="black" stroke-width="1.80407" stroke-linecap="round"/>
<path d="M523.915 388.679C494.271 384.057 465.546 367.016 454.89 359.073C427.57 378.136 397.974 381.939 386.591 381.458C367.409 452.512 405.482 506.381 435.999 525.155C497.395 486.523 514.833 445.724 523.915 388.679Z" fill="white" stroke="black" stroke-width="1.80407" stroke-linecap="round"/>
<path d="M454.516 372.4C467.178 385.764 498.409 394.793 510.588 398.044C499.747 447.798 471.56 497.254 436.613 509.777C431.511 506.583 428.295 504.346 421.946 494.442C404.579 467.354 387.747 422.917 397.721 390.098C421.597 390.098 443.664 378.781 454.516 372.4Z" fill="white" stroke="black" stroke-width="1.80407" stroke-linecap="round"/>
<path d="M431.284 382.012C419.557 385.502 418.579 409.885 419.557 421.64C414.181 428.063 404.017 433.565 406.363 404.189C409.295 367.469 435.316 362.743 459.504 370.378C478.855 376.485 478.073 402.492 475.263 414.732L459.504 412.551C469.033 381.648 445.944 377.649 431.284 382.012Z" fill="white" stroke="black" stroke-width="1.80407" stroke-linecap="round"/>
<path d="M391.042 474.338C388.788 465.606 389.325 439.748 391.792 419.96C392.976 410.457 399.109 402.843 408.638 401.879C435.099 399.199 486.027 403.373 487.747 416.165C489.129 426.442 485.241 452.005 481.841 470.465C480.367 478.474 475.567 484.954 467.489 485.984C443.774 489.007 394.308 486.996 391.042 474.338Z" fill="white" stroke="black" stroke-width="1.80407" stroke-linecap="round"/>
<path d="M434.874 420.13C441.124 420.13 446.191 425.196 446.191 431.445C446.191 435.693 443.848 439.391 440.387 441.326L439.201 459.119L439.161 459.721H427.914V440.362C425.265 438.291 423.559 435.069 423.559 431.445C423.559 425.196 428.625 420.13 434.874 420.13Z" fill="white"/>
<path d="M434.874 420.13V419.228H434.874L434.874 420.13ZM446.191 431.445H447.093V431.445L446.191 431.445ZM440.387 441.326L439.947 440.539L439.519 440.778L439.487 441.266L440.387 441.326ZM439.201 459.119L438.301 459.059L438.301 459.059L439.201 459.119ZM439.161 459.721V460.623H440.005L440.061 459.781L439.161 459.721ZM427.914 459.721H427.012V460.623H427.914V459.721ZM427.914 440.362H428.816V439.922L428.47 439.652L427.914 440.362ZM423.559 431.445L422.657 431.445V431.445H423.559ZM434.874 420.13V421.032C440.625 421.032 445.288 425.694 445.289 431.445L446.191 431.445L447.093 431.445C447.093 424.698 441.622 419.228 434.874 419.228V420.13ZM446.191 431.445H445.289C445.289 435.352 443.135 438.756 439.947 440.539L440.387 441.326L440.827 442.114C444.562 440.026 447.093 436.033 447.093 431.445H446.191ZM440.387 441.326L439.487 441.266L438.301 459.059L439.201 459.119L440.101 459.179L441.287 441.386L440.387 441.326ZM439.201 459.119L438.301 459.059L438.261 459.661L439.161 459.721L440.061 459.781L440.101 459.179L439.201 459.119ZM439.161 459.721V458.819H427.914V459.721V460.623H439.161V459.721ZM427.914 459.721H428.816V440.362H427.914H427.012V459.721H427.914ZM427.914 440.362L428.47 439.652C426.029 437.744 424.461 434.779 424.461 431.445H423.559H422.657C422.657 435.359 424.501 438.839 427.359 441.073L427.914 440.362ZM423.559 431.445L424.461 431.445C424.461 425.694 429.123 421.032 434.874 421.032L434.874 420.13L434.874 419.228C428.127 419.228 422.657 424.698 422.657 431.445L423.559 431.445Z" fill="black"/>
<path d="M478.269 419.559C479.624 430.475 478.467 454.181 474.22 470.062C472.902 474.989 468.229 477.996 463.129 477.996C458.193 477.996 453.328 477.996 448.05 477.996" stroke="black" stroke-width="1.80407" stroke-linecap="round"/>
<path d="M426.409 430.52C426.686 423.354 433.434 421.085 436.773 420.846C429.864 419.413 425.027 424.07 423.646 430.162C422.54 435.034 426.294 439.477 428.137 440.911V459.542H430.9V439.477C427.86 437.471 426.409 432.073 426.409 430.52Z" fill="black"/>
<rect x="601.125" y="296.25" width="286.25" height="286.25" fill="white"/>
<rect x="638.338" y="442.612" width="65.6813" height="65.6813" rx="4.29375" fill="black"/>
<path d="M670.458 456.686C681.095 457.122 688.622 466.851 686.467 477.399C686.267 478.38 685.484 480.215 684.172 482.027C680.382 487.258 673.351 487.594 667.243 486.65C666.153 486.482 664.79 486.172 663.42 485.763C660.957 487.9 656.758 489.888 652.734 491.083C651.981 491.306 652.495 491.112 654.833 488.628C656.549 486.806 658.123 485.107 658.346 483.568C658.172 483.445 658.012 483.321 657.87 483.196C656.118 481.651 653.729 479.381 653.286 476.21C651.723 465.028 658.877 456.686 670.458 456.686Z" stroke="white" stroke-width="1.80407" stroke-linecap="round"/>
<path d="M674.076 479.673C666.807 486.2 671.937 495.569 681.403 494.105C682.005 494.012 682.758 493.841 683.515 493.615C684.876 494.796 687.197 495.895 689.421 496.555C689.837 496.678 689.553 496.571 688.261 495.199C687.313 494.191 686.442 493.253 686.319 492.402C686.415 492.334 686.504 492.266 686.582 492.196C687.551 491.343 688.871 490.088 689.116 488.336C690.263 480.127 680.419 473.977 674.076 479.673Z" stroke="white" stroke-width="1.80407" stroke-linecap="round"/>
<rect x="639.053" y="371.391" width="64.2501" height="64.2501" rx="3.57812" fill="white" stroke="black" stroke-width="1.43125"/>
<rect x="711.838" y="370.675" width="65.6813" height="65.6813" rx="4.29375" fill="black"/>
<rect x="786.054" y="371.391" width="64.2501" height="64.2501" rx="3.57812" fill="white" stroke="black" stroke-width="1.43125"/>
<rect x="712.554" y="443.327" width="64.2501" height="64.2501" rx="3.57812" fill="white" stroke="black" stroke-width="1.43125"/>
<rect x="786.054" y="443.327" width="64.2501" height="64.2501" rx="3.57812" fill="white" stroke="black" stroke-width="1.43125"/>
<path d="M818.985 464.505V487.321" stroke="black" stroke-width="1.80407" stroke-linecap="round"/>
<path d="M830.047 475.568L807.232 475.568" stroke="black" stroke-width="1.80407" stroke-linecap="round"/>
<path d="M727.477 467.632H763.445" stroke="black" stroke-width="1.43125" stroke-linecap="round"/>
<path d="M727.477 475.452H763.445" stroke="black" stroke-width="1.43125" stroke-linecap="round"/>
<path d="M727.477 483.271H763.445" stroke="black" stroke-width="1.43125" stroke-linecap="round"/>
<path d="M817.598 413.181C819.257 407.823 823.038 397.605 825.545 392.649C825.739 392.266 835.393 410.905 836.163 413.181" stroke="black" stroke-width="1.80407" stroke-linecap="round"/>
<path d="M820.739 404.633C821.154 404.633 821.989 404.633 824.382 404.336C826.154 404.039 829.056 403.445 830.862 403.065C832.668 402.685 833.29 402.537 833.93 402.384" stroke="black" stroke-width="1.80407" stroke-linecap="round"/>
<path d="M800.977 413.182C802.01 409.844 804.366 403.479 805.927 400.392C806.048 400.153 812.062 411.764 812.542 413.182" stroke="black" stroke-width="1.80407" stroke-linecap="round"/>
<path d="M802.933 407.857C803.192 407.857 803.712 407.857 805.203 407.672C806.306 407.487 808.114 407.117 809.239 406.88C810.364 406.643 810.751 406.551 811.151 406.455" stroke="black" stroke-width="1.80407" stroke-linecap="round"/>
<path d="M660.278 403C660.278 400.426 659.221 397.34 657.104 395.744" stroke="black" stroke-width="1.80407" stroke-linecap="round"/>
<path d="M666.174 400.278C666.174 398.043 666.174 395.697 665.267 392.569" stroke="black" stroke-width="1.80407" stroke-linecap="round"/>
<path d="M672.069 400.279C672.069 399.98 672.219 399.376 672.595 398.397C673.121 397.268 673.579 396.202 673.806 395.297C673.883 394.841 673.883 394.392 673.883 393.93" stroke="black" stroke-width="1.80407" stroke-linecap="round"/>
<path d="M661.639 409.802C669.807 410.553 676.803 410.856 684.313 411.616" stroke="black" stroke-width="1.80407" stroke-linecap="round"/>
<path d="M747.284 397.434H768.135" stroke="white" stroke-width="1.43125" stroke-linecap="round"/>
<path d="M747.284 403.516H768.135" stroke="white" stroke-width="1.43125" stroke-linecap="round"/>
<path d="M747.284 409.596H768.135" stroke="white" stroke-width="1.43125" stroke-linecap="round"/>
<path d="M721.221 409.904V397.128C721.221 396.337 721.862 395.697 722.652 395.697H737.166C737.956 395.697 738.597 396.337 738.597 397.128V409.904C738.597 410.694 737.956 411.335 737.166 411.335H722.652C721.862 411.335 721.221 410.694 721.221 409.904Z" stroke="white" stroke-width="1.43125"/>
<path d="M725.565 403.515L729.04 407.859L735.122 400.04" stroke="white" stroke-width="1.43125" stroke-linecap="round" stroke-linejoin="round"/>
<rect x="901.688" y="296.25" width="286.25" height="286.25" fill="white"/>
<path d="M1027.74 407.604L1040.17 382.369C1041.69 379.281 1045.37 377.934 1048.53 379.309L1127.36 413.658C1130.65 415.095 1132.14 418.955 1130.65 422.231L1094.8 501.107C1093.31 504.381 1089.43 505.803 1086.18 504.266L1071.95 497.54C1067.35 495.366 1062.22 499.32 1060.69 504.174C1059.36 508.414 1056.76 510.994 1053.71 512.456C1045.49 516.405 1034.52 512.644 1029.79 504.845C1026.66 499.694 1027.86 494.3 1030.57 489.777C1033.07 485.611 1032.31 479.468 1027.86 477.51L1008.9 469.158C1005.69 467.742 1004.2 464.014 1005.55 460.774L1014.11 440.336C1015.09 437.977 1019.7 438.044 1021.64 439.704C1030.95 447.647 1051.5 443.355 1050.93 426.694C1050.48 413.462 1039.4 411.041 1030.79 411.724C1028.59 411.898 1026.77 409.578 1027.74 407.604Z" fill="black"/>
<path d="M1025.5 403.532L1037.99 378.06C1039.5 374.962 1043.19 373.61 1046.35 374.993L1125.16 409.486C1128.45 410.925 1129.93 414.774 1128.45 418.045L1092.46 497.595C1090.97 500.879 1087.08 502.306 1083.83 500.759L1069.61 494.009C1065.02 491.826 1059.87 495.761 1058.37 500.624C1057.05 504.909 1054.47 507.527 1051.43 509.018C1043.19 513.07 1032.1 509.252 1027.4 501.362C1024.3 496.158 1025.55 490.706 1028.3 486.145C1030.8 481.997 1030.04 475.883 1025.61 473.924L1006.57 465.501C1003.37 464.083 1001.88 460.365 1003.23 457.131L1011.83 436.483C1012.82 434.118 1017.45 434.186 1019.39 435.851C1028.7 443.816 1049.23 439.463 1048.68 422.698C1048.24 409.375 1037.17 406.951 1028.55 407.649C1026.36 407.826 1024.53 405.509 1025.5 403.532Z" fill="white" stroke="black" stroke-width="1.80407"/>
<path d="M1064.63 440.049C1064.4 438.546 1062.82 434.456 1063.85 431.002C1065.75 424.653 1071.77 420.221 1078.38 421.956C1086.69 424.132 1086.89 434.358 1083.76 439.605C1082.91 441.042 1078.92 443.582 1076.66 444.338C1075.22 444.818 1072.75 446.682 1073.69 448.942C1075.47 453.273 1087.35 463.221 1082.66 467.4C1078.76 470.88 1066.06 465.096 1061.49 463.587C1057.62 462.309 1039.96 455.773 1040.55 450.128C1041.65 439.588 1057.7 447.621 1063.32 444.452C1065.3 443.341 1065.09 443.133 1064.63 440.049Z" fill="black"/>
<path d="M1056.32 356.559C1087.95 362.18 1109.04 392.378 1103.42 424.007C1097.8 455.637 1067.6 476.722 1035.97 471.101C1004.34 465.479 983.254 435.281 988.875 403.651C994.497 372.021 1024.69 350.937 1056.32 356.559ZM1054.75 366.669C1028.56 362.015 1003.56 379.471 998.906 405.66C994.252 431.848 1011.71 456.852 1037.9 461.506C1064.09 466.16 1089.09 448.703 1093.74 422.514C1098.4 396.326 1080.94 371.324 1054.75 366.669Z" fill="white"/>
<path d="M953.816 522.553C944.312 515.003 985.718 477.141 1005.25 453.987C1008.95 457.277 1011.34 459.463 1014.82 461.748C996.001 490.134 959.49 527.06 953.816 522.553Z" fill="white" stroke="black" stroke-width="1.80407"/>
<circle cx="1046.01" cy="413.895" r="57.3543" transform="rotate(10.0775 1046.01 413.895)" stroke="black" stroke-width="1.80407"/>
<path d="M1057.37 366.607C1082.71 371.111 1099.4 396.488 1094.87 421.965C1090.34 447.443 1065.56 467.663 1040.21 463.159" stroke="black" stroke-width="1.80407" stroke-linecap="round"/>
<path d="M1014.88 375.82C1002.36 382.805 985.313 415.562 1006.44 442.363" stroke="black" stroke-width="1.80407" stroke-linecap="round"/>
<path d="M1045.16 365.732C1040.47 365.252 1033.73 366.792 1026.84 370.293" stroke="black" stroke-width="1.80407" stroke-linecap="round"/>
<rect x="1202.25" y="296.25" width="286.25" height="286.25" fill="white"/>
<path d="M1309.62 362.88L1417.67 350.637C1408.71 386.677 1412.32 412.397 1423.27 436.067C1424.42 438.55 1425.69 440.963 1427.03 443.293C1433.86 454.706 1438.27 460.64 1447.9 469.978C1452.41 474.48 1455.57 477.042 1455.57 477.042L1358.32 516.677C1345.72 504.873 1336.17 490.123 1329 474.273L1320.2 450.737C1309.94 417.068 1308.3 382.534 1309.62 362.88Z" fill="white" stroke="black" stroke-width="1.80407"/>
<path d="M1308.68 380.237C1309.03 396.247 1311.02 416.246 1315.92 436.722C1316.24 438.032 1316.56 439.344 1316.9 440.658L1316.27 440.868L1292.29 384.342L1291.62 382.762L1293.31 382.51L1308.68 380.237Z" fill="white"/>
<path d="M1308.68 380.237L1309.58 380.218L1309.56 379.195L1308.55 379.345L1308.68 380.237ZM1315.92 436.722L1315.05 436.932V436.932L1315.92 436.722ZM1316.9 440.658L1317.18 441.514L1317.98 441.25L1317.77 440.433L1316.9 440.658ZM1316.27 440.868L1315.44 441.22L1315.76 441.986L1316.55 441.724L1316.27 440.868ZM1292.29 384.342L1291.45 384.694L1291.46 384.694L1292.29 384.342ZM1291.62 382.762L1291.48 381.869L1290.33 382.041L1290.79 383.114L1291.62 382.762ZM1293.31 382.51L1293.18 381.617L1293.18 381.618L1293.31 382.51ZM1308.68 380.237L1307.78 380.257C1308.13 396.321 1310.13 416.384 1315.05 436.932L1315.92 436.722L1316.8 436.512C1311.92 416.107 1309.93 396.174 1309.58 380.218L1308.68 380.237ZM1315.92 436.722L1315.05 436.932C1315.36 438.247 1315.69 439.564 1316.03 440.883L1316.9 440.658L1317.77 440.433C1317.44 439.125 1317.11 437.817 1316.8 436.512L1315.92 436.722ZM1316.9 440.658L1316.62 439.802L1315.98 440.012L1316.27 440.868L1316.55 441.724L1317.18 441.514L1316.9 440.658ZM1316.27 440.868L1317.1 440.516L1293.12 383.99L1292.29 384.342L1291.46 384.694L1315.44 441.22L1316.27 440.868ZM1292.29 384.342L1293.12 383.99L1292.45 382.41L1291.62 382.762L1290.79 383.114L1291.45 384.694L1292.29 384.342ZM1291.62 382.762L1291.75 383.654L1293.45 383.402L1293.31 382.51L1293.18 381.618L1291.48 381.869L1291.62 382.762ZM1293.31 382.51L1293.44 383.402L1308.81 381.13L1308.68 380.237L1308.55 379.345L1293.18 381.617L1293.31 382.51Z" fill="black"/>
<path d="M1368.74 489.471C1371.72 487.261 1377.57 481.913 1377.12 478.194C1376.56 473.546 1373.49 474.621 1374.87 481.262C1376.26 487.904 1379.37 488.988 1381.8 482.849C1382.67 483.68 1384.43 484.728 1384.57 482.272C1384.76 479.2 1386.76 484.848 1387.34 481.694C1387.92 478.541 1394.79 471.91 1390.17 475.473C1386.47 478.323 1394.69 475.396 1399.27 473.576" stroke="black" stroke-width="1.80407" stroke-linecap="round"/>
<path d="M1335.03 425.196C1334.42 425.555 1332.57 420.011 1333.33 417.47L1342.7 415.363C1342.56 418.481 1342.92 420.201 1344.4 423.089C1341.85 424.259 1335.03 425.196 1335.03 425.196Z" stroke="black" stroke-width="1.80407" stroke-linecap="round"/>
<path d="M1331.75 406.9C1331.29 407.363 1329.9 400.234 1330.47 396.967L1337.5 394.258C1337.4 398.266 1337.67 400.478 1338.78 404.191C1336.86 405.696 1331.75 406.9 1331.75 406.9Z" stroke="black" stroke-width="1.80407" stroke-linecap="round"/>
<path d="M1340.42 446.298C1339.89 446.761 1338.27 439.632 1338.93 436.365L1347.13 433.656C1347.01 437.664 1347.33 439.876 1348.62 443.589C1346.39 445.094 1340.42 446.298 1340.42 446.298Z" stroke="black" stroke-width="1.80407" stroke-linecap="round"/>
<path d="M1346.76 461.532C1346.23 461.951 1344.26 456.005 1344.8 453.204L1353.08 450.478C1353.14 453.876 1353.56 455.731 1355.05 458.805C1352.82 460.197 1346.76 461.532 1346.76 461.532Z" stroke="black" stroke-width="1.80407" stroke-linecap="round"/>
<path d="M1348.13 416.575L1395.19 403.502M1353.36 435.8L1400.42 421.189M1358.59 451.949L1404.9 435.8M1344.4 397.35L1392.21 385.814" stroke="black" stroke-width="1.80407" stroke-linecap="round"/>
<path d="M1347.92 456.977L1349.75 457.576L1351.43 453.354" stroke="black" stroke-width="1.80407" stroke-linecap="round"/>
<path d="M1341.58 440.796L1343.7 442.203L1345.1 437.278" stroke="black" stroke-width="1.80407" stroke-linecap="round"/>
<path d="M1336.66 421.095L1338.77 421.8L1340.18 418.282" stroke="black" stroke-width="1.80407" stroke-linecap="round"/>
<path d="M1332.44 401.396L1334.06 402.7L1335.95 397.879" stroke="black" stroke-width="1.80407" stroke-linecap="round"/>
<path d="M1337.51 515.439L1348.62 507.262C1340.15 497.203 1334.13 486.819 1328.83 475.87L1326.97 480.789C1330.48 491.317 1335.4 507.866 1337.51 515.439Z" fill="black" stroke="black" stroke-width="1.80407" stroke-linecap="round"/>
<path d="M1379.58 494.162C1382.36 489.732 1390.77 480.716 1402.09 480.091" stroke="black" stroke-width="1.80407" stroke-linecap="round"/>
<path d="M1288.15 456.076L1316.47 439.284L1320.24 450.479C1322.03 446.238 1322.48 442.513 1328.22 443.482C1336.51 444.881 1335.82 461.673 1330.98 469.369C1327.11 475.527 1325.22 487.794 1324.76 493.158C1314.81 525.622 1279.17 527.208 1262.58 523.943L1251.53 494.557C1259.82 496.237 1264.2 493.391 1265.35 491.759L1288.15 456.076Z" fill="white"/>
<path d="M1298.51 474.967C1304.04 472.168 1310.25 461.673 1316.47 456.076C1318.39 454.353 1319.45 452.365 1320.24 450.479M1320.24 450.479C1322.03 446.238 1322.48 442.513 1328.22 443.482C1336.51 444.881 1335.82 461.673 1330.98 469.369C1327.11 475.527 1325.22 487.794 1324.76 493.158C1314.81 525.622 1279.17 527.208 1262.58 523.943L1251.53 494.557C1259.82 496.237 1264.2 493.391 1265.35 491.759L1288.15 456.076L1316.47 439.284L1320.24 450.479Z" stroke="black" stroke-width="1.80407" stroke-linecap="round"/>
<path fill-rule="evenodd" clip-rule="evenodd" d="M1245.88 489.922C1251.52 490.862 1256.33 494.795 1258.28 500.351L1263.82 516.112C1265.47 520.803 1264.22 525.754 1261.09 529.109L1245.88 489.922Z" fill="#FFFEFE"/>
<path d="M1245.88 489.922L1246.03 489.032L1244.47 488.771L1245.04 490.248L1245.88 489.922ZM1258.28 500.351L1257.43 500.65L1257.43 500.65L1258.28 500.351ZM1263.82 516.112L1264.67 515.813L1264.67 515.813L1263.82 516.112ZM1261.09 529.109L1260.25 529.435L1260.77 530.775L1261.75 529.725L1261.09 529.109ZM1245.88 489.922L1245.73 490.811C1251.05 491.698 1255.59 495.409 1257.43 500.65L1258.28 500.351L1259.13 500.052C1257.07 494.181 1251.99 490.025 1246.03 489.032L1245.88 489.922ZM1258.28 500.351L1257.43 500.65L1262.97 516.411L1263.82 516.112L1264.67 515.813L1259.13 500.052L1258.28 500.351ZM1263.82 516.112L1262.97 516.411C1264.5 520.77 1263.34 525.372 1260.43 528.493L1261.09 529.109L1261.75 529.725C1265.1 526.136 1266.44 520.835 1264.67 515.813L1263.82 516.112ZM1261.09 529.109L1261.93 528.783L1246.72 489.595L1245.88 489.922L1245.04 490.248L1260.25 529.435L1261.09 529.109Z" fill="black"/>
</svg>
