<svg width="386" height="256" viewBox="0 0 386 256" fill="none" xmlns="http://www.w3.org/2000/svg">
<rect width="385.048" height="255.086" rx="9.44763" fill="#CDCDCD"/>
<path d="M98 46.3936H164.199C168.4 46.3936 171.806 49.7991 171.806 54V70.9434C171.806 74.0397 169.296 76.5498 166.199 76.5498H102C97.7991 76.5498 94.3936 73.1442 94.3936 68.9434V50C94.3936 48.0083 96.0083 46.3936 98 46.3936Z" fill="black" stroke="black" stroke-width="0.787302"/>
<rect x="94.3937" y="46.3937" width="74.3463" height="27.1577" rx="3.60635" fill="#D9D9D9" stroke="black" stroke-width="0.787302"/>
<path d="M104.166 59.9721C104.166 58.651 105.237 57.5801 106.558 57.5801H156.575C157.896 57.5801 158.967 58.651 158.967 59.9721C158.967 61.2931 157.896 62.364 156.575 62.364H106.558C105.237 62.364 104.166 61.2931 104.166 59.9721Z" fill="white"/>
<path d="M280.581 95.877C286.38 95.8772 291.081 100.578 291.081 106.377V206.412C291.081 208.345 289.514 209.912 287.581 209.912H141.929C136.13 209.912 131.429 205.211 131.429 199.412V99.377C131.429 97.4441 132.996 95.877 134.929 95.877H280.581Z" fill="black"/>
<path d="M280.581 95.877L280.581 95.377H280.581V95.877ZM291.081 106.377H291.581V106.377L291.081 106.377ZM287.581 209.912V210.412H287.581L287.581 209.912ZM131.429 99.377L130.929 99.3769V99.377H131.429ZM280.581 95.877L280.581 96.377C286.104 96.3772 290.581 100.854 290.581 106.377L291.081 106.377L291.581 106.377C291.581 100.302 286.656 95.3773 280.581 95.377L280.581 95.877ZM291.081 106.377H290.581V206.412H291.081H291.581V106.377H291.081ZM291.081 206.412H290.581C290.581 208.069 289.238 209.412 287.581 209.412L287.581 209.912L287.581 210.412C289.79 210.412 291.581 208.621 291.581 206.412H291.081ZM287.581 209.912V209.412H141.929V209.912V210.412H287.581V209.912ZM141.929 209.912V209.412C136.406 209.412 131.929 204.935 131.929 199.412H131.429H130.929C130.929 205.487 135.854 210.412 141.929 210.412V209.912ZM131.429 199.412H131.929V99.377H131.429H130.929V199.412H131.429ZM131.429 99.377L131.929 99.377C131.929 97.7202 133.272 96.377 134.929 96.377V95.877V95.377C132.72 95.377 130.929 97.1679 130.929 99.3769L131.429 99.377ZM134.929 95.877V96.377H280.581V95.877V95.377H134.929V95.877Z" fill="black"/>
<path d="M131.567 83.774V93.6947L152.304 95.994L136.597 81.5647C134.673 79.7977 131.567 81.1621 131.567 83.774Z" fill="black" stroke="black" stroke-linecap="round" stroke-linejoin="round"/>
<path fill-rule="evenodd" clip-rule="evenodd" d="M131.759 81.5439C131.946 81.4665 132.161 81.5093 132.304 81.6523L146.145 95.4931H282.24C284.173 95.4933 285.74 97.0602 285.74 98.9932V201.062C285.74 202.995 284.173 204.562 282.24 204.562H134.95C133.017 204.562 131.45 202.995 131.45 201.062V98.9932C131.45 98.7692 131.472 98.5502 131.512 98.3379C131.474 98.2673 131.45 98.1874 131.45 98.1015V82.0058C131.45 81.8036 131.572 81.6213 131.759 81.5439Z" fill="white"/>
<path d="M131.759 81.5439L131.567 81.082L131.567 81.082L131.759 81.5439ZM146.145 95.4931L145.791 95.8467C145.885 95.9405 146.012 95.9931 146.145 95.9931V95.4931ZM282.24 95.4931L282.24 94.9931H282.24V95.4931ZM285.74 201.062L286.24 201.063V201.062H285.74ZM282.24 204.562V205.062H282.24L282.24 204.562ZM134.95 204.562L134.95 205.062H134.95V204.562ZM131.45 201.062H130.95V201.063L131.45 201.062ZM131.45 98.9932L130.95 98.9931V98.9932H131.45ZM131.512 98.3379L132.003 98.4309C132.024 98.3181 132.006 98.2013 131.952 98.1002L131.512 98.3379ZM131.45 98.1015H130.95L130.95 98.1018L131.45 98.1015ZM131.759 81.5439L131.95 82.0059L131.95 82.0059L132.304 81.6523L132.657 81.2988C132.371 81.0128 131.941 80.9272 131.567 81.082L131.759 81.5439ZM132.304 81.6523L131.95 82.0059L145.791 95.8467L146.145 95.4931L146.498 95.1396L132.657 81.2988L132.304 81.6523ZM146.145 95.4931V95.9931H282.24V95.4931V94.9931H146.145V95.4931ZM282.24 95.4931L282.24 95.9931C283.897 95.9932 285.24 97.3364 285.24 98.9932H285.74H286.24C286.24 96.784 284.449 94.9933 282.24 94.9931L282.24 95.4931ZM285.74 98.9932H285.24V201.062H285.74H286.24V98.9932H285.74ZM285.74 201.062L285.24 201.062C285.24 202.719 283.897 204.062 282.24 204.062L282.24 204.562L282.24 205.062C284.449 205.062 286.24 203.271 286.24 201.063L285.74 201.062ZM282.24 204.562V204.062H134.95V204.562V205.062H282.24V204.562ZM134.95 204.562L134.95 204.062C133.293 204.062 131.95 202.719 131.95 201.062L131.45 201.062L130.95 201.063C130.95 203.271 132.741 205.062 134.95 205.062L134.95 204.562ZM131.45 201.062H131.95V98.9932H131.45H130.95V201.062H131.45ZM131.45 98.9932H131.95C131.95 98.801 131.968 98.6131 132.003 98.4309L131.512 98.3379L131.02 98.2448C130.975 98.4872 130.95 98.7374 130.95 98.9931L131.45 98.9932ZM131.512 98.3379L131.952 98.1002C131.95 98.0968 131.949 98.0953 131.95 98.0958C131.95 98.0966 131.95 98.0986 131.95 98.1013L131.45 98.1015L130.95 98.1018C130.95 98.28 130.999 98.4409 131.072 98.5756L131.512 98.3379ZM131.45 98.1015H131.95V82.0058H131.45H130.95V98.1015H131.45ZM131.45 82.0058H131.95L131.95 82.0058L131.759 81.5439L131.567 81.082C131.194 81.2368 130.95 81.6014 130.95 82.0058H131.45Z" fill="black"/>
<rect x="145.161" y="133.692" width="109.868" height="4.61031" rx="2.30516" fill="#D9D9D9"/>
<rect x="145.161" y="154.871" width="118.736" height="4.18045" rx="2.09022" fill="#D9D9D9"/>
<rect x="145.161" y="172.086" width="107.696" height="4.18045" rx="2.09022" fill="#D9D9D9"/>
<rect x="145.161" y="163.479" width="126.463" height="4.18045" rx="2.09022" fill="#D9D9D9"/>
</svg>
