<svg width="386" height="256" viewBox="0 0 386 256" fill="none" xmlns="http://www.w3.org/2000/svg">
<rect width="385.048" height="255.086" rx="9.44763" fill="#CDCDCD"/>
<path d="M86 121.456H294.77C297.807 121.456 300.27 123.918 300.27 126.956V149.419C300.27 150.8 299.15 151.919 297.77 151.919H90C86.9624 151.919 84.5 149.457 84.5 146.419V122.956C84.5 122.128 85.1716 121.456 86 121.456Z" fill="black" stroke="black"/>
<rect x="84.5" y="121.456" width="210.776" height="24.9649" rx="1.5" fill="white" stroke="black"/>
<path d="M84 105.709C84 104.31 85.1337 103.177 86.5322 103.177H176.841C178.239 103.177 179.373 104.31 179.373 105.709C179.373 107.107 178.239 108.241 176.841 108.241H86.5322C85.1337 108.241 84 107.107 84 105.709Z" fill="white"/>
<path d="M194.407 100.842L203.793 110.431M203.793 100.842L194.407 110.431" stroke="black" stroke-width="3" stroke-linecap="round" stroke-linejoin="round"/>
<path d="M199.03 112.418L199.173 99M192.393 105.781L205.81 105.637" stroke="black" stroke-width="3" stroke-linecap="round" stroke-linejoin="round"/>
</svg>
