<svg width="386" height="256" viewBox="0 0 386 256" fill="none" xmlns="http://www.w3.org/2000/svg">
<rect width="385.048" height="255.086" rx="9.44763" fill="#CDCDCD"/>
<path d="M81.1914 39.5H300.245C305.492 39.5 309.745 43.7533 309.745 49V200.262C309.745 205.508 305.492 209.762 300.245 209.762H85.1914C79.9447 209.762 75.6914 205.508 75.6914 200.262V45C75.6914 41.9624 78.1538 39.5 81.1914 39.5Z" fill="black" stroke="black"/>
<rect x="75.5" y="39.5" width="230.031" height="164.898" rx="5.5" fill="white" stroke="black"/>
<rect x="87.7603" y="74.7483" width="9.34467" height="9.34467" rx="1.5" fill="#D9D9D9" stroke="black"/>
<rect x="87.7603" y="102.718" width="9.34467" height="9.34467" rx="1.5" fill="#D9D9D9" stroke="black"/>
<rect x="87.7603" y="130.687" width="9.34467" height="9.34467" rx="1.5" fill="#D9D9D9" stroke="black"/>
<rect x="87.7603" y="158.656" width="9.34467" height="9.34467" rx="1.5" fill="#D9D9D9" stroke="black"/>
<rect x="87.7603" y="46.7795" width="9.34467" height="9.34467" rx="1.5" fill="#D9D9D9" stroke="black"/>
<path d="M76.1914 93.4058H306.839" stroke="black" stroke-linecap="round" stroke-linejoin="round"/>
<path d="M76.1914 65.437H306.839" stroke="black" stroke-linecap="round" stroke-linejoin="round"/>
<path d="M76.1914 149.343H306.839" stroke="black" stroke-linecap="round" stroke-linejoin="round"/>
<path d="M76.1914 121.375H306.839" stroke="black" stroke-linecap="round" stroke-linejoin="round"/>
<path d="M76.1914 177.312H306.839" stroke="black" stroke-linecap="round" stroke-linejoin="round"/>
<path d="M76.1914 189.189H306.839" stroke="black" stroke-linecap="round" stroke-linejoin="round"/>
<path d="M107.748 46.4709V56.4325" stroke="black" stroke-linecap="round" stroke-linejoin="round"/>
<path d="M146.322 46.4709V56.4325" stroke="black" stroke-linecap="round" stroke-linejoin="round"/>
<path d="M184.896 46.4709V56.4325" stroke="black" stroke-linecap="round" stroke-linejoin="round"/>
<path d="M223.471 46.4709V56.4325" stroke="black" stroke-linecap="round" stroke-linejoin="round"/>
<path d="M262.045 46.4709V56.4325" stroke="black" stroke-linecap="round" stroke-linejoin="round"/>
<rect width="24.8742" height="2.5" rx="1.25" transform="matrix(-1 0 0 1 140.046 50.4863)" fill="#D9D9D9"/>
<rect width="24.8742" height="2.5" rx="1.25" transform="matrix(-1 0 0 1 140.046 78.1714)" fill="#D9D9D9"/>
<rect width="24.8742" height="2.5" rx="1.25" transform="matrix(-1 0 0 1 140.046 106.141)" fill="#D9D9D9"/>
<rect width="24.8742" height="2.5" rx="1.25" transform="matrix(-1 0 0 1 140.046 134.109)" fill="#D9D9D9"/>
<rect width="24.8742" height="2.5" rx="1.25" transform="matrix(-1 0 0 1 140.046 162.078)" fill="#D9D9D9"/>
<rect width="24.8742" height="2.5" rx="1.25" transform="matrix(-1 0 0 1 178.62 50.4863)" fill="#D9D9D9"/>
<rect width="24.8742" height="2.5" rx="1.25" transform="matrix(-1 0 0 1 178.62 106.141)" fill="#D9D9D9"/>
<rect width="24.8742" height="2.5" rx="1.25" transform="matrix(-1 0 0 1 178.62 134.109)" fill="#D9D9D9"/>
<rect width="24.8742" height="2.5" rx="1.25" transform="matrix(-1 0 0 1 178.62 78.1714)" fill="#D9D9D9"/>
<rect width="24.8742" height="2.5" rx="1.25" transform="matrix(-1 0 0 1 178.62 162.078)" fill="#D9D9D9"/>
<rect width="24.8742" height="2.5" rx="1.25" transform="matrix(-1 0 0 1 217.195 106.141)" fill="#D9D9D9"/>
<rect width="24.8742" height="2.5" rx="1.25" transform="matrix(-1 0 0 1 217.195 50.4863)" fill="#D9D9D9"/>
<rect width="24.8742" height="2.5" rx="1.25" transform="matrix(-1 0 0 1 217.195 134.109)" fill="#D9D9D9"/>
<rect width="24.8742" height="2.5" rx="1.25" transform="matrix(-1 0 0 1 217.195 78.1714)" fill="#D9D9D9"/>
<rect width="24.8742" height="2.5" rx="1.25" transform="matrix(-1 0 0 1 255.771 106.141)" fill="#D9D9D9"/>
<rect width="24.8742" height="2.5" rx="1.25" transform="matrix(-1 0 0 1 217.195 162.078)" fill="#D9D9D9"/>
<rect width="24.8742" height="2.5" rx="1.25" transform="matrix(-1 0 0 1 255.771 134.109)" fill="#D9D9D9"/>
<rect width="24.8742" height="2.5" rx="1.25" transform="matrix(-1 0 0 1 255.771 50.4863)" fill="#D9D9D9"/>
<rect width="24.8742" height="2.5" rx="1.25" transform="matrix(-1 0 0 1 294.346 106.141)" fill="#D9D9D9"/>
<rect width="24.8742" height="2.5" rx="1.25" transform="matrix(-1 0 0 1 294.346 134.109)" fill="#D9D9D9"/>
<rect width="24.8742" height="2.5" rx="1.25" transform="matrix(-1 0 0 1 255.771 78.1714)" fill="#D9D9D9"/>
<rect width="24.8742" height="2.5" rx="1.25" transform="matrix(-1 0 0 1 255.771 162.078)" fill="#D9D9D9"/>
<rect width="24.8742" height="2.5" rx="1.25" transform="matrix(-1 0 0 1 269.472 195.674)" fill="#D9D9D9"/>
<rect width="24.8742" height="2.5" rx="1.25" transform="matrix(-1 0 0 1 294.346 50.4863)" fill="#D9D9D9"/>
<rect width="24.8742" height="2.5" rx="1.25" transform="matrix(-1 0 0 1 294.346 78.1714)" fill="#D9D9D9"/>
<rect width="24.8742" height="2.5" rx="1.25" transform="matrix(-1 0 0 1 294.346 162.078)" fill="#D9D9D9"/>
<path d="M280.143 194.983L277.68 197.204L280.143 198.863" stroke="black" stroke-linecap="round" stroke-linejoin="round"/>
<path d="M289.882 194.983L292.346 197.204L289.882 198.863" stroke="black" stroke-linecap="round" stroke-linejoin="round"/>
</svg>
