<svg width="130" height="130" viewBox="0 0 130 130" fill="none" xmlns="http://www.w3.org/2000/svg">
<g clip-path="url(#clip0_2669_424589)">
<path d="M4.31055 128.523C51.3197 128.523 67.7082 3.44995 128.518 3.44995V128.523H66.4144H4.31055Z" fill="#E0F1FF" fill-opacity="0.8"/>
<path d="M3.01953 127.661C52.6164 127.661 67.7111 3.44977 127.021 3.44995" stroke="#006DCC" stroke-width="1.92834"/>
<path d="M126.674 0.482422C128.245 0.482422 129.519 1.75612 129.519 3.32715C129.518 4.89795 128.245 6.1709 126.674 6.1709C125.103 6.17067 123.83 4.89781 123.83 3.32715C123.83 1.75626 125.103 0.482649 126.674 0.482422Z" fill="#006DCC" stroke="#006DCC" stroke-width="0.964169"/>
<path d="M3.32617 123.898C4.8591 123.898 6.10254 125.142 6.10254 126.675C6.10228 128.208 4.85894 129.45 3.32617 129.45C1.7936 129.45 0.551045 128.207 0.550781 126.675C0.550781 125.142 1.79343 123.899 3.32617 123.898Z" fill="#006DCC" stroke="#006DCC" stroke-width="1.10191"/>
</g>
<defs>
<clipPath id="clip0_2669_424589">
<rect width="130.001" height="130" fill="white"/>
</clipPath>
</defs>
</svg>
