<svg width="386" height="256" viewBox="0 0 386 256" fill="none" xmlns="http://www.w3.org/2000/svg">
<rect width="385.048" height="255.086" rx="9.44763" fill="#CDCDCD"/>
<path d="M53 125.146V112C53 106.477 57.4772 102 63 102H314.555C322.839 102 329.555 108.716 329.555 117V130.146C329.555 135.668 325.078 140.146 319.555 140.146H68C59.7157 140.146 53 133.43 53 125.146Z" fill="black" stroke="black" stroke-linecap="round" stroke-linejoin="round"/>
<path d="M53 125.011V112C53 106.477 57.4772 102 63 102H315.153C320.676 102 325.153 106.477 325.153 112V125.011C325.153 130.533 320.676 135.011 315.153 135.011H63C57.4772 135.011 53 130.533 53 125.011Z" fill="white" stroke="black" stroke-linecap="round" stroke-linejoin="round"/>
<circle cx="69.2164" cy="118.139" r="6.6021" fill="#D9D9D9"/>
<circle cx="108.188" cy="118.139" r="6.6021" fill="#D9D9D9"/>
<circle cx="148.329" cy="118.139" r="6.6021" fill="#D9D9D9"/>
<circle cx="189.077" cy="118.139" r="6.6021" fill="#D9D9D9"/>
<circle cx="229.521" cy="118.139" r="6.6021" fill="#D9D9D9"/>
<path d="M87.9658 102V135.011" stroke="black" stroke-linecap="round" stroke-linejoin="round"/>
<path d="M168.855 102V135.011" stroke="black" stroke-linecap="round" stroke-linejoin="round"/>
<path d="M249.742 102V135.011" stroke="black" stroke-linecap="round" stroke-linejoin="round"/>
<path d="M128.41 102V135.011" stroke="black" stroke-linecap="round" stroke-linejoin="round"/>
<path d="M290.187 102V135.011" stroke="black" stroke-linecap="round" stroke-linejoin="round"/>
<path d="M209.298 102V135.011" stroke="black" stroke-linecap="round" stroke-linejoin="round"/>
<path d="M265.562 111.537L274.365 118.916L265.562 125.475" stroke="black" stroke-linecap="round" stroke-linejoin="round"/>
<path d="M299.234 111.537L308.037 118.916L299.234 125.475" stroke="black" stroke-linecap="round" stroke-linejoin="round"/>
<path d="M308.037 111.537L316.84 118.916L308.037 125.475" stroke="black" stroke-linecap="round" stroke-linejoin="round"/>
</svg>
