<svg width="386" height="256" viewBox="0 0 386 256" fill="none" xmlns="http://www.w3.org/2000/svg">
<rect width="385.048" height="255.086" rx="9.44763" fill="#CDCDCD"/>
<path d="M65 103.5H309.278C314.525 103.5 318.778 107.753 318.778 113V142.887C318.778 145.924 316.316 148.387 313.278 148.387H69C63.7533 148.387 59.5 144.133 59.5 138.887V109C59.5 105.962 61.9624 103.5 65 103.5Z" fill="black" stroke="black"/>
<rect x="59.5" y="103.5" width="255.278" height="39.3684" rx="5.5" fill="#D9D9D9" stroke="black"/>
<circle cx="81.5309" cy="123.184" r="8.77409" fill="white" stroke="black"/>
<path fill-rule="evenodd" clip-rule="evenodd" d="M79.3179 122.301C79.3179 121.894 79.6482 121.563 80.0556 121.563H81.531C81.9384 121.563 82.2687 121.894 82.2687 122.301V127.096H83.5596C83.967 127.096 84.2973 127.426 84.2973 127.834C84.2973 128.241 83.967 128.571 83.5596 128.571H79.5023C79.0949 128.571 78.7646 128.241 78.7646 127.834C78.7646 127.426 79.0949 127.096 79.5023 127.096H80.7933V123.039H80.0556C79.6482 123.039 79.3179 122.708 79.3179 122.301Z" stroke="black"/>
<path d="M81.3466 117.797C81.1095 117.797 80.8777 117.867 80.6806 117.999C80.4834 118.131 80.3298 118.318 80.2391 118.537C80.1483 118.756 80.1246 118.997 80.1708 119.229C80.2171 119.462 80.3313 119.676 80.4989 119.843C80.6666 120.011 80.8802 120.125 81.1127 120.171C81.3452 120.218 81.5863 120.194 81.8053 120.103C82.0243 120.012 82.2116 119.859 82.3433 119.662C82.475 119.464 82.5453 119.233 82.5453 118.996C82.5453 118.678 82.419 118.373 82.1942 118.148C81.9694 117.923 81.6645 117.797 81.3466 117.797Z" stroke="black"/>
<rect x="105.117" y="120.704" width="134.317" height="4.96004" rx="2.48002" fill="white"/>
<circle cx="296.164" cy="123.184" r="5.01882" fill="white" stroke="black"/>
<path d="M293.976 120.947L298.352 125.418M298.352 120.947L293.976 125.418" stroke="black" stroke-linecap="round" stroke-linejoin="round"/>
</svg>
