<svg width="386" height="256" viewBox="0 0 386 256" fill="none" xmlns="http://www.w3.org/2000/svg">
<rect width="385.048" height="255.086" rx="9.44763" fill="#CDCDCD"/>
<path d="M91 45.5H290.649C297.553 45.5002 303.149 51.0966 303.149 58V196.34C303.149 203.796 297.105 209.84 289.649 209.84H93C86.6487 209.84 81.5 204.691 81.5 198.34V55C81.5 49.7533 85.7533 45.5 91 45.5Z" fill="black" stroke="black"/>
<rect x="81.5" y="45.5" width="216.149" height="157.84" rx="9.5" fill="white" stroke="black"/>
<rect x="103.635" y="80.2227" width="172.325" height="20.2506" rx="1.5" stroke="black"/>
<rect x="103.635" y="131.357" width="172.325" height="20.2506" rx="1.5" stroke="black"/>
<path d="M103.135 67.5432C103.135 66.3986 104.063 65.4707 105.207 65.4707H179.119C180.264 65.4707 181.191 66.3986 181.191 67.5432C181.191 68.6878 180.264 69.6156 179.119 69.6156H105.207C104.063 69.6156 103.135 68.6878 103.135 67.5432Z" fill="#D9D9D9"/>
<path d="M103.135 118.677C103.135 117.532 104.063 116.604 105.207 116.604H163.609C164.754 116.604 165.682 117.532 165.682 118.677C165.682 119.822 164.754 120.749 163.609 120.749H105.207C104.063 120.749 103.135 119.822 103.135 118.677Z" fill="#D9D9D9"/>
<path d="M129.303 171.803C129.303 170.658 130.231 169.73 131.375 169.73H165.642C166.787 169.73 167.715 170.658 167.715 171.803C167.715 172.948 166.787 173.875 165.642 173.875H131.375C130.231 173.875 129.303 172.948 129.303 171.803Z" fill="#D9D9D9"/>
<path d="M106.436 162.984H115.626C119.216 162.985 122.126 165.895 122.126 169.484V178.675C122.126 180.607 120.559 182.175 118.626 182.175H109.436C105.846 182.175 102.936 179.264 102.936 175.675V166.484C102.936 164.551 104.503 162.984 106.436 162.984Z" fill="black" stroke="black"/>
<rect x="102.936" y="162.984" width="17.6369" height="17.6369" rx="3.5" fill="white" stroke="black"/>
<path d="M107.076 171.854L110.562 175.596L116.429 168.703" stroke="black" stroke-width="3" stroke-linecap="round" stroke-linejoin="round"/>
<rect x="218.708" y="164.08" width="57.3573" height="20.8389" rx="3.60635" fill="#C2C2C2" stroke="black" stroke-width="0.787302"/>
<path d="M226.182 174.5C226.182 173.477 227.01 172.648 228.033 172.648H266.74C267.763 172.648 268.591 173.477 268.591 174.5C268.591 175.522 267.763 176.351 266.74 176.351H228.033C227.01 176.351 226.182 175.522 226.182 174.5Z" fill="white"/>
</svg>
