<svg width="173" height="91" viewBox="0 0 173 91" fill="none" xmlns="http://www.w3.org/2000/svg">
<g clip-path="url(#clip0_2040_1613)">
<path d="M172.8 46.1006H158.4V60.501H172.8V46.1006Z" fill="#00AAD2"/>
<path d="M83.4555 57.711C82.0155 57.849 80.5119 57.9882 78.9315 58.0566C79.5063 53.7005 81.8751 47.6883 84.8187 48.6484C86.5419 49.2016 85.6083 54.3197 83.4543 57.7086L83.4555 57.711ZM79.7919 60.6823C79.3639 60.7514 78.9275 60.7514 78.4995 60.6823C78.6109 60.6047 78.7018 60.5013 78.7645 60.381C78.8272 60.2606 78.8598 60.1268 78.8595 59.9911V59.4378C79.6491 59.4378 80.8695 59.2998 82.3779 59.1606C81.7145 59.9471 80.8027 60.4839 79.7931 60.6823H79.7919ZM97.7427 50.3116C99.6099 48.6484 100.543 48.79 100.755 49.2052C101.257 50.1736 99.1035 53.5625 94.8675 55.4297C95.3038 53.4796 96.3022 51.7002 97.7391 50.3116H97.7427ZM167.026 51.9712C166.81 48.5824 163.723 48.0291 163.293 48.9976C163.149 49.3432 164.441 49.2052 164.441 51.6256C164.441 55.5677 160.277 60.7543 154.961 60.7543C153.116 60.8656 151.3 60.2577 149.895 59.0583C148.489 57.8589 147.602 56.1613 147.421 54.3221C147.205 52.8701 147.565 50.8636 144.981 51.1408C143.181 51.3484 141.606 54.6677 139.308 57.501C137.369 59.9215 136.507 59.7139 136.938 57.639C137.513 55.0109 139.739 48.9256 142.324 48.5104C143.544 48.3027 143.975 50.3104 144.484 49.0636C144.667 48.6246 144.738 48.1475 144.693 47.6742C144.648 47.2009 144.487 46.746 144.225 46.3497C143.962 45.9533 143.606 45.6276 143.188 45.4012C142.77 45.1749 142.303 45.0549 141.827 45.0519C139.96 45.0519 137.734 46.9887 135.868 49.132C134.289 51.0688 126.174 62.5483 122.728 60.0595C121.149 58.8834 121.288 54.1793 122.297 48.6484C123.756 48.0168 125.325 47.6795 126.915 47.6559C128.504 47.6322 130.083 47.9226 131.56 48.5104C132.493 48.9256 132.64 48.856 132.207 47.8875C131.632 46.4355 128.401 44.153 123.304 45.1899C123.16 45.1899 123.088 45.2595 122.944 45.2595C123.375 43.4594 123.805 41.5946 124.384 39.7957C124.887 38.1361 126.251 35.3004 122.584 34.8168C121.435 34.6092 121.938 35.1624 121.504 36.684C120.784 39.4501 119.925 43.0442 119.278 46.7115C115.95 48.6064 113.234 51.4143 111.451 54.8033C111.866 53.2349 112.178 51.641 112.385 50.032C112.425 49.6343 112.315 49.2359 112.076 48.9157C111.836 48.5955 111.486 48.3768 111.093 48.3027C110.303 48.0951 109.293 48.4408 108.364 49.7548C106.138 52.7981 103.338 57.5694 99.0303 59.5747C95.9427 61.0267 94.5783 59.5747 94.5075 57.2946C95.0478 57.1525 95.5758 56.9675 96.0867 56.7414C101.687 54.3905 103.554 50.794 102.19 48.5812C100.825 46.5063 97.0203 47.1291 93.9327 50.2408C92.3061 52.0384 91.3212 54.3245 91.1319 56.7414C89.8395 57.0186 88.4031 57.2214 86.7519 57.4326C89.3367 53.3525 89.1219 47.8191 85.3119 46.8519C80.8599 45.7455 78.6339 49.8952 77.7015 53.3525C78.0615 49.48 78.6351 45.6063 79.3527 41.8034C79.7127 40.1437 80.8599 37.308 77.1927 36.8244C76.0443 36.6168 76.1871 37.17 76.2591 38.6917C76.4031 40.7665 74.0331 53.1461 75.2535 58.5402C73.6743 59.0202 73.0275 60.1999 75.0375 61.3759C76.2534 61.8816 77.5658 62.1128 78.8813 62.0531C80.1968 61.9933 81.4829 61.6441 82.6479 61.0303C83.7309 60.5016 84.705 59.7742 85.5195 58.8858C87.3867 58.6782 89.3247 58.3326 91.1199 58.0554C91.4067 60.4759 93.0591 62.2735 96.7923 61.9279C102.106 61.4479 106.845 55.1501 108.64 52.108C108.28 55.3589 106.127 62.4811 109.86 62.1355C111.3 61.9975 110.722 61.7899 110.794 60.5455C111.154 56.2578 114.815 52.5929 118.474 50.3788C117.827 55.6349 118.043 60.3391 120.556 61.7899C125.151 64.556 131.542 57.2946 135.131 52.8689C133.331 56.811 132.33 61.7899 134.987 62.5507C138.147 63.4496 140.659 58.3326 143.603 54.4589C143.963 57.225 145.901 62.0659 153.655 62.0659C161.985 61.9963 167.226 57.1554 167.01 51.9688L167.026 51.9712ZM54.5703 60.6091C51.7718 59.6299 49.0379 58.4747 46.3851 57.1506C48.789 56.3034 51.139 55.3103 53.4219 54.1769C53.6711 56.3427 54.0546 58.4909 54.5703 60.6091V60.6091ZM75.7719 64.4888C75.6999 64.2812 75.1251 64.5584 74.6235 64.4888C73.1151 64.2812 71.1051 62.2759 70.5303 59.025C69.4503 53.1449 70.0995 47.3379 71.8947 38.6929C72.2547 37.0332 73.4031 34.1976 69.7347 33.6443C68.5863 33.5063 69.1599 34.0596 68.8731 35.5116C67.4331 41.9438 61.9803 46.5771 56.5239 49.6888C55.9491 42.3578 56.1639 34.128 57.6039 29.149C58.8279 24.9309 60.2631 25.6917 58.4679 24.7929C56.6727 23.8941 54.5907 25.0689 52.9395 28.2478C51.2883 31.4267 43.7547 48.514 31.6875 60.0631C25.5147 65.9408 19.9119 62.8987 18.8343 61.9999C17.9007 61.2391 17.6139 62.4151 18.6903 63.59C23.6451 68.8461 30.9687 65.87 33.6243 63.3128C40.9443 56.259 49.4919 41.0438 52.9443 34.6128C52.5372 40.235 52.6332 45.8824 53.2311 51.4876C50.456 52.7941 47.5733 53.8585 44.6151 54.6689C42.8919 55.0841 41.8143 55.7753 41.8143 56.5362C41.8143 57.297 42.9627 58.0578 44.6151 58.8162C47.5587 60.1999 56.2467 64.0724 58.3287 65.3168C60.1287 66.3536 61.0575 65.5244 61.5603 64.418C62.2803 62.9659 60.3399 62.1379 58.4727 61.6519C57.6501 58.6144 57.0739 55.5154 56.7495 52.3853C61.1295 49.7572 65.5095 46.2999 67.9503 41.945C67.3047 45.5451 65.7243 57.921 69.7503 63.1076C70.3069 63.8234 71.0253 64.3971 71.8465 64.7815C72.6678 65.166 73.5685 65.3502 74.4747 65.3192C75.4803 65.2496 75.9147 64.628 75.7671 64.4888" fill="#5F6A72"/>
</g>
<defs>
<clipPath id="clip0_2040_1613">
<rect width="154.8" height="42" fill="white" transform="translate(18 24.5)"/>
</clipPath>
</defs>
</svg>
