<!-- Generator: Adobe Illustrator 24.2.1, SVG Export Plug-In . SVG Version: 6.00 Build 0)  -->
<svg version="1.1" id="Layer_1" xmlns="http://www.w3.org/2000/svg" xmlns:xlink="http://www.w3.org/1999/xlink" x="0px" y="0px"
	 viewBox="0 0 149.4 65" style="enable-background:new 0 0 149.4 65;" xml:space="preserve">
<style type="text/css">
	.st0{fill:#00AAD2;}
	.st1{fill:#FFFFFF;}
	.st2{enable-background:new    ;}
</style>
<g id="Group_8673" transform="translate(736 -376)">
	<g id="Alberta_logo_-_desktop_header" transform="translate(-736 376)">
		<rect id="Rectangle_833" x="135.8" y="21.5" class="st0" width="13.6" height="13.6"/>
		<path id="Path_419" class="st1" d="M63,33.2c-1.4,0.1-2.8,0.3-4.4,0.3c0.6-4.4,2.8-10.4,5.7-9.4C66,24.7,65.1,29.8,63,33.2
			 M59.5,36.2c-0.4,0.1-0.8,0.1-1.2,0c0.2-0.2,0.3-0.4,0.3-0.7v-0.6c0.8,0,1.9-0.1,3.4-0.3C61.4,35.4,60.5,36,59.5,36.2 M76.8,25.8
			c1.8-1.7,2.7-1.5,2.9-1.1c0.5,1-1.6,4.4-5.7,6.2C74.4,29,75.4,27.2,76.8,25.8 M143.5,27.5c-0.2-3.4-3.2-3.9-3.6-3
			c-0.1,0.3,1.1,0.2,1.1,2.6c0,3.9-4,9.1-9.1,9.1c-5.5,0-7-4.4-7.3-6.4c-0.2-1.5,0.1-3.5-2.4-3.2c-1.7,0.2-3.2,3.5-5.5,6.4
			c-1.9,2.4-2.7,2.2-2.3,0.1c0.6-2.6,2.7-8.7,5.2-9.1c1.2-0.2,1.6,1.8,2.1,0.6s0.1-4-2.6-4c-1.8,0-3.9,1.9-5.7,4.1
			c-1.5,1.9-9.3,13.4-12.7,10.9c-1.5-1.2-1.4-5.9-0.4-11.4c3.9-1.5,7.1-1,8.9-0.1c0.9,0.4,1,0.3,0.6-0.6c-0.6-1.5-3.7-3.7-8.6-2.7
			c-0.1,0-0.2,0.1-0.3,0.1c0.4-1.8,0.8-3.7,1.4-5.5c0.5-1.7,1.8-4.5-1.7-5c-1.1-0.2-0.6,0.3-1,1.9c-0.7,2.8-1.5,6.4-2.1,10
			c-3.2,1.9-5.8,4.7-7.5,8.1c0.4-1.6,0.7-3.2,0.9-4.8c0.1-0.8-0.4-1.6-1.2-1.7c-0.8-0.2-1.7,0.1-2.6,1.5c-2.1,3-4.8,7.8-9,9.8
			c-3,1.5-4.3,0-4.4-2.3c0.5-0.1,1-0.3,1.5-0.6c5.4-2.4,7.2-5.9,5.9-8.2c-1.3-2.1-5-1.5-8,1.7c-1.6,1.8-2.5,4.1-2.7,6.5
			c-1.2,0.3-2.6,0.5-4.2,0.7c2.5-4.1,2.3-9.6-1.4-10.6c-4.3-1.1-6.4,3-7.3,6.5c0.3-3.9,0.9-7.7,1.6-11.5c0.3-1.7,1.5-4.5-2.1-5
			c-1.1-0.2-1,0.3-0.9,1.9c0.1,2.1-2.1,14.5-1,19.8c-1.5,0.5-2.1,1.7-0.2,2.8c1.4,0.8,4.4,1.1,7.3-0.3c1-0.5,2-1.3,2.8-2.1
			c1.8-0.2,3.7-0.6,5.4-0.8c0.3,2.4,1.9,4.2,5.5,3.9c5.1-0.5,9.7-6.8,11.4-9.8c-0.3,3.2-2.4,10.4,1.2,10c1.4-0.1,0.8-0.3,0.9-1.6
			c0.3-4.3,3.9-8,7.4-10.2c-0.6,5.3-0.4,10,2,11.4c4.4,2.8,10.6-4.5,14-8.9c-1.7,3.9-2.7,8.9-0.1,9.7c3,0.9,5.5-4.2,8.3-8.1
			c0.3,2.8,2.2,7.6,9.7,7.6C138.7,37.5,143.7,32.7,143.5,27.5 M35.2,36.1c-2.7-1-5.3-2.1-7.9-3.5c2.3-0.8,4.6-1.8,6.8-3
			C34.4,31.8,34.7,34,35.2,36.1 M55.6,40c-0.1-0.2-0.6,0.1-1.1,0c-1.5-0.2-3.4-2.2-3.9-5.5c-1-5.9-0.4-11.7,1.3-20.3
			c0.3-1.7,1.5-4.5-2.1-5C48.7,9,49.3,9.6,49,11c-1.4,6.4-6.6,11.1-11.9,14.2c-0.5-7.3-0.3-15.6,1-20.5c1.2-4.2,2.6-3.5,0.8-4.4
			s-3.7,0.3-5.3,3.5S24.8,24,13.2,35.6c-5.9,5.9-11.3,2.8-12.4,1.9c-0.9-0.8-1.2,0.4-0.1,1.6c4.8,5.3,11.8,2.3,14.4-0.3
			c7.1-7.1,15.3-22.3,18.6-28.7c-0.4,5.6-0.3,11.3,0.3,16.9c-2.7,1.3-5.4,2.4-8.3,3.2c-1.7,0.4-2.7,1.1-2.7,1.9s1.1,1.5,2.7,2.3
			c2.8,1.4,11.2,5.3,13.2,6.5c1.7,1,2.6,0.2,3.1-0.9c0.7-1.5-1.2-2.3-3-2.8c-0.8-3-1.3-6.1-1.7-9.3c4.2-2.6,8.4-6.1,10.8-10.4
			c-0.6,3.6-2.1,16,1.7,21.2c1.1,1.4,2.8,2.3,4.6,2.2C55.4,40.8,55.8,40.1,55.6,40"/>
	</g>
	<g class="st2">
		<path class="st1" d="M-645.2,426.7l-1.4,6.6c-0.3,1.6,0,2.9,1.9,2.9c1.8,0,2.4-1.2,2.8-2.9l1.4-6.6h1.3l-1.4,6.6
			c-0.5,2.2-1.2,3.9-4.2,3.9c-2.5,0-3.6-1.5-3.1-3.9l1.4-6.6H-645.2z"/>
		<path class="st1" d="M-635.6,426.7l-2.2,10.3h-1.2l2.2-10.3H-635.6z"/>
		<path class="st1" d="M-629.5,426.7h1.2l-2,9.3h4.8l-0.4,1h-5.9L-629.5,426.7z"/>
		<path class="st1" d="M-622.5,429.4h1.2l-1.6,7.6h-1.2L-622.5,429.4z M-621.9,426.1h1.2l-0.3,1.6h-1.2L-621.9,426.1z"/>
		<path class="st1" d="M-618.4,426.1h1.2l-0.9,4.5c0.5-0.7,1.2-1.3,2.4-1.3c1.4,0,2.2,1,2.2,2.6c0,2-1,5.2-3.8,5.2
			c-1.2,0-1.7-0.6-1.9-1.2c0,0.3-0.2,0.9-0.3,1.1h-1.2c0.1-0.4,0.3-1.2,0.5-2.1L-618.4,426.1z M-614.8,432.1c0-1.2-0.6-1.8-1.4-1.8
			c-1.4,0-2.2,1.4-2.5,2.8c-0.3,1.5-0.2,3,1.4,3C-615.6,436.1-614.8,433.6-614.8,432.1z"/>
		<path class="st1" d="M-607.9,430.5c-1.6,0.1-2.6,1-2.9,2.8l-0.8,3.7h-1.2l1.1-5c0.3-1.2,0.4-2.1,0.5-2.6h1.2
			c0,0.2-0.1,0.9-0.3,1.5c0.6-1,1.5-1.6,2.7-1.6L-607.9,430.5z"/>
		<path class="st1" d="M-602.3,435.3c-0.1,0.6-0.3,1.4-0.3,1.7h-1.2c0-0.3,0.1-0.6,0.2-1c-0.4,0.6-1,1.1-2.3,1.1c-1.4,0-2-1-2-2
			c0-1.5,1.1-2.5,3.3-2.7c0.6-0.1,1-0.1,1.8-0.1l0.1-0.4c0.2-0.9,0.1-1.8-1.3-1.8c-1.1,0-1.5,0.6-1.7,1.3h-1.2c0.3-1.1,1-2.2,3-2.2
			c1.7,0,2.8,0.8,2.4,2.8L-602.3,435.3z M-603.1,433.3c-0.6,0-1.1,0-1.5,0.1c-1.2,0.1-2.1,0.6-2.1,1.6c0,0.7,0.4,1.2,1.2,1.2
			c1.5,0,2.1-1.3,2.3-2.5L-603.1,433.3z"/>
		<path class="st1" d="M-595.6,430.5c-1.6,0.1-2.6,1-2.9,2.8l-0.8,3.7h-1.2l1.1-5c0.3-1.2,0.4-2.1,0.5-2.6h1.2
			c0,0.2-0.1,0.9-0.3,1.5c0.6-1,1.5-1.6,2.7-1.6L-595.6,430.5z"/>
		<path class="st1" d="M-593.2,429.4c0.4,3.1,0.7,5.7,0.7,6.4h0c0.4-0.8,1.4-3,3.2-6.4h1.3l-4.2,8.1c-1.2,2.3-1.8,2.6-3.3,2.6
			c-0.2,0-0.7,0-0.8-0.1l0.2-1c0.2,0,0.4,0.1,0.7,0.1c0.9,0,1.3-0.5,2-1.9l-1-7.8H-593.2z"/>
	</g>
</g>
</svg>