<?xml version="1.0" encoding="UTF-8" standalone="no"?>
<!-- Created with Inkscape (http://www.inkscape.org/) -->

<svg
   width="15.359887"
   height="21.84425"
   viewBox="0 0 4.0639701 5.7796244"
   version="1.1"
   id="svg517"
   xmlns="http://www.w3.org/2000/svg"
   xmlns:svg="http://www.w3.org/2000/svg">
  <defs
     id="defs514" />
  <g
     id="layer1"
     transform="translate(-9.3451403,-8.7449866)">
    <path
       d="m 9.4177684,12.397631 1.7335986,2.02307 c 0.02794,0.03259 0.06261,0.05875 0.101611,0.07669 0.039,0.01794 0.08143,0.02722 0.124359,0.02722 0.04293,0 0.08535,-0.0093 0.12436,-0.02722 0.039,-0.01794 0.07367,-0.0441 0.10161,-0.07669 l 1.733598,-2.02307 c 0.165444,-0.193104 0.02828,-0.491381 -0.225981,-0.491381 H 9.6432424 c -0.254248,0 -0.391418,0.298277 -0.225474,0.491381 z"
       fill="#adadad"
       id="path335"
       style="stroke-width:0.264583" />
    <path
       d="M 13.336494,10.871968 11.602889,8.8488966 c -0.02794,-0.03259 -0.06261,-0.05875 -0.101611,-0.07669 -0.039,-0.01794 -0.08143,-0.02722 -0.124359,-0.02722 -0.04293,0 -0.08535,0.0093 -0.12436,0.02722 -0.03901,0.01794 -0.07367,0.0441 -0.101613,0.07669 L 9.4173471,10.871968 c -0.165447,0.193103 -0.02828,0.491379 0.225971,0.491379 h 3.4676979 c 0.254238,0 0.391425,-0.298276 0.225478,-0.491379 z"
       fill="#adadad"
       id="path2"
       style="stroke-width:0.264583" />
  </g>
</svg>
