<svg width="386" height="256" viewBox="0 0 386 256" fill="none" xmlns="http://www.w3.org/2000/svg">
<rect width="385.048" height="255.086" rx="9.44763" fill="#CDCDCD"/>
<path d="M145 107.394H235.028C239.229 107.394 242.635 110.799 242.635 115V141.373C242.635 144.469 240.125 146.979 237.028 146.979H149C144.799 146.979 141.394 143.574 141.394 139.373V111C141.394 109.008 143.008 107.394 145 107.394Z" fill="black" stroke="black" stroke-width="0.787302"/>
<rect x="141.394" y="107.394" width="97.2408" height="35.6731" rx="3.60635" fill="white" stroke="black" stroke-width="0.787302"/>
<path d="M154.264 125.23C154.264 123.507 155.661 122.109 157.384 122.109H222.643C224.366 122.109 225.764 123.507 225.764 125.23C225.764 126.954 224.366 128.351 222.643 128.351H157.384C155.661 128.351 154.264 126.954 154.264 125.23Z" fill="#D9D9D9"/>
</svg>
