<svg width="386" height="256" viewBox="0 0 386 256" fill="none" xmlns="http://www.w3.org/2000/svg">
<rect width="385.048" height="255.086" rx="9.44763" fill="#CDCDCD"/>
<path d="M58 46.8247C58 43.6078 60.6078 41 63.8247 41H319.213C323.299 41 326.611 44.3123 326.611 48.3983V210.467C326.611 212.88 324.655 214.836 322.243 214.836H65.3983C61.3123 214.836 58 211.524 58 207.438V46.8247Z" fill="black"/>
<rect x="58" y="41" width="264.351" height="169.314" rx="2.91235" fill="#DCDCDC" stroke="black" stroke-linecap="round"/>
<path d="M319.439 210.314C321.048 210.314 322.352 209.011 322.352 207.402L322.352 43.9123C322.352 42.3039 321.048 41 319.439 41L218.186 40.9999L218.186 210.314L319.439 210.314Z" fill="white" stroke="black" stroke-linecap="round"/>
<rect x="226.973" y="52.6768" width="54.1002" height="6.07361" rx="2.91235" fill="#DCDCDC"/>
<rect x="226.973" y="80.7891" width="78.1456" height="5.50731" rx="2.75365" fill="#DCDCDC"/>
<rect x="226.973" y="114.806" width="78.1456" height="5.50731" rx="2.75365" fill="#DCDCDC"/>
<rect x="226.973" y="103.467" width="70.8797" height="5.50731" rx="2.75365" fill="#DCDCDC"/>
<rect x="226.973" y="126.145" width="30.518" height="5.50731" rx="2.75365" fill="#DCDCDC"/>
<rect x="226.973" y="92.1284" width="83.231" height="5.50731" rx="2.75365" fill="#DCDCDC"/>
<path d="M226.973 67.3564H312.284" stroke="black" stroke-linecap="round" stroke-linejoin="round"/>
<path d="M226.973 176.713H312.284" stroke="black" stroke-linecap="round" stroke-linejoin="round"/>
<path d="M306.336 52.8789L311.885 58.5476M311.885 52.8789L306.336 58.5476" stroke="black" stroke-linecap="round" stroke-linejoin="round"/>
<rect x="226.973" y="185.918" width="38.7255" height="14.4035" rx="3.69916" fill="#C2C2C2" stroke="black" stroke-linecap="round"/>
<path d="M232.211 193.119C232.211 192.438 232.763 191.886 233.444 191.886H259.224C259.905 191.886 260.457 192.438 260.457 193.119C260.457 193.8 259.905 194.352 259.224 194.352H233.444C232.763 194.352 232.211 193.8 232.211 193.119Z" fill="white"/>
</svg>
