<svg width="386" height="256" viewBox="0 0 386 256" fill="none" xmlns="http://www.w3.org/2000/svg">
<rect width="385.048" height="255.086" rx="9.44763" fill="#CDCDCD"/>
<path d="M102.711 92.5C122.709 92.5002 138.882 108.005 138.882 127.085C138.882 146.165 122.709 161.67 102.711 161.67C82.7129 161.67 66.5391 146.165 66.5391 127.085C66.5391 108.005 82.7129 92.5 102.711 92.5Z" fill="black" stroke="black"/>
<circle cx="98.5553" cy="126.74" r="34.0553" fill="white" stroke="black"/>
<path d="M193.401 92.5C213.399 92.5002 229.572 108.005 229.572 127.085C229.572 146.165 213.399 161.67 193.401 161.67C173.403 161.67 157.229 146.165 157.229 127.085C157.229 108.005 173.403 92.5 193.401 92.5Z" fill="black" stroke="black"/>
<circle cx="189.246" cy="126.74" r="34.0553" fill="white" stroke="black"/>
<circle cx="189.627" cy="141.257" r="4.88951" fill="white" stroke="black"/>
<path d="M189.706 106.028C191.669 106.028 193.26 107.619 193.26 109.582C193.26 110.078 193.495 110.697 194.132 110.902C199.093 112.502 202.681 117.157 202.681 122.648V133.906C202.681 134.675 203.304 135.298 204.072 135.298C205.273 135.298 206.247 136.272 206.247 137.473V139.006C206.247 140.279 205.215 141.31 203.942 141.311H175.312C174.039 141.31 173.007 140.279 173.007 139.006V137.592C173.007 136.325 174.034 135.298 175.301 135.298C176.091 135.298 176.732 134.657 176.732 133.867V122.648C176.732 117.157 180.32 112.502 185.281 110.902C185.917 110.697 186.152 110.078 186.152 109.582C186.153 107.619 187.743 106.028 189.706 106.028Z" fill="white" stroke="black"/>
<path d="M284.092 92.5C304.09 92.5002 320.263 108.005 320.263 127.085C320.263 146.165 304.09 161.67 284.092 161.67C264.094 161.67 247.92 146.165 247.92 127.085C247.92 108.005 264.094 92.5 284.092 92.5Z" fill="black" stroke="black"/>
<circle cx="279.936" cy="126.74" r="34.0553" fill="white" stroke="black"/>
<path d="M263.358 137.311L279.137 109.98C280.286 107.991 283.152 107.977 284.319 109.955L300.444 137.286C301.624 139.286 300.182 141.811 297.86 141.811H281.707H265.956C263.647 141.811 262.203 139.311 263.358 137.311Z" stroke="black" stroke-linecap="round" stroke-linejoin="round"/>
<path d="M282.09 115.55V133.05" stroke="black" stroke-linecap="round" stroke-linejoin="round"/>
<path d="M282.183 135.199V137.198" stroke="black" stroke-linecap="round" stroke-linejoin="round"/>
<path d="M98.3175 117.398V138.448M106.817 127.363H88.6388M98.5557 107.984C87.8573 107.984 79.1768 116.665 79.1768 127.363C79.1768 138.062 87.8573 146.742 98.5557 146.742C109.254 146.742 117.935 138.062 117.935 127.363C117.935 116.665 109.254 107.984 98.5557 107.984Z" stroke="black" stroke-linecap="round" stroke-linejoin="round"/>
</svg>
