<svg width="386" height="256" viewBox="0 0 386 256" fill="none" xmlns="http://www.w3.org/2000/svg">
<rect width="385.048" height="255.086" rx="9.44763" fill="#CDCDCD"/>
<path d="M79 54.5334C79 52.925 80.3039 51.6211 81.9124 51.6211H297.733C302.704 51.6211 306.733 55.6505 306.733 60.6211V192.721C306.733 196.587 303.599 199.721 299.733 199.721H88C83.0294 199.721 79 195.691 79 190.721V54.5334Z" fill="black" stroke="black" stroke-linecap="round"/>
<path d="M79 53.9124C79 52.304 80.3039 51.0001 81.9124 51.0001H298.767C300.375 51.0001 301.679 52.304 301.679 53.9124V186.624C301.679 190.49 298.545 193.624 294.679 193.624H86C82.134 193.624 79 190.49 79 186.624V53.9124Z" fill="#D9D9D9" stroke="black" stroke-linecap="round"/>
<path d="M106.866 94.0557H278.866M106.866 103.455H258.204M106.866 112.071H271.606M106.866 120.296H258.684" stroke="#C2C2C2" stroke-opacity="0.3" stroke-width="4" stroke-linecap="round" stroke-linejoin="round"/>
<path d="M106.866 155.056H262.671M106.866 145.656H278.866M106.866 137.04H271.606M106.866 128.816H274.671" stroke="#C2C2C2" stroke-opacity="0.3" stroke-width="4" stroke-linecap="round" stroke-linejoin="round"/>
<path d="M132.222 82.6338H241.989C247.236 82.6338 251.489 86.8871 251.489 92.1338V162.196C251.489 164.129 249.922 165.696 247.989 165.696H138.222C132.975 165.696 128.722 161.443 128.722 156.196V86.1338C128.722 84.2008 130.289 82.6338 132.222 82.6338Z" fill="black" stroke="black"/>
<rect x="128.722" y="82.6338" width="119.145" height="79.3567" rx="3.5" fill="white" stroke="black"/>
<circle cx="234.583" cy="93.4844" r="4.24999" fill="white" stroke="black"/>
<path d="M232.699 91.5596L236.466 95.4076M236.466 91.5596L232.699 95.4076" stroke="black" stroke-linecap="round" stroke-linejoin="round"/>
<rect x="139.082" y="117.91" width="94.1252" height="3.56519" rx="1.78259" fill="#DCDCDC"/>
<rect x="139.082" y="106.396" width="76.0498" height="3.56519" rx="1.78259" fill="#DCDCDC"/>
<rect x="139.082" y="125.25" width="100.251" height="3.56519" rx="1.78259" fill="#DCDCDC"/>
<path d="M172.896 141.54H201.08C202.395 141.54 203.461 142.607 203.461 143.922V152.178C203.461 153.147 202.675 153.933 201.706 153.933H174.149C172.834 153.933 171.768 152.867 171.768 151.552V142.669C171.768 142.046 172.273 141.54 172.896 141.54Z" fill="black" stroke="black" stroke-width="0.246465"/>
<rect x="171.768" y="141.54" width="30.4412" height="11.1675" rx="1.12897" fill="white" stroke="black" stroke-width="0.246465"/>
<path d="M175.797 147.124C175.797 146.585 176.234 146.147 176.774 146.147H197.203C197.743 146.147 198.18 146.585 198.18 147.124C198.18 147.664 197.743 148.101 197.203 148.101H176.774C176.234 148.101 175.797 147.664 175.797 147.124Z" fill="#D9D9D9"/>
<path d="M208.646 141.54H236.829C238.144 141.54 239.21 142.607 239.21 143.922V152.178C239.21 153.147 238.424 153.933 237.455 153.933H209.898C208.583 153.933 207.517 152.867 207.517 151.552V142.669C207.517 142.046 208.022 141.54 208.646 141.54Z" fill="black" stroke="black" stroke-width="0.246465"/>
<rect x="207.517" y="141.54" width="30.4412" height="11.1675" rx="1.12897" fill="#D9D9D9" stroke="black" stroke-width="0.246465"/>
<path d="M211.546 147.124C211.546 146.585 211.983 146.147 212.523 146.147H232.952C233.492 146.147 233.929 146.585 233.929 147.124C233.929 147.664 233.492 148.101 232.952 148.101H212.523C211.983 148.101 211.546 147.664 211.546 147.124Z" fill="white"/>
</svg>
