<svg width="386" height="256" viewBox="0 0 386 256" fill="none" xmlns="http://www.w3.org/2000/svg">
<rect width="385.048" height="255.086" rx="9.44763" fill="#CDCDCD"/>
<path d="M277.274 107.468C278.052 107.468 279.001 108.698 279.001 109.477C279.001 110.255 279.6 111.908 276.688 112.318H258.967L258.966 146.47L295.904 149.29C296.994 149.29 297.877 148.406 297.877 147.316L296.586 126.675C295.881 125.159 299.394 126.261 299.287 126.257C300.04 126.675 300.697 127.588 300.697 128.366V147.316C300.696 149.963 298.551 152.109 295.904 152.109H256.429C255.028 152.109 253.892 149.845 253.892 148.444L253.892 110.345C253.892 108.943 255.028 107.807 256.43 107.807L277.274 107.468Z" fill="black"/>
<path d="M302.896 120.279C302.896 121.058 302.265 121.689 301.487 121.689C300.708 121.689 300.077 121.058 300.077 120.279V107.077L278.342 131.179C277.82 131.757 276.929 131.803 276.351 131.282C275.773 130.76 274.462 129.332 274.983 128.754L298.317 104.819H286.641C285.863 104.819 285.232 104.188 285.232 103.41C285.232 102.631 285.863 102 286.641 102H301.487C302.265 102 302.896 102.631 302.896 103.41V120.279Z" fill="black"/>
<path d="M277.17 108.879H256.591C255.879 108.879 255.301 109.457 255.301 110.169L255.301 146.666C255.301 147.378 255.878 147.955 256.59 147.955H295.692C296.405 147.955 296.982 147.378 296.982 146.666L296.982 127.321" stroke="white" stroke-width="3.22403" stroke-linecap="round" stroke-linejoin="round"/>
<path d="M276.141 128.679L299.066 103.41M299.066 103.41H284.998M299.066 103.41V119.301" stroke="white" stroke-width="3.22403" stroke-linecap="round" stroke-linejoin="round"/>
<path d="M68 131.644C68 127.674 71.2188 124.455 75.1893 124.455H225.523C229.494 124.455 232.712 127.674 232.712 131.644C232.712 135.615 229.494 138.834 225.523 138.834H75.1893C71.2188 138.834 68 135.615 68 131.644Z" fill="white"/>
<path d="M81.2461 131.645L219.466 131.645" stroke="black" stroke-width="2.30367" stroke-linecap="round"/>
</svg>
