<svg width="166" height="165" viewBox="0 0 166 165" fill="none" xmlns="http://www.w3.org/2000/svg">
<path d="M146 86.4995H134V98.4995H146V86.4995Z" fill="#00B6ED"/>
<path d="M71.4636 96.6751C70.2654 96.7901 69.0143 96.9061 67.6993 96.9631C68.1776 93.3331 70.1486 88.3231 72.5978 89.1231C74.0317 89.5841 73.2548 93.8491 71.4626 96.6731L71.4636 96.6751ZM68.4152 99.1511C68.059 99.2087 67.696 99.2087 67.3398 99.1511C67.4325 99.0865 67.5082 99.0003 67.5603 98.9C67.6125 98.7997 67.6396 98.6882 67.6394 98.5751V98.1141C68.2964 98.1141 69.3118 97.9991 70.5669 97.8831C70.0149 98.5385 69.2552 98.9857 68.4152 99.1511ZM83.3515 90.5091C84.9052 89.1231 85.682 89.2411 85.8577 89.5871C86.2761 90.3941 84.4838 93.2181 80.9592 94.7741C81.3222 93.149 82.1529 91.6662 83.3485 90.5091H83.3515ZM141 91.8921C140.82 89.0681 138.252 88.6071 137.894 89.4141C137.774 89.7021 138.849 89.5871 138.849 91.6041C138.849 94.8891 135.385 99.2111 130.961 99.2111C129.426 99.3038 127.915 98.7973 126.746 97.7978C125.576 96.7983 124.838 95.3837 124.688 93.8511C124.508 92.6411 124.808 90.9691 122.657 91.2001C121.159 91.3731 119.849 94.1391 117.937 96.5001C116.323 98.5171 115.607 98.3441 115.965 96.6151C116.443 94.4251 118.295 89.3541 120.446 89.0081C121.462 88.8351 121.82 90.5081 122.243 89.4691C122.396 89.1033 122.455 88.7057 122.418 88.3113C122.38 87.9169 122.246 87.5379 122.028 87.2076C121.809 86.8772 121.513 86.6058 121.165 86.4172C120.817 86.2286 120.428 86.1286 120.033 86.1261C118.479 86.1261 116.627 87.7401 115.074 89.5261C113.76 91.1401 107.009 100.706 104.141 98.6321C102.827 97.6521 102.943 93.7321 103.783 89.1231C104.996 88.5968 106.302 88.3158 107.625 88.296C108.947 88.2763 110.261 88.5183 111.49 89.0081C112.267 89.3541 112.388 89.2961 112.028 88.4891C111.55 87.2791 108.862 85.3771 104.62 86.2411C104.5 86.2411 104.441 86.2991 104.321 86.2991C104.679 84.7991 105.038 83.2451 105.519 81.7461C105.937 80.3631 107.073 78.0001 104.021 77.5971C103.066 77.4241 103.484 77.8851 103.123 79.1531C102.523 81.4581 101.809 84.4531 101.27 87.5091C98.5015 89.0881 96.2418 91.428 94.7582 94.2521C95.1032 92.9451 95.3626 91.6169 95.535 90.2761C95.5685 89.9447 95.4766 89.6127 95.2775 89.3459C95.0784 89.079 94.7865 88.8968 94.4597 88.8351C93.8027 88.6621 92.9619 88.9501 92.1891 90.0451C90.3369 92.5811 88.0075 96.5571 84.4229 98.2281C81.8538 99.4381 80.7185 98.2281 80.6596 96.3281C81.1092 96.2097 81.5485 96.0555 81.9736 95.8671C86.6335 93.9081 88.1872 90.9111 87.0519 89.0671C85.9166 87.3381 82.7504 87.8571 80.1813 90.4501C78.8279 91.9481 78.0084 93.853 77.8509 95.8671C76.7755 96.0981 75.5803 96.2671 74.2064 96.4431C76.3571 93.0431 76.1784 88.4321 73.0082 87.6261C69.3038 86.7041 67.4517 90.1621 66.6758 93.0431C66.9754 89.8161 67.4527 86.5881 68.0498 83.4191C68.3493 82.0361 69.3038 79.6731 66.2525 79.2701C65.2969 79.0971 65.4157 79.5581 65.4757 80.8261C65.5955 82.5551 63.6235 92.8711 64.6389 97.3661C63.3249 97.7661 62.7867 98.7491 64.4592 99.7291C65.4709 100.15 66.5629 100.343 67.6575 100.293C68.7521 100.244 69.8222 99.9526 70.7916 99.4411C71.6928 99.0005 72.5033 98.3944 73.181 97.6541C74.7346 97.4811 76.3472 97.1931 77.8409 96.9621C78.0795 98.9791 79.4544 100.477 82.5607 100.189C86.982 99.7891 90.925 94.5411 92.4188 92.0061C92.1192 94.7151 90.3279 100.65 93.4342 100.362C94.6324 100.247 94.1511 100.074 94.211 99.0371C94.5106 95.4641 97.557 92.4101 100.601 90.5651C100.063 94.9451 100.243 98.8651 102.334 100.074C106.157 102.379 111.475 96.3281 114.461 92.6401C112.964 95.9251 112.131 100.074 114.341 100.708C116.97 101.457 119.061 97.1931 121.511 93.9651C121.81 96.2701 123.423 100.304 129.875 100.304C136.805 100.246 141.167 96.2121 140.987 91.8901L141 91.8921ZM47.4291 99.0901C45.1005 98.2741 42.8257 97.3115 40.6184 96.2081C42.6186 95.5021 44.5739 94.6746 46.4735 93.7301C46.6809 95.5348 47 97.325 47.4291 99.0901ZM65.0703 102.323C65.0104 102.15 64.5321 102.381 64.1147 102.323C62.8596 102.15 61.1872 100.479 60.7089 97.7701C59.8103 92.8701 60.3504 88.0311 61.8442 80.8271C62.1437 79.4441 63.0993 77.0811 60.0469 76.6201C59.0914 76.5051 59.5686 76.9661 59.33 78.1761C58.1318 83.5361 53.5947 87.3971 49.0546 89.9901C48.5763 83.8811 48.755 77.0231 49.9532 72.8741C50.9717 69.3591 52.1659 69.9931 50.6721 69.2441C49.1784 68.4951 47.446 69.4741 46.0721 72.1231C44.6982 74.7721 38.4297 89.0111 28.389 98.6351C23.2528 103.533 18.5908 100.998 17.6942 100.249C16.9174 99.6151 16.6787 100.595 17.5744 101.574C21.6971 105.954 27.7909 103.474 30.0005 101.343C36.0913 95.4651 43.2035 82.7861 46.0761 77.4271C45.7374 82.1122 45.8173 86.8182 46.3147 91.4891C44.0057 92.5778 41.6071 93.4647 39.1456 94.1401C37.7118 94.4861 36.8152 95.0621 36.8152 95.6961C36.8152 96.3301 37.7707 96.9641 39.1456 97.5961C41.5949 98.7491 48.8239 101.976 50.5563 103.013C52.054 103.877 52.8269 103.186 53.2452 102.264C53.8443 101.054 52.2298 100.364 50.6761 99.9591C49.9917 97.4279 49.5122 94.8455 49.2423 92.2371C52.8868 90.0471 56.5312 87.1661 58.5622 83.5371C58.025 86.5371 56.71 96.8501 60.0599 101.172C60.523 101.769 61.1208 102.247 61.8041 102.567C62.4874 102.887 63.2369 103.041 63.9909 103.015C64.8276 102.957 65.1891 102.439 65.0663 102.323" fill="#545860"/>
<path d="M31.3333 134C31.3333 135.473 32.5272 136.667 34 136.667C35.4728 136.667 36.6667 135.473 36.6667 134C36.6667 132.527 35.4728 131.333 34 131.333C32.5272 131.333 31.3333 132.527 31.3333 134ZM34 134H34.5V110H34H33.5V134H34Z" fill="#7B61FF"/>
<path d="M1.70898 162L0.499023 152.047H1.70215L2.41992 158.91L2.46094 159.307L2.53613 158.896L3.73926 152.047H4.83984L6.0498 158.903L6.125 159.307L6.16602 158.896L6.88379 152.047H8.08008L6.87012 162H5.57812L4.36816 154.918L4.2998 154.501L4.22461 154.925L3.00781 162H1.70898ZM9.24219 158.233C9.24219 157.7 9.31966 157.206 9.47461 156.75C9.62956 156.29 9.85286 155.891 10.1445 155.554C10.4316 155.216 10.7826 154.952 11.1973 154.761C11.612 154.565 12.0791 154.467 12.5986 154.467C13.1227 154.467 13.5921 154.565 14.0068 154.761C14.4261 154.952 14.7816 155.216 15.0732 155.554C15.3604 155.891 15.5814 156.29 15.7363 156.75C15.8913 157.206 15.9688 157.7 15.9688 158.233V158.384C15.9688 158.917 15.8913 159.411 15.7363 159.867C15.5814 160.323 15.3604 160.719 15.0732 161.057C14.7816 161.394 14.4284 161.658 14.0137 161.85C13.599 162.041 13.1318 162.137 12.6123 162.137C12.0882 162.137 11.6165 162.041 11.1973 161.85C10.7826 161.658 10.4316 161.394 10.1445 161.057C9.85286 160.719 9.62956 160.323 9.47461 159.867C9.31966 159.411 9.24219 158.917 9.24219 158.384V158.233ZM10.5068 158.384C10.5068 158.748 10.5501 159.097 10.6367 159.43C10.7233 159.758 10.8555 160.047 11.0332 160.298C11.2064 160.549 11.4251 160.747 11.6895 160.893C11.9538 161.038 12.2614 161.111 12.6123 161.111C12.9587 161.111 13.2617 161.038 13.5215 160.893C13.7858 160.747 14.0068 160.549 14.1846 160.298C14.3577 160.047 14.4876 159.758 14.5742 159.43C14.6608 159.097 14.7041 158.748 14.7041 158.384V158.233C14.7041 157.873 14.6585 157.529 14.5674 157.201C14.4808 156.868 14.3509 156.577 14.1777 156.326C14 156.076 13.779 155.877 13.5146 155.731C13.2549 155.581 12.9495 155.506 12.5986 155.506C12.2477 155.506 11.9424 155.581 11.6826 155.731C11.4229 155.877 11.2064 156.076 11.0332 156.326C10.8555 156.577 10.7233 156.868 10.6367 157.201C10.5501 157.529 10.5068 157.873 10.5068 158.233V158.384ZM22.8525 154.467C23.085 154.467 23.3265 154.483 23.5771 154.515C23.8324 154.547 24.0238 154.59 24.1514 154.645L23.9805 155.882C23.7344 155.827 23.4997 155.788 23.2764 155.766C23.0576 155.738 22.8275 155.725 22.5859 155.725C22.276 155.725 21.9958 155.763 21.7451 155.841C21.4945 155.914 21.2757 156.023 21.0889 156.169C20.9202 156.297 20.7721 156.454 20.6445 156.641C20.5215 156.823 20.4189 157.028 20.3369 157.256V162H19.0654V154.604H20.2686L20.3232 155.595L20.3301 155.779C20.6309 155.374 20.9909 155.055 21.4102 154.822C21.834 154.585 22.3148 154.467 22.8525 154.467ZM26.1748 158.24C26.1748 157.689 26.2432 157.183 26.3799 156.723C26.5212 156.258 26.7217 155.859 26.9814 155.526C27.2367 155.194 27.5465 154.934 27.9111 154.747C28.2757 154.56 28.6836 154.467 29.1348 154.467C29.5768 154.467 29.9619 154.542 30.29 154.692C30.6227 154.838 30.9098 155.052 31.1514 155.335V151.5H32.416V162H31.2539L31.1992 161.221C30.9531 161.521 30.6592 161.749 30.3174 161.904C29.9756 162.059 29.5768 162.137 29.1211 162.137C28.6745 162.137 28.2689 162.041 27.9043 161.85C27.5443 161.658 27.2367 161.394 26.9814 161.057C26.7262 160.719 26.528 160.323 26.3867 159.867C26.2454 159.407 26.1748 158.912 26.1748 158.384V158.24ZM27.4395 158.384C27.4395 158.744 27.4782 159.086 27.5557 159.409C27.6331 159.733 27.7539 160.018 27.918 160.264C28.0775 160.51 28.2826 160.706 28.5332 160.852C28.7839 160.993 29.0846 161.063 29.4355 161.063C29.8594 161.063 30.2103 160.968 30.4883 160.776C30.7663 160.585 30.9873 160.327 31.1514 160.004V156.572C30.9873 156.271 30.7663 156.025 30.4883 155.834C30.2103 155.638 29.8639 155.54 29.4492 155.54C29.0938 155.54 28.7884 155.613 28.5332 155.759C28.2826 155.905 28.0775 156.101 27.918 156.347C27.7539 156.597 27.6331 156.887 27.5557 157.215C27.4782 157.538 27.4395 157.88 27.4395 158.24V158.384ZM35.4033 154.604L35.4375 155.301C35.5879 155.041 35.7839 154.838 36.0254 154.692C36.2715 154.547 36.5677 154.471 36.9141 154.467C37.11 154.467 37.2855 154.49 37.4404 154.535C37.5999 154.576 37.7389 154.638 37.8574 154.72C37.944 154.784 38.0215 154.861 38.0898 154.952C38.1628 155.043 38.2243 155.146 38.2744 155.26C38.3382 155.155 38.4134 155.057 38.5 154.966C38.5866 154.875 38.68 154.795 38.7803 154.727C38.9079 154.649 39.0492 154.588 39.2041 154.542C39.3636 154.496 39.5368 154.471 39.7236 154.467C39.9788 154.467 40.209 154.506 40.4141 154.583C40.6191 154.656 40.7923 154.765 40.9336 154.911C41.0885 155.075 41.207 155.289 41.2891 155.554C41.3711 155.813 41.4121 156.121 41.4121 156.477V162H40.209V156.463C40.209 156.308 40.1908 156.171 40.1543 156.053C40.1178 155.934 40.0654 155.836 39.9971 155.759C39.9242 155.686 39.833 155.631 39.7236 155.595C39.6188 155.558 39.4958 155.54 39.3545 155.54C39.2041 155.54 39.0742 155.561 38.9648 155.602C38.8555 155.643 38.7643 155.697 38.6914 155.766C38.6185 155.839 38.5615 155.923 38.5205 156.019C38.4795 156.11 38.4521 156.212 38.4385 156.326C38.4385 156.349 38.4385 156.372 38.4385 156.395C38.4385 156.413 38.4385 156.436 38.4385 156.463V162H37.2354V156.456C37.2354 156.301 37.2171 156.164 37.1807 156.046C37.1488 155.927 37.0964 155.829 37.0234 155.752C36.9551 155.679 36.8685 155.627 36.7637 155.595C36.6634 155.558 36.5449 155.54 36.4082 155.54C36.2578 155.54 36.1257 155.558 36.0117 155.595C35.9023 155.627 35.8089 155.674 35.7314 155.738C35.6722 155.788 35.6198 155.845 35.5742 155.909C35.5332 155.973 35.499 156.041 35.4717 156.114V162H34.2686V154.604H35.4033ZM48.0908 162C48.0407 161.904 47.9997 161.786 47.9678 161.645C47.9404 161.499 47.9199 161.348 47.9062 161.193C47.7786 161.321 47.6351 161.442 47.4756 161.556C47.3206 161.67 47.1497 161.77 46.9629 161.856C46.7715 161.943 46.5687 162.011 46.3545 162.062C46.1403 162.112 45.9124 162.137 45.6709 162.137C45.279 162.137 44.9235 162.08 44.6045 161.966C44.29 161.852 44.0234 161.697 43.8047 161.501C43.5814 161.31 43.4082 161.082 43.2852 160.817C43.1667 160.549 43.1074 160.259 43.1074 159.949C43.1074 159.544 43.1872 159.188 43.3467 158.883C43.5107 158.577 43.7409 158.322 44.0371 158.117C44.3333 157.917 44.6888 157.766 45.1035 157.666C45.5228 157.566 45.9899 157.516 46.5049 157.516H47.8857V156.935C47.8857 156.711 47.8447 156.511 47.7627 156.333C47.6807 156.155 47.5645 156.003 47.4141 155.875C47.2637 155.752 47.0791 155.656 46.8604 155.588C46.6462 155.52 46.4046 155.485 46.1357 155.485C45.8851 155.485 45.6595 155.517 45.459 155.581C45.263 155.645 45.0967 155.729 44.96 155.834C44.8232 155.939 44.7161 156.064 44.6387 156.21C44.5658 156.351 44.5293 156.499 44.5293 156.654H43.2578C43.2624 156.385 43.3307 156.121 43.4629 155.861C43.5996 155.602 43.7956 155.367 44.0508 155.157C44.3014 154.952 44.6068 154.786 44.9668 154.658C45.3314 154.531 45.7438 154.467 46.2041 154.467C46.6234 154.467 47.013 154.519 47.373 154.624C47.7331 154.724 48.0452 154.877 48.3096 155.082C48.5693 155.292 48.7744 155.551 48.9248 155.861C49.0752 156.171 49.1504 156.534 49.1504 156.948V160.387C49.1504 160.633 49.1732 160.895 49.2188 161.173C49.2643 161.446 49.3281 161.686 49.4102 161.891V162H48.0908ZM45.8555 161.036C46.1016 161.036 46.3317 161.004 46.5459 160.94C46.7601 160.877 46.9561 160.792 47.1338 160.688C47.307 160.583 47.4574 160.464 47.585 160.332C47.7126 160.195 47.8128 160.054 47.8857 159.908V158.411H46.71C46.2725 158.411 45.8896 158.45 45.5615 158.527C45.238 158.6 44.9805 158.714 44.7891 158.869C44.6523 158.979 44.5475 159.108 44.4746 159.259C44.4062 159.409 44.3721 159.58 44.3721 159.771C44.3721 159.954 44.4017 160.122 44.4609 160.277C44.5247 160.432 44.6182 160.564 44.7412 160.674C44.8643 160.788 45.0192 160.877 45.2061 160.94C45.3929 161.004 45.6094 161.036 45.8555 161.036ZM56.4854 154.467C56.7178 154.467 56.9593 154.483 57.21 154.515C57.4652 154.547 57.6566 154.59 57.7842 154.645L57.6133 155.882C57.3672 155.827 57.1325 155.788 56.9092 155.766C56.6904 155.738 56.4603 155.725 56.2188 155.725C55.9089 155.725 55.6286 155.763 55.3779 155.841C55.1273 155.914 54.9085 156.023 54.7217 156.169C54.5531 156.297 54.4049 156.454 54.2773 156.641C54.1543 156.823 54.0518 157.028 53.9697 157.256V162H52.6982V154.604H53.9014L53.9561 155.595L53.9629 155.779C54.2637 155.374 54.6237 155.055 55.043 154.822C55.4668 154.585 55.9476 154.467 56.4854 154.467ZM62.2617 158.548L61.332 159.443V162H60.0605V151.5H61.332V157.926L62.1592 157.037L64.5859 154.604H66.124L63.1299 157.687L66.582 162H64.9756L62.2617 158.548Z" fill="#7B61FF"/>
<path d="M137.833 134C137.833 135.473 139.027 136.667 140.5 136.667C141.973 136.667 143.167 135.473 143.167 134C143.167 132.527 141.973 131.333 140.5 131.333C139.027 131.333 137.833 132.527 137.833 134ZM140.5 134H141V110H140.5H140V134H140.5Z" fill="#7B61FF"/>
<path d="M121.398 159.484C121.398 159.179 121.328 158.922 121.187 158.712C121.05 158.502 120.872 158.325 120.653 158.179C120.435 158.037 120.193 157.919 119.929 157.823C119.669 157.728 119.418 157.641 119.177 157.563C118.826 157.45 118.468 157.313 118.104 157.153C117.743 156.989 117.415 156.793 117.119 156.565C116.818 156.333 116.572 156.06 116.381 155.745C116.194 155.426 116.101 155.052 116.101 154.624C116.101 154.196 116.194 153.813 116.381 153.476C116.572 153.138 116.821 152.854 117.126 152.621C117.431 152.389 117.778 152.213 118.165 152.095C118.552 151.972 118.942 151.91 119.334 151.91C119.767 151.91 120.184 151.983 120.585 152.129C120.986 152.27 121.341 152.471 121.651 152.73C121.961 152.99 122.21 153.305 122.396 153.674C122.583 154.043 122.681 154.455 122.69 154.911H121.392C121.355 154.624 121.285 154.364 121.18 154.132C121.075 153.895 120.936 153.692 120.763 153.523C120.59 153.355 120.382 153.225 120.141 153.134C119.904 153.038 119.635 152.99 119.334 152.99C119.092 152.99 118.855 153.024 118.623 153.093C118.395 153.161 118.192 153.264 118.015 153.4C117.832 153.537 117.687 153.706 117.577 153.906C117.472 154.107 117.42 154.339 117.42 154.604C117.424 154.891 117.497 155.134 117.639 155.335C117.78 155.531 117.96 155.697 118.179 155.834C118.393 155.971 118.625 156.085 118.876 156.176C119.131 156.267 119.37 156.347 119.594 156.415C119.963 156.529 120.332 156.668 120.701 156.832C121.07 156.992 121.408 157.197 121.713 157.447C122.014 157.68 122.255 157.965 122.438 158.302C122.624 158.639 122.718 159.029 122.718 159.471C122.718 159.917 122.618 160.307 122.417 160.64C122.221 160.972 121.966 161.248 121.651 161.467C121.337 161.69 120.981 161.859 120.585 161.973C120.188 162.082 119.792 162.137 119.396 162.137C118.922 162.137 118.454 162.057 117.994 161.897C117.538 161.738 117.142 161.508 116.805 161.207C116.504 160.947 116.265 160.644 116.087 160.298C115.914 159.947 115.82 159.557 115.807 159.129H117.099C117.14 159.439 117.224 159.715 117.352 159.956C117.479 160.193 117.643 160.394 117.844 160.558C118.044 160.726 118.274 160.854 118.534 160.94C118.799 161.022 119.086 161.063 119.396 161.063C119.642 161.063 119.883 161.034 120.12 160.975C120.362 160.911 120.576 160.813 120.763 160.681C120.95 160.553 121.102 160.391 121.221 160.195C121.339 159.995 121.398 159.758 121.398 159.484ZM125.192 164.987C125.074 164.987 124.935 164.974 124.775 164.946C124.616 164.919 124.495 164.896 124.413 164.878L124.618 163.846C124.732 163.855 124.844 163.862 124.953 163.866C125.067 163.875 125.156 163.88 125.22 163.88C125.393 163.88 125.55 163.832 125.691 163.736C125.837 163.641 125.967 163.527 126.081 163.395C126.19 163.262 126.284 163.126 126.361 162.984C126.443 162.843 126.507 162.727 126.553 162.636L127.059 161.651L123.873 154.604H125.288L127.318 159.375L127.646 160.271L127.995 159.402L129.902 154.604H131.317L127.564 163.142C127.478 163.333 127.366 163.536 127.229 163.75C127.097 163.964 126.936 164.162 126.744 164.345C126.553 164.527 126.329 164.68 126.074 164.803C125.819 164.926 125.525 164.987 125.192 164.987ZM133.587 154.604L133.621 155.301C133.771 155.041 133.967 154.838 134.209 154.692C134.455 154.547 134.751 154.471 135.098 154.467C135.294 154.467 135.469 154.49 135.624 154.535C135.784 154.576 135.923 154.638 136.041 154.72C136.128 154.784 136.205 154.861 136.273 154.952C136.346 155.043 136.408 155.146 136.458 155.26C136.522 155.155 136.597 155.057 136.684 154.966C136.77 154.875 136.864 154.795 136.964 154.727C137.091 154.649 137.233 154.588 137.388 154.542C137.547 154.496 137.72 154.471 137.907 154.467C138.162 154.467 138.393 154.506 138.598 154.583C138.803 154.656 138.976 154.765 139.117 154.911C139.272 155.075 139.391 155.289 139.473 155.554C139.555 155.813 139.596 156.121 139.596 156.477V162H138.393V156.463C138.393 156.308 138.374 156.171 138.338 156.053C138.301 155.934 138.249 155.836 138.181 155.759C138.108 155.686 138.017 155.631 137.907 155.595C137.802 155.558 137.679 155.54 137.538 155.54C137.388 155.54 137.258 155.561 137.148 155.602C137.039 155.643 136.948 155.697 136.875 155.766C136.802 155.839 136.745 155.923 136.704 156.019C136.663 156.11 136.636 156.212 136.622 156.326C136.622 156.349 136.622 156.372 136.622 156.395C136.622 156.413 136.622 156.436 136.622 156.463V162H135.419V156.456C135.419 156.301 135.401 156.164 135.364 156.046C135.332 155.927 135.28 155.829 135.207 155.752C135.139 155.679 135.052 155.627 134.947 155.595C134.847 155.558 134.729 155.54 134.592 155.54C134.441 155.54 134.309 155.558 134.195 155.595C134.086 155.627 133.993 155.674 133.915 155.738C133.856 155.788 133.803 155.845 133.758 155.909C133.717 155.973 133.683 156.041 133.655 156.114V162H132.452V154.604H133.587ZM147.683 158.384C147.683 158.707 147.658 159.02 147.607 159.32C147.562 159.617 147.493 159.895 147.402 160.154C147.279 160.496 147.118 160.804 146.917 161.077C146.721 161.346 146.484 161.569 146.206 161.747C146.006 161.87 145.785 161.966 145.543 162.034C145.306 162.103 145.049 162.137 144.771 162.137C144.451 162.137 144.16 162.098 143.896 162.021C143.636 161.943 143.401 161.831 143.191 161.686C143.091 161.613 142.995 161.533 142.904 161.446C142.813 161.36 142.727 161.264 142.645 161.159L142.583 162H141.421V151.5H142.686V155.396C142.79 155.264 142.907 155.146 143.034 155.041C143.162 154.932 143.299 154.838 143.444 154.761C143.627 154.665 143.827 154.592 144.046 154.542C144.265 154.492 144.502 154.467 144.757 154.467C145.076 154.467 145.37 154.51 145.639 154.597C145.908 154.683 146.151 154.804 146.37 154.959C146.566 155.105 146.742 155.283 146.896 155.492C147.051 155.697 147.188 155.927 147.307 156.183C147.43 156.47 147.523 156.789 147.587 157.14C147.651 157.486 147.683 157.853 147.683 158.24V158.384ZM146.418 158.24C146.418 158.008 146.402 157.782 146.37 157.563C146.343 157.34 146.299 157.131 146.24 156.935C146.158 156.693 146.051 156.472 145.919 156.271C145.787 156.071 145.625 155.914 145.434 155.8C145.301 155.718 145.153 155.654 144.989 155.608C144.825 155.563 144.643 155.54 144.442 155.54C144.224 155.54 144.023 155.57 143.841 155.629C143.659 155.684 143.497 155.761 143.355 155.861C143.21 155.966 143.08 156.089 142.966 156.23C142.856 156.367 142.763 156.518 142.686 156.682V159.915C142.768 160.079 142.863 160.232 142.973 160.373C143.087 160.51 143.216 160.631 143.362 160.735C143.508 160.84 143.672 160.922 143.854 160.981C144.037 161.036 144.237 161.063 144.456 161.063C144.666 161.063 144.857 161.038 145.03 160.988C145.203 160.934 145.358 160.856 145.495 160.756C145.677 160.628 145.83 160.466 145.953 160.271C146.076 160.075 146.174 159.856 146.247 159.614C146.306 159.432 146.35 159.236 146.377 159.026C146.404 158.817 146.418 158.603 146.418 158.384V158.24ZM149.467 158.233C149.467 157.7 149.544 157.206 149.699 156.75C149.854 156.29 150.077 155.891 150.369 155.554C150.656 155.216 151.007 154.952 151.422 154.761C151.837 154.565 152.304 154.467 152.823 154.467C153.347 154.467 153.817 154.565 154.231 154.761C154.651 154.952 155.006 155.216 155.298 155.554C155.585 155.891 155.806 156.29 155.961 156.75C156.116 157.206 156.193 157.7 156.193 158.233V158.384C156.193 158.917 156.116 159.411 155.961 159.867C155.806 160.323 155.585 160.719 155.298 161.057C155.006 161.394 154.653 161.658 154.238 161.85C153.824 162.041 153.356 162.137 152.837 162.137C152.313 162.137 151.841 162.041 151.422 161.85C151.007 161.658 150.656 161.394 150.369 161.057C150.077 160.719 149.854 160.323 149.699 159.867C149.544 159.411 149.467 158.917 149.467 158.384V158.233ZM150.731 158.384C150.731 158.748 150.775 159.097 150.861 159.43C150.948 159.758 151.08 160.047 151.258 160.298C151.431 160.549 151.65 160.747 151.914 160.893C152.178 161.038 152.486 161.111 152.837 161.111C153.183 161.111 153.486 161.038 153.746 160.893C154.01 160.747 154.231 160.549 154.409 160.298C154.582 160.047 154.712 159.758 154.799 159.43C154.885 159.097 154.929 158.748 154.929 158.384V158.233C154.929 157.873 154.883 157.529 154.792 157.201C154.705 156.868 154.576 156.577 154.402 156.326C154.225 156.076 154.004 155.877 153.739 155.731C153.479 155.581 153.174 155.506 152.823 155.506C152.472 155.506 152.167 155.581 151.907 155.731C151.647 155.877 151.431 156.076 151.258 156.326C151.08 156.577 150.948 156.868 150.861 157.201C150.775 157.529 150.731 157.873 150.731 158.233V158.384ZM158.429 151.5H162.209V160.906H164.622V162H158.429V160.906H160.944V152.601H158.429V151.5Z" fill="#7B61FF"/>
<path d="M36.9404 9.42285H33.6182L32.8184 12H31.5537L34.7666 2.04688H35.8262L38.9844 12H37.7266L36.9404 9.42285ZM33.96 8.32227H36.6055L35.293 4.00195L33.96 8.32227ZM40.7959 1.5H44.5762V10.9062H46.9893V12H40.7959V10.9062H43.3115V2.60059H40.7959V1.5ZM55.2744 8.38379C55.2744 8.70736 55.2493 9.01953 55.1992 9.32031C55.1536 9.61654 55.0853 9.89453 54.9941 10.1543C54.8711 10.4961 54.7093 10.8037 54.5088 11.0771C54.3128 11.346 54.0758 11.5693 53.7979 11.7471C53.5973 11.8701 53.3763 11.9658 53.1348 12.0342C52.8978 12.1025 52.6403 12.1367 52.3623 12.1367C52.0433 12.1367 51.7516 12.098 51.4873 12.0205C51.2275 11.943 50.9928 11.8314 50.7832 11.6855C50.6829 11.6126 50.5872 11.5329 50.4961 11.4463C50.4049 11.3597 50.3184 11.264 50.2363 11.1592L50.1748 12H49.0127V1.5H50.2773V5.39648C50.3822 5.26432 50.4984 5.14583 50.626 5.04102C50.7536 4.93164 50.8903 4.83822 51.0361 4.76074C51.2184 4.66504 51.4189 4.59212 51.6377 4.54199C51.8564 4.49186 52.0934 4.4668 52.3486 4.4668C52.6676 4.4668 52.9616 4.51009 53.2305 4.59668C53.4993 4.68327 53.7432 4.80404 53.9619 4.95898C54.1579 5.10482 54.3333 5.28255 54.4883 5.49219C54.6432 5.69727 54.7799 5.92741 54.8984 6.18262C55.0215 6.46973 55.1149 6.78874 55.1787 7.13965C55.2425 7.486 55.2744 7.85286 55.2744 8.24023V8.38379ZM54.0098 8.24023C54.0098 8.00781 53.9938 7.78223 53.9619 7.56348C53.9346 7.34017 53.8913 7.13053 53.832 6.93457C53.75 6.69303 53.6429 6.47201 53.5107 6.27148C53.3786 6.07096 53.2168 5.91374 53.0254 5.7998C52.8932 5.71777 52.7451 5.65397 52.5811 5.6084C52.417 5.56283 52.2347 5.54004 52.0342 5.54004C51.8154 5.54004 51.6149 5.56966 51.4326 5.62891C51.2503 5.68359 51.0885 5.76107 50.9473 5.86133C50.8014 5.96615 50.6715 6.08919 50.5576 6.23047C50.4482 6.36719 50.3548 6.51758 50.2773 6.68164V9.91504C50.3594 10.0791 50.4551 10.2318 50.5645 10.373C50.6784 10.5098 50.8083 10.6305 50.9541 10.7354C51.0999 10.8402 51.264 10.9222 51.4463 10.9814C51.6286 11.0361 51.8291 11.0635 52.0479 11.0635C52.2575 11.0635 52.4489 11.0384 52.6221 10.9883C52.7952 10.9336 52.9502 10.8561 53.0869 10.7559C53.2692 10.6283 53.4219 10.4665 53.5449 10.2705C53.668 10.0745 53.766 9.85579 53.8389 9.61426C53.8981 9.43197 53.9414 9.236 53.9688 9.02637C53.9961 8.81673 54.0098 8.60254 54.0098 8.38379V8.24023ZM60.6816 12.1367C60.1621 12.1367 59.6836 12.0479 59.2461 11.8701C58.8132 11.6924 58.4417 11.444 58.1318 11.125C57.8219 10.806 57.5804 10.4277 57.4072 9.99023C57.234 9.55273 57.1475 9.0765 57.1475 8.56152V8.27441C57.1475 7.67741 57.2432 7.14421 57.4346 6.6748C57.626 6.20085 57.8812 5.7998 58.2002 5.47168C58.5146 5.14811 58.8724 4.89974 59.2734 4.72656C59.679 4.55339 60.0938 4.4668 60.5176 4.4668C61.0508 4.4668 61.5156 4.56022 61.9121 4.74707C62.3132 4.92936 62.6458 5.18229 62.9102 5.50586C63.1745 5.83398 63.3704 6.21908 63.498 6.66113C63.6302 7.10319 63.6963 7.58171 63.6963 8.09668V8.66406H58.4121V8.71191C58.444 9.07194 58.5146 9.38867 58.624 9.66211C58.738 9.93555 58.8929 10.1771 59.0889 10.3867C59.2894 10.61 59.5309 10.7855 59.8135 10.9131C60.096 11.0407 60.4082 11.1045 60.75 11.1045C61.2012 11.1045 61.6022 11.0133 61.9531 10.8311C62.304 10.6488 62.5957 10.4072 62.8281 10.1064L63.6006 10.708C63.3545 11.0817 62.9854 11.4144 62.4932 11.7061C62.0055 11.9932 61.4017 12.1367 60.6816 12.1367ZM60.5176 5.50586C60.2624 5.50586 60.0208 5.55371 59.793 5.64941C59.5651 5.74056 59.36 5.875 59.1777 6.05273C58.9954 6.23503 58.8405 6.45833 58.7129 6.72266C58.5898 6.98242 58.5033 7.2832 58.4531 7.625H62.4316V7.56348C62.4316 7.33561 62.3883 7.0918 62.3018 6.83203C62.2152 6.56771 62.0944 6.33984 61.9395 6.14844C61.7845 5.95703 61.5885 5.80208 61.3516 5.68359C61.1191 5.5651 60.8411 5.50586 60.5176 5.50586ZM70.6689 4.4668C70.9014 4.4668 71.1429 4.48275 71.3936 4.51465C71.6488 4.54655 71.8402 4.58984 71.9678 4.64453L71.7969 5.88184C71.5508 5.82715 71.3161 5.78841 71.0928 5.76562C70.874 5.73828 70.6439 5.72461 70.4023 5.72461C70.0924 5.72461 69.8122 5.76335 69.5615 5.84082C69.3109 5.91374 69.0921 6.02311 68.9053 6.16895C68.7367 6.29655 68.5885 6.45378 68.4609 6.64062C68.3379 6.82292 68.2354 7.02799 68.1533 7.25586V12H66.8818V4.60352H68.085L68.1396 5.59473L68.1465 5.7793C68.4473 5.3737 68.8073 5.05469 69.2266 4.82227C69.6504 4.58529 70.1312 4.4668 70.6689 4.4668ZM77.2246 2.8125V4.60352H80.041V5.58105H77.2246V9.60059C77.2246 9.8877 77.2611 10.1247 77.334 10.3115C77.4069 10.4984 77.5072 10.6465 77.6348 10.7559C77.7624 10.8698 77.9082 10.9495 78.0723 10.9951C78.2409 11.0407 78.4186 11.0635 78.6055 11.0635C78.7422 11.0635 78.8835 11.0566 79.0293 11.043C79.1751 11.0247 79.3187 11.0042 79.46 10.9814C79.5967 10.9587 79.7243 10.9359 79.8428 10.9131C79.9658 10.8857 80.0661 10.863 80.1436 10.8447L80.3213 11.7402C80.2165 11.804 80.0889 11.861 79.9385 11.9111C79.7881 11.9567 79.624 11.9954 79.4463 12.0273C79.2686 12.0638 79.0794 12.0911 78.8789 12.1094C78.6829 12.1276 78.487 12.1367 78.291 12.1367C77.9629 12.1367 77.6553 12.0911 77.3682 12C77.0856 11.9043 76.8395 11.7539 76.6299 11.5488C76.4202 11.3483 76.2539 11.0885 76.1309 10.7695C76.0124 10.446 75.9531 10.0563 75.9531 9.60059V5.58105H74.0117V4.60352H75.9531V2.8125H77.2246ZM87.499 12C87.4489 11.9043 87.4079 11.7858 87.376 11.6445C87.3486 11.4987 87.3281 11.3483 87.3145 11.1934C87.1868 11.321 87.0433 11.4417 86.8838 11.5557C86.7288 11.6696 86.5579 11.7699 86.3711 11.8564C86.1797 11.943 85.9769 12.0114 85.7627 12.0615C85.5485 12.1117 85.3206 12.1367 85.0791 12.1367C84.6872 12.1367 84.3317 12.0798 84.0127 11.9658C83.6982 11.8519 83.4316 11.6969 83.2129 11.501C82.9896 11.3096 82.8164 11.0817 82.6934 10.8174C82.5749 10.5485 82.5156 10.2591 82.5156 9.94922C82.5156 9.54362 82.5954 9.18815 82.7549 8.88281C82.9189 8.57747 83.1491 8.32227 83.4453 8.11719C83.7415 7.91667 84.097 7.76628 84.5117 7.66602C84.931 7.56576 85.3981 7.51562 85.9131 7.51562H87.2939V6.93457C87.2939 6.71126 87.2529 6.51074 87.1709 6.33301C87.0889 6.15527 86.9727 6.0026 86.8223 5.875C86.6719 5.75195 86.4873 5.65625 86.2686 5.58789C86.0544 5.51953 85.8128 5.48535 85.5439 5.48535C85.2933 5.48535 85.0677 5.51725 84.8672 5.58105C84.6712 5.64486 84.5049 5.72917 84.3682 5.83398C84.2314 5.9388 84.1243 6.06413 84.0469 6.20996C83.974 6.35124 83.9375 6.49935 83.9375 6.6543H82.666C82.6706 6.38542 82.7389 6.12109 82.8711 5.86133C83.0078 5.60156 83.2038 5.36686 83.459 5.15723C83.7096 4.95215 84.015 4.78581 84.375 4.6582C84.7396 4.5306 85.152 4.4668 85.6123 4.4668C86.0316 4.4668 86.4212 4.51921 86.7812 4.62402C87.1413 4.72428 87.4535 4.87695 87.7178 5.08203C87.9775 5.29167 88.1826 5.55143 88.333 5.86133C88.4834 6.17122 88.5586 6.53353 88.5586 6.94824V10.3867C88.5586 10.6328 88.5814 10.8949 88.627 11.1729C88.6725 11.4463 88.7363 11.6855 88.8184 11.8906V12H87.499ZM85.2637 11.0361C85.5098 11.0361 85.7399 11.0042 85.9541 10.9404C86.1683 10.8766 86.3643 10.7923 86.542 10.6875C86.7152 10.5827 86.8656 10.4642 86.9932 10.332C87.1208 10.1953 87.221 10.054 87.2939 9.9082V8.41113H86.1182C85.6807 8.41113 85.2979 8.44987 84.9697 8.52734C84.6462 8.60026 84.3887 8.71419 84.1973 8.86914C84.0605 8.97852 83.9557 9.1084 83.8828 9.25879C83.8145 9.40918 83.7803 9.58008 83.7803 9.77148C83.7803 9.95378 83.8099 10.1224 83.8691 10.2773C83.9329 10.4323 84.0264 10.5645 84.1494 10.6738C84.2725 10.7878 84.4274 10.8766 84.6143 10.9404C84.8011 11.0042 85.0176 11.0361 85.2637 11.0361ZM100.884 10.9268H105.751V12H99.6191V2.04688H100.884V10.9268ZM107.508 8.2334C107.508 7.7002 107.585 7.20573 107.74 6.75C107.895 6.28971 108.118 5.89095 108.41 5.55371C108.697 5.21647 109.048 4.95215 109.463 4.76074C109.878 4.56478 110.345 4.4668 110.864 4.4668C111.388 4.4668 111.858 4.56478 112.272 4.76074C112.692 4.95215 113.047 5.21647 113.339 5.55371C113.626 5.89095 113.847 6.28971 114.002 6.75C114.157 7.20573 114.234 7.7002 114.234 8.2334V8.38379C114.234 8.91699 114.157 9.41146 114.002 9.86719C113.847 10.3229 113.626 10.7194 113.339 11.0566C113.047 11.3939 112.694 11.6582 112.279 11.8496C111.865 12.041 111.397 12.1367 110.878 12.1367C110.354 12.1367 109.882 12.041 109.463 11.8496C109.048 11.6582 108.697 11.3939 108.41 11.0566C108.118 10.7194 107.895 10.3229 107.74 9.86719C107.585 9.41146 107.508 8.91699 107.508 8.38379V8.2334ZM108.772 8.38379C108.772 8.74837 108.816 9.09701 108.902 9.42969C108.989 9.75781 109.121 10.0472 109.299 10.2979C109.472 10.5485 109.691 10.7467 109.955 10.8926C110.219 11.0384 110.527 11.1113 110.878 11.1113C111.224 11.1113 111.527 11.0384 111.787 10.8926C112.051 10.7467 112.272 10.5485 112.45 10.2979C112.623 10.0472 112.753 9.75781 112.84 9.42969C112.926 9.09701 112.97 8.74837 112.97 8.38379V8.2334C112.97 7.87337 112.924 7.5293 112.833 7.20117C112.746 6.86849 112.617 6.57682 112.443 6.32617C112.266 6.07552 112.045 5.87728 111.78 5.73145C111.521 5.58105 111.215 5.50586 110.864 5.50586C110.513 5.50586 110.208 5.58105 109.948 5.73145C109.688 5.87728 109.472 6.07552 109.299 6.32617C109.121 6.57682 108.989 6.86849 108.902 7.20117C108.816 7.5293 108.772 7.87337 108.772 8.2334V8.38379ZM116.039 8.24023C116.039 7.6888 116.105 7.18294 116.237 6.72266C116.374 6.25781 116.57 5.85905 116.825 5.52637C117.08 5.19368 117.39 4.93392 117.755 4.74707C118.119 4.56022 118.532 4.4668 118.992 4.4668C119.288 4.4668 119.56 4.50098 119.806 4.56934C120.056 4.6377 120.282 4.73796 120.482 4.87012C120.592 4.93848 120.694 5.01823 120.79 5.10938C120.89 5.20052 120.984 5.30078 121.07 5.41016L121.132 4.60352H122.28V11.8428C122.28 12.3304 122.203 12.7633 122.048 13.1416C121.897 13.5199 121.686 13.8411 121.412 14.1055C121.134 14.3698 120.804 14.5703 120.421 14.707C120.038 14.8438 119.614 14.9121 119.149 14.9121C118.958 14.9121 118.739 14.8893 118.493 14.8438C118.247 14.8027 117.999 14.7321 117.748 14.6318C117.493 14.5361 117.247 14.4062 117.01 14.2422C116.777 14.0781 116.577 13.8753 116.408 13.6338L117.064 12.875C117.219 13.0618 117.379 13.2191 117.543 13.3467C117.707 13.4788 117.873 13.5837 118.042 13.6611C118.211 13.7386 118.379 13.7933 118.548 13.8252C118.716 13.8617 118.885 13.8799 119.054 13.8799C119.354 13.8799 119.626 13.8366 119.867 13.75C120.109 13.6634 120.316 13.5358 120.489 13.3672C120.658 13.2031 120.788 12.998 120.879 12.752C120.97 12.5059 121.016 12.2233 121.016 11.9043V11.2686C120.92 11.3779 120.817 11.4782 120.708 11.5693C120.603 11.6605 120.489 11.7402 120.366 11.8086C120.175 11.9134 119.963 11.9932 119.73 12.0479C119.498 12.1071 119.247 12.1367 118.979 12.1367C118.527 12.1367 118.119 12.041 117.755 11.8496C117.39 11.6582 117.083 11.3939 116.832 11.0566C116.577 10.7194 116.381 10.3229 116.244 9.86719C116.107 9.4069 116.039 8.91243 116.039 8.38379V8.24023ZM117.304 8.38379C117.304 8.74382 117.34 9.08561 117.413 9.40918C117.491 9.73275 117.611 10.0176 117.775 10.2637C117.935 10.5098 118.14 10.7057 118.391 10.8516C118.641 10.9928 118.942 11.0635 119.293 11.0635C119.512 11.0635 119.708 11.0384 119.881 10.9883C120.059 10.9336 120.218 10.8584 120.359 10.7627C120.496 10.667 120.619 10.5531 120.729 10.4209C120.838 10.2887 120.934 10.1429 121.016 9.9834V6.59277C120.934 6.43783 120.838 6.29655 120.729 6.16895C120.619 6.04134 120.494 5.92969 120.353 5.83398C120.211 5.74284 120.054 5.6722 119.881 5.62207C119.708 5.56738 119.516 5.54004 119.307 5.54004C118.951 5.54004 118.646 5.61296 118.391 5.75879C118.14 5.90462 117.935 6.10059 117.775 6.34668C117.611 6.59733 117.491 6.88672 117.413 7.21484C117.34 7.53841 117.304 7.88021 117.304 8.24023V8.38379ZM124.324 8.2334C124.324 7.7002 124.402 7.20573 124.557 6.75C124.712 6.28971 124.935 5.89095 125.227 5.55371C125.514 5.21647 125.865 4.95215 126.279 4.76074C126.694 4.56478 127.161 4.4668 127.681 4.4668C128.205 4.4668 128.674 4.56478 129.089 4.76074C129.508 4.95215 129.864 5.21647 130.155 5.55371C130.442 5.89095 130.663 6.28971 130.818 6.75C130.973 7.20573 131.051 7.7002 131.051 8.2334V8.38379C131.051 8.91699 130.973 9.41146 130.818 9.86719C130.663 10.3229 130.442 10.7194 130.155 11.0566C129.864 11.3939 129.51 11.6582 129.096 11.8496C128.681 12.041 128.214 12.1367 127.694 12.1367C127.17 12.1367 126.699 12.041 126.279 11.8496C125.865 11.6582 125.514 11.3939 125.227 11.0566C124.935 10.7194 124.712 10.3229 124.557 9.86719C124.402 9.41146 124.324 8.91699 124.324 8.38379V8.2334ZM125.589 8.38379C125.589 8.74837 125.632 9.09701 125.719 9.42969C125.805 9.75781 125.938 10.0472 126.115 10.2979C126.288 10.5485 126.507 10.7467 126.771 10.8926C127.036 11.0384 127.343 11.1113 127.694 11.1113C128.041 11.1113 128.344 11.0384 128.604 10.8926C128.868 10.7467 129.089 10.5485 129.267 10.2979C129.44 10.0472 129.57 9.75781 129.656 9.42969C129.743 9.09701 129.786 8.74837 129.786 8.38379V8.2334C129.786 7.87337 129.741 7.5293 129.649 7.20117C129.563 6.86849 129.433 6.57682 129.26 6.32617C129.082 6.07552 128.861 5.87728 128.597 5.73145C128.337 5.58105 128.032 5.50586 127.681 5.50586C127.33 5.50586 127.024 5.58105 126.765 5.73145C126.505 5.87728 126.288 6.07552 126.115 6.32617C125.938 6.57682 125.805 6.86849 125.719 7.20117C125.632 7.5293 125.589 7.87337 125.589 8.2334V8.38379Z" fill="#7B61FF"/>
<path d="M78.8333 30C78.8333 31.4728 80.0272 32.6667 81.5 32.6667C82.9728 32.6667 84.1667 31.4728 84.1667 30C84.1667 28.5272 82.9728 27.3333 81.5 27.3333C80.0272 27.3333 78.8333 28.5272 78.8333 30ZM81.5 30H81V54H81.5H82V30H81.5Z" fill="#7B61FF"/>
<mask id="path-8-inside-1_62572_4392" fill="white">
<path d="M17 66L17 54L146 54L146 66L17 66Z"/>
</mask>
<path d="M17 54L17 53L16 53L16 54L17 54ZM146 54L147 54L147 53L146 53L146 54ZM17 66L18 66L18 54L17 54L16 54L16 66L17 66ZM17 54L17 55L146 55L146 54L146 53L17 53L17 54ZM146 54L145 54L145 66L146 66L147 66L147 54L146 54Z" fill="#7B61FF" mask="url(#path-8-inside-1_62572_4392)"/>
</svg>
