<svg width="672" height="336" viewBox="0 0 672 336" fill="none" xmlns="http://www.w3.org/2000/svg">
<g clip-path="url(#clip0_61050_138565)">
<path d="M0 17.5839C0 7.87257 7.87258 0 17.5839 0H654.416C664.127 0 672 7.87258 672 17.5839V318.416C672 328.127 664.127 336 654.416 336H17.5839C7.87261 336 0 328.127 0 318.416V17.5839Z" fill="#F1F1F1"/>
<path d="M169.4 246.156C170.509 232.809 172.837 205.271 173.28 201.899H183.258L190.464 246.156H169.4Z" fill="white" stroke="black" stroke-width="0.999038"/>
<path d="M181.08 32.3411C181.383 33.0633 181.714 33.8787 182.039 34.6767C182.706 36.315 183.395 38.0086 183.885 39.0124L184.159 39.5755C186.345 44.0686 188.597 48.6954 192.011 52.2372C191.119 52.1485 190.256 51.8584 189.487 51.384C189.174 51.1921 188.777 51.2171 188.494 51.4477C188.21 51.6776 188.102 52.0606 188.224 52.4049C190.73 59.4637 194.687 66.0233 199.669 71.3722C200.019 71.7484 200.376 72.1331 200.597 72.535C198.881 73.0915 195.841 72.0057 194.281 71.1125C195.041 72.417 195.619 73.0726 195.874 73.6662C195.88 73.6682 195.887 73.6705 195.893 73.6725C197.995 80.1493 202.482 85.1325 206.834 89.9511L207.504 90.6921C207.623 90.8244 207.688 90.9116 207.722 90.9581C207.646 90.9908 207.521 91.0272 207.35 91.0401C205.048 91.7451 202.73 90.9391 200.231 90.2759C200.296 90.3636 200.36 90.4519 200.42 90.542C202.688 96.1665 205.195 102.798 208.386 107.985C208.755 108.585 209.173 109.135 209.612 109.655C207.967 109.53 206.337 109.237 204.747 108.782C207.407 115.459 212.096 122.235 217.032 127.513C218.161 128.723 219.433 129.72 220.662 130.685C221.735 131.529 222.756 132.33 223.697 133.263C223.641 133.287 223.576 133.306 223.508 133.316C220.494 133.734 217.183 132.745 214.38 131.659C218.382 138.268 221.338 145.729 225.526 152.243C226.886 154.359 228.506 156.619 230.535 158.17C228.808 158.329 227.014 158.04 225.328 157.324C225.043 157.203 224.713 157.245 224.467 157.434C224.222 157.623 224.096 157.93 224.14 158.237C224.583 161.374 231.88 172.748 234.07 174.717C232.661 174.707 222.422 166.524 221.178 166.325C221.178 173.338 231.414 184.934 235.567 190.734C235.534 190.734 235.501 190.735 235.468 190.735C232.39 190.735 229.678 189.379 227.111 187.84C228.657 194.159 231.21 199.993 234.07 205.845C235.673 209.121 237.582 212.702 240.406 215.253C235.398 214.929 229.808 214.148 225.561 210.829C225.261 210.595 224.843 210.585 224.533 210.805C224.222 211.026 224.094 211.425 224.217 211.785C224.895 213.77 225.896 215.647 227.146 217.294C221.426 217.69 215.66 216.16 210.76 212.93C210.476 212.742 210.106 212.74 209.821 212.926C209.534 213.11 209.384 213.448 209.437 213.784C209.847 216.369 211.061 218.826 212.802 220.696C207.033 220.477 201.256 218.304 196.668 214.576C196.382 214.344 195.98 214.321 195.669 214.516C195.358 214.713 195.204 215.084 195.29 215.443C195.789 217.555 196.432 219.64 197.207 221.659C193.11 220.497 189.428 217.806 186.939 214.105C186.779 213.868 186.512 213.726 186.226 213.725H186.22C185.931 213.727 185.662 213.875 185.505 214.116C183.105 217.795 179.528 220.575 175.534 221.91C176.144 219.49 176.491 216.816 176.567 213.937C176.577 213.592 176.379 213.275 176.066 213.132C175.753 212.989 175.384 213.045 175.129 213.277C171.725 216.371 167.905 218.807 163.757 220.531C164.06 218.517 164.229 216.474 164.258 214.44C164.264 214.055 164.014 213.714 163.646 213.603C163.278 213.493 162.88 213.639 162.674 213.964C160.568 217.261 157.316 218.975 154.956 219.831C152.215 220.826 149.291 221.205 146.643 221.386C147.737 218.89 148.315 216.156 148.323 213.393C148.324 213.043 148.113 212.727 147.789 212.594C147.466 212.459 147.095 212.537 146.849 212.787C142.568 217.149 136.651 219.784 130.736 220.029C132.253 217.911 133.373 215.477 134.007 212.895C134.092 212.554 133.937 212.21 133.651 212.005C133.366 211.8 132.962 211.803 132.664 211.991C129.745 213.85 126.989 215.606 123.727 216.279C122.061 216.622 120.355 216.812 118.658 216.844C118.5 216.827 117.811 216.762 117.256 216.693C116.643 216.617 116.126 216.557 115.689 216.513C115.997 216.188 116.307 215.867 116.613 215.549C117.77 214.348 118.967 213.106 119.983 211.792C121.345 210.028 122.376 207.694 123.286 205.635C123.517 205.11 123.744 204.596 123.97 204.103C125.165 201.508 126.261 198.818 127.23 196.105C127.73 194.703 128.206 193.267 128.643 191.84C129.174 190.112 130.221 188.878 131.174 187.308C129.191 188.162 123.806 188.556 121.864 188.34C126.631 180.372 129.918 173.956 134.321 164.038L134.751 162.962L135.655 160.951C133.432 161.774 131.103 161.993 128.868 161.584C129.141 161.208 129.432 160.841 129.732 160.462L129.963 160.171C136.764 151.541 139.199 141.832 142.465 131.659C141.106 131.983 140.852 132.101 139.003 131.756C143.718 125.832 147.932 118.099 150.951 109.84C150.982 109.834 151.012 109.827 151.043 109.821L151.597 107.933C150.357 108.277 149.059 108.397 147.78 108.263C147.802 108.238 147.826 108.213 147.848 108.187C148.1 107.908 148.344 107.635 148.54 107.375C150.191 105.181 151.733 102.854 153.124 100.459C154.57 97.9674 156.133 93.9991 156.426 91.2053L156.437 90.8837C155.351 91.125 153.839 91.5168 152.772 91.4557C152.934 91.2095 153.16 90.9566 153.408 90.6889C158.426 85.2655 161.967 78.7577 164.501 71.9089C162.788 72.3742 161.538 72.5397 160.107 72.0835C159.929 72.0259 159.82 71.9782 159.786 71.9404C159.668 71.8095 159.923 71.1863 160.519 70.5897C164.88 66.2241 168.552 60.903 171.198 55.163C171.149 54.5544 171.041 53.9381 170.853 53.3262L171.029 53.1622C170.852 53.1113 170.661 53.1121 170.482 53.1818C169.943 53.3978 169.36 53.4995 168.772 53.4668C172.472 49.9413 175.46 45.5634 177.463 40.7156L177.965 39.486C178.761 37.5196 180.085 34.254 181.08 32.3411Z" fill="white" stroke="black" stroke-width="0.999038"/>
<path d="M155.599 90.5422L160.792 88.5467L157.871 95.5308C160.359 94.5331 165.921 91.7395 168.258 88.5467L166.635 97.1937C169.881 96.4177 178.256 92.2716 179.295 87.2164" stroke="black" stroke-width="0.999038" stroke-linecap="round" stroke-linejoin="round"/>
<path d="M161.834 72.1315C163.97 71.7243 165.811 71.3116 168.07 69.756L165.264 75.9918C167.342 74.903 172.061 72.1315 174.306 69.756" stroke="black" stroke-width="0.999038" stroke-linecap="round" stroke-linejoin="round"/>
<path d="M202.99 90.8386C200.854 90.4313 199.013 90.0187 196.754 88.463L199.561 94.6988C197.482 93.61 192.764 90.8386 190.519 88.463" stroke="black" stroke-width="0.999038" stroke-linecap="round" stroke-linejoin="round"/>
<path d="M214.22 131.509L210.031 128.848L210.928 136.149C208.827 134.533 204.284 130.397 202.919 126.783L202.131 135.271C199.248 133.652 192.39 127.481 192.765 122.493" stroke="black" stroke-width="0.999038" stroke-linecap="round" stroke-linejoin="round"/>
<path d="M227.288 187.873L223.099 185.211L223.996 192.513C221.895 190.897 217.351 186.761 215.987 183.147L215.199 191.635C212.316 190.016 196.78 178.996 197.155 174.009" stroke="black" stroke-width="0.999038" stroke-linecap="round" stroke-linejoin="round"/>
<path d="M139.523 131.508C142.098 131.83 151.114 128.61 156.056 126.752L153.727 134.188C156.741 132.535 163.36 128.309 165.722 124.624L165.42 133.262C169.461 131.603 179.441 125.296 179.734 120.22" stroke="black" stroke-width="0.999038" stroke-linecap="round" stroke-linejoin="round"/>
<path d="M125.034 187.853C129.219 187.853 139.711 183.686 144.653 181.827L142.325 189.263C145.339 187.611 151.958 183.384 154.319 179.699L154.018 188.337C158.059 186.679 168.038 180.371 168.331 175.296C169.353 178.086 171.011 184.054 169.466 185.599C167.534 187.531 179.447 183.346 181.379 176.906C182.345 179.59 184.083 185.634 183.311 188.337C182.345 191.717 190.716 184.955 193.292 178.516" stroke="black" stroke-width="0.999038" stroke-linecap="round" stroke-linejoin="round"/>
<path d="M150.61 107.495L158.772 103.429L155.181 111.221C160.118 108.822 162.603 107.07 166.933 103.429L165.301 111.221C168.747 110.357 170.844 108.759 174.768 103.429C174.768 104.671 175.747 108.172 174.768 111.221C178.553 110.129 180.639 108.625 184.235 103.429C184.017 105.349 184.757 109.595 189.458 111.221L191.743 103.768L193.214 105.846C195.441 108.666 200.236 112.061 202.355 113.406L199.736 106.159L205.485 109.147" stroke="black" stroke-width="0.999038"/>
<path d="M134.396 160.926L146.66 157.566L141.122 164.722C148.736 162.518 152.568 160.91 159.246 157.566L156.729 164.722C162.043 163.928 165.278 162.46 171.329 157.566C171.329 158.707 172.839 161.922 171.329 164.722C177.166 163.719 180.383 162.338 185.929 157.566C185.593 159.329 186.734 163.229 193.984 164.722L197.508 157.877L199.776 159.786C203.211 162.376 208.65 165.799 211.918 167.034L206.427 155.733C210.097 159.126 212.207 160.971 217.086 162.758C215.489 158.985 214.896 156.755 215.794 152.068L224.192 157.261" stroke="black" stroke-width="0.999038"/>
<path d="M261.527 193.319C269.289 192.967 277.045 194.152 284.351 196.809C291.658 199.465 298.372 203.54 304.111 208.801C309.85 214.062 314.502 220.406 317.8 227.471C321.097 234.535 322.977 242.184 323.331 249.977L205.118 255.35C205.115 255.289 205.113 255.228 205.11 255.167L159.719 257.231C159.716 257.164 159.713 257.095 159.71 257.027L130.644 258.468C130.392 253.37 131.209 248.269 133.052 243.457C134.894 238.645 137.724 234.215 141.381 230.421C145.037 226.626 149.448 223.542 154.362 221.343C159.276 219.144 164.597 217.873 170.02 217.604C172.065 217.503 174.11 217.545 176.138 217.728C179.801 214.407 183.94 211.642 188.426 209.533C194.367 206.74 200.799 205.148 207.353 204.851C213.607 204.566 219.856 205.466 225.775 207.497C229.806 204.038 234.291 201.133 239.113 198.865C246.149 195.557 253.765 193.672 261.527 193.319Z" fill="#B4D5F0"/>
<path d="M299.875 213.196C304.719 212.976 309.56 213.715 314.12 215.373C318.68 217.031 322.871 219.575 326.453 222.858C330.035 226.142 332.937 230.101 334.995 234.511C337.053 238.92 338.227 243.693 338.448 248.557L264.668 251.91C264.665 251.858 264.664 251.805 264.662 251.753L243.184 252.817C242.998 249.05 243.602 245.28 244.964 241.723C246.325 238.167 248.417 234.892 251.119 232.088C253.821 229.283 257.082 227.004 260.714 225.379C264.346 223.754 268.278 222.815 272.287 222.616C273.799 222.541 275.311 222.572 276.809 222.707C279.515 220.255 282.573 218.215 285.886 216.657C290.277 214.592 295.03 213.416 299.875 213.196Z" fill="#9199D6"/>
<path d="M459.313 -29.2637L266.257 71.3183H338.886" stroke="black" stroke-width="1.12876"/>
<path d="M541.838 -25.2488L338.999 71.0552V258.764L370.054 270.453V103.576L461.704 74.9569V167.263V301.894L572.615 343.3" stroke="black" stroke-width="1.12876"/>
<path d="M440.479 -28.3647L266.258 63.3196V71.3189" stroke="black" stroke-width="1.12876"/>
<ellipse cx="109.534" cy="29.2531" rx="109.534" ry="29.2531" transform="matrix(-0.999932 0.0116713 0.0116713 0.999932 507.735 296.867)" fill="#DCDCDC" style="mix-blend-mode:darken"/>
<path d="M545.629 266.269C556.265 196.261 518.792 178.326 497.863 179.267C497.863 183.259 421.45 232.616 402.659 243.729C383.868 254.842 369.253 283.735 373.846 302.849C377.521 318.14 424.927 325.217 448.171 326.844C504.168 324.432 527.535 307.712 540.763 281.869C543.256 276.999 544.807 271.678 545.629 266.269Z" fill="#F1F1F1"/>
<path d="M490.171 259.125C495.687 258.759 521.734 245.321 527.801 221.003M497.863 179.267C518.792 178.326 556.265 196.261 545.629 266.269C544.807 271.678 543.256 276.999 540.763 281.869C527.535 307.712 504.168 324.432 448.171 326.844C424.927 325.217 377.521 318.14 373.846 302.849C369.253 283.735 383.868 254.842 402.659 243.729C421.45 232.616 497.863 183.259 497.863 179.267Z" stroke="black" stroke-width="1.12876"/>
<path d="M387.592 329.886L401.913 312.131L385.032 309.089L372.492 329.886H387.592Z" fill="white" stroke="black" stroke-width="1.12876"/>
<path d="M358.903 323.569L370.057 307.236L354.285 304.229L344.833 325.402L358.903 323.569Z" fill="white" stroke="black" stroke-width="1.12876"/>
<path d="M427.164 265.895C458.758 260.372 468.472 253.661 469.38 250.996C464.477 225.122 442.144 222.046 431.59 223.742L387.19 245.745C385.059 246.801 383.273 248.444 382.043 250.479L343.073 314.953H350.563H367.868C412.754 263.73 402.425 286.124 416.27 272.8L427.164 265.895Z" fill="black"/>
<path d="M345.174 315.303C347.045 315.284 348.816 315.291 350.563 315.312C355.658 315.373 360.557 315.548 367.21 315.513C367.435 315.512 367.654 315.51 367.868 315.509L368.119 315.51L368.287 315.32C373.801 308.985 374.672 307.706 381.449 300.412C388.408 292.924 395.663 285.711 399.308 283.047C403.025 280.485 403.068 279.58 409.386 278.018C412.64 276.8 414.555 274.78 416.47 273.008L416.424 273.043C418.439 271.753 420.384 270.492 422.663 269.007C423.75 268.299 425.359 267.261 427.257 266.042L427.194 266.066C434.686 264.777 445.853 262.191 450.515 260.788C456.615 259.093 463.379 256.32 466.888 253.732C467.997 252.926 468.772 252.175 469.191 251.463C469.36 251.17 469.391 250.992 469.377 250.995C469.377 250.995 469.377 250.995 469.377 250.995C469.36 250.985 469.282 251.217 469.03 251.581C467.755 253.329 464.876 254.996 461.436 256.5C454.87 259.127 454.165 259.503 444.915 261.954C438.23 263.597 433.443 264.468 427.11 265.584L426.995 265.628C424.88 266.964 422.578 268.43 419.916 270.143C418.514 271.045 417.268 271.838 416.119 272.562L416.075 272.597C411.01 279.081 404.666 275.741 394.953 285.791C383.49 296.911 382.366 298.062 371.648 309.827C370.316 311.317 368.933 312.88 367.444 314.581L367.868 314.389C362.17 314.392 356.207 314.415 350.563 314.442C347.981 314.454 345.466 314.467 343.073 314.478L343.479 315.199C346.405 310.303 348.976 306.006 350.822 302.964C355.776 294.798 362.446 283.839 369.412 272.228C373.354 265.656 377.866 258.24 382.43 250.713C383.607 248.766 385.354 247.162 387.394 246.155C391.327 244.207 395.23 242.264 399 240.371C408.994 235.351 422.085 228.783 431.694 223.952L431.627 223.974C435.159 223.4 438.371 223.521 440.793 223.771C450.305 225.311 452.965 226.35 459.96 232.448C463.904 236.153 467.508 242.884 468.906 249.003C469.606 252.088 469.562 251.353 468.863 248.254C467.769 243.696 466.026 240.245 464.839 238.149C462.362 234.063 461.074 232.213 456.071 228.713C450.885 225.49 448.045 224.634 444.586 223.815C441.758 223.486 441.226 222.499 431.541 223.438L431.453 223.466C429.432 224.463 426.96 225.677 423.904 227.172C407.793 235.053 398.973 239.398 392.877 242.394C391.298 243.17 389.278 244.174 386.98 245.32C384.959 246.319 382.994 248.004 381.656 250.245C378.581 255.371 375.172 261.047 372.169 265.978C366.41 275.432 354.799 294.709 350.054 302.441C345.811 309.354 345.446 310.154 342.751 314.759L342.406 315.327L343.073 315.329C343.704 315.32 344.398 315.311 345.174 315.303Z" fill="black"/>
<path d="M461.23 266.449C493.142 260.854 502.954 254.056 503.871 251.356C498.919 225.145 476.361 222.029 465.7 223.747L420.548 246.188C418.588 247.162 416.919 248.633 415.706 250.455L371.477 316.883L396.236 318.724C405.865 314.895 436.241 286.942 450.226 273.444L461.23 266.449Z" fill="black" stroke="black" stroke-width="1.12876"/>
<path d="M371.307 316.934L415.992 250.569C416.429 249.92 417.022 249.39 417.715 249.028L446.743 233.864" stroke="white" stroke-width="1.12862" stroke-linecap="round"/>
<path d="M470.393 156.915C460.82 151.645 459.794 147.743 460.478 146.452C466.683 119.523 442.269 116.518 440.218 135.894C438.167 155.27 448.854 151.102 450.222 154.59C451.316 157.38 448.398 159.111 446.803 159.628C446.119 159.111 444.615 159.628 444.068 165.828C443.384 173.578 455.692 175.128 462.187 172.416C467.384 170.246 469.823 161.178 470.393 156.915Z" fill="white" stroke="black" stroke-width="1.12876"/>
<path d="M361.469 321.674L343.768 318.525L342.783 320.23C337.016 322.773 324.64 328.607 321.274 331.596C317.908 334.585 320.577 336.536 322.332 337.137L360.372 340.866L361.469 321.674Z" fill="#B4D5F0"/>
<path d="M322.595 331.831L358.239 336.001M343.768 318.525L361.469 321.674L360.372 340.866L322.332 337.137C320.577 336.536 317.908 334.585 321.274 331.596C324.64 328.607 337.016 322.773 342.783 320.23L343.768 318.525Z" stroke="black" stroke-width="1.12876"/>
<path d="M391.439 328.044L372.36 324.65L371.317 326.379C365.138 328.913 351.882 334.733 348.29 337.747C344.699 340.761 347.591 342.777 349.486 343.409L390.456 347.605L391.439 328.044Z" fill="#B4D5F0"/>
<path d="M349.714 338L388.11 342.622M372.36 324.65L391.439 328.044L390.456 347.605L349.486 343.409C347.591 342.777 344.699 340.761 348.29 337.747C351.882 334.733 365.138 328.913 371.317 326.379L372.36 324.65Z" stroke="black" stroke-width="1.12876"/>
<path d="M513.504 238.377C513.074 177.309 484.434 157.895 469.605 155.894C467.287 160.912 460.703 170.579 452.914 169.11C445.125 167.642 447.35 160.667 449.437 157.363C447.582 156.873 441.647 157.657 432.746 164.705C423.844 171.754 411.186 209.982 405.97 228.216L460.564 228.95H474.821C494.989 232.254 500.205 250.977 502.639 251.711C503.549 251.985 505.355 251.202 507.305 250.064C511.378 247.688 513.537 243.092 513.504 238.377Z" fill="#006DCC"/>
<path d="M440.303 142.908C429.961 124.835 440.965 116.346 450.083 121.766C450.477 120.33 452.482 119.414 457.281 120.82C463.279 122.577 464.722 133.083 464.668 135.912C464.625 138.175 462.313 137.423 461.162 136.765C462.273 147.434 457.47 151.605 454.93 152.357C444.376 157.822 441.081 148.355 440.753 142.939C441.699 145.604 445.331 145.98 447.029 145.835C463.288 145.497 458.574 126.134 454.405 130.366C451.07 133.752 444.354 132.812 441.413 131.92C442.245 135.337 440.696 138.127 440.807 140.11C440.897 141.697 440.801 142.921 440.303 142.908Z" fill="black"/>
<path d="M436.916 186.839L441.988 210.173" stroke="black" stroke-width="1.12876"/>
<path d="M467.854 180.243L457.217 210.661L421.187 212.201" stroke="black" stroke-width="1.12876"/>
<path d="M493.724 195.966C492.159 205.225 486.012 224.679 473.941 228.431" stroke="black" stroke-width="1.12876"/>
<path d="M464.145 140.006C464.504 137.496 461.893 138.04 460.543 138.625L459.903 144.898C461.966 145.936 463.698 143.143 464.145 140.006Z" fill="white" stroke="black" stroke-width="1.12876"/>
<path d="M462.685 241.75H453.713H441.075L423.846 200.721C423.224 199.239 421.774 198.275 420.166 198.275H368.802C367.102 198.275 365.943 199.997 366.583 201.572L385.201 247.386C385.446 247.988 386.031 248.382 386.68 248.382H462.685C464.516 248.382 466.001 246.897 466.001 245.066C466.001 243.234 464.516 241.75 462.685 241.75Z" fill="#F7F7FF" stroke="black" stroke-width="1.14066"/>
<path d="M98.2962 261.062L338.261 248.486" stroke="black" stroke-width="1.17565"/>
</g>
<defs>
<clipPath id="clip0_61050_138565">
<path d="M0 17.5839C0 7.87257 7.87258 0 17.5839 0H654.416C664.127 0 672 7.87258 672 17.5839V318.416C672 328.127 664.127 336 654.416 336H17.5839C7.87261 336 0 328.127 0 318.416V17.5839Z" fill="white"/>
</clipPath>
</defs>
</svg>
